<?xml version="1.0" standalone="no"?>
<!DOCTYPE svg PUBLIC "-//W3C//DTD SVG 1.1//EN" "http://www.w3.org/Graphics/SVG/1.1/DTD/svg11.dtd" >
<svg xmlns="http://www.w3.org/2000/svg">
<metadata></metadata>
<defs>
<font id="bliss_probold" horiz-adv-x="1110" >
<font-face units-per-em="2048" ascent="1638" descent="-410" />
<missing-glyph horiz-adv-x="442" />
<glyph unicode="fi" horiz-adv-x="1196" d="M49 778v191h144v135q0 167 89 256.5t240 89.5q111 0 203 -43l-49 -195q-79 27 -119 27q-119 0 -119 -133v-137h252l-59 -191h-193v-778h-245v778h-144zM803 1272q0 62 42.5 104.5t106.5 42.5q65 0 108.5 -42t43.5 -105q0 -60 -44 -103t-108 -43t-106.5 42t-42.5 104z M829 0v969h246v-969h-246z" />
<glyph unicode="fl" horiz-adv-x="1292" d="M49 778v191h144v135q0 167 89 256.5t240 89.5q111 0 203 -43l-49 -195q-79 27 -119 27q-119 0 -119 -133v-137h252l-59 -191h-193v-778h-245v778h-144zM834 219v1231h243v-1165q0 -49 18 -68.5t54 -19.5q31 0 61 12l47 -189q-78 -34 -180 -34q-243 0 -243 233z" />
<glyph unicode=" "  horiz-adv-x="442" />
<glyph unicode="&#x09;" horiz-adv-x="442" />
<glyph unicode="&#xa0;" horiz-adv-x="442" />
<glyph unicode="!" horiz-adv-x="550" d="M139 123q0 60 39 99.5t96 39.5q58 0 98 -40t40 -99q0 -60 -40.5 -100.5t-97.5 -40.5t-96 40.5t-39 100.5zM154 1253v97h243v-99q0 -386 -9 -535t-42 -319h-143q-32 171 -40.5 321t-8.5 535z" />
<glyph unicode="&#x22;" horiz-adv-x="808" d="M106 1450h230l-23 -479h-180zM477 1450h228l-21 -479h-182z" />
<glyph unicode="#" horiz-adv-x="1464" d="M88 340v190h266l62 289h-226v191h269l73 340h230l-74 -340h230l73 340h232l-74 -340h225v-191h-266l-64 -289h228v-190h-268l-72 -340h-232l74 340h-231l-72 -340h-231l73 340h-225zM584 530h231l62 289h-230z" />
<glyph unicode="$" horiz-adv-x="1116" d="M125 143l96 183q149 -97 283 -97q56 0 100 12t75.5 46t31.5 86q0 48 -30.5 88t-78.5 70t-106.5 60t-117.5 66t-107 78.5t-78.5 106.5t-30.5 143q0 126 82 221.5t233 114.5v201h178v-197q140 -15 238 -68v-204q-161 82 -305 82q-80 0 -127 -34t-47 -97q0 -41 23.5 -77 t62 -61.5t87.5 -53t100.5 -52.5t100.5 -60.5t87.5 -75.5t62 -98.5t23.5 -128.5q0 -145 -92 -240t-259 -120v-213h-178v211q-169 18 -307 108z" />
<glyph unicode="%" horiz-adv-x="1820" d="M111 1001q0 175 91 268t236 93t236.5 -93t91.5 -268q0 -176 -91.5 -269t-236.5 -93t-236 93t-91 269zM303 1001q0 -98 34.5 -156.5t100.5 -58.5q65 0 99 58t34 157q0 98 -33.5 155.5t-99.5 57.5t-100.5 -57.5t-34.5 -155.5zM383 0l852 1350h199l-850 -1350h-201z M1055 342q0 175 91 267.5t236 92.5t236.5 -92.5t91.5 -267.5q0 -176 -91.5 -269t-236.5 -93t-236 93t-91 269zM1247 342q0 -98 34.5 -156.5t100.5 -58.5t100 58t34 157q0 98 -34 155.5t-100 57.5t-100.5 -57.5t-34.5 -155.5z" />
<glyph unicode="&#x26;" horiz-adv-x="1562" d="M111 373q0 250 280 381q-42 48 -62 73t-45.5 65t-35.5 79.5t-10 85.5q0 128 107 216.5t288 88.5t287 -85.5t106 -221.5q0 -208 -274 -348q129 -143 282 -289q121 129 170 291l207 -52q-75 -229 -219 -376q59 -50 108 -74.5t107 -24.5q27 0 55 8l45 -180q-56 -22 -139 -22 q-170 0 -350 147q-199 -155 -457 -155q-201 0 -325.5 110.5t-124.5 282.5zM362 389q0 -93 66 -153t170 -60q136 0 256 94q-163 147 -332 338q-81 -42 -120.5 -94.5t-39.5 -124.5zM489 1063q0 -88 123 -211q81 42 123.5 95.5t42.5 109.5q0 52 -37.5 90.5t-109.5 38.5 q-69 0 -105.5 -36t-36.5 -87z" />
<glyph unicode="'" horiz-adv-x="440" d="M106 1450h228l-21 -479h-182z" />
<glyph unicode="(" horiz-adv-x="712" d="M150 549q0 156 15 285t52.5 261.5t107.5 255.5t173 236l164 -123q-140 -177 -198 -378.5t-58 -536.5q0 -336 57.5 -536t195.5 -373l-161 -123q-103 111 -173 233t-107.5 254t-52.5 260.5t-15 284.5z" />
<glyph unicode=")" horiz-adv-x="712" d="M51 1464l164 123q103 -113 173 -236t107.5 -255.5t52.5 -261.5t15 -285t-15 -284.5t-52.5 -260.5t-107.5 -254t-173 -233l-162 123q139 172 196.5 372t57.5 537t-57.5 537.5t-198.5 377.5z" />
<glyph unicode="*" horiz-adv-x="999" d="M111 950q58 37 176.5 76.5t132.5 46.5q-7 3 -128 44.5t-179 78.5l88 152q45 -22 94.5 -62.5t96 -84t67.5 -58.5q-1 15 -25.5 136.5t-19.5 190.5h174q5 -67 -20.5 -188t-26.5 -139q2 1 100.5 87t161.5 118l86 -154q-56 -37 -175 -75.5t-134 -45.5q14 -7 132.5 -46.5 t176.5 -76.5l-88 -153q-46 23 -96.5 64t-97 84t-68.5 59q3 -26 17 -88t24 -125t6 -115h-174q-3 67 21 187t26 143q-19 -15 -67 -59.5t-97.5 -84.5t-95.5 -63z" />
<glyph unicode="+" horiz-adv-x="1126" d="M82 412v202h367v402h227v-402h371v-202h-371v-412h-227v412h-367z" />
<glyph unicode="," horiz-adv-x="538" d="M70 -250q94 160 94 318q0 64 -12 135l225 39q14 -60 14 -129q0 -233 -180 -430z" />
<glyph unicode="-" horiz-adv-x="749" d="M106 406v204h539v-204h-539z" />
<glyph unicode="." horiz-adv-x="538" d="M133 123q0 59 39.5 99t95.5 40q58 0 98 -40t40 -99q0 -60 -40.5 -100.5t-97.5 -40.5q-56 0 -95.5 40.5t-39.5 100.5z" />
<glyph unicode="/" horiz-adv-x="813" d="M27 -72l516 1497h243l-516 -1497h-243z" />
<glyph unicode="0" horiz-adv-x="1171" d="M98 672q0 334 129.5 512t358.5 178t358 -178t129 -512q0 -335 -129 -513.5t-358 -178.5t-358.5 178.5t-129.5 513.5zM358 672q0 -244 54 -365t174 -121t173.5 121t53.5 365q0 243 -53.5 363t-173.5 120t-174 -120t-54 -363z" />
<glyph unicode="1" horiz-adv-x="911" d="M61 1155l451 205h186v-1360h-241v1106l-314 -141z" />
<glyph unicode="2" horiz-adv-x="1099" d="M57 0q9 109 37.5 203t69 162.5t91 127t104 103t106 83.5t99.5 73.5t83 69t57 75.5t21 86q0 88 -59.5 130t-149.5 42q-156 0 -348 -92l-66 190q228 109 451 109q211 0 321.5 -97t110.5 -257q0 -78 -29 -146.5t-77 -120.5t-106.5 -100t-121 -95t-117 -95t-97.5 -110.5 t-60 -131.5h620v-209h-940z" />
<glyph unicode="3" horiz-adv-x="1138" d="M68 55l69 195q143 -64 301 -64q151 0 228 53t77 156q0 133 -141 170q-61 17 -166 17h-178v196h143q301 0 301 197q0 84 -52 132t-154 48q-153 0 -326 -92l-66 190q210 109 422 109q109 0 194.5 -29.5t137.5 -81t78.5 -115.5t26.5 -137q0 -205 -207 -292v-5 q117 -23 182.5 -103.5t65.5 -199.5q0 -90 -33.5 -165t-99 -132.5t-172 -89.5t-244.5 -32q-218 0 -387 75z" />
<glyph unicode="4" horiz-adv-x="1204" d="M80 330v164l668 866h176v-830h200v-200h-200v-330h-242v330h-602zM352 526q13 0 78 2t92 2h160v193q0 49 2.5 102.5t6 105.5t3.5 56z" />
<glyph unicode="5" horiz-adv-x="1083" d="M70 53l67 193q130 -60 271 -60q135 0 219 59.5t84 174.5q0 140 -125 188q-77 31 -246 31h-168v711h809l-61 -209h-508v-307h53q152 0 258 -41q122 -49 185 -145t63 -214q0 -97 -32.5 -177.5t-98 -143.5t-174 -98t-250.5 -35q-203 0 -346 73z" />
<glyph unicode="6" horiz-adv-x="1157" d="M98 618q0 156 42.5 292t119.5 236t193 158t256 58q165 0 301 -64l-64 -190q-107 55 -225 55q-144 0 -244 -99.5t-125 -297.5q146 98 318 98q175 0 292 -112.5t117 -305.5q0 -213 -131.5 -339.5t-337.5 -126.5q-108 0 -199 38.5t-162 114.5t-111 200.5t-40 284.5zM358 571 q4 -188 76.5 -290.5t179.5 -102.5q99 0 152 62t53 172q0 120 -58.5 186t-156.5 66q-62 0 -131.5 -27.5t-114.5 -65.5z" />
<glyph unicode="7" horiz-adv-x="1021" d="M33 1350h958v-86q-429 -498 -575 -1264h-258q74 361 207 649.5t290 491.5h-561z" />
<glyph unicode="8" horiz-adv-x="1175" d="M98 354q0 118 65 206.5t171 133.5v4q-42 24 -74.5 49t-62 60.5t-45 83t-15.5 104.5q0 160 124.5 263.5t334.5 103.5q104 0 188.5 -29.5t137.5 -78.5t81.5 -111t28.5 -129q0 -200 -205 -307v-5q250 -97 250 -325q0 -176 -129.5 -286.5t-367.5 -110.5q-228 0 -355 102 t-127 272zM358 381q0 -101 68 -156t168 -55q97 0 161 49.5t64 136.5q0 33 -10 61.5t-24 49t-41 40t-47.5 31t-57 25t-56.5 20t-59 17.5q-68 -28 -117 -85t-49 -134zM395 1006q0 -47 19 -83t56 -61t73.5 -40.5t89.5 -30.5q141 74 141 200q0 77 -51.5 128.5t-140.5 51.5 q-83 0 -135 -46.5t-52 -118.5z" />
<glyph unicode="9" horiz-adv-x="1144" d="M78 897q0 209 131 337t336 128q230 0 366 -159t136 -478q0 -357 -155 -551t-456 -194q-178 0 -321 67l61 197q129 -66 256 -66q316 0 356 397h-2q-126 -96 -294 -96q-83 0 -156 24.5t-131.5 74t-92.5 131.5t-34 188zM332 918q0 -114 56 -177t159 -63q70 0 136.5 33.5 t109.5 81.5q-2 165 -71 267.5t-183 102.5q-95 0 -151 -67t-56 -178z" />
<glyph unicode=":" horiz-adv-x="538" d="M133 123q0 59 39.5 99t95.5 40q58 0 98 -40t40 -99q0 -60 -40.5 -100.5t-97.5 -40.5q-56 0 -95.5 40.5t-39.5 100.5zM133 782q0 60 39.5 101t95.5 41q57 0 97.5 -41t40.5 -101q0 -58 -40.5 -98.5t-97.5 -40.5q-56 0 -95.5 40.5t-39.5 98.5z" />
<glyph unicode=";" horiz-adv-x="538" d="M70 -250q94 160 94 318q0 64 -12 135l225 39q14 -60 14 -129q0 -233 -180 -430zM117 782q0 60 39 101t96 41t97 -41t40 -101q0 -58 -40 -98.5t-97 -40.5t-96 40t-39 99z" />
<glyph unicode="&#x3c;" horiz-adv-x="1112" d="M94 436v193l877 362v-207l-664 -249v-5l664 -249v-207z" />
<glyph unicode="=" horiz-adv-x="1126" d="M82 203v203h965v-203h-965zM82 616v203h965v-203h-965z" />
<glyph unicode="&#x3e;" horiz-adv-x="1112" d="M141 74v207l664 249v5l-664 249v207l877 -362v-193z" />
<glyph unicode="?" horiz-adv-x="987" d="M82 1198q189 164 412 164q179 0 275.5 -83.5t96.5 -215.5q0 -57 -22.5 -108t-58 -89t-78.5 -71.5t-86.5 -62.5t-79 -57t-58 -59.5t-22.5 -64.5q0 -44 28 -82l-206 -76q-64 76 -64 172q0 57 28 107.5t69.5 85t90 70t90 64t69.5 66.5t28 78q0 57 -37.5 88t-103.5 31 q-131 0 -260 -115zM262 123q0 60 39 99.5t96 39.5q58 0 98 -40t40 -99q0 -60 -40.5 -100.5t-97.5 -40.5t-96 40.5t-39 100.5z" />
<glyph unicode="@" horiz-adv-x="1591" d="M68 391q0 176 60.5 323.5t164 245.5t241.5 152.5t293 54.5q201 0 359 -79t248 -228.5t90 -347.5q0 -220 -95 -336.5t-253 -116.5q-84 0 -139 43t-72 125h-2q-31 -64 -109.5 -115t-177.5 -51q-40 0 -78 10.5t-75 35t-64.5 61t-44.5 93t-17 126.5q0 200 126.5 328.5 t318.5 128.5q173 0 315 -86l-41 -318q-10 -72 -10 -112q0 -125 88 -125q77 0 122.5 79.5t45.5 215.5q0 109 -32.5 203t-97 167.5t-169.5 115.5t-240 42q-123 0 -231 -43t-188 -122t-126.5 -197.5t-46.5 -260.5q0 -132 38.5 -237t106 -172.5t156.5 -103t193 -35.5 q162 0 270 51l43 -137q-147 -56 -329 -56q-184 0 -329 82.5t-228.5 237.5t-83.5 358zM594 393q0 -182 127 -182q78 0 138 75t79 230l18 146q-53 32 -118 32q-103 0 -173.5 -82.5t-70.5 -218.5z" />
<glyph unicode="A" horiz-adv-x="1294" d="M16 0l523 1356h196l543 -1356h-266l-131 338h-482l-127 -338h-256zM471 539h334l-94 268q-46 128 -68 209h-4q-13 -50 -70 -211z" />
<glyph unicode="B" horiz-adv-x="1161" d="M164 0v1350h395q204 0 312 -99.5t108 -242.5q0 -90 -43 -165t-121 -114v-4q118 -29 186 -117.5t68 -208.5q0 -80 -30.5 -151t-88 -126.5t-149 -88.5t-205.5 -33h-432zM410 203h157q252 0 252 196q0 86 -61 135.5t-164 49.5h-184v-381zM410 786h116q100 0 154.5 50 t54.5 131q0 80 -53 130t-158 50h-114v-361z" />
<glyph unicode="C" horiz-adv-x="1284" d="M106 659q0 146 51 274.5t142 223.5t226 150t294 55q205 0 355 -66v-229q-166 88 -349 88q-144 0 -249.5 -68t-156 -177t-50.5 -244q0 -215 121.5 -347.5t326.5 -132.5q166 0 332 95l68 -195q-194 -106 -429 -106q-163 0 -292.5 50.5t-214.5 141t-130 214.5t-45 273z" />
<glyph unicode="D" horiz-adv-x="1425" d="M164 0v1350h420q351 0 544 -180.5t193 -485.5q0 -310 -205.5 -497t-554.5 -187h-397zM410 209h155q129 0 226 37.5t154 103.5t84.5 148.5t27.5 181.5q0 217 -126.5 339t-369.5 122h-151v-932z" />
<glyph unicode="E" horiz-adv-x="1028" d="M164 0v1350h745l-67 -209h-432v-353h432v-208h-432v-371h501v-209h-747z" />
<glyph unicode="F" horiz-adv-x="983" d="M164 0v1350h751l-67 -209h-438v-353h430v-208h-430v-580h-246z" />
<glyph unicode="G" horiz-adv-x="1449" d="M106 651q0 153 53.5 284t149 225.5t234.5 148t305 53.5q204 0 391 -68v-229q-180 90 -373 90q-239 0 -368 -133t-129 -354t122 -351.5t338 -130.5q139 0 226 41v428h248v-567q-97 -48 -227 -78t-265 -30q-163 0 -296.5 50.5t-222.5 140t-137.5 212.5t-48.5 268z" />
<glyph unicode="H" horiz-adv-x="1464" d="M164 0v1350h246v-557h645v557h248v-1350h-248v584h-645v-584h-246z" />
<glyph unicode="I" horiz-adv-x="573" d="M164 0v1350h246v-1350h-246z" />
<glyph unicode="J" horiz-adv-x="673" d="M-63 -346l49 199q51 -25 123 -25q49 0 81.5 15t47.5 44.5t20.5 61.5t5.5 78v1323h246v-1356q0 -170 -94 -271.5t-287 -101.5q-105 0 -192 33z" />
<glyph unicode="K" horiz-adv-x="1226" d="M164 0v1350h246v-576h6l463 576h284l-542 -656l573 -694h-301l-477 592h-6v-592h-246z" />
<glyph unicode="L" horiz-adv-x="925" d="M164 0v1350h246v-1141h479v-209h-725z" />
<glyph unicode="M" horiz-adv-x="1681" d="M164 0v1350h223l354 -510q87 -130 113 -174h4q53 93 111 182l323 502h226v-1350h-248v762q0 125 4 178h-4q-23 -50 -92 -152l-267 -413h-112l-295 424q-73 103 -92 139h-4q2 -53 2 -170v-768h-246z" />
<glyph unicode="N" horiz-adv-x="1533" d="M164 0v1350h244l565 -740q110 -150 149 -209h4q-4 144 -4 228v721h248v-1350h-223l-586 770q-26 34 -52.5 70t-55 75.5t-43.5 59.5h-4q4 -53 4 -209v-766h-246z" />
<glyph unicode="O" horiz-adv-x="1572" d="M106 670q0 202 86.5 360t241.5 245t352 87t352 -87.5t241.5 -245.5t86.5 -359q0 -204 -88 -361.5t-242.5 -243t-349.5 -85.5q-197 0 -351.5 85.5t-241.5 243t-87 361.5zM369 670q0 -226 113.5 -355t303.5 -129q189 0 303.5 129t114.5 355q0 224 -113 354.5t-305 130.5 q-190 0 -303.5 -129t-113.5 -356z" />
<glyph unicode="P" horiz-adv-x="1116" d="M164 0v1350h325q185 0 304 -58q106 -53 162.5 -151t56.5 -234q0 -128 -62 -234t-196 -161q-120 -47 -287 -47h-57v-465h-246zM410 666h73q99 0 158 30q113 55 113 211q0 143 -107 207q-59 35 -168 35h-69v-483z" />
<glyph unicode="Q" horiz-adv-x="1572" d="M106 670q0 202 86.5 360t241.5 245t352 87t352 -87.5t241.5 -245.5t86.5 -359q0 -278 -156 -461t-411 -217q104 -119 275 -119q73 0 135 23l57 -189q-87 -41 -221 -41q-96 0 -180.5 26t-153 75t-122.5 106.5t-105 132.5q-218 58 -348 235t-130 429zM369 670 q0 -226 113.5 -355t303.5 -129q189 0 303.5 129t114.5 355q0 224 -113 354.5t-305 130.5q-190 0 -303.5 -129t-113.5 -356z" />
<glyph unicode="R" horiz-adv-x="1206" d="M164 0v1350h368q174 0 289 -56q103 -49 152 -135t49 -194q0 -131 -71.5 -221t-192.5 -128v-4q59 -33 168 -219l225 -393h-283l-194 342q-93 171 -148 184h-116v-526h-246zM410 727h110q88 0 150 35q94 54 94 178q0 55 -23 99.5t-67 70.5q-56 39 -152 39h-112v-422z" />
<glyph unicode="S" horiz-adv-x="1091" d="M98 96l97 189q144 -99 305 -99q60 0 109 15t82.5 52t33.5 93q0 47 -25 86.5t-66 67t-93.5 57t-107.5 55.5t-107.5 62.5t-93.5 77.5t-66 102t-25 135q0 75 29.5 142t84 119t139 82t186.5 30q193 0 329 -68v-225q-166 86 -321 86q-80 0 -132.5 -34.5t-52.5 -110.5 q0 -39 20 -73t54 -59.5t77.5 -49t92 -48t97 -51t92 -61t77.5 -76t54 -99.5t20 -126q0 -177 -135 -282t-346 -105q-117 0 -224 30.5t-184 85.5z" />
<glyph unicode="T" horiz-adv-x="1097" d="M29 1141v209h1067l-68 -209h-360v-1141h-246v1141h-393z" />
<glyph unicode="U" horiz-adv-x="1425" d="M154 504v846h245v-830q0 -109 37 -182q36 -73 106.5 -112.5t170.5 -39.5t170 39.5t106 112.5q37 73 37 184v828h246v-846q0 -162 -51 -264q-126 -260 -508 -260q-386 0 -508 262q-51 102 -51 262z" />
<glyph unicode="V" horiz-adv-x="1329" d="M14 1350h269l282 -734q23 -62 60 -164.5t39 -109.5h4q64 184 100 276l281 732h266l-547 -1358h-207z" />
<glyph unicode="W" horiz-adv-x="1933" d="M14 1350h279l248 -777q9 -28 65 -227h4q29 105 70 225l182 543l-84 236h250l260 -764q56 -157 76 -238h6q40 162 62 234l233 768h254l-455 -1358h-209l-202 571q-57 158 -74 225h-6q-26 -96 -72 -223l-205 -573h-204z" />
<glyph unicode="X" horiz-adv-x="1296" d="M23 0l483 678l-445 672h279l319 -486l342 486h271l-473 -666l452 -684h-274l-332 498l-352 -498h-270z" />
<glyph unicode="Y" horiz-adv-x="1200" d="M14 1350h271l315 -596h4l314 596h266l-461 -818v-532h-248v535z" />
<glyph unicode="Z" horiz-adv-x="1167" d="M53 0l670 1141h-576l-63 209h1030l-657 -1141h663v-209h-1067z" />
<glyph unicode="[" horiz-adv-x="622" d="M139 -481v2064h436v-186h-206v-1692h206v-186h-436z" />
<glyph unicode="\" horiz-adv-x="821" d="M29 1425h245l517 -1497h-244z" />
<glyph unicode="]" horiz-adv-x="622" d="M47 -295h207v1692h-207v186h438v-2064h-438v186z" />
<glyph unicode="^" horiz-adv-x="1067" d="M119 588l313 762h201l313 -762h-205l-206 549h-5l-204 -549h-207z" />
<glyph unicode="_" horiz-adv-x="905" d="M0 -135h905v-131h-905v131z" />
<glyph unicode="`" horiz-adv-x="786" d="M131 1389h266l119 -302h-186z" />
<glyph unicode="a" horiz-adv-x="1007" d="M68 289q0 181 163 264q95 49 250 55l166 6v31q0 82 -49 122t-137 40q-125 0 -254 -68l-80 158q175 96 375 96q389 0 389 -352v-393q0 -182 18 -248h-204l-37 92q-124 -112 -279 -112q-140 0 -230.5 85.5t-90.5 223.5zM315 305q0 -63 38.5 -98t105.5 -35q100 0 188 72v207 l-131 -5q-91 -3 -141 -30q-60 -34 -60 -111z" />
<glyph unicode="b" horiz-adv-x="1091" d="M125 47v1403h244v-485q96 28 188 28q97 0 181.5 -32t147.5 -91t99.5 -150.5t36.5 -203.5q0 -166 -76.5 -289t-207 -185t-296.5 -62q-189 0 -317 67zM369 199q55 -17 112 -17q131 0 210 88.5t79 231.5q0 130 -68 209.5t-186 79.5q-67 0 -147 -31v-561z" />
<glyph unicode="c" horiz-adv-x="917" d="M72 477q0 224 147 370t365 146q160 0 260 -65v-207q-105 76 -236 76q-132 0 -209 -88.5t-77 -225.5q0 -147 73.5 -227t200.5 -80q104 0 225 66l72 -168q-62 -42 -149 -68t-183 -26q-153 0 -265.5 66t-168 177.5t-55.5 253.5z" />
<glyph unicode="d" horiz-adv-x="1101" d="M72 475q0 229 149 373.5t381 144.5q72 0 131 -12v469h246v-1399q-70 -34 -166.5 -52.5t-189.5 -18.5q-159 0 -282.5 56.5t-196 169.5t-72.5 269zM322 479q0 -139 81 -218t215 -79q68 0 115 17v579q-69 15 -117 15q-130 0 -212 -84t-82 -230z" />
<glyph unicode="e" horiz-adv-x="1009" d="M74 483q0 224 117 367t319 143q203 0 316.5 -137.5t113.5 -380.5v-57h-621q5 -113 79.5 -179.5t195.5 -66.5q126 0 244 66l73 -168q-146 -90 -342 -90q-103 0 -186.5 27.5t-140 74t-95 111t-56 137t-17.5 153.5zM317 588h375q-2 92 -48.5 155.5t-137.5 63.5 q-87 0 -137 -63t-52 -156z" />
<glyph unicode="f" horiz-adv-x="708" d="M49 778v191h144v135q0 167 89 256.5t240 89.5q111 0 203 -43l-49 -195q-79 27 -119 27q-119 0 -119 -133v-137h252l-59 -191h-193v-778h-245v778h-144z" />
<glyph unicode="g" horiz-adv-x="1032" d="M29 -201q0 77 48 138.5t126 95.5q-64 39 -64 121q0 45 29.5 93.5t87.5 88.5q-76 44 -119 124t-43 177q0 68 25 131t72.5 113.5t125 81t172.5 30.5q120 0 193 -43q13 -5 25 4q42 42 95.5 63t137.5 21q38 0 66 -4l-50 -176q-38 10 -71 10q-45 0 -72 -16q86 -92 86 -229 q0 -162 -111.5 -260.5t-289.5 -98.5q-63 0 -119 17q-25 -43 -25 -72q0 -35 35 -56t91.5 -31.5t124 -19t135.5 -24.5t124.5 -41.5t91.5 -77t35 -125.5q0 -138 -134.5 -228.5t-377.5 -90.5q-210 0 -330 78t-120 206zM248 -158q0 -72 71 -113.5t193 -41.5q110 0 178 33t68 87 q0 39 -31.5 65t-84 38t-107 19.5t-115 17t-94.5 22.5q-78 -58 -78 -127zM326 629q0 -76 45.5 -128t124.5 -52q76 0 124 46.5t48 131.5q0 75 -47.5 128.5t-126.5 53.5q-74 0 -121 -47.5t-47 -132.5z" />
<glyph unicode="h" horiz-adv-x="1112" d="M125 0v1450h244v-588q156 131 321 131q62 0 114 -17t97.5 -55t71.5 -109.5t26 -170.5v-641h-243v565q0 102 -32 158.5t-118 56.5q-113 0 -237 -102v-678h-244z" />
<glyph unicode="i" horiz-adv-x="487" d="M94 1272q0 62 43 104.5t107 42.5q65 0 108 -42t43 -105q0 -61 -43.5 -103.5t-107.5 -42.5t-107 42t-43 104zM121 0v969h246v-969h-246z" />
<glyph unicode="j" horiz-adv-x="516" d="M-125 -451l45 201q48 -22 105 -22q67 0 96 39t29 127v1075h245v-1112q0 -163 -89.5 -252.5t-244.5 -89.5q-111 0 -186 34zM123 1272q0 62 42.5 104.5t106.5 42.5q66 0 109 -42t43 -105q0 -60 -44 -103t-108 -43t-106.5 42t-42.5 104z" />
<glyph unicode="k" horiz-adv-x="1009" d="M125 0v1450h244v-817h4l317 336h279l-398 -422l430 -547h-284l-344 449h-4v-449h-244z" />
<glyph unicode="l" horiz-adv-x="583" d="M125 219v1231h244v-1165q0 -49 17.5 -68.5t53.5 -19.5q32 0 62 12l47 -189q-78 -34 -180 -34q-244 0 -244 233z" />
<glyph unicode="m" horiz-adv-x="1705" d="M113 0v969h204l25 -109q168 133 326 133q89 0 156 -38.5t102 -110.5q178 149 348 149q66 0 122 -19t101.5 -59t71.5 -109.5t26 -162.5v-643h-243v575q0 99 -31 152t-117 53q-111 0 -229 -96q2 -10 2 -37v-647h-246v573q0 48 -5 81t-19.5 64t-44 46.5t-74.5 15.5 q-111 0 -232 -96v-684h-243z" />
<glyph unicode="n" horiz-adv-x="1099" d="M113 0v969h209l24 -109q170 133 332 133q49 0 92 -10t84 -35t70 -63.5t47 -101t18 -142.5v-641h-246v565q0 102 -31.5 158.5t-117.5 56.5q-114 0 -238 -102v-678h-243z" />
<glyph unicode="o" d="M72 487q0 220 134 363t349 143t350 -143t135 -363t-135 -363.5t-350 -143.5t-349 143.5t-134 363.5zM322 487q0 -140 60.5 -225.5t172.5 -85.5t172.5 85.5t60.5 225.5q0 139 -60.5 224.5t-172.5 85.5t-172.5 -85.5t-60.5 -224.5z" />
<glyph unicode="p" horiz-adv-x="1081" d="M113 -485v1417q175 61 366 61q257 0 394 -135t137 -371q0 -224 -139 -365.5t-365 -141.5q-76 0 -150 22v-487h-243zM356 207q67 -25 131 -25q133 0 203 81.5t70 223.5q0 151 -77 228.5t-212 77.5q-52 0 -115 -17v-569z" />
<glyph unicode="q" horiz-adv-x="1093" d="M72 461q0 165 74.5 287.5t199.5 183.5t283 61q95 0 192 -17t160 -44v-1417h-244v524q-98 -59 -231 -59q-84 0 -160 30t-138 87t-99 151t-37 213zM322 471q0 -130 66 -209.5t179 -79.5q92 0 170 54v538q-70 19 -123 19q-139 0 -215.5 -88.5t-76.5 -233.5z" />
<glyph unicode="r" horiz-adv-x="745" d="M113 0v969h206l27 -109q68 68 131 100.5t135 32.5q82 0 138 -39l-86 -206q-51 32 -111 32q-47 0 -92 -22t-105 -74v-684h-243z" />
<glyph unicode="s" horiz-adv-x="860" d="M43 74l76 178q126 -80 264 -80q170 0 170 102q0 33 -25 58t-65 42t-88.5 34t-97.5 40.5t-89 54t-65 81t-25 116.5q0 131 99.5 212t267.5 81q155 0 285 -47v-207q-145 62 -275 62q-137 0 -137 -88q0 -31 25 -54.5t65 -40t88.5 -33.5t97.5 -41t89 -56t65 -85t25 -122 q0 -77 -32 -136.5t-87.5 -94.5t-124.5 -52.5t-150 -17.5q-203 0 -356 94z" />
<glyph unicode="t" horiz-adv-x="790" d="M33 778v191h174v225l244 72v-297h292l-59 -191h-233v-479q0 -66 23 -94.5t71 -28.5q77 0 147 47l74 -168q-51 -34 -130 -54.5t-153 -20.5q-129 0 -202.5 69t-73.5 191v538h-174z" />
<glyph unicode="u" horiz-adv-x="1095" d="M113 373v596h243v-572q0 -75 21 -121q39 -88 145 -88q58 0 111.5 24.5t87.5 61.5v695h246v-729q0 -182 16 -240h-209l-37 100q-135 -120 -301 -120q-39 0 -77.5 9t-80 28.5t-77 59t-56.5 93.5q-32 74 -32 203z" />
<glyph unicode="v" horiz-adv-x="995" d="M10 969h248l240 -660h4l235 660h246l-393 -975h-184z" />
<glyph unicode="w" horiz-adv-x="1531" d="M14 969h248l205 -658h4l205 658h190l213 -658h4l201 658h242l-359 -975h-180l-213 657h-4l-217 -657h-188z" />
<glyph unicode="x" horiz-adv-x="1011" d="M14 0l363 487l-350 482h256l227 -316l229 316h254l-354 -482l358 -487h-256l-233 324l-238 -324h-256z" />
<glyph unicode="y" horiz-adv-x="1060" d="M-25 -440l62 192q70 -39 145 -39q86 0 151 66.5t120 226.5l-437 963h260l287 -684h4l232 684h252l-371 -1000q-44 -118 -92.5 -202t-93 -132t-98.5 -75.5t-99 -36t-104 -8.5q-116 0 -218 45z" />
<glyph unicode="z" horiz-adv-x="849" d="M31 0l448 778h-370l-50 191h777l-445 -779h436v-190h-796z" />
<glyph unicode="{" horiz-adv-x="741" d="M113 477v164q64 2 98.5 31.5t34.5 109.5v447q0 75 17.5 133.5t57.5 108t114 78.5t179 34l43 -215q-93 -11 -135.5 -53.5t-42.5 -130.5v-371q0 -123 -44 -183.5t-113 -68.5v-4q69 -8 113 -68.5t44 -183.5v-371q0 -88 42.5 -130.5t135.5 -53.5l-43 -215q-105 5 -179 34 t-114 78.5t-57.5 108t-17.5 133.5v447q0 80 -34.5 109.5t-98.5 31.5z" />
<glyph unicode="|" horiz-adv-x="577" d="M170 -483v2080h240v-2080h-240z" />
<glyph unicode="}" horiz-adv-x="741" d="M86 -250q93 11 135.5 53.5t42.5 130.5v371q0 123 44.5 183.5t113.5 68.5v4q-69 8 -113.5 68.5t-44.5 183.5v371q0 88 -42.5 130.5t-135.5 53.5l43 215q105 -5 179 -34t114.5 -78.5t58 -108t17.5 -133.5v-447q0 -80 34.5 -109.5t98.5 -31.5v-164q-64 -2 -98.5 -31.5 t-34.5 -109.5v-447q0 -75 -17.5 -133.5t-58 -108t-114.5 -78.5t-179 -34z" />
<glyph unicode="~" horiz-adv-x="1126" d="M49 561q146 146 311 146q54 0 113 -18.5t102.5 -40t98.5 -40t100 -18.5q54 0 94 19t93 67l118 -156q-145 -145 -313 -145q-53 0 -112.5 18.5t-103.5 40t-98.5 40t-99.5 18.5q-52 0 -91.5 -19t-94.5 -67z" />
<glyph unicode="&#xa1;" horiz-adv-x="550" d="M139 852q0 60 39 100.5t96 40.5t97.5 -40.5t40.5 -100.5t-40.5 -100.5t-97.5 -40.5t-96 40.5t-39 100.5zM154 -274q0 384 8.5 532.5t40.5 319.5h143q33 -170 42 -319t9 -535v-99h-243v101z" />
<glyph unicode="&#xa2;" horiz-adv-x="1116" d="M156 670q0 165 96 294.5t252 165.5v220h176v-199q132 -3 219 -59v-193q-100 68 -235 68q-117 0 -194 -78t-77 -209q0 -130 72 -206.5t192 -76.5q117 0 226 58l61 -176q-121 -64 -270 -70v-209h-176v217q-164 37 -253 161.5t-89 291.5z" />
<glyph unicode="&#xa3;" horiz-adv-x="1116" d="M123 0v156q186 57 186 432h-145v200h145v123q0 107 30 189.5t75.5 130.5t107 79t116.5 41.5t112 10.5q140 0 274 -53l-53 -197q-82 43 -187 43q-106 0 -169.5 -67t-63.5 -205v-95h385l-64 -200h-321q-1 -61 -5.5 -109.5t-16 -107.5t-36.5 -107.5t-63 -81.5v-4 q138 23 252 23h334v-201h-893z" />
<glyph unicode="&#xa4;" horiz-adv-x="1116" d="M27 1051l145 147l137 -141q116 76 248 76q134 0 250 -76l133 137l145 -145l-137 -136q72 -112 72 -243q0 -137 -74 -250l139 -135l-147 -146l-135 137q-112 -69 -246 -69t-244 69l-139 -141l-145 148l141 137q-76 116 -76 250q0 131 72 243zM272 670q0 -123 83 -209 t202 -86q120 0 202.5 86t82.5 209q0 122 -82.5 207.5t-202.5 85.5q-118 0 -201.5 -85.5t-83.5 -207.5z" />
<glyph unicode="&#xa5;" horiz-adv-x="1116" d="M49 1350h262l246 -594h2l244 594h264l-315 -662h247v-153h-319v-152h319v-154h-319v-229h-244v229h-319v154h319v152h-319v153h245z" />
<glyph unicode="&#xa6;" horiz-adv-x="577" d="M170 262h240v-745h-240v745zM170 852v745h240v-745h-240z" />
<glyph unicode="&#xa7;" horiz-adv-x="1142" d="M131 -223l94 174q148 -90 295 -90q96 0 157.5 34.5t61.5 112.5q0 50 -33 89t-85.5 66.5t-116 54t-127 58.5t-116 71.5t-85.5 102.5t-33 142q0 92 43.5 169t116.5 124q-110 100 -110 248q0 157 108.5 253.5t286.5 96.5q207 0 348 -74l-4 -211q-163 86 -320 86 q-79 0 -129.5 -34.5t-50.5 -98.5q0 -45 26 -82t69 -61.5t97.5 -50t111.5 -48t111.5 -56t97.5 -72t69 -98.5t26 -134q0 -93 -46.5 -169t-123.5 -122q111 -97 111 -231q0 -93 -35.5 -163.5t-99 -113.5t-145 -64.5t-179.5 -21.5q-123 0 -225.5 33.5t-165.5 79.5zM352 653 q0 -38 18 -72t44 -58t69.5 -50t80 -43t91 -42t86.5 -42q86 59 86 154q0 37 -18 69.5t-44 56t-70 49.5t-81 43t-93.5 43t-90.5 44q-78 -57 -78 -152z" />
<glyph unicode="&#xa8;" horiz-adv-x="786" d="M72 1239q0 53 37 90t88 37q53 0 90 -36.5t37 -90.5q0 -52 -37 -88.5t-90 -36.5q-51 0 -88 36.5t-37 88.5zM463 1239q0 54 36 90.5t89 36.5q52 0 88.5 -37t36.5 -90q0 -52 -37 -88.5t-88 -36.5q-52 0 -88.5 36t-36.5 89z" />
<glyph unicode="&#xa9;" horiz-adv-x="1576" d="M109 670q0 194 85.5 351.5t241 248t352.5 90.5q196 0 351.5 -90.5t241 -248t85.5 -351.5t-85.5 -351.5t-241 -248t-351.5 -90.5q-197 0 -352.5 90.5t-241 248t-85.5 351.5zM250 670q0 -248 152 -407t386 -159q233 0 385 159t152 407t-152 406.5t-385 158.5 q-234 0 -386 -158.5t-152 -406.5zM422 662q0 177 109 297t286 120q123 0 203 -45v-139q-92 53 -199 53q-112 0 -181 -77.5t-69 -202.5q0 -130 66.5 -206.5t175.5 -76.5q99 0 182 51l49 -114q-120 -66 -241 -66q-173 0 -277 113.5t-104 292.5z" />
<glyph unicode="&#xaa;" horiz-adv-x="753" d="M57 270v146h639v-146h-639zM63 762q0 105 80 162.5t222 62.5l102 4v17q0 45 -33.5 68.5t-87.5 23.5q-97 0 -182 -45l-66 123q117 73 275 73q139 0 209.5 -61.5t70.5 -194.5v-268q0 -115 17 -174h-158l-25 59q-84 -73 -192 -73q-101 0 -166.5 60.5t-65.5 162.5zM254 772 q0 -37 25.5 -59.5t70.5 -22.5q60 0 117 45v123l-84 -2q-129 -3 -129 -84z" />
<glyph unicode="&#xab;" horiz-adv-x="1239" d="M76 494l348 428l176 -99l-254 -329l254 -330l-176 -98zM582 494l348 428l176 -99l-254 -329l254 -330l-176 -98z" />
<glyph unicode="&#xac;" horiz-adv-x="1126" d="M82 502v203h965v-613h-230v410h-735z" />
<glyph unicode="&#xad;" horiz-adv-x="749" d="M106 406v204h539v-204h-539z" />
<glyph unicode="&#xae;" horiz-adv-x="1175" d="M96 866q0 214 137 355t351 141q211 0 352 -142t141 -354t-141.5 -354.5t-351.5 -142.5q-214 0 -351 141.5t-137 355.5zM205 866q0 -171 107 -286t272 -115q166 0 273.5 115.5t107.5 285.5q0 169 -108 284.5t-273 115.5t-272 -115.5t-107 -284.5zM414 606v535h159 q47 0 89 -11q100 -34 100 -135q0 -58 -36 -95t-91 -48v-4q12 -6 26.5 -22t36.5 -51.5t35 -58t44 -78.5q4 -7 6 -11t5.5 -10t6.5 -11h-117q-9 17 -22.5 41t-21.5 38t-18.5 33t-17 30t-15 24.5t-13.5 20.5t-11.5 14.5t-11 11t-8.5 4.5h-23v-217h-102zM516 903h29q48 0 78 20 t30 62q0 56 -43 68q-21 8 -63 8h-31v-158z" />
<glyph unicode="&#xaf;" horiz-adv-x="786" d="M100 1165v185h584v-185h-584z" />
<glyph unicode="&#xb0;" horiz-adv-x="757" d="M59 1036q0 135 91 224.5t229 89.5t228.5 -89.5t90.5 -224.5t-91.5 -224t-229.5 -89q-139 0 -228.5 88.5t-89.5 224.5zM227 1034q0 -70 43.5 -115t108.5 -45t108 45t43 115t-43 116t-108 46t-108.5 -46t-43.5 -116z" />
<glyph unicode="&#xb1;" horiz-adv-x="1126" d="M82 0v203h965v-203h-965zM82 584v202h367v281h227v-281h371v-202h-371v-281h-227v281h-367z" />
<glyph unicode="&#xb2;" horiz-adv-x="714" d="M45 823q2 76 24.5 141.5t56.5 111.5t74 85t80 68.5t72.5 55.5t53 52.5t20.5 53.5q0 37 -27 57t-73 20q-76 0 -207 -59l-49 150q157 75 301 75q128 0 196 -59.5t68 -159.5q0 -45 -16.5 -84.5t-43.5 -69.5t-60 -56.5t-68 -51.5t-65.5 -49t-54 -53.5t-32.5 -61.5h346v-166 h-596z" />
<glyph unicode="&#xb3;" horiz-adv-x="712" d="M31 864l51 146q87 -41 186 -41q144 0 144 98q0 58 -60 78q-32 12 -104 12h-101v141h78q58 0 101 15q59 25 59 82q0 39 -28 59.5t-74 20.5q-79 0 -185 -45l-47 145q148 59 279 59q125 0 194.5 -57t69.5 -147q0 -131 -135 -187v-4q78 -14 121 -62.5t43 -123.5 q0 -106 -89 -174t-255 -68q-139 0 -248 53z" />
<glyph unicode="&#xb4;" horiz-adv-x="786" d="M268 1087l119 302h264l-196 -302h-187z" />
<glyph unicode="&#xb5;" horiz-adv-x="1183" d="M125 -485v1454h244v-586q0 -91 45.5 -143t124.5 -52q78 0 136 62.5t58 183.5v535h244v-633q0 -78 20 -105.5t66 -27.5q30 0 57 12l47 -195q-69 -34 -159 -34q-89 0 -145 48.5t-70 133.5h-5q-41 -95 -109 -141.5t-149 -46.5q-109 0 -165 69h-5q9 -129 9 -264v-270h-244z " />
<glyph unicode="&#xb6;" horiz-adv-x="1294" d="M109 883q0 201 133 334t350 133h536v-1678h-196v1520h-191v-1520h-196v746q-197 15 -316.5 142.5t-119.5 322.5z" />
<glyph unicode="&#xb7;" horiz-adv-x="538" d="M133 514q0 59 39.5 99t95.5 40q58 0 98 -40t40 -99q0 -60 -40.5 -100.5t-97.5 -40.5q-56 0 -95.5 40.5t-39.5 100.5z" />
<glyph unicode="&#xb8;" horiz-adv-x="786" d="M172 -412l35 113q50 -16 98 -16q45 0 71.5 16.5t26.5 48.5q0 41 -41.5 55.5t-123.5 14.5l55 180h180l-31 -100q172 -14 172 -152q0 -82 -73 -132t-215 -50q-82 0 -154 22z" />
<glyph unicode="&#xb9;" horiz-adv-x="714" d="M59 1497l338 133h154v-807h-191v609l-237 -89z" />
<glyph unicode="&#xba;" horiz-adv-x="802" d="M55 895q0 155 96 255.5t250 100.5t250.5 -100.5t96.5 -255.5t-96.5 -255.5t-250.5 -100.5t-250 100.5t-96 255.5zM63 270v146h676v-146h-676zM246 895q0 -88 41.5 -144.5t113.5 -56.5t114 56.5t42 144.5t-42 144.5t-114 56.5t-113.5 -56.5t-41.5 -144.5z" />
<glyph unicode="&#xbb;" horiz-adv-x="1239" d="M133 164l254 330l-254 329l176 99l348 -428l-348 -428zM639 164l254 330l-254 329l176 99l348 -428l-348 -428z" />
<glyph unicode="&#xbc;" horiz-adv-x="1931" d="M121 1227l338 133h153v-807h-190v608l-238 -88zM420 0l850 1350h200l-852 -1350h-198zM1067 172v117l395 518h183v-492h108v-143h-108v-172h-191v172h-387zM1270 313q35 2 135 2h49v56q0 94 6 196z" />
<glyph unicode="&#xbd;" horiz-adv-x="1931" d="M90 1227l338 133h154v-807h-191v608l-237 -88zM383 0l850 1350h201l-852 -1350h-199zM1178 0q3 88 32.5 162t71.5 121.5t91 90t90 70.5t68.5 60.5t27.5 62.5q0 37 -27.5 57.5t-73.5 20.5q-76 0 -207 -59l-49 149q159 76 301 76q128 0 196 -59.5t68 -159.5 q0 -45 -16.5 -84.5t-43.5 -69.5t-60 -56.5t-68 -51.5t-65.5 -49t-54 -53.5t-32.5 -61.5h347v-166h-596z" />
<glyph unicode="&#xbe;" horiz-adv-x="1931" d="M133 592l51 145q87 -41 187 -41q143 0 143 99q0 57 -59 77q-35 13 -105 13h-100v141h78q60 0 100 14q59 25 59 82q0 39 -28 59.5t-74 20.5q-78 0 -184 -45l-47 146q148 59 278 59q125 0 194.5 -57.5t69.5 -147.5q0 -130 -135 -186v-4q78 -13 121 -62.5t43 -124.5 q0 -106 -88.5 -173.5t-255.5 -67.5q-139 0 -248 53zM477 0l850 1350h201l-852 -1350h-199zM1098 172v117l395 518h182v-492h109v-143h-109v-172h-190v172h-387zM1300 313q35 2 136 2h49v56q0 94 6 196z" />
<glyph unicode="&#xbf;" horiz-adv-x="968" d="M82 -88q0 57 22 108t58 89t79 71.5t85.5 62.5t78.5 57t58 59.5t22 64.5q0 43 -26 82l207 76q63 -75 63 -172q0 -57 -28 -107.5t-70 -85t-90.5 -70t-90.5 -64t-70 -66.5t-28 -78q0 -57 38 -88t104 -31q131 0 262 114l110 -157q-189 -164 -411 -164q-179 0 -276 83.5 t-97 215.5zM414 852q0 60 39.5 100.5t95.5 40.5q57 0 97 -40.5t40 -100.5t-40 -100.5t-97 -40.5q-56 0 -95.5 40.5t-39.5 100.5z" />
<glyph unicode="&#xc0;" horiz-adv-x="1294" d="M16 0l523 1356h196l543 -1356h-266l-131 338h-482l-127 -338h-256zM377 1726h266l119 -301h-187zM471 539h334l-94 268q-46 128 -68 209h-4q-13 -50 -70 -211z" />
<glyph unicode="&#xc1;" horiz-adv-x="1294" d="M16 0l523 1356h196l543 -1356h-266l-131 338h-482l-127 -338h-256zM471 539h334l-94 268q-46 128 -68 209h-4q-13 -50 -70 -211zM514 1425l119 301h264l-197 -301h-186z" />
<glyph unicode="&#xc2;" horiz-adv-x="1294" d="M16 0l523 1356h196l543 -1356h-266l-131 338h-482l-127 -338h-256zM334 1425l205 301h196l207 -301h-192l-113 162l-111 -162h-192zM471 539h334l-94 268q-46 128 -68 209h-4q-13 -50 -70 -211z" />
<glyph unicode="&#xc3;" horiz-adv-x="1294" d="M16 0l523 1356h196l543 -1356h-266l-131 338h-482l-127 -338h-256zM317 1475v79q0 81 46.5 125.5t121.5 44.5q50 0 104 -22.5t97 -45t68 -22.5q29 0 37 17.5t8 60.5h159v-82q0 -79 -47 -123.5t-120 -44.5q-49 0 -103 22t-97.5 44t-68.5 22q-29 0 -37 -17t-8 -58h-160z M471 539h334l-94 268q-46 128 -68 209h-4q-13 -50 -70 -211z" />
<glyph unicode="&#xc4;" horiz-adv-x="1294" d="M16 0l523 1356h196l543 -1356h-266l-131 338h-482l-127 -338h-256zM317 1561q0 52 37 89.5t88 37.5q52 0 89.5 -37t37.5 -90q0 -52 -37 -88.5t-90 -36.5q-51 0 -88 36.5t-37 88.5zM471 539h334l-94 268q-46 128 -68 209h-4q-13 -50 -70 -211zM709 1561q0 53 36.5 90 t88.5 37q51 0 87.5 -37.5t36.5 -89.5t-36.5 -88.5t-87.5 -36.5q-52 0 -88.5 36t-36.5 89z" />
<glyph unicode="&#xc5;" horiz-adv-x="1294" d="M16 0l516 1337q-64 20 -100.5 69.5t-36.5 117.5q0 90 66.5 144t173.5 54t173 -54t66 -144q0 -66 -36 -114t-97 -69l537 -1341h-266l-131 338h-482l-127 -338h-256zM471 539h334l-94 270q-50 139 -68 211h-4q-15 -62 -70 -213zM551 1524q0 -44 23.5 -69t60.5 -25 q39 0 61.5 25t22.5 69t-22.5 68t-61.5 24q-38 0 -61 -24.5t-23 -67.5z" />
<glyph unicode="&#xc6;" horiz-adv-x="1720" d="M14 0l729 1350h856l-67 -209h-518l61 -353h459v-208h-424l64 -371h428v-209h-641l-58 338h-446l-183 -338h-260zM567 539h303l-47 315q-14 88 -22 158h-2q-14 -35 -80 -170z" />
<glyph unicode="&#xc7;" horiz-adv-x="1284" d="M106 659q0 146 51 274.5t142 223.5t226 150t294 55q205 0 355 -66v-229q-166 88 -349 88q-144 0 -249.5 -68t-156 -177t-50.5 -244q0 -215 121.5 -347.5t326.5 -132.5q166 0 332 95l68 -195q-192 -106 -418 -106l-27 -80q172 -13 172 -152q0 -82 -72.5 -132t-214.5 -50 q-85 0 -153 22l35 113q50 -16 96 -16t73 17t27 48q0 41 -41.5 55.5t-124.5 14.5l54 176q-247 43 -382 222t-135 441z" />
<glyph unicode="&#xc8;" horiz-adv-x="1028" d="M164 0v1350h745l-67 -209h-432v-353h432v-208h-432v-371h501v-209h-747zM244 1726h266l119 -301h-187z" />
<glyph unicode="&#xc9;" horiz-adv-x="1028" d="M164 0v1350h745l-67 -209h-432v-353h432v-208h-432v-371h501v-209h-747zM401 1425l119 301h264l-196 -301h-187z" />
<glyph unicode="&#xca;" horiz-adv-x="1028" d="M164 0v1350h745l-67 -209h-432v-353h432v-208h-432v-371h501v-209h-747zM219 1425l205 301h197l206 -301h-192l-113 162l-110 -162h-193z" />
<glyph unicode="&#xcb;" horiz-adv-x="1028" d="M164 0v1350h745l-67 -209h-432v-353h432v-208h-432v-371h501v-209h-747zM209 1561q0 52 37 89.5t88 37.5q52 0 89.5 -37t37.5 -90q0 -52 -37 -88.5t-90 -36.5q-51 0 -88 36.5t-37 88.5zM600 1561q0 53 36.5 90t88.5 37q51 0 88 -37.5t37 -89.5t-37 -88.5t-88 -36.5 q-53 0 -89 36t-36 89z" />
<glyph unicode="&#xcc;" horiz-adv-x="573" d="M25 1726h266l119 -301h-187zM164 0v1350h246v-1350h-246z" />
<glyph unicode="&#xcd;" horiz-adv-x="573" d="M156 1425l118 301h265l-197 -301h-186zM164 0v1350h246v-1350h-246z" />
<glyph unicode="&#xce;" horiz-adv-x="573" d="M-18 1425l204 301h197l207 -301h-193l-112 162l-111 -162h-192zM164 0v1350h246v-1350h-246z" />
<glyph unicode="&#xcf;" horiz-adv-x="573" d="M-35 1561q0 52 37 89.5t88 37.5q52 0 89.5 -37t37.5 -90q0 -52 -37 -88.5t-90 -36.5q-51 0 -88 36.5t-37 88.5zM164 0v1350h246v-1350h-246zM356 1561q0 53 36.5 90t88.5 37q51 0 88 -37.5t37 -89.5t-37 -88.5t-88 -36.5q-53 0 -89 36t-36 89z" />
<glyph unicode="&#xd0;" horiz-adv-x="1425" d="M16 584v200h148v566h420q351 0 544 -180.5t193 -485.5q0 -310 -205.5 -497t-554.5 -187h-397v584h-148zM410 209h155q129 0 226 37.5t154 103.5t84.5 148.5t27.5 181.5q0 217 -126.5 339t-369.5 122h-151v-357h309v-200h-309v-375z" />
<glyph unicode="&#xd1;" horiz-adv-x="1533" d="M164 0v1350h244l565 -740q110 -150 149 -209h4q-4 144 -4 228v721h248v-1350h-223l-586 770q-26 34 -52.5 70t-55 75.5t-43.5 59.5h-4q4 -53 4 -209v-766h-246zM446 1475v79q0 81 46.5 125.5t121.5 44.5q50 0 104 -22.5t97 -45t68 -22.5q29 0 37 17.5t8 60.5h159v-82 q0 -79 -47 -123.5t-120 -44.5q-49 0 -103 22t-97.5 44t-68.5 22q-29 0 -37 -17t-8 -58h-160z" />
<glyph unicode="&#xd2;" horiz-adv-x="1572" d="M106 670q0 202 86.5 360t241.5 245t352 87t352 -87.5t241.5 -245.5t86.5 -359q0 -204 -88 -361.5t-242.5 -243t-349.5 -85.5q-197 0 -351.5 85.5t-241.5 243t-87 361.5zM369 670q0 -226 113.5 -355t303.5 -129q189 0 303.5 129t114.5 355q0 224 -113 354.5t-305 130.5 q-190 0 -303.5 -129t-113.5 -356zM508 1726h266l119 -301h-186z" />
<glyph unicode="&#xd3;" horiz-adv-x="1572" d="M106 670q0 202 86.5 360t241.5 245t352 87t352 -87.5t241.5 -245.5t86.5 -359q0 -204 -88 -361.5t-242.5 -243t-349.5 -85.5q-197 0 -351.5 85.5t-241.5 243t-87 361.5zM369 670q0 -226 113.5 -355t303.5 -129q189 0 303.5 129t114.5 355q0 224 -113 354.5t-305 130.5 q-190 0 -303.5 -129t-113.5 -356zM688 1425l119 301h264l-197 -301h-186z" />
<glyph unicode="&#xd4;" horiz-adv-x="1572" d="M106 670q0 202 86.5 360t241.5 245t352 87t352 -87.5t241.5 -245.5t86.5 -359q0 -204 -88 -361.5t-242.5 -243t-349.5 -85.5q-197 0 -351.5 85.5t-241.5 243t-87 361.5zM369 670q0 -226 113.5 -355t303.5 -129q189 0 303.5 129t114.5 355q0 224 -113 354.5t-305 130.5 q-190 0 -303.5 -129t-113.5 -356zM483 1425l205 301h197l207 -301h-193l-113 162l-110 -162h-193z" />
<glyph unicode="&#xd5;" horiz-adv-x="1572" d="M106 670q0 202 86.5 360t241.5 245t352 87t352 -87.5t241.5 -245.5t86.5 -359q0 -204 -88 -361.5t-242.5 -243t-349.5 -85.5q-197 0 -351.5 85.5t-241.5 243t-87 361.5zM369 670q0 -226 113.5 -355t303.5 -129q189 0 303.5 129t114.5 355q0 224 -113 354.5t-305 130.5 q-190 0 -303.5 -129t-113.5 -356zM469 1475v79q0 81 46.5 125.5t121.5 44.5q50 0 103.5 -22.5t96.5 -45t68 -22.5q29 0 37 17.5t8 60.5h160v-82q0 -79 -47.5 -123.5t-120.5 -44.5q-49 0 -102.5 22t-97 44t-68.5 22q-29 0 -37 -17t-8 -58h-160z" />
<glyph unicode="&#xd6;" horiz-adv-x="1572" d="M106 670q0 202 86.5 360t241.5 245t352 87t352 -87.5t241.5 -245.5t86.5 -359q0 -204 -88 -361.5t-242.5 -243t-349.5 -85.5q-197 0 -351.5 85.5t-241.5 243t-87 361.5zM369 670q0 -226 113.5 -355t303.5 -129q189 0 303.5 129t114.5 355q0 224 -113 354.5t-305 130.5 q-190 0 -303.5 -129t-113.5 -356zM471 1561q0 52 37 89.5t88 37.5q52 0 89.5 -37t37.5 -90q0 -52 -37 -88.5t-90 -36.5q-51 0 -88 36.5t-37 88.5zM862 1561q0 53 36.5 90t88.5 37q51 0 88 -37.5t37 -89.5t-37 -88.5t-88 -36.5q-53 0 -89 36t-36 89z" />
<glyph unicode="&#xd7;" horiz-adv-x="1218" d="M92 881l146 145l372 -373l371 371l145 -145l-368 -371l368 -369l-145 -147l-371 370l-370 -372l-146 145l371 373z" />
<glyph unicode="&#xd8;" horiz-adv-x="1587" d="M113 670q0 202 87 360t241.5 245t351.5 87q198 0 352 -96l121 149l151 -115l-121 -149q85 -91 132 -214.5t47 -266.5q0 -204 -88 -361.5t-243 -243t-351 -85.5q-206 0 -365 98l-117 -146l-153 115l121 148q-166 193 -166 475zM371 670q0 -163 63 -277l578 701 q-94 63 -219 63q-189 0 -305.5 -130t-116.5 -357zM565 252q95 -68 228 -68q190 0 307 130.5t117 355.5q0 169 -72 288z" />
<glyph unicode="&#xd9;" horiz-adv-x="1425" d="M154 504v846h245v-830q0 -109 37 -182q36 -73 106.5 -112.5t170.5 -39.5t170 39.5t106 112.5q37 73 37 184v828h246v-846q0 -162 -51 -264q-126 -260 -508 -260q-386 0 -508 262q-51 102 -51 262zM440 1726h267l118 -301h-186z" />
<glyph unicode="&#xda;" horiz-adv-x="1425" d="M154 504v846h245v-830q0 -109 37 -182q36 -73 106.5 -112.5t170.5 -39.5t170 39.5t106 112.5q37 73 37 184v828h246v-846q0 -162 -51 -264q-126 -260 -508 -260q-386 0 -508 262q-51 102 -51 262zM606 1425l119 301h264l-196 -301h-187z" />
<glyph unicode="&#xdb;" horiz-adv-x="1425" d="M154 504v846h245v-830q0 -109 37 -182q36 -73 106.5 -112.5t170.5 -39.5t170 39.5t106 112.5q37 73 37 184v828h246v-846q0 -162 -51 -264q-126 -260 -508 -260q-386 0 -508 262q-51 102 -51 262zM414 1425l204 301h197l207 -301h-193l-112 162l-111 -162h-192z" />
<glyph unicode="&#xdc;" horiz-adv-x="1425" d="M154 504v846h245v-830q0 -109 37 -182q36 -73 106.5 -112.5t170.5 -39.5t170 39.5t106 112.5q37 73 37 184v828h246v-846q0 -162 -51 -264q-126 -260 -508 -260q-386 0 -508 262q-51 102 -51 262zM399 1561q0 52 37 89.5t88 37.5q52 0 89.5 -37t37.5 -90q0 -52 -37 -88.5 t-90 -36.5q-51 0 -88 36.5t-37 88.5zM791 1561q0 53 36 90t88 37q51 0 88 -37.5t37 -89.5t-37 -88.5t-88 -36.5q-52 0 -88 36t-36 89z" />
<glyph unicode="&#xdd;" horiz-adv-x="1200" d="M14 1350h271l315 -596h4l314 596h266l-461 -818v-532h-248v535zM479 1425l119 301h264l-196 -301h-187z" />
<glyph unicode="&#xde;" horiz-adv-x="1116" d="M164 0v1350h246v-220h79q187 0 304 -57q105 -53 162 -151.5t57 -233.5q0 -128 -62 -234t-196 -161q-112 -47 -287 -47h-57v-246h-246zM410 446h73q95 0 158 29q113 58 113 213q0 144 -107 205q-58 37 -168 37h-69v-484z" />
<glyph unicode="&#xdf;" horiz-adv-x="1257" d="M113 -289v1262q0 113 30 200t76 138t109 83.5t121 44t120 11.5q93 0 174 -27t147 -81.5t104 -148.5t38 -218q0 -35 -2 -51q-190 -43 -190 -146q0 -32 19.5 -60t50 -51t68 -47t75 -54t68 -65.5t50 -88t19.5 -115.5q0 -67 -22 -121t-59 -90t-87.5 -60.5t-105.5 -35 t-115 -10.5q-101 0 -186.5 25.5t-139.5 60.5l76 178q121 -72 237 -72q70 0 116 27.5t46 87.5q0 40 -26 75t-65 60.5t-84 57.5t-84 64.5t-65 84.5t-26 114q0 186 193 267q-2 108 -58 175.5t-162 67.5q-98 0 -157.5 -61t-59.5 -191v-1290h-243z" />
<glyph unicode="&#xe0;" horiz-adv-x="1007" d="M68 289q0 181 163 264q95 49 250 55l166 6v31q0 82 -49 122t-137 40q-125 0 -254 -68l-80 158q175 96 375 96q389 0 389 -352v-393q0 -182 18 -248h-204l-37 92q-124 -112 -279 -112q-140 0 -230.5 85.5t-90.5 223.5zM244 1389h266l119 -302h-187zM315 305 q0 -63 38.5 -98t105.5 -35q100 0 188 72v207l-131 -5q-91 -3 -141 -30q-60 -34 -60 -111z" />
<glyph unicode="&#xe1;" horiz-adv-x="1007" d="M68 289q0 181 163 264q95 49 250 55l166 6v31q0 82 -49 122t-137 40q-125 0 -254 -68l-80 158q175 96 375 96q389 0 389 -352v-393q0 -182 18 -248h-204l-37 92q-124 -112 -279 -112q-140 0 -230.5 85.5t-90.5 223.5zM315 305q0 -63 38.5 -98t105.5 -35q100 0 188 72v207 l-131 -5q-91 -3 -141 -30q-60 -34 -60 -111zM381 1087l119 302h264l-197 -302h-186z" />
<glyph unicode="&#xe2;" horiz-adv-x="1007" d="M68 289q0 181 163 264q95 49 250 55l166 6v31q0 82 -49 122t-137 40q-125 0 -254 -68l-80 158q175 96 375 96q389 0 389 -352v-393q0 -182 18 -248h-204l-37 92q-124 -112 -279 -112q-140 0 -230.5 85.5t-90.5 223.5zM201 1087l205 302h196l207 -302h-193l-112 162 l-111 -162h-192zM315 305q0 -63 38.5 -98t105.5 -35q100 0 188 72v207l-131 -5q-91 -3 -141 -30q-60 -34 -60 -111z" />
<glyph unicode="&#xe3;" horiz-adv-x="1007" d="M68 289q0 181 163 264q95 49 250 55l166 6v31q0 82 -49 122t-137 40q-125 0 -254 -68l-80 158q175 96 375 96q389 0 389 -352v-393q0 -182 18 -248h-204l-37 92q-124 -112 -279 -112q-140 0 -230.5 85.5t-90.5 223.5zM184 1120v80q0 81 46.5 125.5t121.5 44.5 q50 0 104 -22.5t97 -45t68 -22.5q29 0 37 17.5t8 60.5h159v-80q0 -80 -47.5 -125t-120.5 -45q-49 0 -102.5 22.5t-97 45t-68.5 22.5q-29 0 -37 -17.5t-8 -60.5h-160zM315 305q0 -63 38.5 -98t105.5 -35q100 0 188 72v207l-131 -5q-91 -3 -141 -30q-60 -34 -60 -111z" />
<glyph unicode="&#xe4;" horiz-adv-x="1007" d="M68 289q0 181 163 264q95 49 250 55l166 6v31q0 82 -49 122t-137 40q-125 0 -254 -68l-80 158q175 96 375 96q389 0 389 -352v-393q0 -182 18 -248h-204l-37 92q-124 -112 -279 -112q-140 0 -230.5 85.5t-90.5 223.5zM184 1239q0 53 37 90t88 37q53 0 90 -36.5t37 -90.5 q0 -52 -37 -88.5t-90 -36.5q-51 0 -88 36.5t-37 88.5zM315 305q0 -63 38.5 -98t105.5 -35q100 0 188 72v207l-131 -5q-91 -3 -141 -30q-60 -34 -60 -111zM575 1239q0 54 36 90.5t89 36.5q52 0 88.5 -37t36.5 -90q0 -52 -37 -88.5t-88 -36.5q-52 0 -88.5 36t-36.5 89z" />
<glyph unicode="&#xe5;" horiz-adv-x="1007" d="M68 289q0 181 163 264q95 49 250 55l166 6v31q0 82 -49 122t-137 40q-125 0 -254 -68l-80 158q175 96 375 96q389 0 389 -352v-393q0 -182 18 -248h-204l-37 92q-124 -112 -279 -112q-140 0 -230.5 85.5t-90.5 223.5zM266 1270q0 91 66.5 144.5t173.5 53.5t173 -53.5 t66 -144.5t-66 -145t-173 -54t-173.5 54t-66.5 145zM315 305q0 -63 38.5 -98t105.5 -35q100 0 188 72v207l-131 -5q-91 -3 -141 -30q-60 -34 -60 -111zM422 1270q0 -44 22.5 -69t61.5 -25q37 0 60.5 25t23.5 69t-23.5 69t-60.5 25q-39 0 -61.5 -25t-22.5 -69z" />
<glyph unicode="&#xe6;" horiz-adv-x="1593" d="M68 289q0 82 33 143t91.5 96t130 51.5t156.5 16.5h183v49q0 81 -54 121.5t-143 40.5q-132 0 -258 -70l-80 160q175 96 371 96q221 0 301 -145h4q110 145 303 145q192 0 303 -136.5t111 -381.5v-49h-615q3 -119 75 -186.5t194 -67.5q127 0 245 66l72 -168 q-146 -90 -340 -90q-250 0 -379 159q-142 -159 -364 -159q-152 0 -246 84t-94 225zM315 301q0 -60 40 -94.5t106 -34.5q68 0 131 32.5t102 74.5q-23 64 -26 147h-172q-181 0 -181 -125zM903 596h369q-3 88 -49 149.5t-133 61.5q-86 0 -135 -60t-52 -151z" />
<glyph unicode="&#xe7;" horiz-adv-x="917" d="M72 477q0 224 147 370t365 146q160 0 260 -65v-207q-105 76 -236 76q-132 0 -209 -88.5t-77 -225.5q0 -147 73.5 -227t200.5 -80q104 0 225 66l72 -168q-56 -39 -142 -65.5t-159 -26.5h-2l-27 -82q172 -13 172 -152q0 -82 -72 -132t-214 -50q-86 0 -154 22l35 113 q50 -16 96 -16t73 17t27 48q0 23 -12 37t-38 21t-50 9t-66 3l54 176q-164 42 -253 172t-89 309z" />
<glyph unicode="&#xe8;" horiz-adv-x="1009" d="M74 483q0 224 117 367t319 143q203 0 316.5 -137.5t113.5 -380.5v-57h-621q5 -113 79.5 -179.5t195.5 -66.5q126 0 244 66l73 -168q-146 -90 -342 -90q-103 0 -186.5 27.5t-140 74t-95 111t-56 137t-17.5 153.5zM254 1389h266l119 -302h-186zM317 588h375 q-2 92 -48.5 155.5t-137.5 63.5q-87 0 -137 -63t-52 -156z" />
<glyph unicode="&#xe9;" horiz-adv-x="1009" d="M74 483q0 224 117 367t319 143q203 0 316.5 -137.5t113.5 -380.5v-57h-621q5 -113 79.5 -179.5t195.5 -66.5q126 0 244 66l73 -168q-146 -90 -342 -90q-103 0 -186.5 27.5t-140 74t-95 111t-56 137t-17.5 153.5zM317 588h375q-2 92 -48.5 155.5t-137.5 63.5 q-87 0 -137 -63t-52 -156zM391 1087l119 302h264l-196 -302h-187z" />
<glyph unicode="&#xea;" horiz-adv-x="1009" d="M74 483q0 224 117 367t319 143q203 0 316.5 -137.5t113.5 -380.5v-57h-621q5 -113 79.5 -179.5t195.5 -66.5q126 0 244 66l73 -168q-146 -90 -342 -90q-103 0 -186.5 27.5t-140 74t-95 111t-56 137t-17.5 153.5zM211 1087l205 302h196l207 -302h-192l-113 162l-111 -162 h-192zM317 588h375q-2 92 -48.5 155.5t-137.5 63.5q-87 0 -137 -63t-52 -156z" />
<glyph unicode="&#xeb;" horiz-adv-x="1009" d="M74 483q0 224 117 367t319 143q203 0 316.5 -137.5t113.5 -380.5v-57h-621q5 -113 79.5 -179.5t195.5 -66.5q126 0 244 66l73 -168q-146 -90 -342 -90q-103 0 -186.5 27.5t-140 74t-95 111t-56 137t-17.5 153.5zM195 1239q0 54 36.5 90.5t87.5 36.5q53 0 90 -36.5 t37 -90.5q0 -52 -37 -88.5t-90 -36.5q-51 0 -87.5 36.5t-36.5 88.5zM317 588h375q-2 92 -48.5 155.5t-137.5 63.5q-87 0 -137 -63t-52 -156zM586 1239q0 54 36 90.5t89 36.5q51 0 88 -37t37 -90q0 -52 -37 -88.5t-88 -36.5q-53 0 -89 36t-36 89z" />
<glyph unicode="&#xec;" horiz-adv-x="487" d="M-16 1389h266l119 -302h-187zM121 0v969h246v-969h-246z" />
<glyph unicode="&#xed;" horiz-adv-x="487" d="M121 0v969h246v-969h-246zM121 1087l119 302h264l-197 -302h-186z" />
<glyph unicode="&#xee;" horiz-adv-x="487" d="M-59 1087l204 302h197l207 -302h-193l-112 162l-111 -162h-192zM121 0v969h246v-969h-246z" />
<glyph unicode="&#xef;" horiz-adv-x="487" d="M-76 1239q0 53 37 90t88 37q53 0 90 -36.5t37 -90.5q0 -52 -37 -88.5t-90 -36.5q-51 0 -88 36.5t-37 88.5zM121 0v969h246v-969h-246zM315 1239q0 54 36 90.5t89 36.5q52 0 88.5 -37t36.5 -90q0 -52 -37 -88.5t-88 -36.5q-52 0 -88.5 36t-36.5 89z" />
<glyph unicode="&#xf0;" horiz-adv-x="1132" d="M72 473q0 226 117.5 365t322.5 139q99 0 182.5 -41.5t134.5 -104.5h5q-23 100 -82 187t-152 141l-281 -129l-51 111l176 76q-86 33 -247 36l45 197q269 -9 440 -115l242 115l53 -111l-186 -84q247 -218 247 -655q0 -134 -26 -240.5t-70.5 -176.5t-107.5 -116.5 t-133.5 -66.5t-151.5 -20q-212 0 -344.5 138t-132.5 355zM322 475q0 -139 62.5 -220t172.5 -81q113 0 172 81.5t59 223.5q0 138 -63 220.5t-174 82.5q-112 0 -170.5 -83.5t-58.5 -223.5z" />
<glyph unicode="&#xf1;" horiz-adv-x="1099" d="M113 0v969h209l24 -109q170 133 332 133q49 0 92 -10t84 -35t70 -63.5t47 -101t18 -142.5v-641h-246v565q0 102 -31.5 158.5t-117.5 56.5q-114 0 -238 -102v-678h-243zM207 1120v80q0 81 46.5 125.5t121.5 44.5q50 0 103.5 -22.5t96.5 -45t68 -22.5q29 0 37 17.5t8 60.5 h160v-80q0 -80 -47.5 -125t-120.5 -45q-49 0 -102.5 22.5t-97 45t-68.5 22.5q-29 0 -37 -17.5t-8 -60.5h-160z" />
<glyph unicode="&#xf2;" d="M72 487q0 220 134 363t349 143t350 -143t135 -363t-135 -363.5t-350 -143.5t-349 143.5t-134 363.5zM289 1389h266l119 -302h-187zM322 487q0 -140 60.5 -225.5t172.5 -85.5t172.5 85.5t60.5 225.5q0 139 -60.5 224.5t-172.5 85.5t-172.5 -85.5t-60.5 -224.5z" />
<glyph unicode="&#xf3;" d="M72 487q0 220 134 363t349 143t350 -143t135 -363t-135 -363.5t-350 -143.5t-349 143.5t-134 363.5zM322 487q0 -140 60.5 -225.5t172.5 -85.5t172.5 85.5t60.5 225.5q0 139 -60.5 224.5t-172.5 85.5t-172.5 -85.5t-60.5 -224.5zM438 1087l119 302h264l-196 -302h-187z " />
<glyph unicode="&#xf4;" d="M72 487q0 220 134 363t349 143t350 -143t135 -363t-135 -363.5t-350 -143.5t-349 143.5t-134 363.5zM250 1087l205 302h196l207 -302h-192l-113 162l-111 -162h-192zM322 487q0 -140 60.5 -225.5t172.5 -85.5t172.5 85.5t60.5 225.5q0 139 -60.5 224.5t-172.5 85.5 t-172.5 -85.5t-60.5 -224.5z" />
<glyph unicode="&#xf5;" d="M72 487q0 220 134 363t349 143t350 -143t135 -363t-135 -363.5t-350 -143.5t-349 143.5t-134 363.5zM233 1120v80q0 81 46.5 125.5t121.5 44.5q50 0 104 -22.5t97 -45t68 -22.5q29 0 37 17.5t8 60.5h159v-80q0 -81 -47 -125.5t-120 -44.5q-49 0 -103 22.5t-97.5 45 t-68.5 22.5q-29 0 -37 -17.5t-8 -60.5h-160zM322 487q0 -140 60.5 -225.5t172.5 -85.5t172.5 85.5t60.5 225.5q0 139 -60.5 224.5t-172.5 85.5t-172.5 -85.5t-60.5 -224.5z" />
<glyph unicode="&#xf6;" d="M72 487q0 220 134 363t349 143t350 -143t135 -363t-135 -363.5t-350 -143.5t-349 143.5t-134 363.5zM233 1239q0 53 36.5 90t88.5 37q53 0 90 -36.5t37 -90.5q0 -52 -37 -88.5t-90 -36.5q-51 0 -88 36.5t-37 88.5zM322 487q0 -140 60.5 -225.5t172.5 -85.5t172.5 85.5 t60.5 225.5q0 139 -60.5 224.5t-172.5 85.5t-172.5 -85.5t-60.5 -224.5zM625 1239q0 54 36 90.5t89 36.5q51 0 87.5 -36.5t36.5 -90.5q0 -52 -36.5 -88.5t-87.5 -36.5q-52 0 -88.5 36t-36.5 89z" />
<glyph unicode="&#xf7;" horiz-adv-x="1126" d="M82 412v202h965v-202h-965zM444 160q0 54 37 90.5t88 36.5q53 0 89 -36.5t36 -90.5t-36 -90.5t-89 -36.5q-51 0 -88 36.5t-37 90.5zM444 864q0 54 37 90.5t88 36.5q53 0 89 -36.5t36 -90.5t-36 -90.5t-89 -36.5q-51 0 -88 36.5t-37 90.5z" />
<glyph unicode="&#xf8;" d="M72 487q0 220 134 363t349 143q140 0 254 -71l76 98l104 -80l-78 -98q129 -145 129 -355q0 -220 -135 -363.5t-350 -143.5q-142 0 -256 71l-82 -106l-102 80l84 106q-127 143 -127 356zM315 487q0 -93 31 -163l338 434q-56 43 -129 43q-112 0 -176 -88t-64 -226zM426 215 q52 -43 129 -43q113 0 176.5 88t63.5 227q0 88 -29 164z" />
<glyph unicode="&#xf9;" horiz-adv-x="1095" d="M113 373v596h243v-572q0 -75 21 -121q39 -88 145 -88q58 0 111.5 24.5t87.5 61.5v695h246v-729q0 -182 16 -240h-209l-37 100q-135 -120 -301 -120q-39 0 -77.5 9t-80 28.5t-77 59t-56.5 93.5q-32 74 -32 203zM279 1389h266l119 -302h-187z" />
<glyph unicode="&#xfa;" horiz-adv-x="1095" d="M113 373v596h243v-572q0 -75 21 -121q39 -88 145 -88q58 0 111.5 24.5t87.5 61.5v695h246v-729q0 -182 16 -240h-209l-37 100q-135 -120 -301 -120q-39 0 -77.5 9t-80 28.5t-77 59t-56.5 93.5q-32 74 -32 203zM424 1087l119 302h264l-197 -302h-186z" />
<glyph unicode="&#xfb;" horiz-adv-x="1095" d="M113 373v596h243v-572q0 -75 21 -121q39 -88 145 -88q58 0 111.5 24.5t87.5 61.5v695h246v-729q0 -182 16 -240h-209l-37 100q-135 -120 -301 -120q-39 0 -77.5 9t-80 28.5t-77 59t-56.5 93.5q-32 74 -32 203zM242 1087l204 302h197l207 -302h-193l-112 162l-111 -162 h-192z" />
<glyph unicode="&#xfc;" horiz-adv-x="1095" d="M113 373v596h243v-572q0 -75 21 -121q39 -88 145 -88q58 0 111.5 24.5t87.5 61.5v695h246v-729q0 -182 16 -240h-209l-37 100q-135 -120 -301 -120q-39 0 -77.5 9t-80 28.5t-77 59t-56.5 93.5q-32 74 -32 203zM225 1239q0 53 36.5 90t88.5 37q53 0 90 -36.5t37 -90.5 q0 -52 -37 -88.5t-90 -36.5q-51 0 -88 36.5t-37 88.5zM616 1239q0 54 36 90.5t89 36.5q51 0 88 -37t37 -90q0 -52 -37 -88.5t-88 -36.5q-53 0 -89 36t-36 89z" />
<glyph unicode="&#xfd;" horiz-adv-x="1060" d="M-25 -440l62 192q70 -39 145 -39q86 0 151 66.5t120 226.5l-437 963h260l287 -684h4l232 684h252l-371 -1000q-44 -118 -92.5 -202t-93 -132t-98.5 -75.5t-99 -36t-104 -8.5q-116 0 -218 45zM424 1087l119 302h264l-197 -302h-186z" />
<glyph unicode="&#xfe;" horiz-adv-x="1091" d="M125 -485v1935h244v-473q66 16 153 16q237 0 368.5 -134t131.5 -359q0 -227 -138.5 -373.5t-369.5 -146.5q-71 0 -145 22v-487h-244zM369 207q60 -25 131 -25q132 0 201 83.5t69 226.5q0 148 -76.5 224.5t-208.5 76.5q-61 0 -116 -19v-567z" />
<glyph unicode="&#xff;" horiz-adv-x="1060" d="M-25 -440l62 192q70 -39 145 -39q86 0 151 66.5t120 226.5l-437 963h260l287 -684h4l232 684h252l-371 -1000q-44 -118 -92.5 -202t-93 -132t-98.5 -75.5t-99 -36t-104 -8.5q-116 0 -218 45zM227 1239q0 53 36.5 90t88.5 37q53 0 90 -36.5t37 -90.5q0 -52 -37 -88.5 t-90 -36.5q-51 0 -88 36.5t-37 88.5zM618 1239q0 54 36 90.5t89 36.5q51 0 88 -37t37 -90q0 -52 -37 -88.5t-88 -36.5q-53 0 -89 36t-36 89z" />
<glyph unicode="&#x100;" horiz-adv-x="1294" d="M16 0l523 1356h196l543 -1356h-266l-131 338h-482l-127 -338h-256zM346 1442v186h584v-186h-584zM471 539h334l-94 268q-46 128 -68 209h-4q-13 -50 -70 -211z" />
<glyph unicode="&#x101;" horiz-adv-x="1007" d="M68 289q0 181 163 264q95 49 250 55l166 6v31q0 82 -49 122t-137 40q-125 0 -254 -68l-80 158q175 96 375 96q389 0 389 -352v-393q0 -182 18 -248h-204l-37 92q-124 -112 -279 -112q-140 0 -230.5 85.5t-90.5 223.5zM213 1165v185h584v-185h-584zM315 305 q0 -63 38.5 -98t105.5 -35q100 0 188 72v207l-131 -5q-91 -3 -141 -30q-60 -34 -60 -111z" />
<glyph unicode="&#x102;" horiz-adv-x="1294" d="M16 0l523 1356h196l543 -1356h-266l-131 338h-482l-127 -338h-256zM338 1706h170q6 -62 40 -98.5t91 -36.5t91 36.5t40 98.5h168q-7 -133 -89 -210t-212 -77q-128 0 -209 77t-90 210zM471 539h334l-94 268q-46 128 -68 209h-4q-13 -50 -70 -211z" />
<glyph unicode="&#x103;" horiz-adv-x="1007" d="M68 289q0 181 163 264q95 49 250 55l166 6v31q0 82 -49 122t-137 40q-125 0 -254 -68l-80 158q175 96 375 96q389 0 389 -352v-393q0 -182 18 -248h-204l-37 92q-124 -112 -279 -112q-140 0 -230.5 85.5t-90.5 223.5zM205 1393h170q6 -62 40 -97.5t91 -35.5t91 35.5 t40 97.5h168q-7 -132 -89 -208.5t-212 -76.5q-128 0 -209 76t-90 209zM315 305q0 -63 38.5 -98t105.5 -35q100 0 188 72v207l-131 -5q-91 -3 -141 -30q-60 -34 -60 -111z" />
<glyph unicode="&#x104;" horiz-adv-x="1294" d="M16 0l523 1356h196l543 -1356q-117 -33 -185.5 -96t-68.5 -127q0 -33 18 -52.5t52 -19.5q32 0 75 12l27 -131q-82 -24 -162 -24q-101 0 -157 47.5t-56 126.5q0 141 189 270l-129 332h-482l-127 -338h-256zM471 539h334l-94 268q-46 128 -68 209h-4q-13 -50 -70 -211z" />
<glyph unicode="&#x105;" horiz-adv-x="1007" d="M68 289q0 181 163 264q95 49 250 55l166 6v31q0 82 -49 122t-137 40q-125 0 -254 -68l-80 158q175 96 375 96q389 0 389 -352v-401q0 -176 18 -242q-92 -44 -145 -101.5t-53 -119.5q0 -72 71 -72q30 0 74 12l29 -131q-85 -24 -162 -24q-101 0 -158 47.5t-57 126.5 q0 47 17 89.5t49 77t60 57t66 48.5l-32 84q-124 -112 -279 -112q-140 0 -230.5 85.5t-90.5 223.5zM315 305q0 -63 38.5 -98t105.5 -35q100 0 188 72v207l-131 -5q-91 -3 -141 -30q-60 -34 -60 -111z" />
<glyph unicode="&#x106;" horiz-adv-x="1284" d="M106 659q0 146 51 274.5t142 223.5t226 150t294 55q205 0 355 -66v-229q-166 88 -349 88q-144 0 -249.5 -68t-156 -177t-50.5 -244q0 -215 121.5 -347.5t326.5 -132.5q166 0 332 95l68 -195q-194 -106 -429 -106q-163 0 -292.5 50.5t-214.5 141t-130 214.5t-45 273z M590 1425l119 301h264l-197 -301h-186z" />
<glyph unicode="&#x107;" horiz-adv-x="917" d="M72 477q0 224 147 370t365 146q160 0 260 -65v-207q-105 76 -236 76q-132 0 -209 -88.5t-77 -225.5q0 -147 73.5 -227t200.5 -80q104 0 225 66l72 -168q-62 -42 -149 -68t-183 -26q-153 0 -265.5 66t-168 177.5t-55.5 253.5zM395 1087l119 302h264l-196 -302h-187z" />
<glyph unicode="&#x108;" horiz-adv-x="1284" d="M106 659q0 146 51 274.5t142 223.5t226 150t294 55q205 0 355 -66v-229q-166 88 -349 88q-144 0 -249.5 -68t-156 -177t-50.5 -244q0 -215 121.5 -347.5t326.5 -132.5q166 0 332 95l68 -195q-194 -106 -429 -106q-163 0 -292.5 50.5t-214.5 141t-130 214.5t-45 273z M414 1425l204 301h197l207 -301h-193l-112 162l-111 -162h-192z" />
<glyph unicode="&#x109;" horiz-adv-x="917" d="M72 477q0 224 147 370t365 146q160 0 260 -65v-207q-105 76 -236 76q-132 0 -209 -88.5t-77 -225.5q0 -147 73.5 -227t200.5 -80q104 0 225 66l72 -168q-62 -42 -149 -68t-183 -26q-153 0 -265.5 66t-168 177.5t-55.5 253.5zM215 1087l205 302h196l207 -302h-192 l-113 162l-110 -162h-193z" />
<glyph unicode="&#x10a;" horiz-adv-x="1284" d="M106 659q0 146 51 274.5t142 223.5t226 150t294 55q205 0 355 -66v-229q-166 88 -349 88q-144 0 -249.5 -68t-156 -177t-50.5 -244q0 -215 121.5 -347.5t326.5 -132.5q166 0 332 95l68 -195q-194 -106 -429 -106q-163 0 -292.5 50.5t-214.5 141t-130 214.5t-45 273z M596 1591q0 60 44 103t108 43t106.5 -41.5t42.5 -104.5q0 -61 -42.5 -104t-106.5 -43t-108 42.5t-44 104.5z" />
<glyph unicode="&#x10b;" horiz-adv-x="917" d="M72 477q0 224 147 370t365 146q160 0 260 -65v-207q-105 76 -236 76q-132 0 -209 -88.5t-77 -225.5q0 -147 73.5 -227t200.5 -80q104 0 225 66l72 -168q-62 -42 -149 -68t-183 -26q-153 0 -265.5 66t-168 177.5t-55.5 253.5zM369 1272q0 62 43.5 104.5t107.5 42.5 t107 -42t43 -105q0 -61 -43 -103.5t-107 -42.5t-107.5 42t-43.5 104z" />
<glyph unicode="&#x10c;" horiz-adv-x="1284" d="M106 659q0 146 51 274.5t142 223.5t226 150t294 55q205 0 355 -66v-229q-166 88 -349 88q-144 0 -249.5 -68t-156 -177t-50.5 -244q0 -215 121.5 -347.5t326.5 -132.5q166 0 332 95l68 -195q-194 -106 -429 -106q-163 0 -292.5 50.5t-214.5 141t-130 214.5t-45 273z M414 1726h194l113 -161l110 161h191l-205 -301h-196z" />
<glyph unicode="&#x10d;" horiz-adv-x="917" d="M72 477q0 224 147 370t365 146q160 0 260 -65v-207q-105 76 -236 76q-132 0 -209 -88.5t-77 -225.5q0 -147 73.5 -227t200.5 -80q104 0 225 66l72 -168q-62 -42 -149 -68t-183 -26q-153 0 -265.5 66t-168 177.5t-55.5 253.5zM215 1389h195l112 -160l111 160h190 l-205 -302h-196z" />
<glyph unicode="&#x10e;" horiz-adv-x="1425" d="M164 0v1350h420q351 0 544 -180.5t193 -485.5q0 -310 -205.5 -497t-554.5 -187h-397zM311 1726h195l112 -161l111 161h191l-205 -301h-197zM410 209h155q129 0 226 37.5t154 103.5t84.5 148.5t27.5 181.5q0 217 -126.5 339t-369.5 122h-151v-932z" />
<glyph unicode="&#x10f;" horiz-adv-x="1116" d="M72 475q0 229 149 373.5t381 144.5q72 0 131 -12v469h246v-1399q-70 -34 -166.5 -52.5t-189.5 -18.5q-159 0 -282.5 56.5t-196 169.5t-72.5 269zM322 479q0 -139 81 -218t215 -79q68 0 115 17v579q-69 15 -117 15q-130 0 -212 -84t-82 -230zM1051 1051l73 401h242 l-131 -401h-184z" />
<glyph unicode="&#x110;" horiz-adv-x="1425" d="M16 584v200h148v566h420q351 0 544 -180.5t193 -485.5q0 -310 -205.5 -497t-554.5 -187h-397v584h-148zM410 209h155q129 0 226 37.5t154 103.5t84.5 148.5t27.5 181.5q0 217 -126.5 339t-369.5 122h-151v-357h309v-200h-309v-375z" />
<glyph unicode="&#x111;" horiz-adv-x="1116" d="M72 477q0 229 150 371.5t386 142.5q74 0 125 -10v147h-274v181h274v141h246v-141h115v-181h-115v-1071q-151 -77 -381 -77q-110 0 -205 32.5t-167 93.5t-113 156.5t-41 214.5zM315 489q0 -135 82.5 -221t216.5 -86q63 0 119 17v585q-55 15 -117 15q-135 0 -218 -82 t-83 -228z" />
<glyph unicode="&#x112;" horiz-adv-x="1028" d="M164 0v1350h745l-67 -209h-432v-353h432v-208h-432v-371h501v-209h-747zM238 1442v186h583v-186h-583z" />
<glyph unicode="&#x113;" horiz-adv-x="1009" d="M74 483q0 224 117 367t319 143q203 0 316.5 -137.5t113.5 -380.5v-57h-621q5 -113 79.5 -179.5t195.5 -66.5q126 0 244 66l73 -168q-146 -90 -342 -90q-103 0 -186.5 27.5t-140 74t-95 111t-56 137t-17.5 153.5zM223 1165v185h584v-185h-584zM317 588h375 q-2 92 -48.5 155.5t-137.5 63.5q-87 0 -137 -63t-52 -156z" />
<glyph unicode="&#x114;" horiz-adv-x="1028" d="M164 0v1350h745l-67 -209h-432v-353h432v-208h-432v-371h501v-209h-747zM217 1706h170q6 -62 40 -98.5t91 -36.5t91 36.5t40 98.5h168q-7 -133 -89 -210t-212 -77q-128 0 -209 77t-90 210z" />
<glyph unicode="&#x115;" horiz-adv-x="1009" d="M74 483q0 224 117 367t319 143q203 0 316.5 -137.5t113.5 -380.5v-57h-621q5 -113 79.5 -179.5t195.5 -66.5q126 0 244 66l73 -168q-146 -90 -342 -90q-103 0 -186.5 27.5t-140 74t-95 111t-56 137t-17.5 153.5zM215 1393h170q6 -62 40 -97.5t91 -35.5t91 35.5t40 97.5 h168q-7 -132 -89 -208.5t-212 -76.5q-128 0 -209 76t-90 209zM317 588h375q-2 92 -48.5 155.5t-137.5 63.5q-87 0 -137 -63t-52 -156z" />
<glyph unicode="&#x116;" horiz-adv-x="1028" d="M164 0v1350h745l-67 -209h-432v-353h432v-208h-432v-371h501v-209h-747zM365 1591q0 61 43.5 103.5t107.5 42.5q65 0 107.5 -41.5t42.5 -104.5q0 -61 -43 -104t-107 -43t-107.5 42.5t-43.5 104.5z" />
<glyph unicode="&#x117;" horiz-adv-x="1009" d="M74 483q0 224 117 367t319 143q203 0 316.5 -137.5t113.5 -380.5v-57h-621q5 -113 79.5 -179.5t195.5 -66.5q126 0 244 66l73 -168q-146 -90 -342 -90q-103 0 -186.5 27.5t-140 74t-95 111t-56 137t-17.5 153.5zM317 588h375q-2 92 -48.5 155.5t-137.5 63.5 q-87 0 -137 -63t-52 -156zM365 1272q0 62 43.5 104.5t107.5 42.5t107 -42t43 -105q0 -61 -43 -103.5t-107 -42.5t-107.5 42t-43.5 104z" />
<glyph unicode="&#x118;" horiz-adv-x="1028" d="M164 0v1350h745l-67 -209h-432v-353h432v-208h-432v-371h501v-209h-41q-95 -44 -150.5 -102.5t-55.5 -120.5q0 -72 71 -72q29 0 76 12l27 -131q-86 -24 -162 -24q-101 0 -158 47.5t-57 126.5q0 141 180 264h-477z" />
<glyph unicode="&#x119;" horiz-adv-x="1009" d="M72 483q0 224 117 367t319 143q203 0 316.5 -137.5t113.5 -380.5v-57h-621q3 -112 77 -179t196 -67q128 0 246 66l73 -168q-52 -28 -98.5 -58.5t-91.5 -69t-71.5 -81.5t-26.5 -84q0 -72 71 -72q32 0 76 12l27 -131q-83 -24 -162 -24q-101 0 -157 47.5t-56 126.5 q0 136 149 241v5q-8 -2 -28 -2q-97 3 -176.5 31.5t-133 75.5t-90 110.5t-53 135t-16.5 150.5zM315 588h375q-3 93 -49.5 156t-136.5 63q-87 0 -138 -63.5t-51 -155.5z" />
<glyph unicode="&#x11a;" horiz-adv-x="1028" d="M164 0v1350h745l-67 -209h-432v-353h432v-208h-432v-371h501v-209h-747zM221 1726h195l112 -161l111 161h190l-204 -301h-197z" />
<glyph unicode="&#x11b;" horiz-adv-x="1009" d="M74 483q0 224 117 367t319 143q203 0 316.5 -137.5t113.5 -380.5v-57h-621q5 -113 79.5 -179.5t195.5 -66.5q126 0 244 66l73 -168q-146 -90 -342 -90q-103 0 -186.5 27.5t-140 74t-95 111t-56 137t-17.5 153.5zM211 1389h195l112 -160l111 160h190l-205 -302h-196z M317 588h375q-2 92 -48.5 155.5t-137.5 63.5q-87 0 -137 -63t-52 -156z" />
<glyph unicode="&#x11c;" horiz-adv-x="1449" d="M106 651q0 153 53.5 284t149 225.5t234.5 148t305 53.5q204 0 391 -68v-229q-180 90 -373 90q-239 0 -368 -133t-129 -354t122 -351.5t338 -130.5q139 0 226 41v428h248v-567q-97 -48 -227 -78t-265 -30q-163 0 -296.5 50.5t-222.5 140t-137.5 212.5t-48.5 268zM465 1425 l205 301h196l207 -301h-192l-113 162l-111 -162h-192z" />
<glyph unicode="&#x11d;" horiz-adv-x="1032" d="M29 -201q0 77 48 138.5t126 95.5q-64 39 -64 121q0 45 29.5 93.5t87.5 88.5q-76 44 -119 124t-43 177q0 68 25 131t72.5 113.5t125 81t172.5 30.5q120 0 193 -43q13 -5 25 4q42 42 95.5 63t137.5 21q38 0 66 -4l-50 -176q-38 10 -71 10q-45 0 -72 -16q86 -92 86 -229 q0 -162 -111.5 -260.5t-289.5 -98.5q-63 0 -119 17q-25 -43 -25 -72q0 -35 35 -56t91.5 -31.5t124 -19t135.5 -24.5t124.5 -41.5t91.5 -77t35 -125.5q0 -138 -134.5 -228.5t-377.5 -90.5q-210 0 -330 78t-120 206zM195 1087l204 302h197l207 -302h-193l-112 162l-111 -162 h-192zM248 -158q0 -72 71 -113.5t193 -41.5q110 0 178 33t68 87q0 39 -31.5 65t-84 38t-107 19.5t-115 17t-94.5 22.5q-78 -58 -78 -127zM326 629q0 -76 45.5 -128t124.5 -52q76 0 124 46.5t48 131.5q0 75 -47.5 128.5t-126.5 53.5q-74 0 -121 -47.5t-47 -132.5z" />
<glyph unicode="&#x11e;" horiz-adv-x="1449" d="M106 651q0 153 53.5 284t149 225.5t234.5 148t305 53.5q204 0 391 -68v-229q-180 90 -373 90q-239 0 -368 -133t-129 -354t122 -351.5t338 -130.5q139 0 226 41v428h248v-567q-97 -48 -227 -78t-265 -30q-163 0 -296.5 50.5t-222.5 140t-137.5 212.5t-48.5 268zM455 1706 h170q6 -62 40 -98.5t91 -36.5t91 36.5t40 98.5h168q-7 -133 -89 -210t-212 -77q-128 0 -209 77t-90 210z" />
<glyph unicode="&#x11f;" horiz-adv-x="1032" d="M29 -201q0 77 48 138.5t126 95.5q-64 39 -64 121q0 45 29.5 93.5t87.5 88.5q-76 44 -119 124t-43 177q0 68 25 131t72.5 113.5t125 81t172.5 30.5q120 0 193 -43q13 -5 25 4q42 42 95.5 63t137.5 21q38 0 66 -4l-50 -176q-38 10 -71 10q-45 0 -72 -16q86 -92 86 -229 q0 -162 -111.5 -260.5t-289.5 -98.5q-63 0 -119 17q-25 -43 -25 -72q0 -35 35 -56t91.5 -31.5t124 -19t135.5 -24.5t124.5 -41.5t91.5 -77t35 -125.5q0 -138 -134.5 -228.5t-377.5 -90.5q-210 0 -330 78t-120 206zM199 1393h170q6 -62 40 -97.5t91 -35.5t91 35.5t40 97.5 h168q-7 -132 -89 -208.5t-212 -76.5q-128 0 -209 76t-90 209zM248 -158q0 -72 71 -113.5t193 -41.5q110 0 178 33t68 87q0 39 -31.5 65t-84 38t-107 19.5t-115 17t-94.5 22.5q-78 -58 -78 -127zM326 629q0 -76 45.5 -128t124.5 -52q76 0 124 46.5t48 131.5q0 75 -47.5 128.5 t-126.5 53.5q-74 0 -121 -47.5t-47 -132.5z" />
<glyph unicode="&#x120;" horiz-adv-x="1449" d="M106 651q0 153 53.5 284t149 225.5t234.5 148t305 53.5q204 0 391 -68v-229q-180 90 -373 90q-239 0 -368 -133t-129 -354t122 -351.5t338 -130.5q139 0 226 41v428h248v-567q-97 -48 -227 -78t-265 -30q-163 0 -296.5 50.5t-222.5 140t-137.5 212.5t-48.5 268zM616 1591 q0 60 44 103t108 43q65 0 107.5 -41.5t42.5 -104.5q0 -61 -43 -104t-107 -43t-108 42.5t-44 104.5z" />
<glyph unicode="&#x121;" horiz-adv-x="1032" d="M29 -201q0 77 48 138.5t126 95.5q-64 39 -64 121q0 45 29.5 93.5t87.5 88.5q-76 44 -119 124t-43 177q0 68 25 131t72.5 113.5t125 81t172.5 30.5q120 0 193 -43q13 -5 25 4q42 42 95.5 63t137.5 21q38 0 66 -4l-50 -176q-38 10 -71 10q-45 0 -72 -16q86 -92 86 -229 q0 -162 -111.5 -260.5t-289.5 -98.5q-63 0 -119 17q-25 -43 -25 -72q0 -35 35 -56t91.5 -31.5t124 -19t135.5 -24.5t124.5 -41.5t91.5 -77t35 -125.5q0 -138 -134.5 -228.5t-377.5 -90.5q-210 0 -330 78t-120 206zM248 -158q0 -72 71 -113.5t193 -41.5q110 0 178 33t68 87 q0 39 -31.5 65t-84 38t-107 19.5t-115 17t-94.5 22.5q-78 -58 -78 -127zM326 629q0 -76 45.5 -128t124.5 -52q76 0 124 46.5t48 131.5q0 75 -47.5 128.5t-126.5 53.5q-74 0 -121 -47.5t-47 -132.5zM348 1272q0 62 44 104.5t108 42.5t106.5 -42t42.5 -105q0 -61 -42.5 -103.5 t-106.5 -42.5t-108 42t-44 104z" />
<glyph unicode="&#x122;" horiz-adv-x="1443" d="M100 651q0 153 53.5 284t149 225.5t234.5 148t305 53.5q204 0 391 -68v-229q-180 90 -373 90q-239 0 -368.5 -133t-129.5 -354t122.5 -351.5t338.5 -130.5q139 0 226 41v428h247v-567q-97 -48 -226.5 -78t-264.5 -30q-163 0 -296.5 50.5t-222.5 140t-137.5 212.5 t-48.5 268zM551 -338q81 17 116 47.5t35 77.5q0 53 -40 107h208q48 -70 48 -148q0 -194 -308 -231z" />
<glyph unicode="&#x123;" horiz-adv-x="1032" d="M29 -201q0 77 48 138.5t126 95.5q-64 39 -64 121q0 45 29.5 93.5t87.5 88.5q-76 44 -119 124t-43 177q0 68 25 131t72.5 113.5t125 81t172.5 30.5q120 0 193 -43q13 -5 25 4q42 42 95.5 63t137.5 21q38 0 66 -4l-50 -176q-38 10 -71 10q-45 0 -72 -16q86 -92 86 -229 q0 -162 -111.5 -260.5t-289.5 -98.5q-63 0 -119 17q-25 -43 -25 -72q0 -35 35 -56t91.5 -31.5t124 -19t135.5 -24.5t124.5 -41.5t91.5 -77t35 -125.5q0 -138 -134.5 -228.5t-377.5 -90.5q-210 0 -330 78t-120 206zM248 -158q0 -72 71 -113.5t193 -41.5q110 0 178 33t68 87 q0 39 -31.5 65t-84 38t-107 19.5t-115 17t-94.5 22.5q-78 -58 -78 -127zM326 629q0 -76 45.5 -128t124.5 -52q76 0 124 46.5t48 131.5q0 75 -47.5 128.5t-126.5 53.5q-74 0 -121 -47.5t-47 -132.5zM340 1235q0 194 307 231l58 -147q-80 -17 -115 -48t-35 -77q0 -52 41 -107 h-209q-47 68 -47 148z" />
<glyph unicode="&#x124;" horiz-adv-x="1464" d="M164 0v1350h246v-557h645v557h248v-1350h-248v584h-645v-584h-246zM430 1425l205 301h196l207 -301h-192l-113 162l-110 -162h-193z" />
<glyph unicode="&#x125;" horiz-adv-x="1112" d="M-55 1487l205 301h196l207 -301h-193l-112 162l-111 -162h-192zM127 0v1450h244v-588q156 131 321 131q62 0 114 -17t97.5 -55t71.5 -109.5t26 -170.5v-641h-243v565q0 102 -32 158.5t-118 56.5q-113 0 -237 -102v-678h-244z" />
<glyph unicode="&#x126;" horiz-adv-x="1464" d="M29 977v188h135v185h246v-185h645v185h248v-185h133v-188h-133v-977h-248v584h-645v-584h-246v977h-135zM410 793h645v184h-645v-184z" />
<glyph unicode="&#x127;" horiz-adv-x="1099" d="M-4 1114v186h117v150h243v-150h258v-186h-258v-252q159 131 322 131q49 0 92 -10t84 -35t70 -63.5t47 -101t18 -142.5v-641h-246v565q0 102 -31.5 158.5t-117.5 56.5q-114 0 -238 -102v-678h-243v1114h-117z" />
<glyph unicode="&#x128;" horiz-adv-x="573" d="M-35 1475v79q0 81 46.5 125.5t121.5 44.5q50 0 103.5 -22.5t96.5 -45t68 -22.5q29 0 37 17.5t8 60.5h160v-82q0 -79 -47.5 -123.5t-120.5 -44.5q-49 0 -102.5 22t-97 44t-68.5 22q-29 0 -37 -17t-8 -58h-160zM164 0v1350h246v-1350h-246z" />
<glyph unicode="&#x129;" horiz-adv-x="487" d="M-76 1120v80q0 81 46.5 125.5t121.5 44.5q50 0 103.5 -22.5t96.5 -45t68 -22.5q29 0 37.5 18t8.5 60h159v-80q0 -80 -47.5 -125t-120.5 -45q-49 0 -102.5 22.5t-97 45t-68.5 22.5q-29 0 -37 -17.5t-8 -60.5h-160zM121 0v969h246v-969h-246z" />
<glyph unicode="&#x12a;" horiz-adv-x="573" d="M-8 1442v186h583v-186h-583zM164 0v1350h246v-1350h-246z" />
<glyph unicode="&#x12b;" horiz-adv-x="487" d="M-47 1165v185h584v-185h-584zM121 0v969h246v-969h-246z" />
<glyph unicode="&#x12c;" horiz-adv-x="573" d="M-16 1706h170q6 -62 40 -98.5t91 -36.5t91 36.5t40 98.5h168q-7 -133 -89 -210t-212 -77q-128 0 -209 77t-90 210zM164 0v1350h246v-1350h-246z" />
<glyph unicode="&#x12d;" horiz-adv-x="487" d="M-55 1393h170q6 -62 40 -97.5t91 -35.5t91 35.5t40 97.5h168q-7 -132 -89 -208.5t-212 -76.5q-128 0 -209 76t-90 209zM121 0v969h246v-969h-246z" />
<glyph unicode="&#x12e;" horiz-adv-x="573" d="M31 -250q0 140 133 256v1344h246v-1350q-85 -44 -132 -102t-47 -117q0 -36 19 -56t55 -20q31 0 74 12l27 -131q-80 -24 -156 -24q-105 0 -162 49t-57 139z" />
<glyph unicode="&#x12f;" horiz-adv-x="487" d="M-12 -250q0 137 133 256v963h246v-969q-84 -44 -130.5 -102t-46.5 -117q0 -76 72 -76q32 0 76 12l27 -131q-80 -24 -158 -24q-104 0 -161.5 49.5t-57.5 138.5zM94 1272q0 62 43 104.5t107 42.5q65 0 108 -42t43 -105q0 -61 -43.5 -103.5t-107.5 -42.5t-107 42t-43 104z " />
<glyph unicode="&#x130;" horiz-adv-x="573" d="M137 1591q0 60 44 103t108 43t106.5 -41.5t42.5 -104.5q0 -61 -42.5 -104t-106.5 -43t-108 42.5t-44 104.5zM164 0v1350h246v-1350h-246z" />
<glyph unicode="&#x131;" horiz-adv-x="487" d="M121 0v969h246v-969h-246z" />
<glyph unicode="&#x132;" horiz-adv-x="1247" d="M164 0v1350h246v-1350h-246zM510 -346l49 199q51 -25 123 -25q49 0 81.5 15t48 44.5t21 61.5t5.5 78v1323h245v-1356q0 -170 -94 -271.5t-287 -101.5q-105 0 -192 33z" />
<glyph unicode="&#x133;" horiz-adv-x="1003" d="M94 1272q0 62 43 104.5t107 42.5q65 0 108 -42t43 -105q0 -61 -43.5 -103.5t-107.5 -42.5t-107 42t-43 104zM121 0v969h246v-969h-246zM362 -451l46 201q48 -22 104 -22q67 0 96 39t29 127v1075h246v-1112q0 -163 -89.5 -252.5t-244.5 -89.5q-112 0 -187 34zM610 1272 q0 62 43 104.5t107 42.5q66 0 108.5 -42t42.5 -105q0 -61 -43.5 -103.5t-107.5 -42.5t-107 42t-43 104z" />
<glyph unicode="&#x134;" horiz-adv-x="673" d="M-63 -346l49 199q51 -25 123 -25q49 0 81.5 15t47.5 44.5t20.5 61.5t5.5 78v1323h246v-1356q0 -170 -94 -271.5t-287 -101.5q-105 0 -192 33zM78 1425l205 301h196l207 -301h-192l-113 162l-111 -162h-192z" />
<glyph unicode="&#x135;" horiz-adv-x="516" d="M-125 -440l45 174q73 -25 109 -25q37 0 61.5 13t37 39.5t17.5 56.5t5 73v1078h245v-1100q0 -91 -27 -161t-73 -110.5t-100 -60.5t-113 -20q-110 0 -207 43zM-45 1087l203 302h196l207 -302h-192l-113 162l-111 -162h-190z" />
<glyph unicode="&#x136;" horiz-adv-x="1226" d="M164 0v1350h246v-576h6l463 576h284l-542 -656l573 -694h-301l-477 592h-6v-592h-246zM375 -338q81 17 116 47.5t35 77.5q0 52 -41 107h209q47 -68 47 -148q0 -194 -307 -231z" />
<glyph unicode="&#x137;" horiz-adv-x="1009" d="M125 0v1450h244v-817h4l317 336h279l-398 -422l430 -547h-284l-344 449h-4v-449h-244zM279 -338q81 17 116 47.5t35 77.5q0 52 -41 107h209q47 -68 47 -148q0 -194 -307 -231z" />
<glyph unicode="&#x139;" horiz-adv-x="925" d="M164 0v1350h246v-1141h479v-209h-725zM176 1425l119 301h264l-197 -301h-186z" />
<glyph unicode="&#x13a;" horiz-adv-x="583" d="M125 219v1231h244v-1165q0 -49 17.5 -68.5t53.5 -19.5q32 0 62 12l47 -189q-78 -34 -180 -34q-244 0 -244 233zM131 1499l102 260h256l-170 -260h-188z" />
<glyph unicode="&#x13b;" horiz-adv-x="925" d="M164 0v1350h246v-1141h479v-209h-725zM289 -338q81 17 116 47.5t35 77.5q0 52 -41 107h209q47 -68 47 -148q0 -194 -307 -231z" />
<glyph unicode="&#x13c;" horiz-adv-x="583" d="M96 -338q82 17 117 48t35 77q0 52 -41 107h209q47 -68 47 -148q0 -194 -307 -231zM115 219v1231h243v-1165q0 -49 18 -68.5t54 -19.5q32 0 62 12l47 -189q-78 -34 -181 -34q-243 0 -243 233z" />
<glyph unicode="&#x13d;" horiz-adv-x="925" d="M164 0v1350h246v-1141h479v-209h-725zM551 1051l74 401h241l-131 -401h-184z" />
<glyph unicode="&#x13e;" horiz-adv-x="583" d="M125 219v1231h244v-1165q0 -49 17.5 -68.5t53.5 -19.5q32 0 62 12l47 -189q-78 -34 -180 -34q-244 0 -244 233zM440 1051l74 401h242l-131 -401h-185z" />
<glyph unicode="&#x13f;" horiz-adv-x="925" d="M164 0v1350h246v-1141h479v-209h-725zM606 721q0 59 39.5 99t95.5 40q58 0 98 -40t40 -99q0 -60 -40.5 -100.5t-97.5 -40.5q-56 0 -95.5 40.5t-39.5 100.5z" />
<glyph unicode="&#x140;" horiz-adv-x="679" d="M125 219v1231h244v-1165q0 -49 17.5 -68.5t53.5 -19.5q32 0 62 12l47 -189q-78 -34 -180 -34q-244 0 -244 233zM451 705q0 59 39.5 99t95.5 40q58 0 97.5 -40t39.5 -99q0 -60 -40 -101t-97 -41q-56 0 -95.5 41t-39.5 101z" />
<glyph unicode="&#x141;" horiz-adv-x="927" d="M41 377v227l123 74v672h248v-529l282 170v-227l-282 -170v-385h479v-209h-727v449z" />
<glyph unicode="&#x142;" horiz-adv-x="641" d="M53 459v229l127 78v684h246v-539l141 80v-227l-141 -84v-395q0 -49 17.5 -67.5t54.5 -18.5q32 0 59 12l49 -191q-78 -34 -182 -34q-120 0 -182 59t-62 174v316z" />
<glyph unicode="&#x143;" horiz-adv-x="1533" d="M164 0v1350h244l565 -740q110 -150 149 -209h4q-4 144 -4 228v721h248v-1350h-223l-586 770q-26 34 -52.5 70t-55 75.5t-43.5 59.5h-4q4 -53 4 -209v-766h-246zM653 1425l119 301h264l-196 -301h-187z" />
<glyph unicode="&#x144;" horiz-adv-x="1099" d="M113 0v969h209l24 -109q170 133 332 133q49 0 92 -10t84 -35t70 -63.5t47 -101t18 -142.5v-641h-246v565q0 102 -31.5 158.5t-117.5 56.5q-114 0 -238 -102v-678h-243zM403 1087l119 302h264l-196 -302h-187z" />
<glyph unicode="&#x145;" horiz-adv-x="1533" d="M164 0v1350h244l565 -740q110 -150 149 -209h4q-4 144 -4 228v721h248v-1350h-223l-586 770q-26 34 -52.5 70t-55 75.5t-43.5 59.5h-4q4 -53 4 -209v-766h-246zM557 -338q82 17 117 48t35 77q0 52 -41 107h209q47 -68 47 -148q0 -194 -308 -231z" />
<glyph unicode="&#x146;" horiz-adv-x="1099" d="M113 0v969h209l24 -109q170 133 332 133q49 0 92 -10t84 -35t70 -63.5t47 -101t18 -142.5v-641h-246v565q0 102 -31.5 158.5t-117.5 56.5q-114 0 -238 -102v-678h-243zM313 -338q82 17 117 48t35 77q0 52 -41 107h209q47 -68 47 -148q0 -194 -307 -231z" />
<glyph unicode="&#x147;" horiz-adv-x="1533" d="M164 0v1350h244l565 -740q110 -150 149 -209h4q-4 144 -4 228v721h248v-1350h-223l-586 770q-26 34 -52.5 70t-55 75.5t-43.5 59.5h-4q4 -53 4 -209v-766h-246zM467 1726h195l112 -161l111 161h190l-205 -301h-196z" />
<glyph unicode="&#x148;" horiz-adv-x="1099" d="M113 0v969h209l24 -109q170 133 332 133q49 0 92 -10t84 -35t70 -63.5t47 -101t18 -142.5v-641h-246v565q0 102 -31.5 158.5t-117.5 56.5q-114 0 -238 -102v-678h-243zM221 1389h195l112 -160l111 160h190l-204 -302h-197z" />
<glyph unicode="&#x14a;" horiz-adv-x="1544" d="M164 0v1350h244l575 -740q109 -143 152 -209h4q-4 72 -4 228v721h247v-1389q0 -173 -94 -272t-270 -99q-114 0 -201 35l51 199q52 -27 123 -27q85 0 114.5 49t29.5 144v41l-574 739q-26 34 -52.5 70t-55 75.5t-43.5 59.5h-4q4 -53 4 -209v-766h-246z" />
<glyph unicode="&#x14b;" horiz-adv-x="1099" d="M113 0v969h209l24 -109q170 133 332 133q49 0 92 -10t84 -35t70 -63.5t47 -101t18 -142.5v-698q0 -163 -89.5 -252.5t-244.5 -89.5q-111 0 -186 34l45 201q48 -22 104 -22q67 0 96 39t29 127v585q0 102 -31.5 158.5t-117.5 56.5q-114 0 -238 -102v-678h-243z" />
<glyph unicode="&#x14c;" horiz-adv-x="1572" d="M106 670q0 202 86.5 360t241.5 245t352 87t352 -87.5t241.5 -245.5t86.5 -359q0 -204 -88 -361.5t-242.5 -243t-349.5 -85.5q-197 0 -351.5 85.5t-241.5 243t-87 361.5zM369 670q0 -226 113.5 -355t303.5 -129q189 0 303.5 129t114.5 355q0 224 -113 354.5t-305 130.5 q-190 0 -303.5 -129t-113.5 -356zM500 1442v186h583v-186h-583z" />
<glyph unicode="&#x14d;" d="M72 487q0 220 134 363t349 143t350 -143t135 -363t-135 -363.5t-350 -143.5t-349 143.5t-134 363.5zM262 1165v185h584v-185h-584zM322 487q0 -140 60.5 -225.5t172.5 -85.5t172.5 85.5t60.5 225.5q0 139 -60.5 224.5t-172.5 85.5t-172.5 -85.5t-60.5 -224.5z" />
<glyph unicode="&#x14e;" horiz-adv-x="1572" d="M106 670q0 202 86.5 360t241.5 245t352 87t352 -87.5t241.5 -245.5t86.5 -359q0 -204 -88 -361.5t-242.5 -243t-349.5 -85.5q-197 0 -351.5 85.5t-241.5 243t-87 361.5zM369 670q0 -226 113.5 -355t303.5 -129q189 0 303.5 129t114.5 355q0 224 -113 354.5t-305 130.5 q-190 0 -303.5 -129t-113.5 -356zM489 1706h170q6 -62 40.5 -98.5t91.5 -36.5t91 36.5t40 98.5h168q-7 -133 -89.5 -210t-212.5 -77q-128 0 -209 77t-90 210z" />
<glyph unicode="&#x14f;" d="M72 487q0 220 134 363t349 143t350 -143t135 -363t-135 -363.5t-350 -143.5t-349 143.5t-134 363.5zM254 1393h170q6 -62 40 -97.5t91 -35.5t91 35.5t40 97.5h168q-7 -132 -89 -208.5t-212 -76.5q-128 0 -209 76t-90 209zM322 487q0 -140 60.5 -225.5t172.5 -85.5 t172.5 85.5t60.5 225.5q0 139 -60.5 224.5t-172.5 85.5t-172.5 -85.5t-60.5 -224.5z" />
<glyph unicode="&#x150;" horiz-adv-x="1572" d="M106 670q0 202 86.5 360t241.5 245t352 87t352 -87.5t241.5 -245.5t86.5 -359q0 -204 -88 -361.5t-242.5 -243t-349.5 -85.5q-197 0 -351.5 85.5t-241.5 243t-87 361.5zM369 670q0 -226 113.5 -355t303.5 -129q189 0 303.5 129t114.5 355q0 224 -113 354.5t-305 130.5 q-190 0 -303.5 -129t-113.5 -356zM528 1425l119 301h266l-198 -301h-187zM883 1425l118 301h267l-199 -301h-186z" />
<glyph unicode="&#x151;" d="M72 487q0 220 134 363t349 143t350 -143t135 -363t-135 -363.5t-350 -143.5t-349 143.5t-134 363.5zM305 1087l119 302h266l-198 -302h-187zM322 487q0 -140 60.5 -225.5t172.5 -85.5t172.5 85.5t60.5 225.5q0 139 -60.5 224.5t-172.5 85.5t-172.5 -85.5t-60.5 -224.5z M659 1087l119 302h266l-198 -302h-187z" />
<glyph unicode="&#x152;" horiz-adv-x="1875" d="M113 664q0 182 69.5 330.5t198.5 242.5q173 125 426 125q50 0 195.5 -6t265.5 -6h487l-67 -209h-431v-353h433v-208h-433v-371h500v-209h-506q-105 0 -254.5 -10t-203.5 -10q-260 0 -431 131q-119 87 -184 227t-65 326zM375 670q0 -279 170 -402q108 -82 266 -82 q111 0 199 23v919q-38 11 -102.5 19t-108.5 8q-170 0 -273 -98q-151 -129 -151 -387z" />
<glyph unicode="&#x153;" horiz-adv-x="1728" d="M72 487q0 219 132.5 362.5t338.5 143.5q242 0 358 -184h4q49 85 132.5 134.5t193.5 49.5q192 0 309 -139.5t117 -378.5v-57h-621q4 -112 79.5 -179t195.5 -67q127 0 245 66l72 -168q-146 -90 -340 -90q-255 0 -381 186h-4q-119 -186 -354 -186q-211 0 -344 143.5 t-133 363.5zM322 487q0 -140 60.5 -226.5t172.5 -86.5t171.5 86.5t59.5 226.5q0 139 -59.5 225.5t-171.5 86.5t-172.5 -86.5t-60.5 -225.5zM1034 588h375q-2 92 -48 155.5t-138 63.5q-87 0 -137 -63t-52 -156z" />
<glyph unicode="&#x154;" horiz-adv-x="1206" d="M164 0v1350h368q174 0 289 -56q103 -49 152 -135t49 -194q0 -131 -71.5 -221t-192.5 -128v-4q59 -33 168 -219l225 -393h-283l-194 342q-93 171 -148 184h-116v-526h-246zM410 727h110q88 0 150 35q94 54 94 178q0 55 -23 99.5t-67 70.5q-56 39 -152 39h-112v-422z M414 1425l118 301h265l-197 -301h-186z" />
<glyph unicode="&#x155;" horiz-adv-x="745" d="M113 0v969h206l27 -109q68 68 131 100.5t135 32.5q82 0 138 -39l-86 -206q-51 32 -111 32q-47 0 -92 -22t-105 -74v-684h-243zM274 1087l119 302h264l-196 -302h-187z" />
<glyph unicode="&#x156;" horiz-adv-x="1206" d="M164 0v1350h368q174 0 289 -56q103 -49 152 -135t49 -194q0 -131 -71.5 -221t-192.5 -128v-4q59 -33 168 -219l225 -393h-283l-194 342q-93 171 -148 184h-116v-526h-246zM385 -338q82 17 117 48t35 77q0 52 -41 107h209q47 -68 47 -148q0 -194 -308 -231zM410 727h110 q88 0 150 35q94 54 94 178q0 55 -23 99.5t-67 70.5q-56 39 -152 39h-112v-422z" />
<glyph unicode="&#x157;" horiz-adv-x="745" d="M39 -338q81 17 116 47.5t35 77.5q0 53 -40 107h208q48 -70 48 -148q0 -194 -308 -231zM113 0v969h206l27 -109q68 68 131 100.5t135 32.5q82 0 138 -39l-86 -206q-51 32 -111 32q-47 0 -92 -22t-105 -74v-684h-243z" />
<glyph unicode="&#x158;" horiz-adv-x="1206" d="M164 0v1350h368q174 0 289 -56q103 -49 152 -135t49 -194q0 -131 -71.5 -221t-192.5 -128v-4q59 -33 168 -219l225 -393h-283l-194 342q-93 171 -148 184h-116v-526h-246zM231 1726h195l113 -161l110 161h191l-205 -301h-197zM410 727h110q88 0 150 35q94 54 94 178 q0 55 -23 99.5t-67 70.5q-56 39 -152 39h-112v-422z" />
<glyph unicode="&#x159;" horiz-adv-x="745" d="M88 1389h195l112 -160l111 160h190l-204 -302h-197zM115 0v969h207l26 -109q68 68 131 100.5t135 32.5q82 0 138 -39l-86 -206q-51 32 -111 32q-47 0 -92 -22t-105 -74v-684h-243z" />
<glyph unicode="&#x15a;" horiz-adv-x="1085" d="M98 96l97 189q144 -99 305 -99q60 0 109 15t82.5 52t33.5 93q0 47 -25 86.5t-66 67t-93.5 57t-107.5 55.5t-107.5 62.5t-93.5 77.5t-66 102t-25 135q0 75 29.5 142t84 119t139 82t186.5 30q193 0 329 -68v-225q-166 86 -321 86q-80 0 -132.5 -34.5t-52.5 -110.5 q0 -39 20 -73t54 -59.5t77.5 -49t92 -48t97 -51t92 -61t77.5 -76t54 -99.5t20 -126q0 -177 -135 -282t-346 -105q-117 0 -224 30.5t-184 85.5zM442 1425l119 301h264l-196 -301h-187z" />
<glyph unicode="&#x15b;" horiz-adv-x="860" d="M43 74l76 178q126 -80 264 -80q170 0 170 102q0 33 -25 58t-65 42t-88.5 34t-97.5 40.5t-89 54t-65 81t-25 116.5q0 131 99.5 212t267.5 81q155 0 285 -47v-207q-145 62 -275 62q-137 0 -137 -88q0 -31 25 -54.5t65 -40t88.5 -33.5t97.5 -41t89 -56t65 -85t25 -122 q0 -77 -32 -136.5t-87.5 -94.5t-124.5 -52.5t-150 -17.5q-203 0 -356 94zM334 1087l119 302h264l-197 -302h-186z" />
<glyph unicode="&#x15c;" horiz-adv-x="1085" d="M98 96l97 189q144 -99 305 -99q60 0 109 15t82.5 52t33.5 93q0 47 -25 86.5t-66 67t-93.5 57t-107.5 55.5t-107.5 62.5t-93.5 77.5t-66 102t-25 135q0 75 29.5 142t84 119t139 82t186.5 30q193 0 329 -68v-225q-166 86 -321 86q-80 0 -132.5 -34.5t-52.5 -110.5 q0 -39 20 -73t54 -59.5t77.5 -49t92 -48t97 -51t92 -61t77.5 -76t54 -99.5t20 -126q0 -177 -135 -282t-346 -105q-117 0 -224 30.5t-184 85.5zM246 1425l205 301h196l207 -301h-192l-113 162l-111 -162h-192z" />
<glyph unicode="&#x15d;" horiz-adv-x="860" d="M43 74l76 178q126 -80 264 -80q170 0 170 102q0 33 -25 58t-65 42t-88.5 34t-97.5 40.5t-89 54t-65 81t-25 116.5q0 131 99.5 212t267.5 81q155 0 285 -47v-207q-145 62 -275 62q-137 0 -137 -88q0 -31 25 -54.5t65 -40t88.5 -33.5t97.5 -41t89 -56t65 -85t25 -122 q0 -77 -32 -136.5t-87.5 -94.5t-124.5 -52.5t-150 -17.5q-203 0 -356 94zM133 1087l205 302h197l206 -302h-192l-113 162l-110 -162h-193z" />
<glyph unicode="&#x15e;" horiz-adv-x="1077" d="M98 96l97 189q144 -99 305 -99q60 0 109 15t82.5 52t33.5 93q0 47 -25 86.5t-66 67t-93.5 57t-107.5 55.5t-107.5 62.5t-93.5 77.5t-66 102t-25 135q0 75 29.5 142t84 119t139 82t186.5 30q193 0 329 -68v-225q-166 86 -321 86q-80 0 -132.5 -34.5t-52.5 -110.5 q0 -39 20 -73t54 -59.5t77.5 -49t92 -48t97 -51t92 -61t77.5 -76t54 -99.5t20 -126q0 -158 -108.5 -259t-284.5 -122l-27 -86q174 -14 174 -152q0 -82 -73 -132t-215 -50q-83 0 -154 22l35 113q50 -16 96 -16t73 17t27 48q0 41 -41 55.5t-124 14.5l51 164q-182 17 -318 112z " />
<glyph unicode="&#x15f;" horiz-adv-x="860" d="M43 74l76 178q126 -80 264 -80q170 0 170 102q0 33 -25 58t-65 42t-88.5 34t-97.5 40.5t-89 54t-65 81t-25 116.5q0 131 99.5 212t267.5 81q155 0 285 -47v-207q-145 62 -275 62q-137 0 -137 -88q0 -31 25 -54.5t65 -40t88.5 -33.5t97.5 -41t89 -56t65 -85t25 -122 q0 -132 -86.5 -206.5t-225.5 -88.5l-26 -86q172 -13 172 -152q0 -82 -72.5 -132t-214.5 -50q-86 0 -154 22l35 113q50 -16 96 -16t73.5 17t27.5 48q0 23 -12 37t-38 21t-51 9t-67 3l51 166q-145 16 -258 88z" />
<glyph unicode="&#x160;" horiz-adv-x="1085" d="M98 96l97 189q144 -99 305 -99q60 0 109 15t82.5 52t33.5 93q0 47 -25 86.5t-66 67t-93.5 57t-107.5 55.5t-107.5 62.5t-93.5 77.5t-66 102t-25 135q0 75 29.5 142t84 119t139 82t186.5 30q193 0 329 -68v-225q-166 86 -321 86q-80 0 -132.5 -34.5t-52.5 -110.5 q0 -39 20 -73t54 -59.5t77.5 -49t92 -48t97 -51t92 -61t77.5 -76t54 -99.5t20 -126q0 -177 -135 -282t-346 -105q-117 0 -224 30.5t-184 85.5zM233 1726h195l113 -161l110 161h191l-205 -301h-197z" />
<glyph unicode="&#x161;" horiz-adv-x="860" d="M43 74l76 178q126 -80 264 -80q170 0 170 102q0 33 -25 58t-65 42t-88.5 34t-97.5 40.5t-89 54t-65 81t-25 116.5q0 131 99.5 212t267.5 81q155 0 285 -47v-207q-145 62 -275 62q-137 0 -137 -88q0 -31 25 -54.5t65 -40t88.5 -33.5t97.5 -41t89 -56t65 -85t25 -122 q0 -77 -32 -136.5t-87.5 -94.5t-124.5 -52.5t-150 -17.5q-203 0 -356 94zM131 1389h195l112 -160l111 160h190l-204 -302h-197z" />
<glyph unicode="&#x162;" horiz-adv-x="1097" d="M29 1141v209h1067l-68 -209h-360v-1141h-246v1141h-393zM332 -338q81 17 116 47.5t35 77.5q0 52 -41 107h209q47 -68 47 -148q0 -194 -307 -231z" />
<glyph unicode="&#x163;" horiz-adv-x="790" d="M33 778v191h174v225l244 72v-297h292l-59 -191h-233v-479q0 -66 23 -94.5t71 -28.5q77 0 147 47l74 -168q-51 -34 -130 -54.5t-153 -20.5q-129 0 -202.5 69t-73.5 191v538h-174zM186 -338q82 17 117 48t35 77q0 52 -41 107h209q47 -68 47 -148q0 -194 -307 -231z" />
<glyph unicode="&#x164;" horiz-adv-x="1097" d="M29 1141v209h1067l-68 -209h-360v-1141h-246v1141h-393zM244 1726h194l113 -161l111 161h190l-205 -301h-196z" />
<glyph unicode="&#x165;" horiz-adv-x="790" d="M33 778v191h174v225l244 72v-297h292l-59 -191h-233v-479q0 -66 23 -94.5t71 -28.5q77 0 147 47l74 -168q-51 -34 -130 -54.5t-153 -20.5q-129 0 -202.5 69t-73.5 191v538h-174zM537 1051l73 401h242l-131 -401h-184z" />
<glyph unicode="&#x166;" horiz-adv-x="1097" d="M29 1141v209h1067l-68 -209h-360v-408h241v-201h-241v-532h-246v532h-242v201h242v408h-393z" />
<glyph unicode="&#x167;" horiz-adv-x="790" d="M33 414v186h174v178h-174v191h174v225l244 72v-297h292l-59 -191h-233v-178h190v-186h-190v-115q0 -66 23 -94.5t71 -28.5q76 0 149 49l72 -166q-54 -37 -132.5 -58t-150.5 -21q-129 0 -202.5 69t-73.5 191v174h-174z" />
<glyph unicode="&#x168;" horiz-adv-x="1425" d="M154 504v846h245v-830q0 -109 37 -182q36 -73 106.5 -112.5t170.5 -39.5t170 39.5t106 112.5q37 73 37 184v828h246v-846q0 -162 -51 -264q-126 -260 -508 -260q-386 0 -508 262q-51 102 -51 262zM395 1475v79q0 81 46.5 125.5t121.5 44.5q50 0 103.5 -22.5t96.5 -45 t68 -22.5q29 0 37.5 18t8.5 60h159v-82q0 -79 -47.5 -123.5t-120.5 -44.5q-49 0 -102.5 22t-97 44t-68.5 22q-29 0 -37 -17t-8 -58h-160z" />
<glyph unicode="&#x169;" horiz-adv-x="1095" d="M113 373v596h243v-572q0 -75 21 -121q39 -88 145 -88q58 0 111.5 24.5t87.5 61.5v695h246v-729q0 -182 16 -240h-209l-37 100q-135 -120 -301 -120q-39 0 -77.5 9t-80 28.5t-77 59t-56.5 93.5q-32 74 -32 203zM225 1120v80q0 81 46.5 125.5t121.5 44.5q50 0 104 -22.5 t97 -45t68 -22.5q29 0 37 17.5t8 60.5h159v-80q0 -80 -47.5 -125t-120.5 -45q-49 0 -102.5 22.5t-97 45t-68.5 22.5q-29 0 -37 -17.5t-8 -60.5h-160z" />
<glyph unicode="&#x16a;" horiz-adv-x="1425" d="M154 504v846h245v-830q0 -109 37 -182q36 -73 106.5 -112.5t170.5 -39.5t170 39.5t106 112.5q37 73 37 184v828h246v-846q0 -162 -51 -264q-126 -260 -508 -260q-386 0 -508 262q-51 102 -51 262zM426 1442v186h584v-186h-584z" />
<glyph unicode="&#x16b;" horiz-adv-x="1095" d="M113 373v596h243v-572q0 -75 21 -121q39 -88 145 -88q58 0 111.5 24.5t87.5 61.5v695h246v-729q0 -182 16 -240h-209l-37 100q-135 -120 -301 -120q-39 0 -77.5 9t-80 28.5t-77 59t-56.5 93.5q-32 74 -32 203zM254 1165v185h584v-185h-584z" />
<glyph unicode="&#x16c;" horiz-adv-x="1425" d="M154 504v846h245v-830q0 -109 37 -182q36 -73 106.5 -112.5t170.5 -39.5t170 39.5t106 112.5q37 73 37 184v828h246v-846q0 -162 -51 -264q-126 -260 -508 -260q-386 0 -508 262q-51 102 -51 262zM416 1706h170q6 -62 40 -98.5t91 -36.5t91 36.5t40 98.5h168 q-7 -133 -89 -210t-212 -77q-128 0 -209 77t-90 210z" />
<glyph unicode="&#x16d;" horiz-adv-x="1095" d="M113 373v596h243v-572q0 -75 21 -121q39 -88 145 -88q58 0 111.5 24.5t87.5 61.5v695h246v-729q0 -182 16 -240h-209l-37 100q-135 -120 -301 -120q-39 0 -77.5 9t-80 28.5t-77 59t-56.5 93.5q-32 74 -32 203zM244 1393h170q6 -62 40 -97.5t91 -35.5t91 35.5t40 97.5h168 q-7 -132 -89 -208.5t-212 -76.5q-128 0 -209 76t-90 209z" />
<glyph unicode="&#x16e;" horiz-adv-x="1425" d="M154 504v846h245v-830q0 -109 37 -182q36 -73 106.5 -112.5t170.5 -39.5t170 39.5t106 112.5q37 73 37 184v828h246v-846q0 -162 -51 -264q-126 -260 -508 -260q-386 0 -508 262q-51 102 -51 262zM479 1536q0 91 66.5 146t173.5 55t173 -55t66 -146q0 -90 -66 -144.5 t-173 -54.5t-173.5 54.5t-66.5 144.5zM635 1536q0 -44 22.5 -68t61.5 -24q38 0 61 24.5t23 67.5q0 44 -23.5 69t-60.5 25q-39 0 -61.5 -25t-22.5 -69z" />
<glyph unicode="&#x16f;" horiz-adv-x="1095" d="M113 373v596h243v-572q0 -75 21 -121q39 -88 145 -88q58 0 111.5 24.5t87.5 61.5v695h246v-729q0 -182 16 -240h-209l-37 100q-135 -120 -301 -120q-39 0 -77.5 9t-80 28.5t-77 59t-56.5 93.5q-32 74 -32 203zM307 1270q0 91 66.5 144.5t173.5 53.5t173 -53.5t66 -144.5 t-66 -145t-173 -54t-173.5 54t-66.5 145zM463 1270q0 -44 22.5 -69t61.5 -25q37 0 60.5 25t23.5 69t-23.5 69t-60.5 25q-39 0 -61.5 -25t-22.5 -69z" />
<glyph unicode="&#x170;" horiz-adv-x="1425" d="M154 504v846h245v-830q0 -109 37 -182q36 -73 106.5 -112.5t170.5 -39.5t170 39.5t106 112.5q37 73 37 184v828h246v-846q0 -162 -51 -264q-126 -260 -508 -260q-386 0 -508 262q-51 102 -51 262zM432 1425l119 301h266l-199 -301h-186zM786 1425l119 301h266l-198 -301 h-187z" />
<glyph unicode="&#x171;" horiz-adv-x="1095" d="M113 373v596h243v-572q0 -75 21 -121q39 -88 145 -88q58 0 111.5 24.5t87.5 61.5v695h246v-729q0 -182 16 -240h-209l-37 100q-135 -120 -301 -120q-39 0 -77.5 9t-80 28.5t-77 59t-56.5 93.5q-32 74 -32 203zM264 1087l119 302h266l-198 -302h-187zM618 1087l119 302 h267l-199 -302h-187z" />
<glyph unicode="&#x172;" horiz-adv-x="1425" d="M154 504v846h245v-830q0 -109 37 -182q36 -73 106.5 -112.5t170.5 -39.5t170 39.5t106 112.5q37 73 37 184v828h246v-846q0 -162 -51 -264q-63 -137 -220 -211q-93 -42 -165 -113t-72 -139q0 -33 18 -52.5t52 -19.5q32 0 75 12l27 -131q-83 -24 -162 -24 q-100 0 -156.5 47.5t-56.5 126.5q0 128 150 239v5q-189 0 -317.5 66t-188.5 196q-51 102 -51 262z" />
<glyph unicode="&#x173;" horiz-adv-x="1095" d="M113 373v596h243v-572q0 -75 21 -121q39 -88 145 -88q58 0 111.5 24.5t87.5 61.5v695h246v-703q0 -210 16 -268q-94 -44 -149.5 -102t-55.5 -119q0 -33 18 -52.5t54 -19.5q32 0 76 12l26 -131q-86 -24 -161 -24q-101 0 -157 47.5t-56 126.5q0 145 194 272l-35 92 q-135 -120 -301 -120q-39 0 -77.5 9t-80 28.5t-77 59t-56.5 93.5q-32 74 -32 203z" />
<glyph unicode="&#x174;" horiz-adv-x="1933" d="M14 1350h279l248 -777q9 -28 65 -227h4q29 105 70 225l182 543l-84 236h250l260 -764q56 -157 76 -238h6q40 162 62 234l233 768h254l-455 -1358h-209l-202 571q-57 158 -74 225h-6q-26 -96 -72 -223l-205 -573h-204zM672 1425l205 301h196l207 -301h-193l-112 162 l-111 -162h-192z" />
<glyph unicode="&#x175;" horiz-adv-x="1531" d="M14 969h248l205 -658h4l205 658h190l213 -658h4l201 658h242l-359 -975h-180l-213 657h-4l-217 -657h-188zM467 1087l205 302h196l207 -302h-192l-113 162l-111 -162h-192z" />
<glyph unicode="&#x176;" horiz-adv-x="1200" d="M14 1350h271l315 -596h4l314 596h266l-461 -818v-532h-248v535zM299 1425l205 301h196l207 -301h-192l-113 162l-110 -162h-193z" />
<glyph unicode="&#x177;" horiz-adv-x="1060" d="M-25 -440l62 192q70 -39 145 -39q86 0 151 66.5t120 226.5l-437 963h260l287 -684h4l232 684h252l-371 -1000q-44 -118 -92.5 -202t-93 -132t-98.5 -75.5t-99 -36t-104 -8.5q-116 0 -218 45zM244 1087l205 302h196l207 -302h-193l-112 162l-111 -162h-192z" />
<glyph unicode="&#x178;" horiz-adv-x="1200" d="M14 1350h271l315 -596h4l314 596h266l-461 -818v-532h-248v535zM283 1561q0 52 37 89.5t88 37.5q52 0 89.5 -37t37.5 -90q0 -52 -37 -88.5t-90 -36.5q-51 0 -88 36.5t-37 88.5zM674 1561q0 53 36.5 90t88.5 37q51 0 88 -37.5t37 -89.5t-37 -88.5t-88 -36.5q-53 0 -89 36 t-36 89z" />
<glyph unicode="&#x179;" horiz-adv-x="1167" d="M53 0l670 1141h-576l-63 209h1030l-657 -1141h663v-209h-1067zM485 1425l119 301h264l-196 -301h-187z" />
<glyph unicode="&#x17a;" horiz-adv-x="849" d="M31 0l448 778h-370l-50 191h777l-445 -779h436v-190h-796zM322 1087l118 302h265l-197 -302h-186z" />
<glyph unicode="&#x17b;" horiz-adv-x="1167" d="M53 0l670 1141h-576l-63 209h1030l-657 -1141h663v-209h-1067zM457 1591q0 61 43.5 103.5t107.5 42.5q65 0 107.5 -41.5t42.5 -104.5q0 -61 -43 -104t-107 -43t-107.5 42.5t-43.5 104.5z" />
<glyph unicode="&#x17c;" horiz-adv-x="849" d="M31 0l448 778h-370l-50 191h777l-445 -779h436v-190h-796zM295 1272q0 62 43.5 104.5t107.5 42.5t107 -42t43 -105q0 -61 -43 -103.5t-107 -42.5t-107.5 42t-43.5 104z" />
<glyph unicode="&#x17d;" horiz-adv-x="1167" d="M53 0l670 1141h-576l-63 209h1030l-657 -1141h663v-209h-1067zM297 1726h195l112 -161l111 161h190l-205 -301h-196z" />
<glyph unicode="&#x17e;" horiz-adv-x="849" d="M31 0l448 778h-370l-50 191h777l-445 -779h436v-190h-796zM141 1389h195l113 -160l110 160h191l-205 -302h-197z" />
<glyph unicode="&#x192;" horiz-adv-x="1116" d="M-84 -287l92 197q70 -41 150 -41q90 0 135 57q39 52 45 142l49 544h-199v193h218l18 219q14 186 94 285q104 141 313 141q148 0 267 -61l-92 -197q-73 41 -152 41q-89 0 -137 -64q-34 -49 -43 -137l-21 -227h258l-57 -193h-219l-47 -534q-17 -199 -103 -301 q-105 -125 -303 -125q-147 0 -266 61z" />
<glyph unicode="&#x1fa;" horiz-adv-x="1294" d="M16 0l516 1337q-64 20 -100.5 69.5t-36.5 117.5q0 79 50.5 130.5t136.5 63.5l92 234h266l-174 -258q108 -54 108 -170q0 -66 -36 -114t-97 -69l537 -1341h-266l-131 338h-482l-127 -338h-256zM471 539h334l-94 270q-50 139 -68 211h-4q-15 -62 -70 -213zM551 1524 q0 -44 23.5 -69t60.5 -25q39 0 61.5 25t22.5 69t-22.5 68t-61.5 24q-38 0 -61 -24.5t-23 -67.5z" />
<glyph unicode="&#x1fb;" horiz-adv-x="1007" d="M68 289q0 181 163 264q95 49 250 55l166 6v31q0 82 -49 122t-137 40q-125 0 -254 -68l-80 158q175 96 375 96q389 0 389 -352v-401q0 -174 18 -240h-204l-37 92q-124 -112 -279 -112q-140 0 -230.5 85.5t-90.5 223.5zM266 1255q0 76 47 127.5t127 65.5l107 276h266 l-192 -290q58 -23 90 -70t32 -109q0 -91 -65 -144.5t-172 -53.5t-173.5 53.5t-66.5 144.5zM315 305q0 -63 38.5 -98t105.5 -35q100 0 188 72v207l-131 -5q-91 -3 -141 -30q-60 -34 -60 -111zM422 1255q0 -44 22.5 -69t61.5 -25q37 0 60.5 25t23.5 69t-23.5 69.5t-60.5 25.5 q-38 0 -61 -25.5t-23 -69.5z" />
<glyph unicode="&#x1fc;" horiz-adv-x="1720" d="M14 0l729 1350h856l-67 -209h-518l61 -353h459v-208h-424l64 -371h428v-209h-641l-58 338h-446l-183 -338h-260zM567 539h303l-47 315q-14 88 -22 158h-2q-14 -35 -80 -170zM901 1425l119 301h264l-197 -301h-186z" />
<glyph unicode="&#x1fd;" horiz-adv-x="1591" d="M68 289q0 82 33 143t91.5 96t130 51.5t156.5 16.5h183v49q0 81 -54 121.5t-143 40.5q-132 0 -258 -70l-80 160q175 96 371 96q221 0 301 -145h4q110 145 303 145q192 0 303 -136.5t111 -381.5v-49h-615q3 -119 75 -186.5t194 -67.5q127 0 245 66l72 -168 q-146 -90 -340 -90q-250 0 -379 159q-142 -159 -364 -159q-152 0 -246 84t-94 225zM315 301q0 -60 40 -94.5t106 -34.5q68 0 131 32.5t102 74.5q-23 64 -26 147h-172q-181 0 -181 -125zM702 1087l119 302h264l-196 -302h-187zM903 596h369q-3 88 -49 149.5t-133 61.5 q-86 0 -135 -60t-52 -151z" />
<glyph unicode="&#x1fe;" horiz-adv-x="1587" d="M113 670q0 202 87 360t241.5 245t351.5 87q198 0 352 -96l121 149l151 -115l-121 -149q85 -91 132 -214.5t47 -266.5q0 -204 -88 -361.5t-243 -243t-351 -85.5q-206 0 -365 98l-117 -146l-153 115l121 148q-166 193 -166 475zM371 670q0 -163 63 -277l578 701 q-94 63 -219 63q-189 0 -305.5 -130t-116.5 -357zM565 252q95 -68 228 -68q190 0 307 130.5t117 355.5q0 169 -72 288zM690 1425l119 301h264l-196 -301h-187z" />
<glyph unicode="&#x1ff;" d="M72 487q0 220 134 363t349 143q140 0 254 -71l76 98l104 -80l-78 -98q129 -145 129 -355q0 -220 -135 -363.5t-350 -143.5q-142 0 -256 71l-82 -106l-102 80l84 106q-127 143 -127 356zM315 487q0 -93 31 -163l338 434q-56 43 -129 43q-112 0 -176 -88t-64 -226zM426 215 q52 -43 129 -43q113 0 176.5 88t63.5 227q0 88 -29 164zM438 1087l119 302h264l-196 -302h-187z" />
<glyph unicode="&#x218;" horiz-adv-x="1085" d="M98 96l97 189q144 -99 305 -99q60 0 109 15t82.5 52t33.5 93q0 47 -25 86.5t-66 67t-93.5 57t-107.5 55.5t-107.5 62.5t-93.5 77.5t-66 102t-25 135q0 75 29.5 142t84 119t139 82t186.5 30q193 0 329 -68v-225q-166 86 -321 86q-80 0 -132.5 -34.5t-52.5 -110.5 q0 -39 20 -73t54 -59.5t77.5 -49t92 -48t97 -51t92 -61t77.5 -76t54 -99.5t20 -126q0 -177 -135 -282t-346 -105q-117 0 -224 30.5t-184 85.5zM303 -338q82 17 117 48t35 77q0 52 -41 107h209q47 -68 47 -148q0 -194 -308 -231z" />
<glyph unicode="&#x219;" horiz-adv-x="860" d="M43 74l76 178q126 -80 264 -80q170 0 170 102q0 33 -25 58t-65 42t-88.5 34t-97.5 40.5t-89 54t-65 81t-25 116.5q0 131 99.5 212t267.5 81q155 0 285 -47v-207q-145 62 -275 62q-137 0 -137 -88q0 -31 25 -54.5t65 -40t88.5 -33.5t97.5 -41t89 -56t65 -85t25 -122 q0 -77 -32 -136.5t-87.5 -94.5t-124.5 -52.5t-150 -17.5q-203 0 -356 94zM205 -338q81 17 116 47.5t35 77.5q0 52 -41 107h209q47 -68 47 -148q0 -194 -307 -231z" />
<glyph unicode="&#x2c6;" horiz-adv-x="786" d="M88 1087l205 302h196l207 -302h-192l-113 162l-110 -162h-193z" />
<glyph unicode="&#x2c7;" horiz-adv-x="786" d="M88 1389h195l112 -160l111 160h190l-204 -302h-197z" />
<glyph unicode="&#x2d8;" horiz-adv-x="786" d="M92 1393h170q6 -62 40 -97.5t91 -35.5t91 35.5t40 97.5h168q-7 -132 -89 -208.5t-212 -76.5q-128 0 -209 76t-90 209z" />
<glyph unicode="&#x2d9;" horiz-adv-x="786" d="M242 1272q0 62 43.5 104.5t107.5 42.5t107 -42t43 -105q0 -61 -43 -103.5t-107 -42.5t-107.5 42t-43.5 104z" />
<glyph unicode="&#x2da;" horiz-adv-x="786" d="M154 1270q0 91 66 144.5t173 53.5t173.5 -53.5t66.5 -144.5t-66.5 -145t-173.5 -54t-173 54t-66 145zM309 1270q0 -44 22.5 -69t61.5 -25q37 0 60.5 25t23.5 69t-23.5 69t-60.5 25q-39 0 -61.5 -25t-22.5 -69z" />
<glyph unicode="&#x2db;" horiz-adv-x="786" d="M188 -264q0 47 18.5 90.5t53.5 80.5t68.5 63.5t79.5 56.5l190 -27q-96 -46 -151.5 -104t-55.5 -119q0 -33 18 -52.5t52 -19.5q33 0 76 12l26 -131q-83 -24 -162 -24q-101 0 -157 47.5t-56 126.5z" />
<glyph unicode="&#x2dc;" horiz-adv-x="786" d="M72 1120v80q0 81 46.5 125.5t121.5 44.5q50 0 103.5 -22.5t96.5 -45t68 -22.5q29 0 37 17.5t8 60.5h160v-80q0 -80 -47.5 -125t-120.5 -45q-49 0 -103 22.5t-97.5 45t-68.5 22.5q-29 0 -37 -17.5t-8 -60.5h-159z" />
<glyph unicode="&#x2dd;" horiz-adv-x="786" d="M147 1087l119 302h266l-198 -302h-187zM502 1087l119 302h266l-199 -302h-186z" />
<glyph unicode="&#x315;" horiz-adv-x="786" d="M244 1051l73 401h242l-131 -401h-184z" />
<glyph unicode="&#x326;" horiz-adv-x="786" d="M209 -338q81 17 116 47.5t35 77.5q0 52 -41 107h209q47 -68 47 -148q0 -194 -307 -231z" />
<glyph unicode="&#x386;" horiz-adv-x="1298" d="M18 0l525 1356h194l543 -1356h-266l-131 338h-482l-127 -338h-256zM29 969l75 381h242l-125 -381h-192zM473 539h334l-94 268q-32 93 -68 209h-4q-13 -50 -70 -211z" />
<glyph unicode="&#x388;" horiz-adv-x="1302" d="M2 969l78 381h239l-122 -381h-195zM434 0v1350h748l-68 -209h-432v-353h432v-208h-432v-371h502v-209h-750z" />
<glyph unicode="&#x389;" horiz-adv-x="1712" d="M2 969l78 381h239l-122 -381h-195zM408 0v1350h247v-557h645v557h246v-1350h-246v584h-645v-584h-247z" />
<glyph unicode="&#x38a;" horiz-adv-x="847" d="M2 969l78 381h239l-122 -381h-195zM434 0v1350h248v-1350h-248z" />
<glyph unicode="&#x38c;" horiz-adv-x="1751" d="M2 969l78 381h239l-122 -381h-195zM285 670q0 202 87 360t241.5 245t351.5 87q198 0 353.5 -87.5t242 -245t86.5 -359.5q0 -204 -88 -361.5t-243 -243t-351 -85.5q-197 0 -351.5 85.5t-241.5 243t-87 361.5zM549 670q0 -226 113.5 -355t302.5 -129q190 0 303.5 129 t113.5 355q0 224 -112.5 354.5t-304.5 130.5q-189 0 -302.5 -129t-113.5 -356z" />
<glyph unicode="&#x38e;" horiz-adv-x="1613" d="M2 969l78 381h239l-122 -381h-195zM379 1350h274q102 -132 198.5 -297.5t133.5 -307.5h6q51 248 332 605h270q-80 -108 -129.5 -178t-112 -165t-100 -168t-72.5 -157.5t-51 -165t-16 -160.5v-356h-248v365q0 189 -118.5 421t-366.5 564z" />
<glyph unicode="&#x38f;" horiz-adv-x="1726" d="M2 969l78 381h239l-122 -381h-195zM291 0v209h96q79 0 178 -23l2 7q-123 94 -196.5 230t-73.5 298q0 127 43.5 242t125 204.5t209 142t283.5 52.5q126 0 233.5 -34.5t185.5 -94.5t133.5 -141t82.5 -175.5t27 -195.5q0 -162 -73 -298t-195 -230v-7q99 23 180 23h94v-209 h-553v166q145 115 215 244.5t70 298.5q0 196 -107 321t-293 125t-291.5 -125t-105.5 -321q0 -168 69.5 -298t213.5 -245v-166h-553z" />
<glyph unicode="&#x390;" horiz-adv-x="589" d="M-61 1237q0 50 31.5 82.5t80.5 32.5q48 0 80.5 -33t32.5 -82t-32.5 -82t-80.5 -33q-49 0 -80.5 32.5t-31.5 82.5zM115 233v736h245v-688q0 -84 82 -84q36 0 68 14l49 -193q-73 -32 -186 -32q-124 0 -191 61.5t-67 185.5zM168 1087l90 343h182l-139 -343h-133zM414 1237 q0 50 31.5 82.5t80.5 32.5q48 0 80.5 -33t32.5 -82t-32.5 -82t-80.5 -33q-49 0 -80.5 32.5t-31.5 82.5z" />
<glyph unicode="&#x391;" horiz-adv-x="1298" d="M18 0l523 1356h196l543 -1356h-266l-131 338h-482l-127 -338h-256zM473 539h334l-94 268q-46 128 -68 209h-4q-13 -50 -70 -211z" />
<glyph unicode="&#x392;" horiz-adv-x="1165" d="M166 0v1350h395q204 0 312 -99.5t108 -242.5q0 -90 -43 -165t-121 -114v-4q118 -29 186 -117.5t68 -208.5q0 -80 -30.5 -151t-88 -126.5t-149 -88.5t-205.5 -33h-432zM412 203h157q252 0 252 196q0 86 -61 135.5t-164 49.5h-184v-381zM412 786h116q100 0 154.5 50 t54.5 131q0 80 -53 130t-158 50h-114v-361z" />
<glyph unicode="&#x393;" horiz-adv-x="937" d="M166 0v1350h766l-68 -209h-450v-1141h-248z" />
<glyph unicode="&#x395;" horiz-adv-x="1034" d="M166 0v1350h745l-67 -209h-432v-353h432v-208h-432v-371h501v-209h-747z" />
<glyph unicode="&#x396;" horiz-adv-x="1169" d="M55 0l670 1141h-575l-64 209h1030l-657 -1141h663v-209h-1067z" />
<glyph unicode="&#x397;" horiz-adv-x="1470" d="M166 0v1350h246v-557h645v557h248v-1350h-248v584h-645v-584h-246z" />
<glyph unicode="&#x398;" horiz-adv-x="1568" d="M104 670q0 202 87 360t241.5 245t351.5 87q198 0 353 -87.5t241 -245t86 -359.5q0 -204 -87.5 -361.5t-242 -243t-350.5 -85.5q-197 0 -351.5 85.5t-241.5 243t-87 361.5zM362 670q0 -225 116.5 -354.5t305.5 -129.5q191 0 307.5 129.5t116.5 354.5q0 223 -115.5 354 t-308.5 131q-189 0 -305.5 -129.5t-116.5 -355.5zM487 582v198h584v-198h-584z" />
<glyph unicode="&#x399;" horiz-adv-x="577" d="M166 0v1350h246v-1350h-246z" />
<glyph unicode="&#x39a;" horiz-adv-x="1226" d="M166 0v1350h246v-576h6l463 576h284l-542 -656l573 -694h-301l-477 592h-6v-592h-246z" />
<glyph unicode="&#x39b;" horiz-adv-x="1306" d="M18 0l529 1356h201l538 -1356h-268l-295 801q-19 51 -70 215h-4q-14 -67 -67 -211l-299 -805h-265z" />
<glyph unicode="&#x39c;" horiz-adv-x="1685" d="M166 0v1350h223l354 -510q87 -130 113 -174h4q53 93 111 182l323 502h226v-1350h-248v762q0 125 4 178h-4q-23 -50 -92 -152l-267 -413h-112l-295 424q-73 103 -92 139h-4q2 -53 2 -170v-768h-246z" />
<glyph unicode="&#x39d;" horiz-adv-x="1538" d="M166 0v1350h244l565 -740q110 -150 149 -209h4q-4 144 -4 228v721h248v-1350h-223l-586 770q-26 34 -52.5 70t-55 75.5t-43.5 59.5h-4q4 -53 4 -209v-766h-246z" />
<glyph unicode="&#x39e;" horiz-adv-x="1134" d="M78 0v209h977v-209h-977zM104 1141v209h949l-70 -209h-879zM215 584v209h698v-209h-698z" />
<glyph unicode="&#x39f;" horiz-adv-x="1568" d="M109 670q0 202 86 360t241 245t352 87t352 -87.5t241.5 -245.5t86.5 -359q0 -204 -88 -361.5t-242.5 -243t-349.5 -85.5q-147 0 -273 50t-215.5 139.5t-140 218.5t-50.5 282zM371 670q0 -226 113.5 -355t303.5 -129q189 0 303.5 129t114.5 355q0 224 -113 354.5 t-305 130.5q-190 0 -303.5 -129t-113.5 -356z" />
<glyph unicode="&#x3a0;" horiz-adv-x="1411" d="M166 0v1350h1079v-1350h-248v1141h-583v-1141h-248z" />
<glyph unicode="&#x3a1;" horiz-adv-x="1112" d="M166 0v1350h326q184 0 303 -58q106 -53 162.5 -151t56.5 -234q0 -128 -62 -234t-196 -161q-120 -47 -287 -47h-57v-465h-246zM412 666h73q99 0 158 30q113 55 113 211q0 143 -107 207q-59 35 -168 35h-69v-483z" />
<glyph unicode="&#x3a3;" horiz-adv-x="1118" d="M37 0l414 709l-396 641h987l-67 -209h-514l254 -426l-287 -506h584v-209h-975z" />
<glyph unicode="&#x3a4;" horiz-adv-x="1103" d="M31 1141v209h1067l-68 -209h-360v-1141h-246v1141h-393z" />
<glyph unicode="&#x3a5;" horiz-adv-x="1257" d="M20 1350h277q102 -134 197.5 -299t134.5 -306h6q48 248 330 605h272q-79 -107 -130 -178t-113 -165t-100 -168t-73 -158t-51 -164.5t-16 -160.5v-356h-246v365q0 189 -119 421t-369 564z" />
<glyph unicode="&#x3a6;" horiz-adv-x="1626" d="M104 668q0 250 159 407t427 187v118h246v-118q268 -30 427 -187t159 -407q0 -249 -157 -403.5t-429 -182.5v-123h-246v123q-272 28 -429 182.5t-157 403.5zM358 668q0 -158 84.5 -255t247.5 -118v756q-158 -23 -245 -121.5t-87 -261.5zM936 295q163 21 247.5 118 t84.5 255q0 163 -87 261.5t-245 121.5v-756z" />
<glyph unicode="&#x3a7;" horiz-adv-x="1292" d="M25 0l483 678l-445 672h279l320 -486l342 486h270l-473 -666l452 -684h-274l-332 498l-352 -498h-270z" />
<glyph unicode="&#x3a8;" horiz-adv-x="1591" d="M154 1112q0 136 10 238h242q-9 -176 -9 -224q0 -238 64 -358.5t211 -126.5v709h248v-709q148 6 211 126t63 359q0 120 -8 224h244q10 -137 10 -238q0 -337 -121.5 -504t-398.5 -190v-418h-248v418q-276 23 -397 190t-121 504z" />
<glyph unicode="&#x3a9;" horiz-adv-x="1536" d="M100 0v209h95q81 0 180 -23v7q-122 94 -195.5 230.5t-73.5 297.5q0 101 27 195.5t82.5 175.5t133.5 141t185.5 94.5t233.5 34.5t233.5 -34.5t185.5 -94.5t133.5 -141t82.5 -175.5t27 -195.5q0 -162 -74 -298t-197 -230l2 -7q99 23 178 23h97v-209h-553v166 q144 115 213 244.5t69 298.5q0 196 -105.5 321t-291.5 125t-292.5 -125t-106.5 -321q0 -169 69.5 -298.5t214.5 -244.5v-166h-553z" />
<glyph unicode="&#x3aa;" horiz-adv-x="577" d="M-33 1561q0 52 37 89.5t88 37.5q52 0 89.5 -37t37.5 -90q0 -52 -37 -88.5t-90 -36.5q-51 0 -88 36.5t-37 88.5zM166 0v1350h246v-1350h-246zM358 1561q0 53 36.5 90t88.5 37q51 0 88 -37.5t37 -89.5t-37 -88.5t-88 -36.5q-53 0 -89 36t-36 89z" />
<glyph unicode="&#x3ab;" horiz-adv-x="1257" d="M20 1350h277q102 -134 197.5 -299t134.5 -306h6q48 248 330 605h272q-79 -107 -130 -178t-113 -165t-100 -168t-73 -158t-51 -164.5t-16 -160.5v-356h-246v365q0 189 -119 421t-369 564zM311 1561q0 52 37 89.5t88 37.5q52 0 89.5 -37t37.5 -90q0 -52 -37 -88.5 t-90 -36.5q-51 0 -88 36.5t-37 88.5zM702 1561q0 53 36.5 90t88.5 37q51 0 88 -37.5t37 -89.5t-37 -88.5t-88 -36.5q-53 0 -89 36t-36 89z" />
<glyph unicode="&#x3ac;" horiz-adv-x="1216" d="M74 487q0 222 106.5 364t276.5 142q131 0 211.5 -72t124.5 -204h4q31 130 94 268l201 -88q-122 -240 -187 -416q42 -138 45 -147q25 -65 54.5 -97t76.5 -32q34 0 54 10l51 -203q-56 -22 -127 -22q-129 0 -199 114q-35 54 -63 162h-4q-17 -55 -46 -104t-70 -91 t-97.5 -66.5t-120.5 -24.5q-170 0 -277.5 138.5t-107.5 368.5zM317 487q0 -134 46.5 -220.5t121.5 -86.5q156 0 222 316q-19 66 -37.5 114.5t-44.5 92.5t-59.5 67t-73.5 23q-76 0 -125.5 -85t-49.5 -221zM442 1087l148 343h282l-237 -343h-193z" />
<glyph unicode="&#x3ad;" horiz-adv-x="960" d="M80 289q0 78 43.5 135t126.5 80v4q-73 26 -111.5 79t-38.5 126q0 124 109 202t295 78q190 0 338 -57v-197q-153 68 -318 68q-86 0 -135 -30t-49 -83q0 -50 52 -81t161 -31q60 0 162 4v-176q-45 6 -158 6q-238 0 -238 -121q0 -63 60 -96t166 -33q153 0 313 80l74 -160 q-190 -106 -400 -106q-219 0 -335.5 88.5t-116.5 220.5zM397 1087l148 343h282l-237 -343h-193z" />
<glyph unicode="&#x3ae;" horiz-adv-x="1222" d="M45 961q77 32 160 32t139.5 -37.5t79.5 -111.5h4q181 149 358 149q61 0 113 -17t97.5 -55t71.5 -109.5t26 -170.5v-1126h-244v1050q0 101 -32.5 158t-117.5 57q-113 0 -237 -102v-678h-244v674q0 58 -17 80t-50 22q-31 0 -58 -12zM549 1087l147 343h283l-238 -343h-192z " />
<glyph unicode="&#x3af;" horiz-adv-x="589" d="M115 233v736h245v-688q0 -84 82 -84q36 0 68 14l49 -193q-73 -32 -186 -32q-124 0 -191 61.5t-67 185.5zM131 1087l148 343h282l-237 -343h-193z" />
<glyph unicode="&#x3b0;" horiz-adv-x="1191" d="M16 961q79 32 172 32q228 0 228 -262q0 -41 -8.5 -128.5t-8.5 -133.5q0 -142 52.5 -217.5t156.5 -75.5q117 0 176.5 95t59.5 264q0 95 -34.5 216.5t-102.5 217.5h251q61 -90 98.5 -208.5t37.5 -238.5q0 -244 -127 -393t-363 -149q-216 0 -332 116t-116 328q0 55 7 139.5 t7 120.5q0 51 -15.5 70.5t-45.5 19.5q-20 0 -43 -10zM217 1237q0 50 32 82.5t81 32.5q47 0 79.5 -33t32.5 -82t-32.5 -82t-79.5 -33q-49 0 -81 32.5t-32 82.5zM446 1087l91 343h182l-139 -343h-134zM692 1237q0 50 32 82.5t81 32.5q48 0 80.5 -33t32.5 -82t-32.5 -82 t-80.5 -33q-49 0 -81 32.5t-32 82.5z" />
<glyph unicode="&#x3b1;" horiz-adv-x="1216" d="M74 487q0 222 106.5 364t276.5 142q131 0 211.5 -72t124.5 -204h4q31 130 94 268l201 -88q-122 -240 -187 -416q42 -138 45 -147q25 -65 54.5 -97t76.5 -32q34 0 54 10l51 -203q-56 -22 -127 -22q-129 0 -199 114q-35 54 -63 162h-4q-17 -55 -46 -104t-70 -91 t-97.5 -66.5t-120.5 -24.5q-170 0 -277.5 138.5t-107.5 368.5zM317 487q0 -134 46.5 -220.5t121.5 -86.5q156 0 222 316q-19 66 -37.5 114.5t-44.5 92.5t-59.5 67t-73.5 23q-76 0 -125.5 -85t-49.5 -221z" />
<glyph unicode="&#x3b2;" horiz-adv-x="1144" d="M135 -485v1501q0 110 33.5 195t93 136.5t136.5 77t169 25.5q107 0 193 -33.5t139.5 -89t82 -124.5t28.5 -144q0 -120 -54.5 -203t-144.5 -115v-4q114 -26 185 -120t71 -218q0 -187 -126.5 -303t-324.5 -116q-66 0 -129.5 16.5t-103.5 40.5h-4v-522h-244zM379 246 q95 -66 213 -66q100 0 163.5 61.5t63.5 168.5q0 101 -68.5 162t-201.5 61q-31 0 -49 -2v196q12 -2 35 -2q107 0 167 55.5t60 159.5q0 88 -52 148.5t-141 60.5q-86 0 -138 -61t-52 -170v-772z" />
<glyph unicode="&#x3b3;" horiz-adv-x="1165" d="M29 967q67 26 149 26q77 0 141.5 -28t110 -79t80 -116t56 -146t33.5 -161.5t17 -169.5h7q88 405 354 700q29 -26 84 -79t84 -80q-76 -90 -136 -176.5t-120 -198t-107 -247.5t-80 -294v-403h-260q0 202 27 395q-5 177 -27 331.5t-59.5 279.5t-96.5 197.5t-132 72.5 q-29 0 -72 -13z" />
<glyph unicode="&#x3b4;" horiz-adv-x="1120" d="M74 428q0 165 91 283t241 178v4q-80 66 -122 126.5t-42 141.5q0 132 101.5 210.5t256.5 78.5q224 0 442 -96l-73 -191q-201 88 -348 88q-56 0 -95 -21t-39 -71q0 -36 30.5 -73t79.5 -72.5t108 -76t118.5 -90t108.5 -106t79.5 -133.5t30.5 -164q0 -91 -33 -174t-93.5 -148 t-155.5 -103.5t-209 -38.5q-216 0 -346.5 128.5t-130.5 319.5zM322 436q0 -117 60.5 -188.5t170.5 -71.5q108 0 176 72.5t68 187.5q0 55 -16.5 103.5t-50 89t-68 71t-84.5 66.5q-121 -42 -188.5 -128t-67.5 -202z" />
<glyph unicode="&#x3b5;" horiz-adv-x="962" d="M80 289q0 78 43.5 135t126.5 80v4q-73 26 -111.5 79t-38.5 126q0 124 109 202t295 78q190 0 338 -57v-197q-153 68 -318 68q-86 0 -135 -30t-49 -83q0 -50 52 -81t161 -31q60 0 162 4v-176q-45 6 -158 6q-238 0 -238 -121q0 -63 60 -96t166 -33q153 0 313 80l74 -160 q-190 -106 -400 -106q-219 0 -335.5 88.5t-116.5 220.5z" />
<glyph unicode="&#x3b6;" horiz-adv-x="954" d="M82 485q0 246 144.5 450t387.5 331v6q-223 -62 -452 -72l-53 195q150 0 382 17t402 38l12 -139q-287 -170 -430 -369t-143 -418q0 -62 20 -110.5t54.5 -78.5t78.5 -53t93 -39t98 -31t93 -35t78.5 -45.5t54.5 -67t20 -95.5q0 -149 -154 -360l-197 98q3 5 20 30t23 34.5 t19.5 32.5t19 36.5t10.5 32t5 33.5q0 39 -32.5 67t-84 46t-114 37.5t-125 51t-114 75.5t-84 121.5t-32.5 180.5z" />
<glyph unicode="&#x3b7;" horiz-adv-x="1222" d="M45 961q77 32 160 32t139.5 -37.5t79.5 -111.5h4q181 149 358 149q61 0 113 -17t97.5 -55t71.5 -109.5t26 -170.5v-1126h-244v1050q0 101 -32.5 158t-117.5 57q-113 0 -237 -102v-678h-244v674q0 58 -17 80t-50 22q-31 0 -58 -12z" />
<glyph unicode="&#x3b8;" horiz-adv-x="1124" d="M80 715q0 360 120.5 547.5t362.5 187.5q241 0 361 -187.5t120 -547.5t-120.5 -547.5t-362.5 -187.5q-241 0 -361 187.5t-120 547.5zM332 633q3 -232 57 -343.5t172 -111.5q117 0 171.5 111t60.5 344h-461zM332 823h459q-6 217 -60.5 322.5t-167.5 105.5 q-115 0 -169 -105.5t-62 -322.5z" />
<glyph unicode="&#x3b9;" horiz-adv-x="589" d="M115 233v736h245v-688q0 -84 82 -84q36 0 68 14l49 -193q-73 -32 -186 -32q-124 0 -191 61.5t-67 185.5z" />
<glyph unicode="&#x3ba;" horiz-adv-x="1146" d="M125 0v969h244v-418h4q120 138 299.5 258t339.5 184l75 -213q-186 -64 -413 -231l422 -549h-283l-315 418q-59 -49 -129 -127v-291h-244z" />
<glyph unicode="&#x3bb;" horiz-adv-x="1060" d="M18 0l441 969q-60 169 -104 224.5t-117 55.5q-57 0 -127 -32l-64 186q103 47 213 47q86 0 147.5 -24t112 -83t89 -139t85.5 -211l359 -993h-256l-228 684h-4l-286 -684h-261z" />
<glyph unicode="&#x3bc;" horiz-adv-x="1189" d="M127 -485v1454h244v-586q0 -91 45.5 -143t124.5 -52q78 0 136 62.5t58 183.5v535h244v-633q0 -78 20 -105.5t66 -27.5q30 0 57 12l47 -195q-69 -34 -159 -34q-89 0 -145 48.5t-70 133.5h-4q-41 -95 -109.5 -141.5t-149.5 -46.5q-109 0 -165 69h-5q9 -129 9 -264v-270 h-244z" />
<glyph unicode="&#x3bd;" horiz-adv-x="1024" d="M14 969h248l236 -709h4q196 196 196 442q0 130 -55 267h262q45 -123 45 -256q0 -96 -28 -188t-84.5 -181t-130.5 -172.5t-177 -177.5h-174z" />
<glyph unicode="&#x3be;" horiz-adv-x="962" d="M92 371q0 113 70.5 196t197.5 125v4q-190 53 -190 211q0 208 344 357v6q-221 -51 -362 -56l-54 197q182 0 418.5 10t384.5 29l14 -139q-493 -163 -493 -365q0 -81 66 -116t192 -35q28 0 133 6v-195q-55 8 -139 8q-89 0 -161.5 -20.5t-120.5 -67.5t-48 -114 q0 -50 32.5 -85t84 -55.5t114 -38t125 -39t114 -51t84 -81.5t32.5 -123q0 -132 -144 -330l-194 100q86 111 86 178q0 37 -25 65.5t-66.5 45t-94 33.5t-107.5 32t-107.5 40.5t-94 58t-66.5 86.5t-25 123z" />
<glyph unicode="&#x3bf;" horiz-adv-x="1116" d="M74 487q0 220 134 363t349 143t350 -143t135 -363t-135 -363.5t-350 -143.5t-349 143.5t-134 363.5zM324 487q0 -140 60.5 -225.5t172.5 -85.5t173 85.5t61 225.5q0 138 -61 224t-173 86t-172.5 -85.5t-60.5 -224.5z" />
<glyph unicode="&#x3c0;" horiz-adv-x="1312" d="M47 778v191h1221l-58 -191h-182v-491q0 -45 16 -64.5t52 -19.5q26 0 51 10l47 -197q-72 -30 -166 -30q-246 0 -246 243v549h-309v-778h-244v778h-182z" />
<glyph unicode="&#x3c1;" horiz-adv-x="1128" d="M127 -485v993q0 235 118 360t328 125q222 0 353 -134.5t131 -366.5q0 -225 -131.5 -368.5t-343.5 -143.5q-119 0 -207 53h-4v-518h-244zM371 236q82 -58 182 -58q125 0 188.5 89t63.5 229q0 145 -64.5 222t-162.5 77q-107 0 -157 -77t-50 -210v-272z" />
<glyph unicode="&#x3c2;" horiz-adv-x="915" d="M74 518q0 217 133.5 346t345.5 129q174 0 278 -65v-207q-105 76 -253 76q-124 0 -189 -74t-65 -188q0 -56 18 -100.5t48 -75t69 -55.5t82 -44.5l86 -39t82 -43t69 -52t48 -70.5t18 -94q0 -144 -148 -352l-192 102q96 130 96 193q0 42 -29 74.5t-75.5 56t-102.5 48 t-112 60t-102.5 81.5t-75.5 121.5t-29 172.5z" />
<glyph unicode="&#x3c3;" horiz-adv-x="1196" d="M74 461q0 238 137.5 373t376.5 135h616l-59 -199h-105q-80 0 -155 10v-4q106 -141 106 -325q0 -204 -126.5 -337.5t-334.5 -133.5t-332 133t-124 348zM322 457q0 -129 52.5 -205t157.5 -76q106 0 161 79.5t55 213.5q0 82 -29.5 164.5t-71.5 140.5h-33q-152 0 -222 -87 t-70 -230z" />
<glyph unicode="&#x3c4;" horiz-adv-x="940" d="M35 778v191h895l-60 -191h-323v-487q0 -59 32 -87t85 -28q83 0 147 43l72 -168q-112 -71 -262 -71q-145 0 -232.5 71.5t-87.5 208.5v518h-266z" />
<glyph unicode="&#x3c5;" horiz-adv-x="1191" d="M16 961q79 32 172 32q228 0 228 -262q0 -41 -8.5 -128.5t-8.5 -133.5q0 -142 52.5 -217.5t156.5 -75.5q117 0 176.5 95t59.5 264q0 95 -34.5 216.5t-102.5 217.5h251q61 -90 98.5 -208.5t37.5 -238.5q0 -244 -127 -393t-363 -149q-216 0 -332 116t-116 328q0 55 7 139.5 t7 120.5q0 51 -15.5 70.5t-45.5 19.5q-20 0 -43 -10z" />
<glyph unicode="&#x3c6;" horiz-adv-x="1445" d="M74 487q0 202 145 343t383 167v453h242v-453q238 -26 383 -166.5t145 -341.5q0 -202 -145 -342.5t-383 -166.5v-465h-242v465q-238 26 -383 166.5t-145 340.5zM317 487q0 -124 81 -211t204 -102v629q-123 -15 -204 -102.5t-81 -213.5zM844 174q123 15 203.5 102t80.5 213 q0 124 -80.5 211.5t-203.5 102.5v-629z" />
<glyph unicode="&#x3c7;" horiz-adv-x="1097" d="M0 -485l428 772q-25 82 -41 133.5t-36 110t-35.5 93t-34.5 69.5t-37 53t-39 29t-45 11q-29 0 -64 -10l-53 189q69 26 152 26q134 0 218.5 -109t164.5 -370h4l241 457h256l-397 -715q13 -39 36 -110q31 -94 45.5 -137t38 -105.5t38 -88t36 -55.5t43.5 -39.5t48 -9.5 q33 0 61 12l55 -188q-71 -27 -151 -27q-141 0 -226.5 118.5t-170.5 406.5h-5l-270 -516h-260z" />
<glyph unicode="&#x3c8;" horiz-adv-x="1480" d="M76 969h239q56 -109 56 -252q0 -41 -8.5 -124.5t-8.5 -131.5q0 -126 65 -202t193 -85v1276h242v-1276q145 11 225 107.5t80 263.5q0 96 -29.5 213t-95.5 211h252q56 -88 89.5 -205.5t33.5 -237.5q0 -237 -147.5 -384t-407.5 -160v-467h-242v465q-240 12 -373 129 t-133 333q0 48 10.5 137t10.5 140q0 126 -51 250z" />
<glyph unicode="&#x3c9;" horiz-adv-x="1574" d="M74 428q0 156 59.5 301.5t155.5 257.5l235 -45q-109 -129 -160 -261t-51 -243q0 -122 46.5 -189t125.5 -67q88 0 136.5 88t48.5 242q0 124 -13 215h261q-13 -91 -13 -215q0 -153 49 -241.5t136 -88.5q81 0 126.5 66.5t45.5 189.5q0 112 -50 244t-159 260l233 45 q96 -113 156.5 -258.5t60.5 -300.5q0 -194 -107 -321t-278 -127q-125 0 -211.5 73t-115.5 201h-5q-31 -128 -117.5 -201t-211.5 -73q-171 0 -277 126.5t-106 321.5z" />
<glyph unicode="&#x3ca;" horiz-adv-x="589" d="M-68 1239q0 53 37 90t88 37q53 0 90 -36.5t37 -90.5q0 -52 -37 -88.5t-90 -36.5q-51 0 -88 36.5t-37 88.5zM115 233v736h245v-688q0 -84 82 -84q36 0 68 14l49 -193q-73 -32 -186 -32q-124 0 -191 61.5t-67 185.5zM324 1239q0 54 36 90.5t89 36.5q51 0 87.5 -36.5 t36.5 -90.5q0 -52 -36.5 -88.5t-87.5 -36.5q-53 0 -89 36t-36 89z" />
<glyph unicode="&#x3cb;" horiz-adv-x="1191" d="M16 961q79 32 172 32q228 0 228 -262q0 -41 -8.5 -128.5t-8.5 -133.5q0 -142 52.5 -217.5t156.5 -75.5q117 0 176.5 95t59.5 264q0 95 -34.5 216.5t-102.5 217.5h251q61 -90 98.5 -208.5t37.5 -238.5q0 -244 -127 -393t-363 -149q-216 0 -332 116t-116 328q0 55 7 139.5 t7 120.5q0 51 -15.5 70.5t-45.5 19.5q-20 0 -43 -10zM236 1239q0 54 36.5 90.5t87.5 36.5q53 0 90 -36.5t37 -90.5q0 -52 -37 -88.5t-90 -36.5q-51 0 -87.5 36.5t-36.5 88.5zM627 1239q0 54 36 90.5t89 36.5q52 0 88.5 -37t36.5 -90q0 -52 -37 -88.5t-88 -36.5 q-52 0 -88.5 36t-36.5 89z" />
<glyph unicode="&#x3cc;" horiz-adv-x="1116" d="M74 487q0 220 134 363t349 143t350 -143t135 -363t-135 -363.5t-350 -143.5t-349 143.5t-134 363.5zM324 487q0 -140 60.5 -225.5t172.5 -85.5t173 85.5t61 225.5q0 138 -61 224t-173 86t-172.5 -85.5t-60.5 -224.5zM453 1087l147 343h283l-238 -343h-192z" />
<glyph unicode="&#x3cd;" horiz-adv-x="1191" d="M16 961q79 32 172 32q228 0 228 -262q0 -41 -8.5 -128.5t-8.5 -133.5q0 -142 52.5 -217.5t156.5 -75.5q117 0 176.5 95t59.5 264q0 95 -34.5 216.5t-102.5 217.5h251q61 -90 98.5 -208.5t37.5 -238.5q0 -244 -127 -393t-363 -149q-216 0 -332 116t-116 328q0 55 7 139.5 t7 120.5q0 51 -15.5 70.5t-45.5 19.5q-20 0 -43 -10zM432 1087l148 343h282l-237 -343h-193z" />
<glyph unicode="&#x3ce;" horiz-adv-x="1636" d="M102 428q0 156 59.5 301.5t155.5 257.5l236 -45q-109 -129 -160 -261t-51 -243q0 -122 46.5 -189t125.5 -67q88 0 136 88t48 242q0 131 -12 215h260q-12 -84 -12 -215q0 -154 48.5 -242t135.5 -88q81 0 126.5 66.5t45.5 189.5q0 112 -50 244t-159 260l234 45 q96 -113 156.5 -258.5t60.5 -300.5q0 -194 -107 -321t-278 -127q-125 0 -212 73t-116 201h-4q-31 -128 -118 -201t-212 -73q-171 0 -277 126.5t-106 321.5zM721 1087l147 343h283l-238 -343h-192z" />
<glyph unicode="&#x3d0;" horiz-adv-x="1101" d="M86 612q0 181 36.5 334t104.5 265t171.5 175.5t230.5 63.5q165 0 260.5 -93t95.5 -237q0 -203 -180 -342v-4q106 -47 165.5 -140t59.5 -214q0 -189 -125 -314.5t-334 -125.5q-243 0 -364 161t-121 471zM338 565q12 -389 237 -389q93 0 148 65t55 173q0 185 -168 248 q-106 -52 -272 -97zM340 762q210 68 304.5 148.5t94.5 203.5q0 59 -28.5 99t-89.5 40q-108 0 -185 -135t-96 -356z" />
<glyph unicode="&#x3d1;" horiz-adv-x="1138" d="M90 700h236q41 -78 41 -163q0 -30 -8.5 -92.5t-8.5 -100.5q0 -83 45 -125.5t129 -42.5q270 0 277 469q-154 20 -271.5 57.5t-202.5 94t-128.5 136.5t-42.5 181q3 146 100 241.5t270 94.5q164 -1 283.5 -102t178.5 -270.5t59 -385.5q0 -127 -17.5 -232t-57 -195.5 t-101 -152.5t-153 -97t-208.5 -35q-193 0 -295 92.5t-102 240.5q0 35 8 105t8 106q0 91 -39 176zM393 1112q0 -210 395 -260q-22 179 -91 290t-167 111q-58 0 -97.5 -36.5t-39.5 -104.5z" />
<glyph unicode="&#x3d5;" horiz-adv-x="1415" d="M74 502q0 254 182 485l233 -45q-85 -102 -128.5 -214.5t-43.5 -211.5q0 -143 66.5 -232t191.5 -108v453q0 171 89.5 267.5t242.5 96.5q191 0 312.5 -128t121.5 -339q0 -221 -140 -368t-384 -176v-467h-242v467q-242 29 -371.5 166.5t-129.5 353.5zM817 176 q126 20 202.5 110t76.5 244q0 112 -48.5 188.5t-123.5 76.5q-46 0 -76.5 -36.5t-30.5 -119.5v-463z" />
<glyph unicode="&#x400;" horiz-adv-x="1034" d="M166 0v1350h745l-67 -209h-432v-353h432v-208h-432v-371h501v-209h-747zM248 1726h266l119 -301h-187z" />
<glyph unicode="&#x401;" horiz-adv-x="1034" d="M166 0v1350h745l-67 -209h-432v-353h432v-208h-432v-371h501v-209h-747zM211 1561q0 52 37 89.5t88 37.5q52 0 89.5 -37t37.5 -90q0 -52 -37 -88.5t-90 -36.5q-51 0 -88 36.5t-37 88.5zM602 1561q0 53 36.5 90t88.5 37q51 0 88 -37.5t37 -89.5t-37 -88.5t-88 -36.5 q-53 0 -89 36t-36 89z" />
<glyph unicode="&#x402;" horiz-adv-x="1499" d="M31 1149v201h1138l-63 -201h-434v-340q98 8 157 8q572 0 572 -434q0 -171 -106.5 -284t-293.5 -113q-104 0 -180 28l51 195q59 -19 101 -19q82 0 131 53.5t49 145.5q0 64 -23 107.5t-68.5 67.5t-103 34t-135.5 10q-69 0 -151 -8v-600h-248v1149h-393z" />
<glyph unicode="&#x403;" horiz-adv-x="937" d="M166 0v1350h766l-68 -209h-450v-1141h-248zM438 1425l119 301h264l-196 -301h-187z" />
<glyph unicode="&#x404;" horiz-adv-x="1298" d="M109 659q0 152 46.5 280t132.5 222.5t218 147.5t295 53q94 0 196 -19t166 -47v-225q-163 86 -356 86q-191 0 -303 -102.5t-135 -272.5h659v-198h-661q14 -187 125 -293.5t307 -106.5q174 0 340 95l71 -193q-196 -106 -436 -106q-165 0 -292.5 49.5t-208.5 140t-122.5 214 t-41.5 275.5z" />
<glyph unicode="&#x405;" horiz-adv-x="1097" d="M100 96l97 189q144 -99 305 -99q60 0 109 15t82.5 52t33.5 93q0 47 -25 86.5t-66 67t-93.5 57t-107.5 55.5t-107.5 62.5t-93.5 77.5t-66 102t-25 135q0 75 29.5 142t84 119t139 82t186.5 30q193 0 329 -68v-225q-166 86 -321 86q-79 0 -131.5 -34.5t-52.5 -110.5 q0 -39 20 -73t53.5 -59.5t77.5 -49t92 -48t96.5 -51t92.5 -61t77.5 -76t53.5 -99t20 -126.5q0 -177 -135 -282t-346 -105q-117 0 -224 30.5t-184 85.5z" />
<glyph unicode="&#x406;" horiz-adv-x="577" d="M166 0v1350h246v-1350h-246z" />
<glyph unicode="&#x407;" horiz-adv-x="577" d="M-33 1561q0 52 37 89.5t88 37.5q52 0 89.5 -37t37.5 -90q0 -52 -37 -88.5t-90 -36.5q-51 0 -88 36.5t-37 88.5zM166 0v1350h246v-1350h-246zM358 1561q0 53 36.5 90t88.5 37q51 0 88 -37.5t37 -89.5t-37 -88.5t-88 -36.5q-53 0 -89 36t-36 89z" />
<glyph unicode="&#x408;" horiz-adv-x="677" d="M-61 -346l49 199q51 -25 123 -25q49 0 81.5 15t47.5 44.5t20.5 61.5t5.5 78v1323h246v-1356q0 -170 -94 -271.5t-287 -101.5q-105 0 -192 33z" />
<glyph unicode="&#x409;" horiz-adv-x="1878" d="M35 -4v227q18 -4 41 -4q89 0 147 88q83 126 143 411.5t93 631.5h688v-500h76q247 0 383 -82q178 -102 178 -338q0 -95 -29.5 -171.5t-92.5 -135.5t-171 -91t-254 -32h-338v1149h-237q-28 -315 -96.5 -595t-164.5 -417q-105 -147 -297 -147q-49 0 -69 6zM1147 203h96 q151 0 221 54.5t70 168.5q0 120 -82 174q-71 47 -225 47h-80v-444z" />
<glyph unicode="&#x40a;" horiz-adv-x="1994" d="M166 0v1350h248v-557h598v557h248v-500h79q247 0 383 -82q176 -103 176 -338q0 -76 -18 -139.5t-58.5 -118t-102.5 -92t-154.5 -59t-210.5 -21.5h-342v584h-598v-584h-248zM1260 203h100q150 0 220.5 55t70.5 168q0 120 -82 174q-71 47 -226 47h-83v-444z" />
<glyph unicode="&#x40b;" horiz-adv-x="1564" d="M31 1149v201h1130l-63 -201h-426v-334q110 8 164 8q215 0 346.5 -54t189.5 -191q37 -81 37 -232v-346h-248v330q0 102 -22 153q-31 77 -105.5 105t-193.5 28q-76 0 -168 -10v-606h-248v1149h-393z" />
<glyph unicode="&#x40c;" horiz-adv-x="1280" d="M166 0v1350h248v-568h121q55 0 95.5 27t67.5 77.5t46.5 102t44.5 121t49 113.5q79 139 235 139q72 0 131 -19v-219q-47 17 -82 17q-64 0 -96 -56q-20 -33 -53.5 -123t-74 -162t-95.5 -106v-4q44 -17 80 -57t73 -111l273 -522h-285l-207 434q-39 83 -70.5 115.5 t-64.5 32.5h-188v-582h-248zM555 1425l119 301h264l-197 -301h-186z" />
<glyph unicode="&#x40d;" horiz-adv-x="1531" d="M166 0v1350h248v-721q0 -84 -4 -228h4q39 59 149 209l559 740h244v-1350h-248v766q0 156 6 209h-4q-21 -27 -71 -95.5t-82 -109.5l-578 -770h-223zM502 1726h266l119 -301h-187z" />
<glyph unicode="&#x40e;" horiz-adv-x="1234" d="M27 1350h274l338 -709h4l303 709h271l-476 -1016q-89 -190 -193 -271t-245 -81q-62 0 -108 10v209q49 -11 84 -11q80 0 125.5 43.5t107.5 157.5zM254 1751h205q0 -75 40 -121.5t126 -46.5q87 0 127.5 46.5t40.5 121.5h204q5 -155 -94 -251.5t-278 -96.5q-180 0 -278 96.5 t-93 251.5z" />
<glyph unicode="&#x40f;" horiz-adv-x="1417" d="M166 0v1350h248v-1131h590v1131h247v-1350h-424v-383h-237v383h-424z" />
<glyph unicode="&#x410;" horiz-adv-x="1298" d="M18 0l523 1356h196l543 -1356h-266l-131 338h-482l-127 -338h-256zM473 539h334l-94 268q-46 128 -68 209h-4q-13 -50 -70 -211z" />
<glyph unicode="&#x411;" horiz-adv-x="1165" d="M166 0v1350h854l-66 -201h-540v-322h98q243 0 369 -67q190 -99 190 -340q0 -94 -29.5 -169t-92.5 -132t-170 -88t-253 -31h-360zM414 203h118q150 0 219.5 51.5t69.5 159.5q0 124 -86 172q-70 41 -219 41h-102v-424z" />
<glyph unicode="&#x412;" horiz-adv-x="1165" d="M166 0v1350h395q204 0 312 -99.5t108 -242.5q0 -90 -43 -165t-121 -114v-4q118 -29 186 -117.5t68 -208.5q0 -80 -30.5 -151t-88 -126.5t-149 -88.5t-205.5 -33h-432zM412 203h157q252 0 252 196q0 86 -61 135.5t-164 49.5h-184v-381zM412 786h116q100 0 154.5 50 t54.5 131q0 80 -53 130t-158 50h-114v-361z" />
<glyph unicode="&#x413;" horiz-adv-x="937" d="M166 0v1350h766l-68 -209h-450v-1141h-248z" />
<glyph unicode="&#x414;" horiz-adv-x="1435" d="M51 211h84q256 312 383 1139h678v-1139h178v-594h-237v383h-848v-383h-238v594zM408 211h540v938h-237q-41 -293 -121.5 -535t-181.5 -399v-4z" />
<glyph unicode="&#x415;" horiz-adv-x="1034" d="M166 0v1350h745l-67 -209h-432v-353h432v-208h-432v-371h501v-209h-747z" />
<glyph unicode="&#x416;" horiz-adv-x="1873" d="M51 0l242 494q43 88 79.5 130.5t82.5 57.5v4q-44 27 -76.5 82t-49 108t-37.5 116t-40 95q-31 54 -92 54q-45 0 -86 -15v217q59 19 125 19q154 0 233 -139q21 -40 40.5 -95.5t32 -101.5t31.5 -94.5t40 -81.5t56 -54.5t81 -21.5h104v576h240v-576h106q54 0 92 28t62 79 t40.5 104.5t39.5 122.5t47 115q76 139 231 139q66 0 125 -19v-217q-41 15 -84 15q-63 0 -94 -54q-19 -32 -39.5 -95t-36.5 -116t-48.5 -108t-76.5 -82v-4q45 -15 82 -58.5t78 -129.5l244 -494h-279l-188 428q-38 84 -67 115.5t-62 31.5h-172v-575h-240v575h-170 q-33 0 -62 -31.5t-67 -115.5l-190 -428h-277z" />
<glyph unicode="&#x417;" horiz-adv-x="1083" d="M84 1264q184 98 410 98q115 0 205 -30t144.5 -81.5t82.5 -116t28 -137.5q0 -107 -59 -185t-166 -118v-4q123 -23 189.5 -102t66.5 -201q0 -181 -133.5 -294t-386.5 -113q-199 0 -354 65v213q154 -72 335 -72q133 0 207 54t74 155q0 193 -303 193q-97 0 -154 -4v202 q45 -4 125 -4q149 0 225 48.5t76 142.5q0 86 -58.5 134t-176.5 48q-153 0 -311 -82z" />
<glyph unicode="&#x418;" horiz-adv-x="1531" d="M166 0v1350h248v-721q0 -84 -4 -228h4q39 59 149 209l559 740h244v-1350h-248v766q0 156 6 209h-4q-21 -27 -71 -95.5t-82 -109.5l-578 -770h-223z" />
<glyph unicode="&#x419;" horiz-adv-x="1531" d="M166 0v1350h248v-721q0 -84 -4 -228h4q39 59 149 209l559 740h244v-1350h-248v766q0 156 6 209h-4q-21 -27 -71 -95.5t-82 -109.5l-578 -770h-223zM401 1751h205q0 -75 40 -121.5t126 -46.5q87 0 127.5 46.5t40.5 121.5h205q5 -155 -94.5 -251.5t-278.5 -96.5 q-180 0 -278 96.5t-93 251.5z" />
<glyph unicode="&#x41a;" horiz-adv-x="1280" d="M166 0v1350h248v-568h121q55 0 95.5 27t67.5 77.5t46.5 102t44.5 121t49 113.5q79 139 235 139q72 0 131 -19v-219q-47 17 -82 17q-64 0 -96 -56q-20 -33 -53.5 -123t-74 -162t-95.5 -106v-4q44 -17 80 -57t73 -111l273 -522h-285l-207 434q-39 83 -70.5 115.5 t-64.5 32.5h-188v-582h-248z" />
<glyph unicode="&#x41b;" horiz-adv-x="1337" d="M35 -4v227q18 -4 41 -4q89 0 147 88q83 126 143 411.5t93 631.5h712v-1350h-245v1149h-264q-28 -315 -96.5 -595t-164.5 -417q-105 -147 -297 -147q-49 0 -69 6z" />
<glyph unicode="&#x41c;" horiz-adv-x="1685" d="M166 0v1350h223l354 -510q87 -130 113 -174h4q53 93 111 182l323 502h226v-1350h-248v762q0 125 4 178h-4q-23 -50 -92 -152l-267 -413h-112l-295 424q-73 103 -92 139h-4q2 -53 2 -170v-768h-246z" />
<glyph unicode="&#x41d;" horiz-adv-x="1470" d="M166 0v1350h246v-557h645v557h248v-1350h-248v584h-645v-584h-246z" />
<glyph unicode="&#x41e;" horiz-adv-x="1576" d="M109 670q0 202 86 360t241 245t352 87t352 -87.5t241.5 -245.5t86.5 -359q0 -204 -88 -361.5t-242.5 -243t-349.5 -85.5q-147 0 -273 50t-215.5 139.5t-140 218.5t-50.5 282zM371 670q0 -226 113.5 -355t303.5 -129q189 0 303.5 129t114.5 355q0 224 -113 354.5 t-305 130.5q-190 0 -303.5 -129t-113.5 -356z" />
<glyph unicode="&#x41f;" horiz-adv-x="1411" d="M166 0v1350h1079v-1350h-248v1141h-583v-1141h-248z" />
<glyph unicode="&#x420;" horiz-adv-x="1112" d="M166 0v1350h326q184 0 303 -58q106 -53 162.5 -151t56.5 -234q0 -128 -62 -234t-196 -161q-120 -47 -287 -47h-57v-465h-246zM412 666h73q99 0 158 30q113 55 113 211q0 143 -107 207q-59 35 -168 35h-69v-483z" />
<glyph unicode="&#x421;" horiz-adv-x="1288" d="M117 659q0 196 86.5 355t250 253.5t375.5 94.5q205 0 355 -66v-229q-166 88 -348 88q-109 0 -197 -39t-144 -106.5t-86 -155.5t-30 -188q0 -215 121.5 -347.5t326.5 -132.5q166 0 332 95l68 -195q-194 -106 -428 -106q-163 0 -292.5 50.5t-214.5 141t-130 214.5t-45 273z " />
<glyph unicode="&#x422;" horiz-adv-x="1103" d="M31 1141v209h1067l-68 -209h-360v-1141h-246v1141h-393z" />
<glyph unicode="&#x423;" horiz-adv-x="1234" d="M27 1350h274l338 -709h4l303 709h271l-476 -1016q-89 -190 -193 -271t-245 -81q-62 0 -108 10v209q49 -11 84 -11q80 0 125.5 43.5t107.5 157.5z" />
<glyph unicode="&#x424;" horiz-adv-x="1601" d="M109 678q0 237 150 373.5t419 160.5v168h248v-168q268 -24 417.5 -161.5t149.5 -372.5q0 -243 -147 -376t-420 -155v-184h-248v184q-274 22 -421.5 155.5t-147.5 375.5zM358 678q0 -294 320 -318v641q-320 -31 -320 -323zM926 360q157 14 236 90.5t79 227.5 q0 289 -315 323v-641z" />
<glyph unicode="&#x425;" horiz-adv-x="1300" d="M25 0l483 678l-445 672h279l320 -486l342 486h270l-473 -666l452 -684h-274l-332 498l-352 -498h-270z" />
<glyph unicode="&#x426;" horiz-adv-x="1474" d="M166 0v1350h248v-1139h573v1139h246v-1139h180v-594h-239v383h-1008z" />
<glyph unicode="&#x427;" horiz-adv-x="1304" d="M145 1004v346h248v-330q0 -93 23 -154q31 -77 107.5 -105t195.5 -28q80 0 172 10v607h248v-1350h-248v535q-124 -9 -168 -9q-215 0 -349 54.5t-192 191.5q-37 87 -37 232z" />
<glyph unicode="&#x428;" horiz-adv-x="1941" d="M166 0v1350h248v-1139h434v1139h246v-1139h434v1139h248v-1350h-1610z" />
<glyph unicode="&#x429;" horiz-adv-x="2009" d="M166 0v1350h248v-1139h430v1139h248v-1139h430v1139h247v-1139h179v-594h-240v383h-1542z" />
<glyph unicode="&#x42a;" horiz-adv-x="1458" d="M2 1350h723v-500h80q248 0 381 -82q178 -102 178 -338q0 -96 -29.5 -172t-92 -135t-170 -91t-253.5 -32h-342v1149h-411zM725 203h100q150 0 220.5 55t70.5 168q0 119 -84 174q-68 47 -223 47h-84v-444z" />
<glyph unicode="&#x42b;" horiz-adv-x="1607" d="M166 0v1350h248v-500h65q233 0 361 -68q200 -104 200 -352q0 -95 -29.5 -171.5t-92.5 -135.5t-170.5 -91t-253.5 -32h-328zM414 203h86q151 0 221 54.5t70 168.5q0 125 -95 180q-67 41 -213 41h-69v-444zM1194 0v1350h248v-1350h-248z" />
<glyph unicode="&#x42c;" horiz-adv-x="1165" d="M166 0v1350h248v-500h92q229 0 362 -68q203 -105 203 -352q0 -95 -29.5 -171.5t-92.5 -135.5t-170 -91t-253 -32h-360zM414 203h118q150 0 219.5 55t69.5 168q0 123 -84 176q-68 45 -225 45h-98v-444z" />
<glyph unicode="&#x42d;" horiz-adv-x="1265" d="M88 1266q196 96 406 96q157 0 283.5 -53.5t209 -147.5t126.5 -220t44 -273q0 -152 -43 -277.5t-125.5 -217.5t-212 -142.5t-295.5 -50.5q-207 0 -358 63v215q158 -74 346 -74q194 0 304.5 103.5t123.5 296.5h-631v198h629q-20 168 -128 271.5t-296 103.5q-163 0 -317 -80 z" />
<glyph unicode="&#x42e;" horiz-adv-x="2080" d="M166 0v1350h248v-557h303q34 259 200.5 414t423.5 155q191 0 335 -89t220 -245.5t76 -357.5q0 -310 -172.5 -500t-458.5 -190q-266 0 -434.5 165t-193.5 439h-299v-584h-248zM973 670q0 -227 97 -355.5t271 -128.5q173 0 270 129t97 355t-95 355.5t-272 129.5 q-174 0 -271 -128.5t-97 -356.5z" />
<glyph unicode="&#x42f;" horiz-adv-x="1243" d="M51 0l225 446q40 77 68 113t66 57v5q-110 39 -169 125.5t-59 201.5q0 191 129.5 296.5t335.5 105.5h432v-1350h-248v526h-194q-32 0 -60.5 -31.5t-66.5 -115.5l-172 -379h-287zM440 932q0 -104 67 -154.5t181 -50.5h143v422h-149q-109 0 -175.5 -56t-66.5 -161z" />
<glyph unicode="&#x430;" horiz-adv-x="1013" d="M70 289q0 181 163 264q95 49 250 55l166 6v31q0 82 -49 122t-137 40q-125 0 -254 -68l-80 158q175 96 375 96q389 0 389 -352v-393q0 -182 18 -248h-204l-37 92q-124 -112 -279 -112q-140 0 -230.5 85.5t-90.5 223.5zM317 305q0 -63 38.5 -98t105.5 -35q100 0 188 72v207 l-131 -5q-91 -3 -141 -30q-60 -34 -60 -111z" />
<glyph unicode="&#x431;" horiz-adv-x="1099" d="M80 614q0 179 46 341.5t122 238.5q21 23 41.5 41t49 34.5t49.5 28t63 25.5l67.5 22.5t85.5 23.5t95.5 23t118 27t132.5 31v-219q-46 -11 -127 -31q-233 -56 -309.5 -83.5t-114.5 -76.5q-50 -62 -69 -186h4q133 78 280 78q137 0 231 -61.5t136.5 -160.5t42.5 -227 q0 -225 -123 -364t-352 -139q-107 0 -191.5 35.5t-147.5 109.5t-96.5 197.5t-33.5 291.5zM322 604q0 -214 61 -321t172 -107q113 0 166 80t53 209q0 56 -10 103.5t-33 88t-64.5 63.5t-99.5 23q-112 0 -243 -69q-2 -27 -2 -70z" />
<glyph unicode="&#x432;" horiz-adv-x="995" d="M121 0v969h387q106 0 185 -22.5t122 -61t63.5 -82.5t20.5 -94q0 -81 -44 -133.5t-120 -75.5v-4q82 -16 135.5 -72.5t53.5 -144.5q0 -54 -20.5 -101t-65 -88.5t-125.5 -65.5t-191 -24h-401zM356 174h176q150 0 150 117q0 119 -143 119h-183v-236zM356 571h162 q139 0 139 111q0 55 -34 84t-113 29h-154v-224z" />
<glyph unicode="&#x433;" horiz-adv-x="862" d="M121 0v969h706l-69 -217h-393v-752h-244z" />
<glyph unicode="&#x434;" horiz-adv-x="1187" d="M47 197h64q99 122 158 291t116 481h596v-772h137v-539h-225v342h-621v-342h-225v539zM373 197h364v573h-174q-62 -363 -190 -569v-4z" />
<glyph unicode="&#x435;" horiz-adv-x="1015" d="M76 483q0 224 117 367t319 143q203 0 316.5 -137.5t113.5 -380.5v-57h-620q5 -113 79 -179.5t195 -66.5q126 0 244 66l73 -168q-146 -90 -342 -90q-103 0 -186.5 27.5t-140 74t-95 111t-56 137t-17.5 153.5zM319 588h375q-2 92 -48.5 155.5t-137.5 63.5q-87 0 -137 -63 t-52 -156z" />
<glyph unicode="&#x436;" horiz-adv-x="1480" d="M37 0l170 367q24 50 50 78t62 40v4q-36 21 -58 70.5t-40 107t-37 83.5q-22 32 -67 32q-29 0 -56 -10v207q38 14 101 14q114 0 172 -84q26 -37 49 -100t37 -109.5t43.5 -82t71.5 -35.5h88v387h237v-387h88q42 0 71 35.5t43 82t36.5 109.5t48.5 100q61 84 172 84 q62 0 100 -14v-207q-27 10 -55 10q-46 0 -68 -32q-20 -26 -37.5 -83.5t-39 -107t-56.5 -70.5v-4q35 -12 61.5 -40t49.5 -78l170 -367h-260l-121 305q-37 94 -84 94h-119v-399h-237v399h-121q-44 0 -84 -94l-121 -305h-260z" />
<glyph unicode="&#x437;" horiz-adv-x="903" d="M90 915q159 78 332 78q177 0 281 -78t104 -200q0 -73 -39.5 -129t-110.5 -80v-4q84 -23 128 -79t44 -134q0 -59 -25 -113t-74.5 -98.5t-132 -71t-187.5 -26.5q-169 0 -306 65v186q143 -67 285 -67q199 0 199 129q0 62 -57.5 89.5t-178.5 27.5q-46 0 -121 -7v175 q74 -3 134 -3q202 0 202 121q0 52 -42.5 81.5t-121.5 29.5q-121 0 -247 -59z" />
<glyph unicode="&#x438;" horiz-adv-x="1146" d="M121 0v969h239v-430q0 -95 -8 -209h4q55 92 129 202l303 437h238v-969h-240v430q0 81 9 209h-4q-76 -127 -129 -203l-304 -436h-237z" />
<glyph unicode="&#x439;" horiz-adv-x="1146" d="M121 0v969h239v-430q0 -95 -8 -209h4q55 92 129 202l303 437h238v-969h-240v430q0 81 9 209h-4q-76 -127 -129 -203l-304 -436h-237zM233 1454h203q0 -77 34 -124.5t112 -47.5t112.5 47.5t34.5 124.5h203q5 -156 -87.5 -251t-262.5 -95t-262 95t-87 251z" />
<glyph unicode="&#x43a;" horiz-adv-x="1015" d="M121 0v969h244v-381h112q34 0 59 21t41 58t28.5 76.5t31 86t39.5 77.5q63 86 178 86q59 0 100 -14v-207q-21 8 -55 8q-44 0 -68 -30q-18 -25 -37 -82t-42.5 -105t-59.5 -69v-5q67 -25 113 -118l176 -371h-264l-123 309q-40 92 -84 92h-145v-401h-244z" />
<glyph unicode="&#x43b;" horiz-adv-x="1079" d="M23 -8v215q14 -2 32 -2q62 0 103 63q57 82 109 267t83 434h608v-969h-243v754h-180q-26 -217 -81 -390t-128 -266q-87 -112 -242 -112q-38 0 -61 6z" />
<glyph unicode="&#x43c;" horiz-adv-x="1275" d="M121 0v969h239l148 -242q26 -40 129 -229h4q84 158 129 229l145 242h240v-969h-237v426q0 69 6 186h-6q-20 -46 -91 -159l-137 -224h-104l-137 226q-70 112 -91 157h-6q6 -58 6 -194v-418h-237z" />
<glyph unicode="&#x43d;" horiz-adv-x="1112" d="M121 0v969h244v-348h380v348h246v-969h-246v408h-380v-408h-244z" />
<glyph unicode="&#x43e;" horiz-adv-x="1116" d="M74 487q0 220 134 363t349 143t350 -143t135 -363t-135 -363.5t-350 -143.5t-349 143.5t-134 363.5zM324 487q0 -140 60.5 -225.5t172.5 -85.5t173 85.5t61 225.5q0 138 -61 224t-173 86t-172.5 -85.5t-60.5 -224.5z" />
<glyph unicode="&#x43f;" horiz-adv-x="1093" d="M121 0v969h852v-969h-244v752h-364v-752h-244z" />
<glyph unicode="&#x440;" horiz-adv-x="1085" d="M115 -485v1417q175 61 366 61q257 0 394 -135t137 -371q0 -224 -139 -365.5t-365 -141.5q-76 0 -150 22v-487h-243zM358 207q67 -25 131 -25q133 0 203 81.5t70 223.5q0 151 -77 228.5t-212 77.5q-52 0 -115 -17v-569z" />
<glyph unicode="&#x441;" horiz-adv-x="921" d="M74 477q0 224 147 370t365 146q160 0 260 -65v-207q-105 76 -236 76q-132 0 -209 -88.5t-77 -225.5q0 -147 73.5 -227t200.5 -80q104 0 225 66l72 -168q-62 -42 -149 -68t-183 -26q-153 0 -265.5 66t-168 177.5t-55.5 253.5z" />
<glyph unicode="&#x442;" horiz-adv-x="960" d="M47 766v203h889l-64 -203h-286v-766h-244v766h-295z" />
<glyph unicode="&#x443;" horiz-adv-x="1067" d="M-23 -440l62 192q70 -39 145 -39q86 0 151 66.5t120 226.5l-437 963h261l286 -684h4l232 684h252l-371 -1000q-44 -118 -92.5 -202t-93 -132t-98.5 -75.5t-99 -36t-104 -8.5q-116 0 -218 45z" />
<glyph unicode="&#x444;" horiz-adv-x="1370" d="M76 485q0 203 128 342t363 162v420h234v-420q158 -15 271.5 -86.5t167.5 -178.5t54 -239q0 -203 -128 -341.5t-365 -161.5v-467h-234v467q-235 23 -363 161.5t-128 341.5zM315 485q0 -119 67.5 -203.5t186.5 -99.5v609q-120 -17 -187 -102t-67 -204zM801 182 q118 15 186 99.5t68 203.5t-68 205t-186 101v-609z" />
<glyph unicode="&#x445;" horiz-adv-x="1017" d="M16 0l363 487l-350 482h256l227 -316l229 316h254l-354 -482l358 -487h-256l-233 324l-238 -324h-256z" />
<glyph unicode="&#x446;" horiz-adv-x="1163" d="M121 0v969h244v-758h348v758h245v-758h136v-553h-226v342h-747z" />
<glyph unicode="&#x447;" horiz-adv-x="1046" d="M104 641v328h244v-295q0 -70 43 -104.5t141 -34.5q76 0 150 14v420h244v-969h-244v352q-92 -14 -174 -14q-199 0 -301.5 77.5t-102.5 225.5z" />
<glyph unicode="&#x448;" horiz-adv-x="1511" d="M121 0v969h237v-760h279v760h237v-760h277v760h240v-969h-1270z" />
<glyph unicode="&#x449;" horiz-adv-x="1570" d="M121 0v969h237v-760h267v760h235v-760h266v760h240v-760h135v-551h-225v342h-1155z" />
<glyph unicode="&#x44a;" horiz-adv-x="1247" d="M20 969h621v-344q70 4 111 4q116 0 201.5 -25t133 -69t69.5 -97.5t22 -118.5q0 -69 -22 -124.5t-70 -100.5t-134 -69.5t-204 -24.5h-351v766h-319zM641 186h100q113 0 153 34t40 95q0 60 -41.5 92.5t-151.5 32.5q-38 0 -100 -4v-250z" />
<glyph unicode="&#x44b;" horiz-adv-x="1378" d="M121 0v969h244v-344q74 4 106 4q113 0 196 -25t129.5 -69t68.5 -98t22 -118q0 -69 -22 -124.5t-69.5 -100.5t-132 -69.5t-200.5 -24.5h-342zM365 186h92q58 0 96.5 10t57 29t25.5 40t7 50q0 61 -39 93t-145 32q-28 0 -94 -4v-250zM1012 0v969h245v-969h-245z" />
<glyph unicode="&#x44c;" horiz-adv-x="987" d="M121 0v969h244v-344q74 4 112 4q121 0 209 -25t137.5 -69.5t72 -98t22.5 -117.5q0 -69 -22.5 -124.5t-72 -100.5t-138 -69.5t-210.5 -24.5h-354zM365 186h104q119 0 162 33.5t43 95.5q0 60 -45 92.5t-162 32.5q-36 0 -102 -4v-250z" />
<glyph unicode="&#x44d;" horiz-adv-x="942" d="M94 922q142 71 295 71q213 0 345 -142t132 -366q0 -225 -126.5 -365t-356.5 -140q-145 0 -266 57v186q116 -61 241 -61q246 0 271 248h-387v170h381q-16 103 -83 165t-178 62q-101 0 -202 -53z" />
<glyph unicode="&#x44e;" horiz-adv-x="1533" d="M121 0v969h244v-361h194q33 175 150.5 280t294.5 105q208 0 331 -141.5t123 -364.5t-122.5 -365t-331.5 -142q-185 0 -304.5 114t-144.5 301h-190v-395h-244zM797 487q0 -144 50 -227.5t157 -83.5t156.5 83.5t49.5 227.5q0 310 -206 310q-207 0 -207 -310z" />
<glyph unicode="&#x44f;" horiz-adv-x="1013" d="M51 0l135 291q24 51 48 79.5t57 41.5v4q-82 33 -124 99t-42 153q0 132 88.5 216.5t273.5 84.5h406v-969h-244v340h-151q-49 0 -86 -92l-97 -248h-264zM367 647q0 -58 37 -92.5t106 -34.5h139v262h-137q-73 0 -109 -36.5t-36 -98.5z" />
<glyph unicode="&#x450;" horiz-adv-x="1015" d="M76 483q0 224 117 367t319 143q203 0 316.5 -137.5t113.5 -380.5v-57h-620q5 -113 79 -179.5t195 -66.5q126 0 244 66l73 -168q-146 -90 -342 -90q-103 0 -186.5 27.5t-140 74t-95 111t-56 137t-17.5 153.5zM256 1389h266l119 -302h-186zM319 588h375q-2 92 -48.5 155.5 t-137.5 63.5q-87 0 -137 -63t-52 -156z" />
<glyph unicode="&#x451;" horiz-adv-x="1015" d="M76 483q0 224 117 367t319 143q203 0 316.5 -137.5t113.5 -380.5v-57h-620q5 -113 79 -179.5t195 -66.5q126 0 244 66l73 -168q-146 -90 -342 -90q-103 0 -186.5 27.5t-140 74t-95 111t-56 137t-17.5 153.5zM197 1239q0 53 36.5 90t88.5 37q53 0 90 -36.5t37 -90.5 q0 -52 -37 -88.5t-90 -36.5q-51 0 -88 36.5t-37 88.5zM319 588h375q-2 92 -48.5 155.5t-137.5 63.5q-87 0 -137 -63t-52 -156zM588 1239q0 54 36 90.5t89 36.5q51 0 88 -37t37 -90q0 -52 -37 -88.5t-88 -36.5q-53 0 -89 36t-36 89z" />
<glyph unicode="&#x452;" horiz-adv-x="1120" d="M14 1114v186h117v150h244v-150h293v-186h-293v-293q143 133 291 133q171 0 273.5 -151t102.5 -414q0 -259 -96 -432.5t-293 -278.5l-118 177q147 84 202.5 209.5t55.5 310.5q0 172 -52.5 269t-154.5 97q-97 0 -211 -102v-639h-244v1114h-117z" />
<glyph unicode="&#x453;" horiz-adv-x="862" d="M121 0v969h706l-69 -217h-393v-752h-244zM365 1087l118 302h265l-197 -302h-186z" />
<glyph unicode="&#x454;" horiz-adv-x="948" d="M76 477q0 229 137 372.5t356 143.5q167 0 271 -65v-197q-105 76 -244 76q-116 0 -188 -61.5t-91 -165.5h379v-170h-383q11 -119 80.5 -183.5t190.5 -64.5q116 0 233 67l74 -155q-61 -42 -151.5 -68t-186.5 -26q-151 0 -260 65.5t-163 176.5t-54 255z" />
<glyph unicode="&#x455;" horiz-adv-x="864" d="M45 74l76 178q126 -80 264 -80q170 0 170 102q0 33 -25 58t-65 42t-88.5 34t-97.5 40.5t-89 54t-65 81t-25 116.5q0 131 99.5 212t267.5 81q155 0 285 -47v-207q-145 62 -275 62q-137 0 -137 -88q0 -31 25 -54.5t65 -40t88.5 -33.5t97.5 -41t89 -56t65 -85t25 -122 q0 -77 -32 -136.5t-87.5 -94.5t-124.5 -52.5t-150 -17.5q-203 0 -356 94z" />
<glyph unicode="&#x456;" horiz-adv-x="487" d="M94 1272q0 62 43 104.5t107 42.5q65 0 108 -42t43 -105q0 -61 -43.5 -103.5t-107.5 -42.5t-107 42t-43 104zM121 0v969h246v-969h-246z" />
<glyph unicode="&#x457;" horiz-adv-x="487" d="M-76 1239q0 53 37 90t88 37q53 0 90 -36.5t37 -90.5q0 -52 -37 -88.5t-90 -36.5q-51 0 -88 36.5t-37 88.5zM121 0v969h246v-969h-246zM315 1239q0 54 36 90.5t89 36.5q52 0 88.5 -37t36.5 -90q0 -52 -37 -88.5t-88 -36.5q-52 0 -88.5 36t-36.5 89z" />
<glyph unicode="&#x458;" horiz-adv-x="516" d="M-125 -451l45 201q48 -22 105 -22q67 0 96 39t29 127v1075h245v-1112q0 -163 -89.5 -252.5t-244.5 -89.5q-111 0 -186 34zM123 1272q0 62 42.5 104.5t106.5 42.5q66 0 109 -42t43 -105q0 -60 -44 -103t-108 -43t-106.5 42t-42.5 104z" />
<glyph unicode="&#x459;" horiz-adv-x="1544" d="M23 -8v215q14 -2 32 -2q62 0 103 63q57 82 109 267t83 434h584v-344q70 4 113 4q116 0 201.5 -25t133 -69t69.5 -97.5t22 -118.5q0 -144 -102 -231.5t-327 -87.5h-348v754h-161q-26 -217 -81 -390t-128 -266q-87 -112 -242 -112q-38 0 -61 6zM934 186h106q109 0 149 34 t40 95q0 60 -42 92.5t-151 32.5q-40 0 -102 -4v-250z" />
<glyph unicode="&#x45a;" horiz-adv-x="1576" d="M121 0v969h244v-348h358v348h244v-344q70 4 110 4q117 0 202.5 -25t133.5 -69t70 -97.5t22 -118.5q0 -69 -22 -124.5t-70.5 -100.5t-133.5 -69.5t-202 -24.5h-354v408h-358v-408h-244zM967 186h104q111 0 151 34t40 95q0 60 -42.5 92.5t-152.5 32.5q-38 0 -100 -4v-250z " />
<glyph unicode="&#x45b;" horiz-adv-x="1134" d="M14 1114v186h117v150h244v-150h272v-186h-272v-293q154 133 325 133q50 0 93.5 -10t85 -35t70.5 -64t47 -101.5t18 -143.5v-600h-244v530q0 49 -6 84t-22 65.5t-47 46t-77 15.5q-119 0 -243 -102v-639h-244v1114h-117z" />
<glyph unicode="&#x45c;" horiz-adv-x="1015" d="M121 0v969h244v-381h112q34 0 59 21t41 58t28.5 76.5t31 86t39.5 77.5q63 86 178 86q59 0 100 -14v-207q-21 8 -55 8q-44 0 -68 -30q-18 -25 -37 -82t-42.5 -105t-59.5 -69v-5q67 -25 113 -118l176 -371h-264l-123 309q-40 92 -84 92h-145v-401h-244zM414 1087l118 302 h265l-197 -302h-186z" />
<glyph unicode="&#x45d;" horiz-adv-x="1146" d="M121 0v969h239v-430q0 -95 -8 -209h4q55 92 129 202l303 437h238v-969h-240v430q0 81 9 209h-4q-76 -127 -129 -203l-304 -436h-237zM309 1389h266l119 -302h-186z" />
<glyph unicode="&#x45e;" horiz-adv-x="1067" d="M-23 -440l62 192q70 -39 145 -39q86 0 151 66.5t120 226.5l-437 963h261l286 -684h4l232 684h252l-371 -1000q-44 -118 -92.5 -202t-93 -132t-98.5 -75.5t-99 -36t-104 -8.5q-116 0 -218 45zM197 1454h202q0 -77 34 -124.5t112 -47.5t112.5 47.5t34.5 124.5h203 q5 -156 -87.5 -251t-262.5 -95t-261.5 95t-86.5 251z" />
<glyph unicode="&#x45f;" horiz-adv-x="1097" d="M121 0v969h244v-758h366v758h246v-969h-315v-342h-228v342h-313z" />
<glyph unicode="&#x462;" horiz-adv-x="1275" d="M16 1038v201h260v178h248v-178h350l-63 -201h-287v-221h99q223 0 350 -57q209 -96 209 -346q0 -93 -29.5 -166.5t-92.5 -130t-170 -87t-253 -30.5h-361v1038h-260zM524 203h119q150 0 220.5 50t70.5 155q0 119 -86 167q-63 39 -221 39h-103v-411z" />
<glyph unicode="&#x463;" horiz-adv-x="1126" d="M0 788v181h258v276h246v-276h354l-57 -181h-297v-182q70 4 110 4q121 0 209 -23t137.5 -65.5t72 -94t22.5 -116.5q0 -68 -23 -122.5t-72.5 -98t-138 -67t-209.5 -23.5h-354v788h-258zM504 184h102q116 0 160.5 32t44.5 91q0 60 -45 91.5t-162 31.5q-38 0 -100 -4v-242z " />
<glyph unicode="&#x472;" horiz-adv-x="1568" d="M109 670q0 316 183.5 504t491.5 188t492 -189t184 -503q0 -317 -184.5 -503.5t-491.5 -186.5t-491 186.5t-184 503.5zM373 584q15 -194 122.5 -297t288.5 -103q180 0 288.5 103.5t123.5 296.5h-823zM377 793h815q-22 173 -128 268.5t-280 95.5q-170 0 -276 -94.5 t-131 -269.5z" />
<glyph unicode="&#x473;" horiz-adv-x="1107" d="M76 487q0 228 128 367t351 139q220 0 348.5 -139.5t128.5 -366.5q0 -229 -128.5 -368t-350.5 -139q-220 0 -348.5 139.5t-128.5 367.5zM319 410q11 -113 71 -177.5t163 -64.5q105 0 164.5 64.5t68.5 177.5h-467zM319 575h465q-11 107 -69 168.5t-160 61.5 q-103 0 -163.5 -61.5t-72.5 -168.5z" />
<glyph unicode="&#x474;" horiz-adv-x="1363" d="M18 1350h267l256 -734q42 -118 88 -274h4q128 502 219 737q60 148 139.5 215.5t204.5 67.5q77 0 145 -19v-217q-53 17 -92 17q-60 0 -98 -41.5t-76 -128.5q-14 -32 -29 -70.5t-36 -97.5t-37.5 -107t-47 -141.5t-51 -155t-63.5 -194t-70 -215.5h-219z" />
<glyph unicode="&#x475;" horiz-adv-x="1024" d="M14 969h246l229 -660h5q69 311 104 414q50 147 115.5 208.5t177.5 61.5q60 0 119 -16v-205q-27 12 -66 12q-49 0 -83 -40.5t-66 -129.5q-68 -179 -195 -620h-205z" />
<glyph unicode="&#x490;" horiz-adv-x="1048" d="M166 0v1350h602v311l223 57v-569h-577v-1149h-248z" />
<glyph unicode="&#x491;" horiz-adv-x="886" d="M121 0v969h497v286l220 56v-557h-473v-754h-244z" />
<glyph unicode="&#x1e80;" horiz-adv-x="1933" d="M14 1350h279l248 -777q9 -28 65 -227h4q29 105 70 225l182 543l-84 236h250l260 -764q56 -157 76 -238h6q40 162 62 234l233 768h254l-455 -1358h-209l-202 571q-57 158 -74 225h-6q-26 -96 -72 -223l-205 -573h-204zM682 1726h266l119 -301h-186z" />
<glyph unicode="&#x1e81;" horiz-adv-x="1531" d="M14 969h248l205 -658h4l205 658h190l213 -658h4l201 658h242l-359 -975h-180l-213 657h-4l-217 -657h-188zM510 1389h266l119 -302h-186z" />
<glyph unicode="&#x1e82;" horiz-adv-x="1933" d="M14 1350h279l248 -777q9 -28 65 -227h4q29 105 70 225l182 543l-84 236h250l260 -764q56 -157 76 -238h6q40 162 62 234l233 768h254l-455 -1358h-209l-202 571q-57 158 -74 225h-6q-26 -96 -72 -223l-205 -573h-204zM852 1425l119 301h264l-197 -301h-186z" />
<glyph unicode="&#x1e83;" horiz-adv-x="1531" d="M14 969h248l205 -658h4l205 658h190l213 -658h4l201 658h242l-359 -975h-180l-213 657h-4l-217 -657h-188zM647 1087l119 302h264l-196 -302h-187z" />
<glyph unicode="&#x1e84;" horiz-adv-x="1933" d="M14 1350h279l248 -777q9 -28 65 -227h4q29 105 70 225l182 543l-84 236h250l260 -764q56 -157 76 -238h6q40 162 62 234l233 768h254l-455 -1358h-209l-202 571q-57 158 -74 225h-6q-26 -96 -72 -223l-205 -573h-204zM655 1561q0 52 37 89.5t88 37.5q52 0 89.5 -37 t37.5 -90q0 -52 -37 -88.5t-90 -36.5q-51 0 -88 36.5t-37 88.5zM1047 1561q0 53 36 90t88 37q51 0 88 -37.5t37 -89.5t-37 -88.5t-88 -36.5q-52 0 -88 36t-36 89z" />
<glyph unicode="&#x1e85;" horiz-adv-x="1531" d="M14 969h248l205 -658h4l205 658h190l213 -658h4l201 658h242l-359 -975h-180l-213 657h-4l-217 -657h-188zM451 1239q0 54 36.5 90.5t87.5 36.5q53 0 90 -36.5t37 -90.5q0 -52 -37 -88.5t-90 -36.5q-51 0 -87.5 36.5t-36.5 88.5zM842 1239q0 54 36 90.5t89 36.5 q51 0 88 -37t37 -90q0 -52 -37 -88.5t-88 -36.5q-53 0 -89 36t-36 89z" />
<glyph unicode="&#x1ef2;" horiz-adv-x="1200" d="M14 1350h271l315 -596h4l314 596h266l-461 -818v-532h-248v535zM342 1726h266l119 -301h-186z" />
<glyph unicode="&#x1ef3;" horiz-adv-x="1060" d="M-25 -440l62 192q70 -39 145 -39q86 0 151 66.5t120 226.5l-437 963h260l287 -684h4l232 684h252l-371 -1000q-44 -118 -92.5 -202t-93 -132t-98.5 -75.5t-99 -36t-104 -8.5q-116 0 -218 45zM287 1389h266l119 -302h-187z" />
<glyph unicode="&#x2000;" horiz-adv-x="976" />
<glyph unicode="&#x2001;" horiz-adv-x="1952" />
<glyph unicode="&#x2002;" horiz-adv-x="976" />
<glyph unicode="&#x2003;" horiz-adv-x="1952" />
<glyph unicode="&#x2004;" horiz-adv-x="650" />
<glyph unicode="&#x2005;" horiz-adv-x="488" />
<glyph unicode="&#x2006;" horiz-adv-x="325" />
<glyph unicode="&#x2007;" horiz-adv-x="325" />
<glyph unicode="&#x2008;" horiz-adv-x="244" />
<glyph unicode="&#x2009;" horiz-adv-x="390" />
<glyph unicode="&#x200a;" horiz-adv-x="108" />
<glyph unicode="&#x2010;" horiz-adv-x="749" d="M106 406v204h539v-204h-539z" />
<glyph unicode="&#x2011;" horiz-adv-x="749" d="M106 406v204h539v-204h-539z" />
<glyph unicode="&#x2012;" horiz-adv-x="749" d="M106 406v204h539v-204h-539z" />
<glyph unicode="&#x2013;" horiz-adv-x="921" d="M0 424v180h922v-180h-922z" />
<glyph unicode="&#x2014;" horiz-adv-x="1638" d="M0 424v180h1638v-180h-1638z" />
<glyph unicode="&#x2018;" horiz-adv-x="471" d="M94 1169q0 150 78 306l154 -25q-25 -88 -25 -176q0 -133 70 -283l-205 -98q-72 132 -72 276z" />
<glyph unicode="&#x2019;" horiz-adv-x="471" d="M100 1376l207 99q72 -138 72 -277q0 -149 -78 -305l-154 25q25 98 25 176q0 128 -72 282z" />
<glyph unicode="&#x201a;" horiz-adv-x="471" d="M100 147l207 99q72 -138 72 -277q0 -149 -78 -305l-154 25q25 98 25 176q0 128 -72 282z" />
<glyph unicode="&#x201c;" horiz-adv-x="858" d="M94 1169q0 150 78 306l154 -25q-25 -88 -25 -176q0 -133 70 -283l-205 -98q-72 132 -72 276zM481 1169q0 150 78 306l154 -25q-25 -88 -25 -176q0 -133 70 -283l-205 -98q-72 132 -72 276z" />
<glyph unicode="&#x201d;" horiz-adv-x="858" d="M100 1376l207 99q72 -138 72 -277q0 -149 -78 -305l-154 25q25 98 25 176q0 128 -72 282zM487 1376l207 99q72 -138 72 -277q0 -149 -78 -305l-153 25q24 94 24 176q0 128 -72 282z" />
<glyph unicode="&#x201e;" horiz-adv-x="858" d="M100 147l207 99q72 -138 72 -277q0 -149 -78 -305l-154 25q25 98 25 176q0 128 -72 282zM487 147l207 99q72 -138 72 -277q0 -149 -78 -305l-153 25q24 94 24 176q0 128 -72 282z" />
<glyph unicode="&#x2020;" horiz-adv-x="1077" d="M123 764v246q48 -1 164.5 -16t148.5 -17q1 43 -10.5 161t-11.5 165h250q0 -47 -12 -165t-11 -161q33 2 149.5 17t165.5 16v-246q-50 0 -166 13t-147 14q-2 -47 5 -224.5t7 -339.5v-327h-233v327q0 162 7 339.5t5 224.5q-31 -1 -146.5 -14t-164.5 -13z" />
<glyph unicode="&#x2021;" horiz-adv-x="1077" d="M123 193v245q49 0 164 -13.5t147 -14.5q1 27 -1.5 88.5t-2.5 97.5q0 39 2.5 104t1.5 91q-31 -1 -146.5 -14t-164.5 -13v246q48 -1 164.5 -16t148.5 -17q1 43 -10.5 161t-11.5 165h250q0 -47 -12 -165t-11 -161q33 2 149.5 17t165.5 16v-246q-50 0 -166 13t-147 14 q-1 -25 2.5 -89t3.5 -106q0 -38 -3.5 -99.5t-2.5 -86.5q31 1 147 14.5t166 13.5v-245q-51 0 -168.5 14.5t-146.5 15.5q-1 -43 11 -160t12 -163h-250q0 46 11.5 163t10.5 160q-28 -1 -145.5 -15.5t-167.5 -14.5z" />
<glyph unicode="&#x2022;" horiz-adv-x="669" d="M88 649q0 109 70.5 183.5t175.5 74.5q107 0 177.5 -74.5t70.5 -183.5q0 -105 -71 -178.5t-177 -73.5q-105 0 -175.5 73.5t-70.5 178.5z" />
<glyph unicode="&#x2026;" horiz-adv-x="1847" d="M217 123q0 59 39.5 99t97.5 40t98 -40t40 -99q0 -60 -40.5 -100.5t-97.5 -40.5t-97 40.5t-40 100.5zM786 123q0 59 40 99t98 40t97.5 -40t39.5 -99q0 -60 -40 -100.5t-97 -40.5t-97.5 40.5t-40.5 100.5zM1356 123q0 59 40 99t97 40t97 -40t40 -99q0 -60 -40 -100.5 t-97 -40.5t-97 40.5t-40 100.5z" />
<glyph unicode="&#x202f;" horiz-adv-x="390" />
<glyph unicode="&#x2030;" horiz-adv-x="2574" d="M111 1001q0 175 91 268t236 93t236.5 -93t91.5 -268q0 -176 -91.5 -269t-236.5 -93t-236 93t-91 269zM303 1001q0 -98 34.5 -156.5t100.5 -58.5q65 0 99 58t34 157q0 98 -33.5 155.5t-99.5 57.5t-100.5 -57.5t-34.5 -155.5zM383 0l852 1350h199l-850 -1350h-201z M1055 342q0 175 91 267.5t236 92.5t236.5 -92.5t91.5 -267.5q0 -176 -91.5 -269t-236.5 -93t-236 93t-91 269zM1247 342q0 -98 34.5 -156.5t100.5 -58.5t100 58t34 157q0 98 -34 155.5t-100 57.5t-100.5 -57.5t-34.5 -155.5zM1808 342q0 175 91.5 267.5t236.5 92.5 t236.5 -92.5t91.5 -267.5q0 -176 -91.5 -269t-236.5 -93t-236.5 93t-91.5 269zM2001 342q0 -98 34.5 -156.5t100.5 -58.5q65 0 99 58t34 157q0 98 -33.5 155.5t-99.5 57.5t-100.5 -57.5t-34.5 -155.5z" />
<glyph unicode="&#x2039;" horiz-adv-x="733" d="M76 494l348 428l176 -99l-254 -329l254 -330l-176 -98z" />
<glyph unicode="&#x203a;" horiz-adv-x="733" d="M133 164l254 330l-254 329l176 99l348 -428l-348 -428z" />
<glyph unicode="&#x2044;" horiz-adv-x="321" d="M-365 0l850 1350h201l-852 -1350h-199z" />
<glyph unicode="&#x205f;" horiz-adv-x="488" />
<glyph unicode="&#x2070;" horiz-adv-x="792" d="M74 1225q0 196 88 302.5t235 106.5q145 0 234.5 -107.5t89.5 -303.5t-89.5 -304t-236.5 -108q-145 0 -233 108t-88 306zM279 1227q0 -117 29 -187.5t89 -70.5q42 0 69 36t37.5 90t10.5 126q0 118 -29 187t-90 69q-42 0 -69 -36t-37 -89.5t-10 -124.5z" />
<glyph unicode="&#x2074;" horiz-adv-x="792" d="M57 995v117l396 518h182v-491h108v-144h-108v-172h-191v172h-387zM260 1137q35 2 135 2h49v55q0 78 7 197z" />
<glyph unicode="&#x2075;" horiz-adv-x="729" d="M47 864l53 150q98 -45 191 -45q70 0 105.5 28t35.5 80q0 66 -63 88q-35 13 -115 13h-148v438h537l-39 -162h-307v-133h39q94 0 158 -25q147 -51 147 -219q0 -120 -86 -193t-260 -73q-142 0 -248 53z" />
<glyph unicode="&#x2076;" horiz-adv-x="753" d="M74 1194q0 190 104 315t281 125q110 0 203 -41l-50 -149q-71 33 -141 33t-122 -43t-66 -127h4q67 36 153 36q113 0 184.5 -68t71.5 -185q0 -126 -85 -202.5t-214 -76.5q-141 0 -232 96.5t-91 286.5zM281 1151q-1 -87 32 -136.5t88 -49.5q46 0 73.5 30t27.5 82t-30.5 82.5 t-80.5 30.5q-51 0 -110 -39z" />
<glyph unicode="&#x2077;" horiz-adv-x="681" d="M31 1616h620v-107q-133 -151 -206 -309.5t-115 -376.5h-221q82 366 290 631h-325z" />
<glyph unicode="&#x2078;" horiz-adv-x="792" d="M72 1036q0 74 38 124t101 75v4q-113 57 -113 170q0 99 80.5 162t212.5 63q142 0 219.5 -62.5t77.5 -164.5q0 -59 -30.5 -101.5t-77.5 -62.5v-4q141 -50 141 -186q0 -109 -90.5 -175.5t-243.5 -66.5q-148 0 -231.5 60.5t-83.5 164.5zM274 1063q0 -45 33.5 -69.5 t85.5 -24.5q48 0 83.5 22.5t35.5 65.5t-40.5 68.5t-111.5 43.5q-34 -11 -60 -38t-26 -68zM301 1405q0 -73 115 -105q73 35 73 101q0 34 -26.5 57t-67.5 23q-42 0 -68 -20.5t-26 -55.5z" />
<glyph unicode="&#x2079;" horiz-adv-x="753" d="M59 1352q0 126 83.5 204t213.5 78q146 0 236 -97t90 -292q0 -206 -103.5 -320t-285.5 -114q-119 0 -213 43l49 154q66 -39 158 -39q173 0 194 178h-4q-70 -45 -164 -45q-109 0 -181.5 63.5t-72.5 186.5zM252 1368q0 -54 29.5 -84.5t80.5 -30.5q69 0 119 54 q-1 86 -33.5 130t-89.5 44q-50 0 -78 -31t-28 -82z" />
<glyph unicode="&#x207a;" horiz-adv-x="817" d="M92 1145v151h234v248h163v-248h236v-151h-236v-256h-163v256h-234z" />
<glyph unicode="&#x207b;" horiz-adv-x="817" d="M92 1145v151h633v-151h-633z" />
<glyph unicode="&#x207c;" horiz-adv-x="817" d="M92 1006v151h633v-151h-633zM92 1284v152h633v-152h-633z" />
<glyph unicode="&#x207d;" horiz-adv-x="468" d="M82 1221q0 308 211 489l117 -92q-71 -81 -105.5 -174t-34.5 -223q0 -131 34 -224.5t106 -173.5l-117 -92q-211 181 -211 490z" />
<glyph unicode="&#x207e;" horiz-adv-x="468" d="M59 823q72 80 106 173.5t34 224.5q0 130 -34.5 223t-105.5 174l117 92q211 -181 211 -489q0 -309 -211 -490z" />
<glyph unicode="&#x207f;" horiz-adv-x="806" d="M92 553v680h160l14 -70q116 88 232 88q94 0 158.5 -61t64.5 -189v-448h-186v405q0 127 -99 127q-71 0 -157 -61v-471h-187z" />
<glyph unicode="&#x2080;" horiz-adv-x="792" d="M74 33q0 196 88 302.5t235 106.5q145 0 234.5 -107.5t89.5 -303.5t-89.5 -304t-236.5 -108q-145 0 -233 108t-88 306zM279 35q0 -117 29 -187.5t89 -70.5q42 0 69 36t37.5 90t10.5 126q0 118 -29 187t-90 69q-42 0 -69 -36t-37 -89.5t-10 -124.5z" />
<glyph unicode="&#x2081;" horiz-adv-x="714" d="M59 305l338 133h154v-807h-191v609l-237 -88z" />
<glyph unicode="&#x2082;" horiz-adv-x="714" d="M45 -369q2 76 24.5 141.5t56.5 111.5t74 85t80 68.5t72.5 55.5t53 52.5t20.5 53.5q0 37 -27 57t-73 20q-76 0 -207 -59l-49 150q157 75 301 75q128 0 196 -59.5t68 -159.5q0 -45 -16.5 -84.5t-43.5 -69.5t-60 -56.5t-68 -51.5t-65.5 -49t-54 -53.5t-32.5 -61.5h346v-166 h-596z" />
<glyph unicode="&#x2083;" horiz-adv-x="712" d="M31 -328l51 146q87 -41 186 -41q144 0 144 98q0 58 -60 78q-32 12 -104 12h-101v141h78q58 0 101 15q59 25 59 82q0 39 -28 59.5t-74 20.5q-79 0 -185 -45l-47 145q148 59 279 59q125 0 194.5 -57t69.5 -147q0 -131 -135 -187v-4q78 -14 121 -62.5t43 -123.5 q0 -106 -89 -174t-255 -68q-139 0 -248 53z" />
<glyph unicode="&#x2084;" horiz-adv-x="792" d="M57 -80l396 518h182v-491h108v-144h-108v-172h-191v172h-387v117zM260 -55q35 2 135 2h49v55q0 78 7 197z" />
<glyph unicode="&#x2085;" horiz-adv-x="729" d="M47 -328l53 150q98 -45 191 -45q70 0 105.5 28t35.5 80q0 66 -63 88q-35 13 -115 13h-148v438h537l-39 -162h-307v-133h39q94 0 158 -25q147 -51 147 -219q0 -120 -86 -193t-260 -73q-142 0 -248 53z" />
<glyph unicode="&#x2086;" horiz-adv-x="753" d="M74 2q0 190 104 315t281 125q110 0 203 -41l-50 -149q-71 33 -141 33t-122 -43t-66 -127h4q69 37 153 37q113 0 184.5 -68t71.5 -186q0 -126 -85 -202.5t-214 -76.5q-141 0 -232 96.5t-91 286.5zM281 -41q-1 -87 32 -136.5t88 -49.5q46 0 73.5 30t27.5 82t-30.5 82.5 t-80.5 30.5q-51 0 -110 -39z" />
<glyph unicode="&#x2087;" horiz-adv-x="681" d="M31 424h620v-107q-133 -151 -206 -309.5t-115 -376.5h-221q82 366 290 631h-325z" />
<glyph unicode="&#x2088;" horiz-adv-x="792" d="M72 -156q0 74 38 124t101 75v4q-113 57 -113 170q0 99 80.5 162t212.5 63q142 0 219.5 -62.5t77.5 -164.5q0 -59 -30.5 -101.5t-77.5 -62.5v-4q141 -50 141 -186q0 -109 -90.5 -175.5t-243.5 -66.5q-148 0 -231.5 60.5t-83.5 164.5zM274 -129q0 -45 33.5 -69.5 t85.5 -24.5q48 0 83.5 22.5t35.5 65.5t-40.5 68.5t-111.5 43.5q-34 -11 -60 -38t-26 -68zM301 213q0 -72 115 -104q73 35 73 100q0 34 -26.5 57t-67.5 23q-42 0 -68 -20.5t-26 -55.5z" />
<glyph unicode="&#x2089;" horiz-adv-x="753" d="M59 160q0 126 83.5 204t213.5 78q146 0 236 -97t90 -292q0 -206 -103.5 -320t-285.5 -114q-119 0 -213 43l49 154q66 -39 158 -39q173 0 194 178h-4q-70 -45 -164 -45q-109 0 -181.5 63.5t-72.5 186.5zM252 176q0 -54 29.5 -84.5t80.5 -30.5q69 0 119 54q-1 86 -33.5 130 t-89.5 44q-50 0 -78 -31t-28 -82z" />
<glyph unicode="&#x208a;" horiz-adv-x="817" d="M92 -47v151h234v248h163v-248h236v-151h-236v-256h-163v256h-234z" />
<glyph unicode="&#x208c;" horiz-adv-x="817" d="M92 -35h633v-151h-633v151zM92 92v152h633v-152h-633z" />
<glyph unicode="&#x208d;" horiz-adv-x="468" d="M82 29q0 308 211 489l117 -92q-71 -81 -105.5 -174t-34.5 -223q0 -131 34 -224.5t106 -173.5l-117 -92q-211 181 -211 490z" />
<glyph unicode="&#x208e;" horiz-adv-x="468" d="M59 -369q72 80 106 173.5t34 224.5q0 130 -34.5 223t-105.5 174l117 92q211 -181 211 -489q0 -309 -211 -490z" />
<glyph unicode="&#x20ac;" horiz-adv-x="1116" d="M43 428v154h119q-4 54 -4 80q0 48 6 98h-121v153h150q58 204 201.5 326.5t350.5 122.5q162 0 279 -62v-229q-128 78 -252 78q-107 0 -187 -61.5t-120 -174.5h498l-52 -153h-483q-6 -37 -6 -92q0 -49 4 -86h471l-53 -154h-385q38 -110 113.5 -172.5t185.5 -62.5 q128 0 233 71l92 -192q-139 -92 -348 -92q-224 0 -363.5 120t-187.5 328h-141z" />
<glyph unicode="&#x2113;" horiz-adv-x="1050" d="M18 467q89 18 193 53v275q0 153 32.5 266t90 177t127 94t153.5 30q157 0 237.5 -87.5t80.5 -225.5q0 -197 -126.5 -364.5t-344.5 -281.5q24 -206 188 -206q115 0 225 84l93 -191q-168 -110 -357 -110q-151 0 -252 82t-131 241q-57 -20 -155 -47zM453 639 q117 80 175 185.5t58 224.5q0 118 -78 118q-67 0 -111 -94t-44 -280v-154z" />
<glyph unicode="&#x2116;" horiz-adv-x="2193" d="M135 0v1350h244l461 -705q78 -124 131 -221h6q-8 96 -8 231v695h245v-1350h-225l-479 735q-77 118 -133 219h-6q10 -85 10 -213v-741h-246zM1368 895q0 155 96.5 255.5t249.5 100.5q154 0 251 -100.5t97 -255.5t-97 -255.5t-251 -100.5q-153 0 -249.5 100.5t-96.5 255.5z M1378 270v146h674v-146h-674zM1559 895q0 -88 41.5 -144.5t113.5 -56.5t115 56.5t43 144.5t-43 144.5t-115 56.5t-113.5 -56.5t-41.5 -144.5z" />
<glyph unicode="&#x2117;" horiz-adv-x="1576" d="M109 670q0 194 85.5 351.5t241 248t352.5 90.5q196 0 351.5 -90.5t241 -248t85.5 -351.5t-85.5 -351.5t-241 -248t-351.5 -90.5q-197 0 -352.5 90.5t-241 248t-85.5 351.5zM250 670q0 -248 152 -407t386 -159q233 0 385 159t152 407t-152 406.5t-385 158.5 q-234 0 -386 -158.5t-152 -406.5zM571 266v801h224q149 0 228 -71t79 -199q0 -121 -78.5 -195t-226.5 -74h-78v-262h-148zM719 662h84q80 0 114.5 38t34.5 97t-32 99t-105 40h-96v-274z" />
<glyph unicode="&#x2122;" horiz-adv-x="1777" d="M33 1188v162h684l-39 -162h-217v-647h-199v647h-229zM770 541v809h172l174 -246q38 -54 90 -143h4q41 73 84 137l172 252h183v-809h-199v360q0 83 6 148h-4q-27 -54 -70 -115l-129 -184h-88l-127 184q-46 67 -71 115h-4q6 -43 6 -148v-360h-199z" />
<glyph unicode="&#x212e;" horiz-adv-x="1544" d="M51 616q0 119 38.5 222t106 178t159 128.5t199 80t224.5 26.5q175 0 316 -57t226.5 -152t129.5 -212.5t41 -245.5h-1139v-328q65 -95 180 -147t248 -52q275 0 428 187h185q-211 -264 -623 -264q-114 0 -220 27t-196.5 81t-158 129.5t-106 178t-38.5 220.5zM352 664h848 v311q-139 199 -422 199q-284 0 -426 -199v-311z" />
<glyph unicode="&#x2153;" horiz-adv-x="1931" d="M113 1227l338 133h153v-807h-190v608l-238 -88zM420 0l850 1350h200l-852 -1350h-198zM1219 35l51 145q87 -41 186 -41q143 0 143 99q0 57 -59 77q-35 13 -104 13h-101v141h78q60 0 100 14q60 25 60 82q0 38 -28.5 59t-74.5 21q-78 0 -184 -45l-47 145q151 60 279 60 q125 0 194.5 -57.5t69.5 -147.5q0 -130 -135 -186v-4q78 -13 120.5 -62.5t42.5 -124.5q0 -106 -88.5 -173.5t-255.5 -67.5q-138 0 -247 53z" />
<glyph unicode="&#x2154;" horiz-adv-x="1931" d="M76 553q3 88 32.5 162t71.5 121.5t91 90t90 70.5t68.5 60.5t27.5 62.5q0 37 -27.5 57.5t-73.5 20.5q-75 0 -206 -59l-50 149q159 76 301 76q128 0 196.5 -59.5t68.5 -159.5q0 -45 -16.5 -84.5t-43.5 -69.5t-60 -56.5t-68 -51.5t-65.5 -49t-54 -53.5t-32.5 -61.5h346v-166 h-596zM440 0l850 1350h201l-852 -1350h-199zM1219 35l51 145q87 -41 186 -41q143 0 143 99q0 57 -59 77q-35 13 -104 13h-101v141h78q60 0 100 14q60 25 60 82q0 38 -28.5 59t-74.5 21q-78 0 -184 -45l-47 145q151 60 279 60q125 0 194.5 -57.5t69.5 -147.5 q0 -130 -135 -186v-4q78 -13 120.5 -62.5t42.5 -124.5q0 -106 -88.5 -173.5t-255.5 -67.5q-138 0 -247 53z" />
<glyph unicode="&#x2155;" horiz-adv-x="1931" d="M88 1227l338 133h154v-807h-191v608l-237 -88zM375 0l850 1350h200l-852 -1350h-198zM1167 35l54 149q98 -45 190 -45q69 0 105 28.5t36 80.5q0 66 -63 88q-32 12 -115 12h-147v438h536l-39 -161h-307v-133h39q94 0 158 -25q147 -51 147 -219q0 -120 -86 -193t-260 -73 q-142 0 -248 53z" />
<glyph unicode="&#x2156;" horiz-adv-x="1931" d="M88 553q3 88 32.5 162t71.5 121.5t91 90t90 70.5t68.5 60.5t27.5 62.5q0 37 -27.5 57.5t-72.5 20.5q-76 0 -207 -59l-49 149q159 76 301 76q128 0 196 -59.5t68 -159.5q0 -45 -16.5 -84.5t-43.5 -69.5t-60 -56.5t-68 -51.5t-65.5 -49t-54 -53.5t-32.5 -61.5h346v-166 h-596zM459 0l850 1350h200l-852 -1350h-198zM1225 35l53 149q98 -45 190 -45q70 0 106 28.5t36 80.5q0 66 -64 88q-32 12 -114 12h-148v438h537l-39 -161h-307v-133h38q94 0 158 -25q148 -52 148 -219q0 -120 -86 -193t-260 -73q-142 0 -248 53z" />
<glyph unicode="&#x2157;" horiz-adv-x="1931" d="M86 592l51 145q87 -41 187 -41q143 0 143 99q0 57 -59 77q-35 13 -105 13h-100v141h78q60 0 100 14q59 25 59 82q0 39 -28 59.5t-74 20.5q-78 0 -184 -45l-48 146q148 59 279 59q125 0 194.5 -57.5t69.5 -147.5q0 -130 -135 -186v-4q78 -13 121 -62.5t43 -124.5 q0 -106 -88.5 -173.5t-255.5 -67.5q-139 0 -248 53zM410 0l850 1350h200l-852 -1350h-198zM1188 35l53 149q98 -45 191 -45q69 0 105 28.5t36 80.5q0 66 -64 88q-32 12 -114 12h-148v438h537l-39 -161h-307v-133h39q93 0 157 -25q148 -52 148 -219q0 -120 -86 -193t-260 -73 q-142 0 -248 53z" />
<glyph unicode="&#x2158;" horiz-adv-x="1931" d="M72 725v117l395 518h182v-492h109v-143h-109v-172h-190v172h-387zM274 866q35 2 136 2h49v56q0 94 6 196zM453 0l850 1350h200l-852 -1350h-198zM1204 35l53 149q98 -45 191 -45q69 0 105 28.5t36 80.5q0 66 -63 88q-32 12 -115 12h-147v438h536l-39 -161h-307v-133h39 q94 0 158 -25q147 -51 147 -219q0 -120 -86 -193t-260 -73q-142 0 -248 53z" />
<glyph unicode="&#x2159;" horiz-adv-x="1931" d="M94 1227l338 133h154v-807h-191v608l-237 -88zM414 0l850 1350h200l-852 -1350h-198zM1157 365q0 190 104 315t281 125q110 0 203 -41l-49 -150q-71 33 -142 33q-70 0 -122 -43t-66 -127h4q69 37 154 37q113 0 184.5 -68t71.5 -186q0 -126 -85 -202t-214 -76 q-141 0 -232.5 96.5t-91.5 286.5zM1364 322q-1 -87 32.5 -137t88.5 -50q46 0 73 30.5t27 82.5t-30 82t-80 30q-54 0 -111 -38z" />
<glyph unicode="&#x215a;" horiz-adv-x="1931" d="M106 592l54 149q98 -45 190 -45q70 0 106 28.5t36 80.5q0 66 -64 88q-32 12 -115 12h-147v438h536l-38 -161h-308v-133h39q94 0 158 -25q147 -51 147 -219q0 -120 -86 -193t-260 -73q-142 0 -248 53zM438 0l850 1350h201l-852 -1350h-199zM1174 365q0 190 104 315 t281 125q109 0 202 -41l-49 -150q-71 33 -141 33t-122.5 -43t-66.5 -127h4q69 37 154 37q113 0 184.5 -68t71.5 -186q0 -126 -85 -202t-214 -76q-141 0 -232 96.5t-91 286.5zM1380 322q-1 -87 32.5 -137t88.5 -50q46 0 73.5 30.5t27.5 82.5t-30.5 82t-80.5 30 q-54 0 -111 -38z" />
<glyph unicode="&#x215b;" horiz-adv-x="1931" d="M74 1227l338 133h153v-807h-190v608l-238 -88zM369 0l850 1350h200l-852 -1350h-198zM1124 207q0 74 38.5 124t101.5 75v4q-113 56 -113 170q0 99 80.5 162t212.5 63q142 0 219.5 -62.5t77.5 -164.5q0 -58 -31 -101t-78 -63v-4q65 -23 103.5 -70t38.5 -117 q0 -109 -90.5 -175t-243.5 -66q-148 0 -232 60.5t-84 164.5zM1327 233q0 -45 33.5 -69.5t85.5 -24.5q48 0 83.5 22.5t35.5 65.5t-41 69t-111 44q-34 -10 -60 -38t-26 -69zM1354 575q0 -72 114 -104q74 36 74 100q0 34 -26.5 57t-67.5 23q-42 0 -68 -20.5t-26 -55.5z" />
<glyph unicode="&#x215c;" horiz-adv-x="1931" d="M104 592l52 145q87 -41 186 -41q143 0 143 99q0 57 -59 77q-35 13 -104 13h-101v141h78q60 0 100 14q60 25 60 82q0 38 -28.5 59t-74.5 21q-78 0 -184 -45l-47 146q148 59 278 59q125 0 195 -57.5t70 -147.5q0 -130 -136 -186v-4q78 -13 121 -62.5t43 -124.5 q0 -106 -88.5 -173.5t-255.5 -67.5q-139 0 -248 53zM422 0l850 1350h201l-852 -1350h-199zM1165 207q0 74 38.5 124t101.5 75v4q-113 56 -113 170q0 99 80.5 162t212.5 63q142 0 219.5 -62.5t77.5 -164.5q0 -58 -31 -101t-78 -63v-4q65 -23 103.5 -70t38.5 -117 q0 -109 -90.5 -175t-243.5 -66q-148 0 -232 60.5t-84 164.5zM1368 233q0 -45 33.5 -69.5t85.5 -24.5q48 0 83.5 22.5t35.5 65.5t-41 69t-111 44q-34 -10 -60 -38t-26 -69zM1395 575q0 -72 114 -104q74 36 74 100q0 34 -26.5 57t-67.5 23q-42 0 -68 -20.5t-26 -55.5z" />
<glyph unicode="&#x215d;" horiz-adv-x="1931" d="M88 592l53 149q98 -45 191 -45q69 0 105 28.5t36 80.5q0 66 -63 88q-32 12 -115 12h-148v438h537l-39 -161h-307v-133h39q94 0 158 -25q147 -51 147 -219q0 -120 -86 -193t-260 -73q-142 0 -248 53zM408 0l849 1350h201l-852 -1350h-198zM1163 207q0 74 38.5 124 t101.5 75v4q-113 56 -113 170q0 99 80.5 162t212.5 63q142 0 219.5 -62.5t77.5 -164.5q0 -58 -31 -101t-78 -63v-4q141 -50 141 -187q0 -109 -90 -175t-243 -66q-148 0 -232 60.5t-84 164.5zM1366 233q0 -45 33.5 -69.5t85.5 -24.5q48 0 83.5 22.5t35.5 65.5t-41 69t-111 44 q-34 -10 -60 -38t-26 -69zM1393 575q0 -72 114 -104q74 36 74 100q0 34 -26.5 57t-67.5 23q-42 0 -68 -20.5t-26 -55.5z" />
<glyph unicode="&#x215e;" horiz-adv-x="1931" d="M197 1346h620v-107q-133 -151 -206 -309.5t-115 -376.5h-222q82 364 291 631h-325zM379 0l850 1350h201l-852 -1350h-199zM1153 207q0 74 38 124t101 75v4q-112 56 -112 170q0 99 80.5 162t212.5 63q142 0 219 -62.5t77 -164.5q0 -59 -30.5 -101.5t-77.5 -62.5v-4 q141 -50 141 -187q0 -109 -90.5 -175t-243.5 -66q-148 0 -231.5 60.5t-83.5 164.5zM1356 233q0 -45 33.5 -69.5t85.5 -24.5q47 0 82.5 22.5t35.5 65.5t-40.5 69.5t-110.5 43.5q-34 -10 -60 -38t-26 -69zM1382 575q0 -72 115 -104q74 36 74 100q0 34 -26.5 57t-67.5 23 q-42 0 -68.5 -20.5t-26.5 -55.5z" />
<glyph unicode="&#x2202;" horiz-adv-x="1093" d="M61 389q0 147 64.5 262.5t175 177.5t246.5 62q111 0 198 -43l5 2q-22 149 -100 233t-201 84q-135 0 -265 -71l-67 174q161 92 350 92q261 0 404 -174.5t143 -464.5q0 -338 -151.5 -540.5t-395.5 -202.5q-186 0 -296 109t-110 300zM311 393q0 -105 49 -162t127 -57 q51 0 97.5 28t85 84t63.5 149t29 212q-81 49 -180 49q-119 0 -195 -83.5t-76 -219.5z" />
<glyph unicode="&#x2206;" horiz-adv-x="1320" d="M18 0l533 1356h219l533 -1356h-1285zM365 209h593l-237 651q-40 110 -57 184h-2q-19 -70 -58 -184z" />
<glyph unicode="&#x220f;" horiz-adv-x="1406" d="M29 1141v209h1374l-66 -209h-178v-1510h-248v1510h-454v-1510h-246v1510h-182z" />
<glyph unicode="&#x2211;" horiz-adv-x="1247" d="M18 -371l566 879l-533 842h1161l-65 -209h-662l389 -629l-417 -672h725v-211h-1164z" />
<glyph unicode="&#x2212;" horiz-adv-x="1126" d="M82 412v202h965v-202h-965z" />
<glyph unicode="&#x221a;" horiz-adv-x="1421" d="M96 719l424 155l170 -546q50 -169 74 -291h4q23 132 66 293l354 1364h244l-539 -1944h-252l-279 852l-200 -72z" />
<glyph unicode="&#x221e;" horiz-adv-x="1572" d="M61 555q0 99 41 180.5t124 132t194 50.5t196.5 -55t167.5 -152q82 97 168.5 152t200.5 55q165 0 261.5 -105t96.5 -258q0 -152 -96.5 -256t-261.5 -104q-114 0 -201.5 55t-167.5 151q-39 -46 -74.5 -79.5t-81 -64t-98 -46.5t-110.5 -16q-166 0 -262.5 104.5t-96.5 255.5z M307 555q0 -64 38.5 -103.5t98.5 -39.5q59 0 111 37t109 106q-57 70 -109 107.5t-111 37.5q-61 0 -99 -40t-38 -105zM907 555q60 -70 110.5 -106.5t110.5 -36.5q61 0 99.5 39.5t38.5 103.5q0 65 -38.5 105t-99.5 40q-60 0 -110 -37t-111 -108z" />
<glyph unicode="&#x222b;" horiz-adv-x="681" d="M-104 -442l47 200q67 -26 120 -26q59 0 89 34.5t30 98.5v1239q0 167 88.5 256.5t239.5 89.5q116 0 203 -43l-47 -201q-69 27 -121 27q-59 0 -89 -34.5t-30 -98.5v-1239q0 -167 -88.5 -256.5t-239.5 -89.5q-115 0 -202 43z" />
<glyph unicode="&#x2248;" horiz-adv-x="1126" d="M49 313q146 146 311 146q54 0 113 -18.5t102.5 -40t98.5 -40t100 -18.5q54 0 94 19t93 67l118 -156q-148 -145 -313 -145q-53 0 -112.5 18.5t-103.5 40t-98.5 40t-99.5 18.5q-52 0 -91.5 -19t-94.5 -67zM49 743q146 146 311 146q54 0 113 -18.5t102.5 -40t98.5 -40 t100 -18.5q54 0 94 19t93 67l118 -156q-148 -145 -313 -145q-53 0 -112.5 18.5t-103.5 40t-98.5 40t-99.5 18.5q-52 0 -91.5 -19t-94.5 -67z" />
<glyph unicode="&#x2260;" horiz-adv-x="1126" d="M82 203v203h313l103 210h-416v203h514l86 174h244l-84 -174h205v-203h-304l-102 -210h406v-203h-504l-90 -187h-246l90 187h-215z" />
<glyph unicode="&#x2264;" horiz-adv-x="1126" d="M82 0v203h965v-203h-965zM123 580v208l876 291v-202l-639 -191v-4l639 -193v-204z" />
<glyph unicode="&#x2265;" horiz-adv-x="1126" d="M82 0v203h965v-203h-965zM129 285v204l637 193v4l-637 191v202l875 -291v-208z" />
<glyph unicode="&#x25ca;" horiz-adv-x="983" d="M102 592l281 592h217l281 -592l-281 -592h-217zM309 592l183 -391h4l180 391l-182 391h-5z" />
<glyph unicode="&#x25fc;" horiz-adv-x="972" d="M0 0v973h973v-973h-973z" />
<glyph horiz-adv-x="792" d="M74 952q0 196 88.5 303t234.5 107q145 0 234.5 -108t89.5 -304t-89.5 -303.5t-236.5 -107.5q-145 0 -233 107.5t-88 305.5zM279 954q0 -117 29 -187.5t89 -70.5q42 0 69 36t37.5 90t10.5 126q0 118 -29 187t-90 69q-42 0 -69 -36t-37 -89.5t-10 -124.5z" />
<glyph horiz-adv-x="1130" d="M14 0l451 1094h201l450 -1094h-260l-82 219h-422l-82 -219h-256zM242 1305q0 53 37 90t88 37q53 0 90 -36.5t37 -90.5q0 -52 -37 -88.5t-90 -36.5q-51 0 -88 36.5t-37 88.5zM422 406h283l-78 208q-52 151 -60 181h-6q-29 -92 -61 -181zM633 1305q0 54 36 90.5t89 36.5 q52 0 88.5 -37t36.5 -90q0 -52 -37 -88.5t-88 -36.5q-52 0 -88.5 36t-36.5 89z" />
<glyph horiz-adv-x="1130" d="M14 0l451 1094h201l450 -1094h-260l-82 219h-422l-82 -219h-256zM246 1192v80q0 81 46.5 125.5t121.5 44.5q50 0 103.5 -22.5t96.5 -45t68 -22.5q29 0 37 17.5t8 60.5h160v-80q0 -80 -47.5 -125t-120.5 -45q-49 0 -102.5 22.5t-97 45t-68.5 22.5q-29 0 -37 -17.5 t-8 -60.5h-160zM422 406h283l-78 208q-52 151 -60 181h-6q-29 -92 -61 -181z" />
<glyph horiz-adv-x="1130" d="M14 0l451 1094h201l450 -1094h-260l-82 219h-422l-82 -219h-256zM262 1153l205 301h197l206 -301h-192l-113 162l-110 -162h-193zM422 406h283l-78 208q-52 151 -60 181h-6q-29 -92 -61 -181z" />
<glyph horiz-adv-x="1130" d="M14 0l451 1094h201l450 -1094h-260l-82 219h-422l-82 -219h-256zM422 406h283l-78 208q-52 151 -60 181h-6q-29 -92 -61 -181zM463 1157l119 301h264l-197 -301h-186z" />
<glyph horiz-adv-x="1130" d="M14 0l451 1094h201l450 -1094h-260l-82 219h-422l-82 -219h-256zM279 1460h266l119 -301h-187zM422 406h283l-78 208q-52 151 -60 181h-6q-29 -92 -61 -181z" />
<glyph horiz-adv-x="983" d="M47 0l524 889h-452l-66 196h887l-520 -888h518v-197h-891z" />
<glyph horiz-adv-x="1015" d="M12 1085h252l142 -274q45 -88 98 -205h4q49 106 100 205l142 274h254l-375 -669v-416h-246v416z" />
<glyph horiz-adv-x="1126" d="M16 0l414 553l-391 532h264l264 -366l264 366h267l-396 -534l408 -551h-264l-281 389l-284 -389h-265z" />
<glyph horiz-adv-x="1624" d="M12 1085h260l174 -534q38 -115 66 -238h6q30 110 80 242l119 322l-70 208h234l166 -526q40 -132 67 -244h4q23 104 66 236l170 534h258l-391 -1091h-199l-125 354q-26 74 -76 234h-4q-33 -107 -84 -240l-135 -348h-199z" />
<glyph horiz-adv-x="1150" d="M12 1085h256l221 -565q54 -144 84 -235h5q50 145 86 231l221 569h254l-469 -1091h-189z" />
<glyph horiz-adv-x="1290" d="M160 422v663h243v-651q0 -128 63.5 -195t178.5 -67t178.5 67t63.5 195v651h243v-663q0 -221 -132 -331.5t-355 -110.5q-221 0 -352 110.5t-131 331.5z" />
<glyph horiz-adv-x="960" d="M25 889v196h938l-68 -196h-299v-889h-244v889h-327z" />
<glyph horiz-adv-x="958" d="M92 68l80 172q137 -72 260 -72q75 0 128.5 30.5t53.5 96.5q0 42 -26.5 74.5t-68.5 55.5t-93.5 45t-102.5 49.5t-93 62.5t-68.5 90.5t-26.5 126.5q0 137 101.5 222t277.5 85q161 0 295 -51v-201q-146 66 -274 66q-63 0 -107.5 -27.5t-44.5 -85.5q0 -38 26.5 -67.5 t68.5 -50t93 -41t102.5 -48t93.5 -63t68.5 -93.5t26.5 -133q0 -152 -116 -241.5t-300 -89.5q-197 0 -354 88z" />
<glyph horiz-adv-x="1101" d="M164 0v1085h389q110 0 190.5 -27.5t125 -75.5t65 -102.5t20.5 -117.5q0 -100 -53.5 -177t-161.5 -112v-4q57 -39 131 -160l189 -309h-262l-156 260q-69 117 -119 127h-114v-387h-244zM408 573h127q83 0 130.5 45.5t47.5 118.5q0 71 -45.5 116.5t-132.5 45.5h-127v-326z " />
<glyph horiz-adv-x="1333" d="M100 543q0 251 157 407t409 156q253 0 410 -156t157 -407q0 -223 -127.5 -373t-339.5 -178v-4q77 -103 227 -103q58 0 107 19l53 -178q-85 -29 -182 -29q-165 0 -282.5 77.5t-199.5 227.5q-180 50 -284.5 194t-104.5 347zM350 543q0 -172 86 -270.5t230 -98.5 q146 0 231.5 98.5t85.5 270.5t-85.5 270t-231.5 98q-144 0 -230 -98t-86 -270z" />
<glyph horiz-adv-x="1019" d="M164 0v1085h346q200 0 308 -96.5t108 -267.5q0 -164 -110 -265.5t-316 -101.5h-92v-354h-244zM408 541h92q94 0 140 49t46 131q0 81 -43.5 129.5t-136.5 48.5h-98v-358z" />
<glyph horiz-adv-x="1333" d="M100 543q0 251 157 407t409 156q253 0 410 -156t157 -407t-157 -407t-410 -156q-252 0 -409 156t-157 407zM350 543q0 -172 86 -270.5t230 -98.5q146 0 231.5 98.5t85.5 270.5t-85.5 270t-231.5 98q-144 0 -230 -98t-86 -270z" />
<glyph horiz-adv-x="1370" d="M164 0v1085h235l385 -489q93 -115 179 -242h4q-4 118 -4 254v477h245v-1085h-225l-405 514q-114 149 -172 238h-3q5 -195 5 -244v-508h-244z" />
<glyph horiz-adv-x="1497" d="M164 0v1085h213l196 -284q86 -120 175 -260h4q53 88 172 260l194 284h217v-1085h-243v471q0 175 6 246h-6q-35 -61 -136 -209l-155 -234h-105l-155 234q-95 139 -135 209h-5q7 -82 7 -246v-471h-244z" />
<glyph horiz-adv-x="845" d="M164 0v1085h244v-888h413v-197h-657z" />
<glyph d="M164 0v1085h244v-477h4l381 477h264l-443 -546l467 -539h-282l-387 453h-4v-453h-244z" />
<glyph horiz-adv-x="610" d="M-90 -283l49 185q54 -15 96 -15q80 0 114 42.5t34 127.5v1028h246v-1065q0 -163 -92.5 -248t-272.5 -85q-107 0 -174 30z" />
<glyph horiz-adv-x="569" d="M164 0v1085h244v-1085h-244z" />
<glyph horiz-adv-x="1325" d="M164 0v1085h244v-436h512v436h243v-1085h-243v451h-512v-451h-244z" />
<glyph horiz-adv-x="1228" d="M100 526q0 174 79 307t216 203t310 70q179 0 323 -59v-207q-125 71 -295 71q-95 0 -170 -31t-120.5 -83t-69 -117.5t-23.5 -138.5q0 -171 94 -269t256 -98q72 0 134 19v331h245v-479q-163 -65 -383 -65q-282 0 -439 146.5t-157 399.5z" />
<glyph horiz-adv-x="923" d="M164 0v1085h690l-68 -196h-378v-273h380v-186h-380v-430h-244z" />
<glyph horiz-adv-x="966" d="M164 0v1085h690l-66 -186h-380v-258h380v-186h-380v-269h432v-186h-676z" />
<glyph horiz-adv-x="1243" d="M164 0v1085h354q296 0 460.5 -144t164.5 -396q0 -250 -169 -397.5t-458 -147.5h-352zM408 199h112q195 0 284 93.5t89 250.5q0 164 -93 254t-290 90h-102v-688z" />
<glyph horiz-adv-x="1089" d="M100 524q0 177 78 310.5t209.5 202.5t296.5 69q174 0 289 -62v-194q-119 61 -254 61q-176 0 -272.5 -106.5t-96.5 -269.5q0 -164 92 -262.5t248 -98.5q153 0 273 70l67 -176q-163 -88 -360 -88q-264 0 -417 149t-153 395z" />
<glyph horiz-adv-x="1081" d="M164 0v1085h426q162 0 254 -83.5t92 -198.5q0 -154 -152 -230v-4q100 -25 154.5 -90t54.5 -160q0 -62 -23.5 -117t-71.5 -101.5t-132 -73.5t-195 -27h-407zM408 174h141q194 0 194 150q0 70 -44.5 106.5t-131.5 36.5h-159v-293zM408 629h122q79 0 120.5 38.5t41.5 102.5 q0 63 -42 102t-118 39h-124v-282z" />
<glyph horiz-adv-x="1130" d="M14 0l451 1094h201l450 -1094h-260l-82 219h-422l-82 -219h-256zM422 406h283l-78 208q-52 151 -60 181h-6q-29 -92 -61 -181z" />
<glyph d="M72 0v137l606 858h196v-805h183v-190h-183v-326l-241 -73v399h-561zM319 178q106 8 179 8h135v187q0 142 8 274z" />
<glyph d="M86 -356l53 188q110 -37 252 -37q91 0 163 23.5t118.5 77t46.5 131.5q0 190 -299 190h-187v186h64q100 0 184 19q103 27 156 86t53 139q0 82 -53.5 126t-134.5 44q-134 0 -309 -96l-82 168q198 123 428 123q188 0 294.5 -95.5t106.5 -244.5q0 -116 -63 -199.5 t-156 -116.5v-4q117 -18 182.5 -104t65.5 -205q0 -65 -16.5 -125t-57.5 -119t-104.5 -102t-165.5 -69.5t-232 -26.5q-188 0 -307 43z" />
<glyph d="M129 0q9 94 43.5 173.5t82.5 133.5t103.5 99.5t109.5 81t98 68.5t71 70.5t27 78.5q0 51 -38.5 81.5t-111.5 30.5q-134 0 -289 -96l-78 170q182 121 416 121q161 0 256.5 -76.5t95.5 -216.5q0 -73 -37 -135t-95 -108.5t-118.5 -87.5t-118.5 -93t-85 -105h479v-190h-811z " />
<glyph d="M170 805l463 190h188v-995h-241v762l-338 -139z" />
<glyph d="M92 496q0 228 126 372t337 144t337 -144t126 -372q0 -226 -126 -371t-337 -145t-337 145t-126 371zM342 496q0 -95 19.5 -164.5t68.5 -113.5t125 -44t125 44t68.5 113.5t19.5 164.5q0 148 -50.5 234.5t-162.5 86.5t-162.5 -86.5t-50.5 -234.5z" />
<glyph d="M104 1044h246l203 -415h4l203 415h244l-250 -469h159v-149h-239v-121h239v-151h-239v-154h-240v154h-237v151h237v121h-237v149h157z" />
<glyph d="M178 0v139q35 11 60.5 36.5t39.5 55.5t22.5 71t11 73t3.5 71h-116v164h116v99q0 151 100.5 252.5t297.5 101.5q136 0 239 -47l-47 -187q-80 39 -166 39q-82 0 -134 -47.5t-52 -144.5v-66h324l-56 -164h-268q-3 -187 -72 -276l2 -4q71 12 174 12h285v-178h-764z" />
<glyph d="M170 111l76 170q122 -70 264 -70q73 0 123.5 23.5t50.5 76.5q0 34 -26.5 60.5t-68.5 45.5t-92.5 38.5t-101.5 44.5t-93 56.5t-68.5 82.5t-26.5 115q0 106 71 177t205 91v158h166v-156q111 -5 219 -43v-201q-147 66 -272 66q-62 0 -107 -19.5t-45 -66.5q0 -31 26.5 -55 t68.5 -41t93 -35t102 -42.5t93 -56t68.5 -83.5t26.5 -119q0 -119 -84 -196.5t-224 -96.5v-174h-165v170q-159 15 -279 80z" />
<glyph d="M125 315v138h100q-4 46 -4 65q0 18 4 72h-100v137h127q50 160 176 248t295 88q147 0 254 -51v-197q-105 59 -229 59q-177 0 -246 -147h393l-53 -137h-379q-4 -27 -4 -70q0 -40 4 -67h379l-54 -138h-290q63 -147 235 -147q125 0 223 61l64 -170q-126 -79 -301 -79 q-183 0 -302.5 88t-166.5 247h-125z" />
<glyph horiz-adv-x="1155" d="M90 545q0 213 134.5 340t340.5 127q221 0 353.5 -144t132.5 -393q0 -114 -25 -219.5t-81.5 -207t-141.5 -187t-211 -158.5t-283 -123l-71 178q111 38 207.5 93.5t180.5 144t115 190.5l-4 2q-108 -61 -235 -61q-84 0 -158 27.5t-131 79t-90 132t-33 179.5zM340 565 q0 -114 61.5 -178.5t171.5 -64.5q107 0 215 69q9 43 9 96q0 152 -66 241t-170 89q-101 0 -161 -68.5t-60 -183.5z" />
<glyph horiz-adv-x="1171" d="M96 354q0 118 65 206.5t171 133.5v4q-42 24 -74.5 49t-62 60.5t-45 83t-15.5 104.5q0 160 124.5 263.5t334.5 103.5q104 0 188.5 -29.5t137.5 -78.5t81.5 -111t28.5 -129q0 -200 -205 -307v-5q250 -97 250 -325q0 -176 -129.5 -286.5t-367.5 -110.5q-228 0 -355 102 t-127 272zM356 381q0 -101 68 -156t168 -55q97 0 161 49.5t64 136.5q0 33 -10 61.5t-24 49t-41 40t-47.5 31t-57 25t-56.5 20t-59 17.5q-68 -28 -117 -85t-49 -134zM393 1006q0 -47 19 -83t56 -61t73.5 -40.5t89.5 -30.5q141 74 141 200q0 77 -51.5 128.5t-140.5 51.5 q-83 0 -135 -46.5t-52 -118.5z" />
<glyph horiz-adv-x="1003" d="M23 995h948v-86q-345 -451 -522 -1224l-275 -93q71 356 195.5 667.5t273.5 545.5h-567z" />
<glyph horiz-adv-x="1155" d="M104 545q0 322 199 552.5t541 307.5l55 -182q-203 -54 -340 -169.5t-176 -279.5l2 -2q136 94 285 94q78 0 148.5 -27.5t126 -78.5t88 -133t32.5 -183q0 -211 -134.5 -337.5t-342.5 -126.5q-216 0 -350 145.5t-134 419.5zM356 526q0 -171 69 -261.5t171 -90.5 q100 0 158.5 67t58.5 183q0 113 -56 177.5t-157 64.5q-63 0 -129.5 -26.5t-114.5 -68.5v-45z" />
<glyph horiz-adv-x="1013" d="M25 -352l55 190q116 -43 239 -43q163 0 251.5 75t88.5 193q0 123 -88 173q-77 49 -252 49h-169l65 710h756l-45 -190h-486l-30 -342h34q180 0 285 -60q89 -49 135.5 -132t46.5 -191q0 -67 -17 -130.5t-59 -128t-106 -112.5t-167.5 -78t-233.5 -30q-178 0 -303 47z" />
<glyph d="M72 0v137l606 858h196v-805h183v-190h-183v-326l-241 -73v399h-561zM319 178q106 8 179 8h135v187q0 142 8 274z" />
<glyph horiz-adv-x="1073" d="M63 -356l54 188q110 -37 252 -37q91 0 162.5 23.5t118 77t46.5 131.5q0 190 -299 190h-188v186h65q102 0 183 19q104 27 157.5 86t53.5 139q0 82 -54.5 126t-134.5 44q-134 0 -309 -96l-82 168q198 123 428 123q188 0 295 -95.5t107 -244.5q0 -116 -63.5 -199.5 t-156.5 -116.5v-4q117 -18 182.5 -104t65.5 -205q0 -65 -16 -125t-57.5 -119t-104.5 -102t-165 -69.5t-232 -26.5q-189 0 -308 43z" />
<glyph horiz-adv-x="1011" d="M82 0q9 94 43.5 173.5t82 133.5t103 99.5t109.5 81t98 68.5t71 70.5t27 78.5q0 51 -38 81.5t-111 30.5q-134 0 -289 -96l-78 170q182 121 416 121q161 0 256.5 -76.5t95.5 -216.5q0 -73 -37 -135t-95 -108.5t-118.5 -87.5t-118.5 -93t-85 -105h479v-190h-811z" />
<glyph horiz-adv-x="880" d="M86 825l389 170h191v-995h-242v762l-266 -117z" />
<glyph d="M98 496q0 228 123.5 372t333.5 144t333.5 -144t123.5 -372q0 -227 -123.5 -371.5t-333.5 -144.5t-333.5 144.5t-123.5 371.5zM348 496q0 -322 207 -322t207 322q0 321 -207 321t-207 -321z" />
<glyph horiz-adv-x="1116" d="M49 1350h262l246 -594h2l244 594h264l-315 -662h247v-153h-319v-152h319v-154h-319v-229h-244v229h-319v154h319v152h-319v153h245z" />
<glyph horiz-adv-x="1116" d="M123 0v156q186 57 186 432h-145v200h145v123q0 107 30 189.5t75.5 130.5t107 79t116.5 41.5t112 10.5q140 0 274 -53l-53 -197q-82 43 -187 43q-106 0 -169.5 -67t-63.5 -205v-95h385l-64 -200h-321q-1 -61 -5.5 -109.5t-16 -107.5t-36.5 -107.5t-63 -81.5v-4 q138 23 252 23h334v-201h-893z" />
<glyph d="M63 -352l56 190q116 -43 239 -43q162 0 251 75.5t89 192.5q0 121 -88 173q-77 49 -254 49h-168l66 710h756l-47 -190h-484l-33 -342h37q177 0 285 -60q180 -100 180 -323q0 -67 -16.5 -130.5t-58.5 -128t-106 -112.5t-167 -78t-233 -30q-179 0 -304 47z" />
<glyph d="M78 545q0 322 198.5 552.5t540.5 307.5l55 -182q-203 -54 -340 -169.5t-176 -279.5l2 -2q140 94 285 94q165 0 280 -111.5t115 -310.5q0 -211 -134 -337.5t-341 -126.5q-106 0 -194 35.5t-153 104.5t-101.5 177.5t-36.5 247.5zM330 526q0 -171 69.5 -261.5t171.5 -90.5 q100 0 158.5 67t58.5 183q0 113 -57 177.5t-158 64.5q-63 0 -127.5 -26t-115.5 -69v-45z" />
<glyph d="M84 995h971v-86q-195 -255 -338.5 -580.5t-216.5 -643.5l-273 -93q119 612 500 1213h-588z" />
<glyph d="M72 354q0 118 64 206.5t169 133.5v4q-90 50 -143 119.5t-53 177.5q0 160 124 263.5t334 103.5q104 0 189 -29.5t138.5 -78.5t82.5 -111t29 -129q0 -200 -205 -307v-5q248 -97 248 -325q0 -175 -129.5 -286t-366.5 -111q-229 0 -355 101.5t-126 272.5zM330 381 q0 -101 67.5 -156t167.5 -55q97 0 161.5 49.5t64.5 136.5q0 33 -10 61.5t-24 49t-40.5 39.5t-47 31t-56.5 25.5t-57.5 20t-59.5 17.5q-68 -28 -117 -85t-49 -134zM367 1006q0 -47 19 -83t55.5 -61t73.5 -40.5t89 -30.5q141 74 141 200q0 77 -51.5 128.5t-140.5 51.5 q-82 0 -134 -46.5t-52 -118.5z" />
<glyph d="M72 545q0 213 135 340t340 127q222 0 354.5 -144t132.5 -393q0 -143 -41.5 -273t-127.5 -248.5t-231.5 -215t-340.5 -158.5l-74 178q111 38 208 93.5t181.5 144t116.5 190.5l-4 2q-108 -61 -238 -61q-113 0 -204.5 46.5t-149 143.5t-57.5 228zM324 565q0 -115 60.5 -179 t172.5 -64q109 0 213 69q10 36 10 96q0 152 -66 241t-171 89q-101 0 -160 -68t-59 -184z" />
<glyph d="M125 315v138h100q-4 46 -4 65q0 18 4 72h-100v137h127q50 160 176 248t295 88q147 0 254 -51v-197q-105 59 -229 59q-177 0 -246 -147h393l-53 -137h-379q-4 -27 -4 -70q0 -40 4 -67h379l-54 -138h-290q63 -147 235 -147q125 0 223 61l64 -170q-126 -79 -301 -79 q-183 0 -302.5 88t-166.5 247h-125z" />
<glyph d="M170 111l76 170q122 -70 264 -70q73 0 123.5 23.5t50.5 76.5q0 34 -26.5 60.5t-68.5 45.5t-92.5 38.5t-101.5 44.5t-93 56.5t-68.5 82.5t-26.5 115q0 106 71 177t205 91v158h166v-156q111 -5 219 -43v-201q-147 66 -272 66q-62 0 -107 -19.5t-45 -66.5q0 -31 26.5 -55 t68.5 -41t93 -35t102 -42.5t93 -56t68.5 -83.5t26.5 -119q0 -119 -84 -196.5t-224 -96.5v-174h-165v170q-159 15 -279 80z" />
<glyph d="M178 0v139q35 11 60.5 36.5t39.5 55.5t22.5 71t11 73t3.5 71h-116v164h116v99q0 151 100.5 252.5t297.5 101.5q136 0 239 -47l-47 -187q-80 39 -166 39q-82 0 -134 -47.5t-52 -144.5v-66h324l-56 -164h-268q-3 -187 -72 -276l2 -4q71 12 174 12h285v-178h-764z" />
<glyph d="M104 1044h246l203 -415h4l203 415h244l-250 -469h159v-149h-239v-121h239v-151h-239v-154h-240v154h-237v151h237v121h-237v149h157z" />
<glyph horiz-adv-x="1036" d="M90 543q0 270 112.5 416.5t313.5 146.5t313.5 -146.5t112.5 -416.5t-112.5 -416.5t-313.5 -146.5t-313.5 146.5t-112.5 416.5zM338 543q0 -369 178 -369q93 0 135.5 93.5t42.5 275.5q0 183 -42.5 275.5t-135.5 92.5q-178 0 -178 -368z" />
<glyph horiz-adv-x="802" d="M37 913l401 181h178v-1094h-241v842l-258 -115z" />
<glyph horiz-adv-x="966" d="M51 0q6 112 39.5 204.5t82.5 154t107 112t114.5 88t103 72t75.5 74t29 83.5q0 60 -44 91.5t-118 31.5q-126 0 -290 -80l-66 181q200 94 389 94q186 0 281.5 -82t95.5 -219q0 -62 -22.5 -116t-59.5 -95t-83.5 -78t-97 -73t-96.5 -72.5t-86 -84.5t-61 -100h516v-186h-809z " />
<glyph horiz-adv-x="948" d="M31 45l69 180q120 -51 256 -51q121 0 178.5 40.5t57.5 109.5q0 72 -56 102.5t-167 30.5h-174v182h145q219 0 219 143q0 57 -40 94t-116 37q-127 0 -276 -71l-68 176q183 88 371 88q96 0 170.5 -25t118.5 -67.5t66 -94.5t22 -110q0 -163 -158 -240v-4q92 -26 141.5 -89.5 t49.5 -151.5q0 -151 -117 -247.5t-350 -96.5q-182 0 -342 65z" />
<glyph horiz-adv-x="1058" d="M80 244v149l536 701h193v-660h168v-190h-168v-244h-240v244h-489zM322 430q74 4 129 4h124v168q0 56 7 172z" />
<glyph horiz-adv-x="940" d="M39 45l67 180q114 -51 242 -51q107 0 175.5 43.5t68.5 126.5q0 101 -96 131q-67 21 -187 21h-176v589h727l-61 -186h-430v-223h26q152 0 242 -37q99 -38 151 -112t52 -175q0 -166 -120.5 -269t-361.5 -103q-174 0 -319 65z" />
<glyph horiz-adv-x="1003" d="M90 498q0 168 60.5 304.5t181 220t280.5 83.5q146 0 279 -57l-70 -177q-100 46 -196 46q-114 0 -195 -76.5t-96 -206.5q111 65 246 65q149 0 250.5 -91t101.5 -251q0 -171 -113.5 -274.5t-286.5 -103.5q-201 0 -321.5 138t-120.5 380zM334 455q2 -128 57 -207.5 t146 -79.5q73 0 113 45t40 127t-45.5 130t-120.5 48q-48 0 -101 -18t-89 -45z" />
<glyph horiz-adv-x="897" d="M20 1085h848v-92q-366 -386 -489 -993h-248q57 268 168.5 495t243.5 394h-461z" />
<glyph horiz-adv-x="1019" d="M92 291q0 93 51.5 161t139.5 107v4q-158 83 -158 240q0 130 105 216.5t286 86.5q92 0 165.5 -25.5t117.5 -68t67 -94t23 -107.5q0 -159 -162 -242v-4q201 -79 201 -266q0 -137 -111.5 -228t-312.5 -91q-188 0 -300 87t-112 224zM332 307q0 -69 51 -107t131 -38 q73 0 122.5 35t49.5 96q0 121 -225 182q-53 -23 -91 -67t-38 -101zM365 801q0 -115 178 -164q46 23 76 65t30 93q0 53 -37.5 91t-105.5 38q-64 0 -102.5 -33.5t-38.5 -89.5z" />
<glyph horiz-adv-x="997" d="M74 721q0 170 111.5 277.5t281.5 107.5q198 0 319 -138.5t121 -398.5q0 -129 -32.5 -235t-95.5 -186t-163.5 -124t-230.5 -44q-162 0 -293 61l62 176q111 -49 223 -49q122 0 203.5 76.5t85.5 218.5q-109 -78 -248 -78q-91 0 -167.5 35.5t-126.5 113.5t-50 187zM311 739 q0 -83 43.5 -127.5t122.5 -44.5q48 0 100 22.5t87 55.5q-3 132 -58 202.5t-137 70.5q-73 0 -115.5 -50t-42.5 -129z" />
<glyph horiz-adv-x="968" d="M37 330v139h104q-6 75 2 143h-106v142h131q49 168 175 260t296 92q148 0 254 -47v-201q-109 53 -231 53q-82 0 -146.5 -41t-91.5 -116h383l-53 -142h-367q-9 -73 0 -143h365l-56 -139h-276q56 -156 231 -156q129 0 219 53l72 -174q-126 -73 -307 -73q-183 0 -302.5 93 t-166.5 257h-129z" />
<glyph horiz-adv-x="972" d="M102 119l86 168q129 -74 252 -74q152 0 152 100q0 36 -25.5 65t-66 51t-89.5 44t-97.5 49t-89 60.5t-66 85.5t-25.5 116q0 100 66.5 179.5t197.5 97.5v166h183v-162q119 -12 200 -55v-197q-152 70 -278 70q-58 0 -90.5 -23t-32.5 -65q0 -33 25.5 -61t66 -50t89.5 -44 t97.5 -50t89 -61.5t66 -84.5t25.5 -114q0 -121 -77 -200t-218 -99v-176h-183v174q-142 19 -258 90z" />
<glyph horiz-adv-x="978" d="M92 0v154q158 45 158 303h-123v186h123v92q0 82 24 147t62 106t90 68.5t104.5 38.5t108.5 11q130 0 254 -51l-57 -183q-81 41 -168 41t-134 -50.5t-47 -143.5v-76h330l-65 -186h-265q-4 -186 -86 -275l2 -4q57 8 215 8h265v-186h-791z" />
<glyph horiz-adv-x="950" d="M41 1085h256l174 -450h4l176 450h256l-245 -516h198v-145h-268v-115h268v-145h-268v-164h-238v164h-268v145h268v115h-268v145h201z" />
<glyph horiz-adv-x="1116" d="M78 618q0 209 72.5 377t212.5 267.5t325 99.5q165 0 301 -64l-63 -190q-107 55 -226 55q-143 0 -243 -99.5t-125 -297.5q146 98 319 98q175 0 291.5 -112.5t116.5 -305.5q0 -213 -131 -339.5t-336 -126.5q-108 0 -199.5 38.5t-162.5 114.5t-111.5 200.5t-40.5 284.5z M338 571q4 -188 77.5 -290.5t180.5 -102.5q98 0 151.5 62t53.5 172q0 120 -59 186t-158 66q-62 0 -131.5 -27.5t-114.5 -65.5z" />
<glyph horiz-adv-x="1116" d="M121 1350h958v-86q-427 -492 -577 -1264h-256q74 361 207 649.5t290 491.5h-561z" />
<glyph horiz-adv-x="1116" d="M80 354q0 118 64 206.5t169 133.5v4q-90 51 -143 120t-53 177q0 160 125 263.5t333 103.5q104 0 189 -29.5t138.5 -78.5t82.5 -111t29 -129q0 -200 -205 -307v-5q250 -98 250 -325q0 -175 -130.5 -286t-367.5 -111q-229 0 -355 101.5t-126 272.5zM338 381q0 -101 68 -156 t169 -55q96 0 160 49.5t64 136.5q0 33 -10 61.5t-24 49t-40.5 39.5t-46.5 31t-56.5 25.5t-57 20t-58.5 17.5q-70 -28 -119 -85t-49 -134zM375 1006q0 -47 19 -83t55.5 -61t74 -40.5t90.5 -30.5q140 74 140 200q0 77 -52 128.5t-141 51.5q-82 0 -134 -46.5t-52 -118.5z" />
<glyph horiz-adv-x="1116" d="M86 897q0 209 131 337t336 128q111 0 201 -38t157.5 -114t104.5 -199.5t37 -285.5q0 -356 -155 -550.5t-454 -194.5q-181 0 -321 67l59 197q129 -66 256 -66q316 0 359 397h-4q-123 -96 -295 -96q-83 0 -155.5 24.5t-131 74t-92 131.5t-33.5 188zM338 918q0 -114 56 -177 t159 -63q70 0 136.5 33.5t109.5 81.5q0 164 -69 267t-183 103q-95 0 -152 -67t-57 -178z" />
<glyph horiz-adv-x="1116" d="M43 428v154h119q-4 54 -4 80q0 48 6 98h-121v153h150q58 204 201.5 326.5t350.5 122.5q162 0 279 -62v-229q-128 78 -252 78q-107 0 -187 -61.5t-120 -174.5h498l-52 -153h-483q-6 -37 -6 -92q0 -49 4 -86h471l-53 -154h-385q38 -110 113.5 -172.5t185.5 -62.5 q128 0 233 71l92 -192q-139 -92 -348 -92q-224 0 -363.5 120t-187.5 328h-141z" />
<glyph horiz-adv-x="1116" d="M125 143l96 183q149 -97 283 -97q56 0 100 12t75.5 46t31.5 86q0 48 -30.5 88t-78.5 70t-106.5 60t-117.5 66t-107 78.5t-78.5 106.5t-30.5 143q0 126 82 221.5t233 114.5v201h178v-197q140 -15 238 -68v-204q-161 82 -305 82q-80 0 -127 -34t-47 -97q0 -41 23.5 -77 t62 -61.5t87.5 -53t100.5 -52.5t100.5 -60.5t87.5 -75.5t62 -98.5t23.5 -128.5q0 -145 -92 -240t-259 -120v-213h-178v211q-169 18 -307 108z" />
<glyph horiz-adv-x="817" d="M92 -47v151h633v-151h-633z" />
<glyph horiz-adv-x="1116" d="M98 53l68 193q130 -60 270 -60q135 0 219 59.5t84 174.5q0 140 -125 188q-77 31 -245 31h-168v711h809l-62 -209h-508v-307h54q152 0 258 -41q122 -49 184.5 -144.5t62.5 -214.5q0 -97 -32.5 -177.5t-98 -143.5t-174 -98t-250.5 -35q-203 0 -346 73z" />
<glyph horiz-adv-x="1116" d="M76 330v164l633 866h182v-830h186v-200h-186v-330h-242v330h-573zM338 526q12 0 76.5 2t91.5 2h143v193q0 69 10 264z" />
<glyph horiz-adv-x="1116" d="M70 55l67 195q146 -64 303 -64q149 0 227 53t78 156q0 132 -143 170q-61 17 -164 17h-180v196h145q150 0 226 50.5t76 146.5q0 84 -53 132t-154 48q-155 0 -328 -92l-66 190q214 109 424 109q109 0 194.5 -29.5t136.5 -81t77.5 -115.5t26.5 -137q0 -205 -207 -292v-5 q118 -23 183 -103.5t65 -199.5q0 -90 -33.5 -165.5t-99 -132.5t-171.5 -89t-243 -32q-221 0 -387 75z" />
<glyph horiz-adv-x="1116" d="M76 0q9 109 38 203t69.5 162.5t90.5 127t103.5 103t106 83.5t99 73.5t82.5 69t57 75.5t21 86q0 88 -59 130t-149 42q-157 0 -349 -92l-63 190q224 109 448 109q212 0 322.5 -97t110.5 -257q0 -78 -29 -146.5t-77 -120.5t-107 -100t-121.5 -95t-117 -95t-97.5 -110.5 t-60 -131.5h623v-209h-942z" />
<glyph horiz-adv-x="1130" d="M14 0l451 1094h201l450 -1094h-260l-82 219h-422l-82 -219h-256zM272 1237v184h584v-184h-584zM422 406h283l-78 208q-52 151 -60 181h-6q-29 -92 -61 -181z" />
<glyph horiz-adv-x="1089" d="M100 524q0 177 78 310.5t209.5 202.5t296.5 69q174 0 289 -62v-194q-119 61 -254 61q-176 0 -272.5 -106.5t-96.5 -269.5q0 -164 92 -262.5t248 -98.5q153 0 273 70l67 -176q-163 -88 -360 -88q-264 0 -417 149t-153 395zM338 1159l205 301h196l207 -301h-192l-113 162 l-111 -162h-192z" />
<glyph horiz-adv-x="1130" d="M14 0l451 1094h201l450 -1094h-260l-82 219h-422l-82 -219h-256zM262 1464h170q6 -62 40 -97.5t91 -35.5t91 35.5t40 97.5h168q-7 -132 -89 -208t-212 -76q-128 0 -209 75.5t-90 208.5zM422 406h283l-78 208q-52 151 -60 181h-6q-29 -92 -61 -181z" />
<glyph horiz-adv-x="1089" d="M100 524q0 177 78 310.5t209.5 202.5t296.5 69q174 0 289 -62v-194q-119 61 -254 61q-176 0 -272.5 -106.5t-96.5 -269.5q0 -164 92 -262.5t248 -98.5q153 0 273 70l67 -176q-163 -88 -360 -88q-264 0 -417 149t-153 395zM326 1460h194l113 -160l110 160h191l-205 -301 h-197z" />
<glyph horiz-adv-x="1089" d="M100 524q0 177 78 310.5t209.5 202.5t296.5 69q174 0 289 -62v-194q-119 61 -254 61q-176 0 -272.5 -106.5t-96.5 -269.5q0 -164 92 -262.5t248 -98.5q153 0 273 70l67 -176q-163 -88 -360 -88q-264 0 -417 149t-153 395zM475 1337q0 62 44 105t108 43t106.5 -42.5 t42.5 -105.5q0 -61 -42.5 -103t-106.5 -42t-108 41.5t-44 103.5z" />
<glyph horiz-adv-x="1089" d="M100 524q0 177 78 310.5t209.5 202.5t296.5 69q174 0 289 -62v-194q-119 61 -254 61q-176 0 -272.5 -106.5t-96.5 -269.5q0 -164 92 -262.5t248 -98.5q153 0 273 70l67 -176q-157 -85 -338 -88l-24 -80q172 -13 172 -152q0 -82 -72.5 -132t-214.5 -50q-86 0 -154 22 l33 113q53 -16 98 -16q46 0 73.5 17t27.5 48q0 41 -42.5 55.5t-125.5 14.5l53 174q-195 40 -305.5 181.5t-110.5 348.5z" />
<glyph horiz-adv-x="1243" d="M164 0v1085h354q296 0 460.5 -144t164.5 -396q0 -250 -169 -397.5t-458 -147.5h-352zM285 1460h194l113 -160l110 160h191l-205 -301h-196zM408 199h112q195 0 284 93.5t89 250.5q0 164 -93 254t-290 90h-102v-688z" />
<glyph horiz-adv-x="1243" d="M39 453v186h125v446h354q296 0 460.5 -144t164.5 -396q0 -250 -169 -397.5t-458 -147.5h-352v453h-125zM408 199h112q195 0 284 93.5t89 250.5q0 164 -93 254t-290 90h-102v-248h227v-186h-227v-254z" />
<glyph horiz-adv-x="966" d="M164 0v1085h690l-66 -186h-380v-258h380v-186h-380v-269h432v-186h-676zM236 1460h266l119 -301h-187z" />
<glyph horiz-adv-x="966" d="M164 0v1085h690l-66 -186h-380v-258h380v-186h-380v-269h432v-186h-676zM383 1159l119 301h264l-197 -301h-186z" />
<glyph horiz-adv-x="966" d="M164 0v1085h690l-66 -186h-380v-258h380v-186h-380v-269h432v-186h-676zM199 1159l204 301h197l207 -301h-193l-112 162l-111 -162h-192z" />
<glyph horiz-adv-x="966" d="M164 0v1085h690l-66 -186h-380v-258h380v-186h-380v-269h432v-186h-676zM195 1460h194l113 -160l110 160h191l-205 -301h-197z" />
<glyph horiz-adv-x="966" d="M164 0v1085h690l-66 -186h-380v-258h380v-186h-380v-269h432v-186h-676zM184 1305q0 53 37 90t88 37q53 0 90 -36.5t37 -90.5q0 -52 -37 -88.5t-90 -36.5q-51 0 -88 36.5t-37 88.5zM575 1305q0 54 36 90.5t89 36.5q52 0 88.5 -37t36.5 -90q0 -52 -37 -88.5t-88 -36.5 q-52 0 -88.5 36t-36.5 89z" />
<glyph horiz-adv-x="966" d="M164 0v1085h690l-66 -186h-380v-258h380v-186h-380v-269h432v-186h-676zM205 1237v184h583v-184h-583z" />
<glyph horiz-adv-x="1130" d="M14 0l449 1092q-63 19 -100 66.5t-37 115.5q0 91 66 145t173 54q106 0 172 -54t66 -145q0 -68 -36.5 -114.5t-100.5 -67.5l450 -1092h-260l-82 219h-422l-82 -219h-256zM422 406h283l-78 208q-52 151 -60 181h-6q-29 -92 -61 -181zM481 1274q0 -44 22.5 -69t61.5 -25 q37 0 59.5 25t22.5 69t-22.5 69t-59.5 25q-39 0 -61.5 -25t-22.5 -69z" />
<glyph horiz-adv-x="966" d="M164 0v1085h690l-66 -186h-380v-258h380v-186h-380v-269h432v-186h-676zM203 1464h170q6 -62 40 -97.5t91 -35.5t91 35.5t40 97.5h168q-7 -132 -89 -208t-212 -76q-128 0 -209 75.5t-90 208.5z" />
<glyph horiz-adv-x="1130" d="M14 0l449 1092q-63 19 -100 66.5t-37 115.5q0 81 51.5 132t140.5 62l100 263h267l-191 -287q109 -50 109 -170q0 -68 -36.5 -114.5t-100.5 -67.5l450 -1092h-260l-82 219h-422l-82 -219h-256zM422 406h283l-78 208q-52 151 -60 181h-6q-29 -92 -61 -181zM481 1274 q0 -44 22.5 -69t61.5 -25q37 0 59.5 25t22.5 69t-22.5 69t-59.5 25q-39 0 -61.5 -25t-22.5 -69z" />
<glyph horiz-adv-x="1130" d="M14 0l451 1094h201l450 -1094q-111 -31 -180.5 -95.5t-69.5 -127.5q0 -33 18 -52.5t52 -19.5q32 0 76 12l28 -131q-86 -24 -163 -24q-100 0 -156.5 47.5t-56.5 126.5q0 57 31 110.5t68 87.5t91 72l-80 213h-422l-82 -219h-256zM422 406h283l-78 208q-52 151 -60 181h-6 q-29 -92 -61 -181z" />
<glyph horiz-adv-x="966" d="M164 0v1085h690l-66 -186h-380v-258h380v-186h-380v-269h432v-186h-676zM354 1337q0 62 44 105t108 43t106.5 -42.5t42.5 -105.5q0 -61 -42.5 -103t-106.5 -42t-108 41.5t-44 103.5z" />
<glyph horiz-adv-x="966" d="M164 0v1085h690l-66 -186h-380v-258h380v-186h-380v-269h432v-186h-45q-93 -44 -148 -102.5t-55 -120.5q0 -33 18 -52.5t52 -19.5q32 0 75 12l27 -131q-82 -24 -162 -24q-100 0 -156.5 47.5t-56.5 126.5q0 141 180 264h-405z" />
<glyph horiz-adv-x="1228" d="M100 526q0 174 79 307t216 203t310 70q179 0 323 -59v-207q-125 71 -295 71q-95 0 -170 -31t-120.5 -83t-69 -117.5t-23.5 -138.5q0 -171 94 -269t256 -98q72 0 134 19v331h245v-479q-163 -65 -383 -65q-282 0 -439 146.5t-157 399.5zM338 1159l205 301h196l207 -301 h-192l-113 162l-111 -162h-192z" />
<glyph horiz-adv-x="1228" d="M100 526q0 174 79 307t216 203t310 70q179 0 323 -59v-207q-125 71 -295 71q-95 0 -170 -31t-120.5 -83t-69 -117.5t-23.5 -138.5q0 -171 94 -269t256 -98q72 0 134 19v331h245v-479q-163 -65 -383 -65q-282 0 -439 146.5t-157 399.5zM344 1464h170q6 -62 40 -97.5 t91 -35.5t91 35.5t40 97.5h168q-7 -132 -89 -208t-212 -76q-128 0 -209 75.5t-90 208.5z" />
<glyph horiz-adv-x="1228" d="M100 526q0 174 79 307t216 203t310 70q179 0 323 -59v-207q-125 71 -295 71q-95 0 -170 -31t-120.5 -83t-69 -117.5t-23.5 -138.5q0 -171 94 -269t256 -98q72 0 134 19v331h245v-479q-163 -65 -383 -65q-282 0 -439 146.5t-157 399.5zM506 1337q0 62 43.5 105t107.5 43 t107 -42.5t43 -105.5q0 -61 -43 -103t-107 -42t-107.5 41.5t-43.5 103.5z" />
<glyph horiz-adv-x="1228" d="M100 526q0 174 79 307t216 203t310 70q179 0 323 -59v-207q-125 71 -295 71q-95 0 -170 -31t-120.5 -83t-69 -117.5t-23.5 -138.5q0 -171 94 -269t256 -98q72 0 134 19v331h245v-479q-163 -65 -383 -65q-282 0 -439 146.5t-157 399.5zM461 -338q81 17 116 47.5t35 77.5 q0 52 -41 107h209q47 -68 47 -148q0 -194 -307 -231z" />
<glyph horiz-adv-x="1325" d="M164 0v1085h244v-436h512v436h243v-1085h-243v451h-512v-451h-244zM358 1159l205 301h197l207 -301h-193l-112 162l-111 -162h-193z" />
<glyph horiz-adv-x="1325" d="M55 795v157h109v133h244v-133h512v133h243v-133h109v-157h-109v-795h-243v451h-512v-451h-244v795h-109zM408 649h512v146h-512v-146z" />
<glyph horiz-adv-x="569" d="M18 1460h267l118 -301h-186zM164 0v1085h244v-1085h-244z" />
<glyph horiz-adv-x="569" d="M164 0v1085h244v-1085h-244zM166 1159l119 301h264l-197 -301h-186z" />
<glyph horiz-adv-x="569" d="M-20 1159l204 301h197l207 -301h-193l-112 162l-111 -162h-192zM164 0v1085h244v-1085h-244z" />
<glyph horiz-adv-x="569" d="M-37 1192v80q0 81 46.5 125.5t121.5 44.5q50 0 103.5 -22.5t96.5 -45t68 -22.5q29 0 37 17.5t8 60.5h160v-80q0 -80 -47.5 -125t-120.5 -45q-49 0 -102.5 22.5t-97 45t-68.5 22.5q-29 0 -37 -17.5t-8 -60.5h-160zM164 0v1085h244v-1085h-244z" />
<glyph horiz-adv-x="1556" d="M12 0l602 1085h830l-68 -186h-502l60 -258h444v-186h-401l61 -269h392v-186h-578l-47 219h-420l-115 -219h-258zM483 406h281l-45 208q-28 113 -35 181h-4q-20 -47 -86 -181z" />
<glyph horiz-adv-x="569" d="M-35 1305q0 53 36.5 90t88.5 37q53 0 90 -36.5t37 -90.5q0 -52 -37 -88.5t-90 -36.5q-51 0 -88 36.5t-37 88.5zM164 0v1085h244v-1085h-244zM356 1305q0 54 36 90.5t89 36.5q51 0 88 -37t37 -90q0 -52 -37 -88.5t-88 -36.5q-53 0 -89 36t-36 89z" />
<glyph horiz-adv-x="569" d="M-6 1237v184h584v-184h-584zM164 0v1085h244v-1085h-244z" />
<glyph horiz-adv-x="1556" d="M12 0l602 1085h830l-68 -186h-502l60 -258h444v-186h-401l61 -269h392v-186h-578l-47 219h-420l-115 -219h-258zM483 406h281l-45 208q-28 113 -35 181h-4q-20 -47 -86 -181zM760 1159l119 301h264l-197 -301h-186z" />
<glyph horiz-adv-x="569" d="M-18 1464h170q6 -62 40 -97.5t91 -35.5t91 35.5t40 97.5h168q-7 -132 -89 -208t-212 -76q-128 0 -209 75.5t-90 208.5zM164 0v1085h244v-1085h-244z" />
<glyph horiz-adv-x="569" d="M31 -250q0 141 133 254v1081h244v-1085q-84 -44 -130.5 -102t-46.5 -117q0 -36 19 -56t55 -20q31 0 74 12l27 -131q-80 -24 -156 -24q-105 0 -162 49t-57 139z" />
<glyph horiz-adv-x="1179" d="M164 0v1085h244v-1085h-244zM479 -283l49 185q54 -15 97 -15q80 0 113.5 42t33.5 128v1028h246v-1065q0 -163 -92.5 -248t-272.5 -85q-107 0 -174 30z" />
<glyph horiz-adv-x="610" d="M-90 -283l49 185q54 -15 96 -15q80 0 114 42.5t34 127.5v1028h246v-1065q0 -163 -92.5 -248t-272.5 -85q-107 0 -174 30zM18 1159l205 301h197l207 -301h-193l-112 162l-111 -162h-193z" />
<glyph d="M164 0v1085h244v-477h4l381 477h264l-443 -546l467 -539h-282l-387 453h-4v-453h-244zM352 -338q82 17 117 48t35 77q0 52 -41 107h209q47 -68 47 -148q0 -194 -307 -231z" />
<glyph horiz-adv-x="845" d="M164 0v1085h244v-888h413v-197h-657zM168 1159l119 301h264l-197 -301h-186z" />
<glyph horiz-adv-x="845" d="M164 0v1085h244v-888h413v-197h-657zM520 784l74 402h242l-131 -402h-185z" />
<glyph horiz-adv-x="845" d="M164 0v1085h244v-888h413v-197h-657zM285 -338q81 17 116 47.5t35 77.5q0 52 -41 107h209q47 -68 47 -148q0 -194 -307 -231z" />
<glyph horiz-adv-x="843" d="M47 313v217l115 66v489h244v-350l231 133v-217l-231 -133v-321h413v-197h-657v381z" />
<glyph horiz-adv-x="845" d="M164 0v1085h244v-888h413v-197h-657zM569 610q0 59 40 99.5t96 40.5q57 0 97 -40t40 -100t-40 -100.5t-97 -40.5q-56 0 -96 41t-40 100z" />
<glyph horiz-adv-x="1370" d="M164 0v1085h235l385 -489q93 -115 179 -242h4q-4 118 -4 254v477h245v-1085h-225l-405 514q-114 149 -172 238h-3q5 -195 5 -244v-508h-244zM578 1159l118 301h265l-197 -301h-186z" />
<glyph horiz-adv-x="1370" d="M164 0v1085h235l385 -489q93 -115 179 -242h4q-4 118 -4 254v477h245v-1085h-225l-405 514q-114 149 -172 238h-3q5 -195 5 -244v-508h-244zM373 1460h194l113 -160l111 160h190l-205 -301h-196z" />
<glyph horiz-adv-x="1089" d="M100 524q0 177 78 310.5t209.5 202.5t296.5 69q174 0 289 -62v-194q-119 61 -254 61q-176 0 -272.5 -106.5t-96.5 -269.5q0 -164 92 -262.5t248 -98.5q153 0 273 70l67 -176q-163 -88 -360 -88q-264 0 -417 149t-153 395zM551 1159l119 301h264l-197 -301h-186z" />
<glyph horiz-adv-x="1370" d="M164 0v1085h235l385 -489q93 -115 179 -242h4q-4 118 -4 254v477h245v-1085h-225l-405 514q-114 149 -172 238h-3q5 -195 5 -244v-508h-244zM365 1192v80q0 81 46.5 125.5t120.5 44.5q50 0 104 -22.5t97 -45t68 -22.5q29 0 37 17.5t8 60.5h160v-80q0 -80 -47.5 -125 t-120.5 -45q-49 0 -103 22.5t-97.5 45t-68.5 22.5q-29 0 -37 -17.5t-8 -60.5h-159z" />
<glyph horiz-adv-x="1370" d="M164 0v1085h235l385 -489q93 -115 179 -242h4q-4 118 -4 254v477h245v-1085h-225l-405 514q-114 149 -172 238h-3q5 -195 5 -244v-508h-244zM473 -338q82 17 117 48t35 77q0 52 -41 107h209q47 -68 47 -148q0 -194 -308 -231z" />
<glyph horiz-adv-x="1333" d="M100 543q0 251 157 407t409 156q253 0 410 -156t157 -407t-157 -407t-410 -156q-252 0 -409 156t-157 407zM350 543q0 -172 86 -270.5t230 -98.5q146 0 231.5 98.5t85.5 270.5t-85.5 270t-231.5 98q-144 0 -230 -98t-86 -270zM373 1460h266l119 -301h-187z" />
<glyph horiz-adv-x="1333" d="M100 543q0 251 157 407t409 156q253 0 410 -156t157 -407t-157 -407t-410 -156q-252 0 -409 156t-157 407zM350 543q0 -172 86 -270.5t230 -98.5q146 0 231.5 98.5t85.5 270.5t-85.5 270t-231.5 98q-144 0 -230 -98t-86 -270zM573 1159l119 301h264l-196 -301h-187z" />
<glyph horiz-adv-x="1333" d="M100 543q0 251 157 407t409 156q253 0 410 -156t157 -407t-157 -407t-410 -156q-252 0 -409 156t-157 407zM350 543q0 -172 86 -270.5t230 -98.5q146 0 231.5 98.5t85.5 270.5t-85.5 270t-231.5 98q-144 0 -230 -98t-86 -270zM358 1159l205 301h197l207 -301h-193 l-112 162l-111 -162h-193z" />
<glyph horiz-adv-x="1333" d="M100 543q0 251 157 407t409 156q253 0 410 -156t157 -407t-157 -407t-410 -156q-252 0 -409 156t-157 407zM340 1192v80q0 81 46.5 125.5t121.5 44.5q50 0 103.5 -22.5t96.5 -45t68 -22.5q29 0 37 17.5t8 60.5h160v-80q0 -80 -47.5 -125t-120.5 -45q-49 0 -102.5 22.5 t-97 45t-68.5 22.5q-29 0 -37 -17.5t-8 -60.5h-160zM350 543q0 -172 86 -270.5t230 -98.5q146 0 231.5 98.5t85.5 270.5t-85.5 270t-231.5 98q-144 0 -230 -98t-86 -270z" />
<glyph horiz-adv-x="1333" d="M100 543q0 251 157 407t409 156q253 0 410 -156t157 -407t-157 -407t-410 -156q-252 0 -409 156t-157 407zM340 1305q0 53 37 90t88 37q53 0 90 -36.5t37 -90.5q0 -52 -37 -88.5t-90 -36.5q-51 0 -88 36.5t-37 88.5zM350 543q0 -172 86 -270.5t230 -98.5 q146 0 231.5 98.5t85.5 270.5t-85.5 270t-231.5 98q-144 0 -230 -98t-86 -270zM731 1305q0 54 36 90.5t89 36.5q52 0 88.5 -37t36.5 -90q0 -52 -37 -88.5t-88 -36.5q-52 0 -88.5 36t-36.5 89z" />
<glyph horiz-adv-x="1333" d="M100 543q0 251 157 407t409 156q253 0 410 -156t157 -407t-157 -407t-410 -156q-252 0 -409 156t-157 407zM350 543q0 -172 86 -270.5t230 -98.5q146 0 231.5 98.5t85.5 270.5t-85.5 270t-231.5 98q-144 0 -230 -98t-86 -270zM373 1237v184h583v-184h-583z" />
</font>
</defs>
</svg>
