<?xml version="1.0" standalone="no"?>
<!DOCTYPE svg PUBLIC "-//W3C//DTD SVG 1.1//EN" "http://www.w3.org/Graphics/SVG/1.1/DTD/svg11.dtd" >
<svg xmlns="http://www.w3.org/2000/svg">
<metadata></metadata>
<defs>
<font id="helvetica_neue_lt_cyrilliThcn" horiz-adv-x="983" >
<font-face units-per-em="2048" ascent="1638" descent="-410" />
<missing-glyph horiz-adv-x="491" />
<glyph unicode="&#xd;" horiz-adv-x="682" />
<glyph unicode=" "  horiz-adv-x="491" />
<glyph unicode="&#x09;" horiz-adv-x="491" />
<glyph unicode="&#xa0;" horiz-adv-x="491" />
<glyph unicode="!" horiz-adv-x="454" d="M184 0v199h86v-199h-86zM184 999v459h86v-459l-12 -622h-61z" />
<glyph unicode="&#x22;" horiz-adv-x="606" d="M127 1458h76l-8 -561h-60zM406 1458h75l-8 -561h-57z" />
<glyph unicode="#" d="M2 469v70h240l71 381h-227v67h240l88 471h73l-88 -471h277l88 471h74l-86 -471h227v-67h-242l-69 -381h227v-70h-240l-88 -469h-73l88 469h-279l-86 -469h-74l88 469h-229zM317 539h277l72 381h-279z" />
<glyph unicode="$" d="M74 403q0 19 2 37h80v-28q0 -73 18 -136.5t54 -114t96 -79.5t137 -29v658q-189 55 -270.5 142.5t-81.5 233.5q0 159 97 261t255 106v145h55v-147q173 -6 262 -106.5t92 -274.5h-82q-2 146 -72 226.5t-200 84.5v-604q69 -21 119.5 -41t103.5 -52.5t86 -72t54.5 -98 t21.5 -131.5q0 -172 -108 -285t-277 -116v-179h-55v179q-183 0 -285 113.5t-102 307.5zM190 1092q0 -40 7.5 -73t19 -57.5t32.5 -46.5t40 -37t51.5 -31t56.5 -25.5t64 -24.5v583q-128 -11 -199.5 -86.5t-71.5 -201.5zM516 53q132 6 217.5 99t85.5 231q0 70 -18 119t-68 85 t-80.5 50.5t-111.5 44.5q-16 7 -25 10v-639z" />
<glyph unicode="%" horiz-adv-x="1402" d="M115 1081q0 59 5 106t20.5 99t42.5 86.5t74.5 57t111.5 22.5q63 0 109 -20t72.5 -51t42 -79.5t20.5 -95.5t5 -108q0 -190 -63 -279.5t-195 -89.5q-61 0 -106 20.5t-71.5 52.5t-42 80t-20.5 94t-5 105zM190 1085q0 -155 41.5 -224.5t133.5 -69.5q36 0 64 11.5t46.5 28.5 t31.5 45t20 53t10.5 60.5t4.5 59t1 57.5q0 152 -41 218.5t-135 66.5q-91 0 -134 -74t-43 -232zM358 -27l615 1495h69l-616 -1495h-68zM786 338q0 59 5 106t20.5 99t42.5 86.5t74.5 57t111.5 22.5q63 0 109 -20t73 -51.5t42.5 -80t20.5 -95.5t5 -108q0 -190 -63 -279 t-195 -89q-61 0 -106.5 20.5t-71.5 52.5t-42 80t-21 94.5t-5 104.5zM862 342q0 -156 41 -225.5t133 -69.5q36 0 64 11.5t46.5 28.5t31.5 45t20 53t10.5 60.5t4.5 59t1 57.5q0 152 -41 218.5t-135 66.5q-91 0 -133.5 -73.5t-42.5 -231.5z" />
<glyph unicode="&#x26;" horiz-adv-x="1099" d="M70 348q0 51 9.5 95.5t31.5 83.5t42 67.5t58.5 63.5t62.5 54.5t72.5 56t71.5 54.5q-96 130 -129 193q-51 96 -51 172q0 111 77 183.5t195 72.5q120 0 193 -70t73 -184q0 -62 -20.5 -117.5t-61.5 -103.5t-80 -82t-96 -76l340 -473q46 107 49 268h78q-2 -85 -23.5 -177 t-56.5 -161l193 -268h-92l-146 203q-145 -234 -397 -234q-173 0 -283 106.5t-110 272.5zM154 354q0 -137 91 -225t232 -88q219 0 340 225l-358 502q-128 -96 -172 -139q-133 -128 -133 -275zM315 1188q0 -68 49 -155.5t113 -164.5q47 36 80.5 66t68.5 71t53.5 88.5 t18.5 98.5q0 83 -52 133.5t-138 50.5q-85 0 -139 -52.5t-54 -135.5z" />
<glyph unicode="'" horiz-adv-x="376" d="M152 1458h75l-8 -561h-59z" />
<glyph unicode="(" horiz-adv-x="454" d="M135 555q0 472 252 922h62q-238 -444 -238 -924q0 -486 238 -918h-62q-252 448 -252 920z" />
<glyph unicode=")" horiz-adv-x="454" d="M6 -365q238 432 238 918q0 480 -238 924h62q251 -448 251 -922t-251 -920h-62z" />
<glyph unicode="*" horiz-adv-x="606" d="M61 1264l23 57l152 -59q18 -7 40 -23q-4 18 -4 51v168h64v-153q0 -10 -4 -64q27 15 53 27l135 53l23 -55l-135 -56q-20 -8 -58 -18q22 -22 43 -49l96 -125l-51 -39l-100 127q-20 26 -35 59q-8 -19 -31 -49l-102 -137l-53 39l104 135q22 30 39 39q-34 5 -59 16z" />
<glyph unicode="+" horiz-adv-x="1228" d="M100 590v61h482v488h65v-488h483v-61h-483v-486h-65v486h-482z" />
<glyph unicode="," horiz-adv-x="491" d="M184 -193q34 29 47.5 71t14.5 128h-29v199h88v-176q0 -129 -26 -191t-95 -102v71z" />
<glyph unicode="-" horiz-adv-x="645" d="M127 522v74h389v-74h-389z" />
<glyph unicode="." horiz-adv-x="491" d="M203 0v205h88v-205h-88z" />
<glyph unicode="/" horiz-adv-x="569" d="M-10 -16l518 1484h72l-521 -1484h-69z" />
<glyph unicode="0" d="M88 739q0 73 2.5 131t12 136t26 137.5t47.5 121t73.5 102t106.5 66t144 25.5q63 0 115 -16.5t90.5 -42t68.5 -67.5t50 -83t34 -98.5t21.5 -104t11.5 -109.5t5 -104.5t1 -99.5q0 -85 -1 -136.5t-9.5 -141t-23 -146.5t-45 -127t-73 -110.5t-109 -68.5t-151.5 -28 q-82 0 -146.5 29.5t-106 70.5t-70.5 113.5t-43 129t-21.5 148t-8.5 140t-1 133.5zM174 711q0 -73 0.5 -114.5t6.5 -121t17 -129t34.5 -113t56.5 -100t85 -62.5t118 -26t118 25.5t85 61t56.5 98.5t35 111t17.5 127t6.5 119t0.5 112v22q0 219 -15 323q-52 345 -298 345 q-52 0 -95.5 -15.5t-75 -39.5t-56.5 -64t-41 -76.5t-27 -90.5t-16.5 -93t-8.5 -97t-3.5 -89.5t-0.5 -82.5v-30z" />
<glyph unicode="1" d="M150 1139v67q261 43 352 250h76v-1456h-84v1204q0 19 2 55.5t2 53.5q-46 -60 -145 -109.5t-203 -64.5z" />
<glyph unicode="2" d="M96 0q6 179 76.5 300.5t224.5 246.5l158 127q60 48 95.5 82.5t72.5 83t53.5 104t16.5 123.5q0 148 -79 233.5t-214 85.5q-143 0 -224.5 -96t-85.5 -274h-81q0 91 23 168.5t69 139.5t123.5 97t179.5 35q174 0 274.5 -105t100.5 -288q0 -132 -57.5 -228.5t-209.5 -216.5 l-157 -124q-81 -65 -129.5 -115.5t-87.5 -128t-56 -178.5q7 0 26.5 1t33.5 1h651v-74h-797z" />
<glyph unicode="3" d="M88 381h82q9 -164 88.5 -250t222.5 -86q148 0 237 95.5t89 256.5q0 164 -93 246t-261 82h-54v72q27 -2 52 -2q309 0 309 299q0 137 -74.5 214.5t-204.5 77.5q-132 0 -209 -86t-77 -235h-84q0 172 97.5 281.5t272.5 109.5q169 0 266 -96t97 -262q0 -137 -64.5 -224.5 t-181.5 -109.5q138 -20 216.5 -116t78.5 -245q0 -188 -112.5 -308t-303.5 -120q-177 0 -281 108t-108 298z" />
<glyph unicode="4" d="M74 391v88l588 977h83v-993h177v-72h-177v-391h-81v391h-590zM137 461q6 0 19.5 1t19.5 1h488v717q0 86 12 176q-33 -72 -60 -115l-430 -711q-31 -55 -49 -69z" />
<glyph unicode="5" d="M92 365h84q5 -151 84 -235.5t215 -84.5q155 0 242.5 114t87.5 314q0 191 -84 296t-238 105q-203 0 -282 -196l-86 2l82 747h622v-77h-555l-55 -449q-2 -14 -6.5 -61t-9.5 -72q47 86 127 132t182 46q180 0 285.5 -126t105.5 -343q0 -235 -112.5 -369.5t-309.5 -134.5 q-173 0 -274.5 104.5t-104.5 287.5z" />
<glyph unicode="6" d="M92 668q0 60 1 106t6 113t13 118.5t23.5 113.5t37 108t54.5 91.5t73.5 74.5t96.5 47t123 18q151 0 242 -88.5t100 -243.5h-82q-9 122 -79.5 192.5t-184.5 70.5q-248 0 -314 -346q-21 -107 -30 -335q-1 -23 -2 -38l-2 -41q29 138 117 219.5t235 81.5q179 0 280 -123.5 t101 -341.5q0 -228 -108 -360t-295 -132q-134 0 -228 75t-135 214q-43 141 -43 406zM193 465q0 -80 15 -150t48.5 -133t96 -100t147.5 -37q145 0 230 112t85 302q0 189 -82 294t-229 105q-142 0 -226.5 -106.5t-84.5 -286.5z" />
<glyph unicode="7" d="M94 1352v75h801v-79q-231 -270 -389 -639t-158 -697v-12h-90q11 213 90 471.5t206.5 497.5t270.5 387q-12 -4 -45 -4h-686z" />
<glyph unicode="8" d="M88 395q0 150 76.5 253t208.5 132q-115 29 -176.5 114t-61.5 208q0 161 99 258.5t262 97.5q164 0 261 -95.5t97 -256.5q0 -124 -63.5 -213.5t-167.5 -112.5q132 -26 203 -124.5t71 -252.5q0 -197 -110.5 -312.5t-299.5 -115.5q-181 0 -290 114.5t-109 305.5zM176 401 q0 -165 84 -260.5t229 -95.5q148 0 235 97t87 261q0 160 -84 251t-233 91q-144 0 -231 -94t-87 -250zM219 1102q0 -131 74.5 -209t198.5 -78q129 0 202.5 76t73.5 207q0 135 -72 213t-198 78t-202.5 -78.5t-76.5 -208.5z" />
<glyph unicode="9" d="M84 967q0 227 108.5 359t294.5 132q62 0 114.5 -15t91.5 -40t70 -63.5t52 -79t36 -93.5t23.5 -100t13 -105.5t6 -102.5t1.5 -99q0 -77 -2.5 -138.5t-12.5 -146.5t-27 -150.5t-49.5 -134.5t-77 -114t-112 -74t-151.5 -29q-150 0 -239.5 88t-98.5 244h80q9 -120 79.5 -190 t182.5 -70q308 0 338 518q13 226 14 244q-29 -137 -116 -221t-238 -84q-179 0 -280 123.5t-101 341.5zM172 975q0 -189 82.5 -295.5t228.5 -106.5q143 0 226.5 106.5t83.5 289.5q0 80 -15.5 150.5t-49 133.5t-96 99.5t-147.5 36.5q-144 0 -228.5 -112t-84.5 -302z" />
<glyph unicode=":" horiz-adv-x="491" d="M201 0v205h88v-205h-88zM201 807v205h88v-205h-88z" />
<glyph unicode=";" horiz-adv-x="491" d="M168 -193q34 29 47 71t14 128h-28v199h88v-176q0 -129 -26 -191t-95 -102v71zM201 807v205h88v-205h-88z" />
<glyph unicode="&#x3c;" horiz-adv-x="1228" d="M113 582v73l1001 416v-74l-915 -379l915 -374v-76z" />
<glyph unicode="=" horiz-adv-x="1228" d="M98 446v62h1032v-62h-1032zM98 737v62h1032v-62h-1032z" />
<glyph unicode="&#x3e;" horiz-adv-x="1228" d="M113 168v76l917 374l-917 379v74l1001 -416v-73z" />
<glyph unicode="?" horiz-adv-x="872" d="M68 1038q0 96 11 151t40 111q96 185 319 185q162 0 257.5 -93t95.5 -251q0 -97 -34.5 -169t-109.5 -151l-84 -88q-80 -83 -99.5 -142t-19.5 -183v-33h-77v31q0 74 3 114.5t16.5 86.5t40 85t73.5 88l84 88q68 71 95.5 133.5t27.5 145.5q0 125 -72.5 196.5t-198.5 71.5 q-178 0 -252 -160q-22 -48 -29.5 -90.5t-7.5 -126.5h-79zM365 0v199h86v-199h-86z" />
<glyph unicode="@" horiz-adv-x="1638" d="M55 700q0 172 67.5 319.5t182 248.5t267.5 158t321 57q137 0 259.5 -40t217 -114.5t150 -190t55.5 -257.5q0 -102 -31 -199.5t-98 -181.5t-160 -123q-66 -27 -123 -27q-64 0 -106.5 36.5t-42.5 98.5q0 15 2.5 30t7.5 36t6 29q-107 -230 -307 -230q-128 0 -200 86t-72 217 q0 112 49.5 222.5t144.5 187t209 76.5q111 0 179.5 -64t74.5 -174l63 211h72l-121 -391q-51 -163 -51 -225q0 -45 31.5 -69t77.5 -24q82 0 166 70q83 68 128.5 181.5t45.5 228.5q0 104 -33.5 193t-92.5 152.5t-139 109t-172 67.5t-192 22q-248 0 -447.5 -124t-285.5 -349 q-47 -124 -47 -254q0 -155 61 -284t164 -213t236.5 -130t281.5 -46q169 0 306 48t290 150l31 -41q-154 -109 -300.5 -160t-326.5 -51q-163 0 -308 51t-254 143t-173 230t-64 303zM530 649q0 -104 53.5 -173.5t153.5 -69.5q73 0 137.5 47t106 117.5t65 148.5t23.5 145 q0 97 -54.5 159t-150.5 62q-97 0 -176 -72.5t-118.5 -171t-39.5 -192.5z" />
<glyph unicode="A" horiz-adv-x="985" d="M-6 0l446 1458h111l440 -1458h-90l-135 449h-549l-135 -449h-88zM238 522h510l-195 649q-37 121 -59 230q-10 -75 -58 -230z" />
<glyph unicode="B" horiz-adv-x="1024" d="M127 0v1458h283q121 0 200 -8q131 -15 209 -109.5t78 -238.5q0 -139 -70 -227.5t-198 -108.5q150 -13 232.5 -108.5t82.5 -254.5q0 -192 -117 -303q-57 -55 -135 -77.5t-215 -22.5h-350zM211 70h240q119 0 194 16q97 22 155 108t58 209q0 171 -113 256q-53 40 -120 54 t-211 14h-203v-657zM211 797h207q108 0 178 12q100 19 157.5 95.5t57.5 193.5q0 78 -28.5 141t-80.5 98q-40 28 -93 38.5t-150 10.5h-248v-589z" />
<glyph unicode="C" horiz-adv-x="1024" d="M74 725q0 758 473 758q183 0 290 -118t115 -325h-84q-6 172 -92 270.5t-231 98.5q-383 0 -383 -684q0 -343 94 -509.5t287 -166.5q155 0 241 119q93 132 99 324h86q-7 -225 -127 -381q-106 -136 -310 -136q-458 0 -458 750z" />
<glyph unicode="D" horiz-adv-x="1062" d="M121 0v1458h289q146 0 233 -25t156 -87q176 -157 176 -580q0 -124 -10.5 -224.5t-49.5 -215.5t-106 -193q-65 -72 -152 -102.5t-233 -30.5h-303zM205 72h207q128 0 203.5 25t127.5 85q144 166 144 578q0 197 -34.5 322.5t-109.5 203.5q-58 61 -140 80.5t-191 19.5h-207 v-1314z" />
<glyph unicode="E" horiz-adv-x="872" d="M121 0v1458h692v-76h-608v-585h567v-74h-567v-647h626v-76h-710z" />
<glyph unicode="F" horiz-adv-x="833" d="M119 0v1458h690v-76h-606v-583h569v-74h-569v-725h-84z" />
<glyph unicode="G" horiz-adv-x="1062" d="M82 711q0 77 4 144t16 148t32.5 146.5t56.5 129.5t84 107.5t118.5 70t157.5 26.5q186 0 293.5 -122t113.5 -312h-84q-12 173 -96 266.5t-229 93.5q-74 0 -133 -25.5t-98 -65.5t-68 -101t-44.5 -119t-24.5 -132.5t-11 -129t-2 -121.5q0 -337 93.5 -502.5t283.5 -165.5 q350 0 350 588v24h-401v70h481v-729h-72v127q0 110 8 201q-78 -351 -376 -351q-222 0 -337.5 187t-115.5 547z" />
<glyph unicode="H" horiz-adv-x="1062" d="M125 0v1458h84v-641h643v641h84v-1458h-84v741h-643v-741h-84z" />
<glyph unicode="I" horiz-adv-x="335" d="M129 0v1458h84v-1458h-84z" />
<glyph unicode="J" horiz-adv-x="833" d="M51 408v20h82v-20q0 -58 4.5 -104.5t20 -96.5t41.5 -83.5t71 -55t107 -21.5q65 0 117.5 25t83.5 71q28 39 37.5 95.5t9.5 171.5v1048h84v-1048q0 -221 -62 -310q-86 -125 -278 -125q-77 0 -134.5 24.5t-92 64t-55.5 97.5t-28.5 116.5t-7.5 130.5z" />
<glyph unicode="K" horiz-adv-x="948" d="M123 0v1458h84v-749q0 -49 -4 -80q56 89 98 145l512 684h96l-458 -614l499 -844h-92l-461 776l-190 -254v-522h-84z" />
<glyph unicode="L" horiz-adv-x="872" d="M129 0v1458h86v-1382h612v-76h-698z" />
<glyph unicode="M" horiz-adv-x="1327" d="M115 0v1458h133l352 -1085q16 -49 37.5 -141.5t28.5 -147.5h2q18 140 47 231l360 1143h137v-1458h-82v1303q0 17 2 45.5t3 48.5h-5q-48 -192 -71 -267l-352 -1130h-86l-349 1102q-17 54 -41 156.5t-34 138.5h-7q7 -150 7 -258v-1139h-82z" />
<glyph unicode="N" horiz-adv-x="1062" d="M115 0v1458h112l559 -1149q33 -73 82 -235h4q-8 84 -8 256v1128h82v-1458h-110l-537 1106q-19 40 -36.5 87t-38 106t-31.5 90h-5q9 -102 9 -207v-1182h-82z" />
<glyph unicode="O" horiz-adv-x="1099" d="M80 727q0 756 471 756q469 0 469 -748q0 -760 -477 -760q-463 0 -463 752zM166 727q0 -347 92 -513.5t283 -166.5q75 0 135 24.5t100.5 63.5t70.5 97.5t46 116t26 130.5t12.5 129t2.5 123q0 345 -95 512.5t-290 167.5q-74 0 -133.5 -25t-98.5 -64.5t-68 -99t-44.5 -116.5 t-24.5 -130.5t-11.5 -128t-2.5 -120.5z" />
<glyph unicode="P" horiz-adv-x="948" d="M113 0v1458h356q105 0 178 -22q110 -34 175 -136.5t65 -244.5q0 -135 -66.5 -241.5t-189.5 -141.5q-49 -14 -90 -18.5t-127 -4.5h-217v-649h-84zM197 721h223q110 0 178 18q94 26 147.5 111t53.5 205q0 146 -78 239q-43 51 -105 73t-165 22h-254v-668z" />
<glyph unicode="Q" horiz-adv-x="1099" d="M86 729q0 754 471 754q469 0 469 -748q0 -86 -4.5 -156.5t-18.5 -156.5t-44.5 -160t-77.5 -129l157 -164l-49 -49l-158 160q-58 -55 -126.5 -80t-159.5 -25q-459 0 -459 754zM172 725q0 -347 92 -513.5t283 -166.5q136 0 231 88l-170 176l51 51l164 -172 q51 68 78.5 171.5t33 183t5.5 192.5q0 341 -95 507.5t-290 166.5q-74 0 -133.5 -25t-99 -63.5t-68.5 -98t-44.5 -116.5t-24 -131t-11 -128.5t-2.5 -121.5z" />
<glyph unicode="R" horiz-adv-x="1024" d="M127 0v1458h371q109 0 182 -20q108 -29 171.5 -125.5t63.5 -231.5q0 -155 -75.5 -250.5t-216.5 -117.5q52 -3 92.5 -16t69 -30.5t49 -46.5t32.5 -57t20 -70t11.5 -77t5.5 -86l6 -127q0 -6 1.5 -34.5t2.5 -37.5t4 -32.5t7 -36.5t11 -30.5t17 -31.5h-98q-20 43 -27 123 q-5 50 -9.5 161.5t-10.5 170.5q-7 58 -30 100t-53 65.5t-75.5 37t-86.5 17t-97 3.5h-254v-678h-84zM211 745h254q97 0 180 27q86 29 134 108t48 191q0 154 -84 238q-77 77 -260 77h-272v-641z" />
<glyph unicode="S" horiz-adv-x="985" d="M68 412q0 21 2 37h84v-33q0 -170 81 -269.5t248 -99.5q154 0 248 91.5t94 242.5q0 117 -60.5 187.5t-205.5 119.5l-166 57q-71 24 -122.5 53.5t-92 72t-60.5 101t-20 134.5q0 172 107.5 273.5t288.5 101.5q186 0 284 -101t101 -293h-86q0 151 -73.5 235.5t-227.5 84.5 q-141 0 -224.5 -79t-83.5 -214q0 -121 64 -188t188 -111l164 -57q62 -22 107 -44t86 -53t66 -69t39.5 -90t14.5 -117q0 -186 -117.5 -298t-312.5 -112q-202 0 -308.5 112.5t-106.5 324.5z" />
<glyph unicode="T" horiz-adv-x="872" d="M4 1382v76h864v-76h-387v-1382h-84v1382h-393z" />
<glyph unicode="U" horiz-adv-x="1024" d="M109 420v1038h84v-1040q0 -94 14 -156q22 -101 102 -158t201 -57q165 0 250 105q41 51 56 114t15 189v1003h84v-1005q0 -115 -16 -194t-70 -148q-106 -136 -331 -136q-189 0 -293 113q-53 57 -74.5 131.5t-21.5 200.5z" />
<glyph unicode="V" horiz-adv-x="909" d="M2 1458h90l311 -1161q21 -80 52 -231h2q11 80 47 223l317 1169h88l-401 -1458h-109z" />
<glyph unicode="W" horiz-adv-x="1441" d="M23 1458h86l237 -1112q38 -189 45 -272h2q9 108 43 276l232 1108h104l232 -1110q31 -148 43 -274h2q11 123 49 293l237 1091h84l-319 -1458h-107l-231 1124q-29 146 -41 258h-2q-7 -86 -41 -258l-236 -1124h-104z" />
<glyph unicode="X" horiz-adv-x="948" d="M16 0l414 743l-385 715h94l273 -506q42 -76 65 -143h2q26 73 66 145l270 504h90l-383 -715l410 -743h-94l-308 563q-36 70 -55 119q-33 -78 -59 -125l-307 -557h-93z" />
<glyph unicode="Y" horiz-adv-x="909" d="M12 1458h94l287 -622q40 -82 62 -158h2q21 72 61 153l291 627h90l-403 -856v-602h-84v602z" />
<glyph unicode="Z" horiz-adv-x="907" d="M33 0v78l688 1220q6 12 16.5 27.5t23.5 33.5t19 27q-27 -2 -73 -2h-631v74h786v-76l-684 -1208q-11 -20 -34 -56t-29 -46q25 2 51 2h704v-74h-837z" />
<glyph unicode="[" horiz-adv-x="454" d="M166 -354v1820h274v-65h-196v-1690h196v-65h-274z" />
<glyph unicode="\" horiz-adv-x="569" d="M-10 1468h71l519 -1484h-70z" />
<glyph unicode="]" horiz-adv-x="454" d="M14 -291h197v1692h-197v65h275v-1820h-275v63z" />
<glyph unicode="^" horiz-adv-x="1228" d="M238 621l337 837h74l338 -837h-72l-303 763l-303 -763h-71z" />
<glyph unicode="_" horiz-adv-x="1024" d="M-4 -154h1032v-102h-1032v102z" />
<glyph unicode="`" horiz-adv-x="303" d="M-20 1489h94l159 -285h-67z" />
<glyph unicode="a" horiz-adv-x="796" d="M61 279q0 38 5.5 70.5t13.5 58t23.5 47.5t30 37.5t39.5 30t44 23.5t51.5 19.5t55.5 16.5t61 16q106 27 139 38t54 28q34 24 34 124q0 121 -44 181.5t-167 60.5q-115 0 -169 -63.5t-56 -200.5h-78q0 330 303 330q144 0 222 -72q42 -39 55.5 -94t13.5 -187v-536 q0 -75 6 -105q9 -41 54 -41q6 0 41 7v-62q-31 -10 -66 -10q-113 0 -113 127q0 38 2 61q-71 -207 -284 -207q-129 0 -200 79.5t-71 222.5zM145 285q0 -114 53.5 -176t151.5 -62q123 0 192.5 95t69.5 264v157q0 39 2 64q-7 -11 -17 -20.5t-24.5 -17t-24.5 -12.5t-29.5 -10.5 t-27.5 -8t-30 -7.5t-25 -6q-129 -31 -174 -53q-100 -49 -114 -162q-3 -21 -3 -45z" />
<glyph unicode="b" horiz-adv-x="872" d="M106 0v1458h82v-463q0 -51 -6 -139q25 101 100.5 169.5t186.5 68.5q328 0 328 -551q0 -568 -336 -568q-106 0 -179 61t-102 175q4 -55 4 -133v-78h-78zM184 537q0 -492 267 -492q134 0 198 122t64 378q0 45 -1.5 82.5t-7.5 89t-16.5 91.5t-30 82.5t-46 70t-67 45.5 t-91.5 18q-269 0 -269 -487z" />
<glyph unicode="c" horiz-adv-x="796" d="M72 535q0 559 356 559q137 0 220.5 -88.5t92.5 -243.5h-84q-9 126 -69.5 195t-161.5 69q-138 0 -205 -119.5t-67 -365.5q0 -49 1.5 -86.5t7 -92t16 -95.5t30.5 -85.5t47 -73t69 -47t95 -18.5q61 0 109 27t76.5 73t44 98.5t18.5 110.5h80q-3 -102 -39 -185.5t-112 -137.5 t-181 -54q-173 0 -258.5 138.5t-85.5 421.5z" />
<glyph unicode="d" horiz-adv-x="872" d="M76 543q0 551 336 551q216 0 278 -234q-4 86 -4 131v467h80v-1458h-76v117q0 46 1 65t1 31q-37 -124 -105 -181t-181 -57q-169 0 -249.5 139t-80.5 429zM160 535q0 -252 63.5 -372t196.5 -120q52 0 93.5 18.5t69 47t48 72t31 85t17 94.5t8 91.5t1.5 85.5q0 251 -63.5 369 t-198.5 118q-136 0 -201 -119t-65 -370z" />
<glyph unicode="e" horiz-adv-x="833" d="M72 535q0 276 90.5 416.5t267.5 140.5q332 0 332 -508v-39h-604v-31q0 -45 1.5 -82.5t8 -88t17 -90t30 -80.5t46.5 -68t67.5 -44.5t91.5 -17.5q109 0 173 77.5t79 229.5h78q0 -83 -39 -180q-38 -94 -114.5 -144.5t-180.5 -50.5q-173 0 -258.5 138.5t-85.5 421.5zM158 608 h520q0 418 -248 418q-62 0 -111 -26t-78.5 -67t-49 -96.5t-26.5 -109t-7 -109.5v-10z" />
<glyph unicode="f" horiz-adv-x="417" d="M12 1001v68h148v180q0 109 49 161t158 52q36 0 67 -4v-72q-41 5 -67 5q-28 0 -49 -7t-35 -17.5t-23 -29.5t-13.5 -34.5t-6.5 -41.5t-1.5 -42.5t1 -46t0.5 -42.5v-61h182v-68h-182v-1001h-80v1001h-148z" />
<glyph unicode="g" horiz-adv-x="872" d="M84 547q0 271 84 409t248 138q208 0 272 -226q-4 70 -4 131v70h76v-1036q0 -71 -9 -130t-32.5 -114t-60.5 -92t-96.5 -59.5t-137.5 -22.5q-138 0 -213.5 68.5t-81.5 199.5h80q15 -200 219 -200q65 0 112 20t74 51.5t42.5 80t20.5 94t5 104.5v98q0 46 4 109 q-72 -234 -276 -234q-161 0 -243.5 136.5t-82.5 404.5zM168 549q0 -44 1.5 -81t7.5 -87.5t16 -90.5t29 -81.5t45 -69.5t66 -45.5t89 -17.5q262 0 262 487q0 235 -63 348t-193 113q-133 0 -196.5 -116t-63.5 -359z" />
<glyph unicode="h" horiz-adv-x="833" d="M106 0v1458h80v-471q0 -20 -4 -98q40 101 112.5 154t172.5 53q64 0 118.5 -24.5t88.5 -67.5q35 -44 48 -104t13 -183v-717h-82v748q0 82 -9 122t-34 76q-25 35 -70.5 56.5t-97.5 21.5q-74 0 -134.5 -42.5t-92.5 -117.5q-17 -41 -23 -85.5t-6 -135.5v-643h-80z" />
<glyph unicode="i" horiz-adv-x="303" d="M111 0v1069h82v-1069h-82zM111 1255v203h82v-203h-82z" />
<glyph unicode="j" horiz-adv-x="303" d="M-74 -293q29 -2 56 -2q28 0 49 5.5t35.5 12t24 22t14.5 26.5t7.5 36t3 38.5t1.5 45.5q0 21 1 69.5t1 72.5v1036h80v-1085q0 -137 -4 -170q-14 -122 -98 -160q-44 -19 -109 -19q-38 0 -62 3v69zM119 1255v203h80v-203h-80z" />
<glyph unicode="k" horiz-adv-x="796" d="M109 0v1458h79v-905q0 -7 -4 -61q22 34 74 100l393 477h99l-330 -397l387 -672h-96l-346 604l-177 -211v-393h-79z" />
<glyph unicode="l" horiz-adv-x="303" d="M111 0v1458h82v-1458h-82z" />
<glyph unicode="m" horiz-adv-x="1327" d="M127 0v1069h78v-88l-4 -86q32 96 101.5 148.5t164.5 52.5q192 0 227 -205q34 99 101 151t161 52q91 0 154.5 -44t83.5 -128q14 -57 14 -205v-717h-82v717q0 131 -10 174q-12 60 -58 96.5t-112 36.5q-74 0 -132.5 -45t-84.5 -121q-5 -15 -9 -29t-6.5 -32t-4 -27.5t-2 -33 t-0.5 -28v-33.5v-30v-645h-80v786q0 240 -183 240q-66 0 -117.5 -35t-82.5 -98q-21 -42 -29 -88t-8 -123v-682h-80z" />
<glyph unicode="n" horiz-adv-x="833" d="M104 0v1069h78v-104q0 -23 -6 -99q32 110 107 170t182 60q128 0 205 -86q38 -44 50.5 -102t12.5 -189v-719h-82v772q0 122 -47 184q-25 31 -69 49.5t-93 18.5q-153 0 -221 -152q-35 -79 -35 -221v-651h-82z" />
<glyph unicode="o" horiz-adv-x="872" d="M80 535q0 58 3.5 108.5t13 109t25.5 105.5t44 92.5t65 76t90 49t119 18.5q180 0 266.5 -136.5t86.5 -422.5q0 -285 -89 -421.5t-274 -136.5q-178 0 -264 137t-86 421zM162 530q0 -247 67 -367t205 -120q275 0 275 479q0 49 -1.5 87.5t-7.5 93.5t-16.5 97t-30.5 87 t-47.5 74t-70 48t-95.5 19q-141 0 -209.5 -123t-68.5 -375z" />
<glyph unicode="p" horiz-adv-x="872" d="M109 -365v1434h75v-76q0 -80 -4 -141q29 114 104 178t179 64q334 0 334 -543q0 -574 -336 -574q-219 0 -279 226q6 -55 6 -183v-385h-79zM184 543q0 -48 1.5 -85t7.5 -91.5t16 -95.5t30 -86t47 -73.5t69 -47.5t94 -19q135 0 199.5 123t64.5 381q0 475 -260 475 q-51 0 -92.5 -17.5t-69 -45.5t-48 -70t-31.5 -82.5t-17.5 -92t-8.5 -90t-2 -83.5z" />
<glyph unicode="q" horiz-adv-x="872" d="M76 539q0 53 3 102t12.5 106.5t24.5 105t41.5 93.5t61 77.5t85 51t112.5 19.5q104 0 174.5 -62t101.5 -180q-6 89 -6 141v76h78v-1434h-78v437q0 35 4 133q-41 -121 -107 -174.5t-175 -53.5q-169 0 -250.5 137.5t-81.5 424.5zM160 524q0 -244 64 -361.5t198 -117.5 q51 0 92.5 18.5t69 47t47.5 72t30.5 85t17 94t8 91t1.5 84.5t-1.5 84t-7.5 90.5t-16.5 93t-30 83.5t-46.5 71.5t-68 46.5t-92 18q-136 0 -201 -121.5t-65 -378.5z" />
<glyph unicode="r" horiz-adv-x="493" d="M109 0v1069h79v-68q0 -41 -8 -151q32 112 106.5 172.5t180.5 60.5h39v-82q-24 3 -35 3q-132 0 -207 -93q-48 -58 -62 -125.5t-14 -164.5v-621h-79z" />
<glyph unicode="s" horiz-adv-x="720" d="M45 330v12h78v-12q0 -75 12 -131q15 -72 74 -114t145 -42q107 0 168.5 60t63.5 165v6q0 44 -14 78q-16 38 -32 59.5t-58.5 46t-61.5 32.5t-76 30q-13 5 -20 8q-65 25 -103 44t-77.5 52t-57.5 80t-18 113q0 128 77.5 201.5t212.5 73.5q144 0 212.5 -78.5t68.5 -222.5v-23 h-80v14q0 126 -49.5 185t-153.5 59q-98 0 -153.5 -53.5t-55.5 -147.5q0 -41 11 -72.5t26.5 -52.5t45.5 -40.5t55 -31t69 -28.5q136 -52 185 -83q112 -71 125 -198q2 -18 2 -38q0 -143 -83.5 -224.5t-232.5 -81.5q-148 0 -233 88q-72 78 -72 267z" />
<glyph unicode="t" horiz-adv-x="417" d="M4 1001v68h148v317h79v-317h181v-68h-181v-808q0 -69 25.5 -98t85.5 -29q22 0 84 6v-68q-55 -8 -94 -8q-141 0 -168 92q-12 40 -12 152v761h-148z" />
<glyph unicode="u" horiz-adv-x="833" d="M98 367v702h82v-688q0 -86 4 -125q7 -102 58 -155.5t141 -53.5q79 0 140.5 45t92.5 125q31 78 31 223v629h80v-1069h-78v78q0 23 3 65.5t3 49.5q-35 -106 -109 -162t-177 -56q-84 0 -148 37.5t-90 102.5q-33 78 -33 252z" />
<glyph unicode="v" horiz-adv-x="720" d="M20 1069h89l233 -866q24 -99 29 -125h2q6 49 30 143l211 848h86l-284 -1069h-92z" />
<glyph unicode="w" horiz-adv-x="1099" d="M16 1069h84l158 -782q35 -175 39 -211h2q7 58 37 211l164 782h104l170 -819q25 -124 31 -174h2q3 40 31 184l163 809h84l-235 -1069h-88l-180 815q-14 71 -29 182h-4q-2 -38 -29 -174l-176 -823h-96z" />
<glyph unicode="x" horiz-adv-x="720" d="M31 0l282 551l-270 518h94l187 -373q30 -63 36 -88q32 71 56 119l172 342h90l-270 -518l282 -551h-92l-192 387q-28 57 -48 105q-6 -18 -45 -103l-194 -389h-88z" />
<glyph unicode="y" horiz-adv-x="720" d="M20 1069h89l235 -840q24 -88 31 -145q10 81 28 147l211 838h86l-270 -1016q-58 -205 -72 -246q-32 -92 -86 -130.5t-149 -38.5q-35 0 -68 4v69q62 -4 64 -4q95 0 135 60q44 66 68 178l10 45z" />
<glyph unicode="z" horiz-adv-x="684" d="M31 0v66l465 841q11 20 35 56.5t26 40.5q-41 -3 -74 -3h-428v68h584v-68l-467 -841q-12 -22 -57 -92q20 2 55 2h471v-70h-610z" />
<glyph unicode="{" horiz-adv-x="454" d="M0 528v54q38 1 66.5 9t48.5 20t33.5 34t21.5 43t12 57t5 66.5t1 79.5v160v7q0 64 0.5 96t5.5 85.5t15 81t29 64t47 53.5t71 30t99 13v-54q-32 0 -58.5 -6t-46 -15t-34.5 -27t-24.5 -33t-16 -43t-10 -46t-5.5 -54t-2 -56v-61v-5v-143q0 -175 -12 -235q-23 -114 -110 -141 q-15 -5 -32 -7q32 -5 57 -18.5t41 -29t27 -46.5t17 -53.5t8.5 -68t3 -72t0.5 -82.5v-15v-141v-5v-61t2 -56t5.5 -54.5t10 -46t16 -42.5t24.5 -33t34.5 -27t46 -15t58.5 -6v-54q-56 0 -99 13t-71 30t-47 53.5t-29 64t-15 81t-5.5 85.5t-0.5 96v7v160q0 49 -1 79.5t-5 66.5 t-12 57t-21.5 43t-33.5 34t-48.5 20t-66.5 9z" />
<glyph unicode="|" horiz-adv-x="454" d="M190 -438v2048h74v-2048h-74z" />
<glyph unicode="}" horiz-adv-x="454" d="M0 -317q47 0 81.5 11t55.5 35.5t33.5 50.5t17.5 69.5t6.5 77t2.5 87.5v15l2 141q2 173 9 222q18 117 94 150q22 9 48 13q-43 6 -72.5 27.5t-44.5 49.5t-22.5 75t-9.5 88.5t-2 106.5v36l-2 143q-2 154 -14 208q-25 108 -119 131q-29 7 -64 7v54q56 0 99 -13t71.5 -30.5 t47.5 -53.5t29 -64t15 -82t5.5 -86t0.5 -96v-5v-160q0 -58 1.5 -92t7.5 -73.5t18 -61.5t32.5 -42.5t52 -29.5t75.5 -10v-54q-44 -1 -75.5 -10t-52 -29.5t-32.5 -42.5t-18 -61.5t-7.5 -73.5t-1.5 -92v-160v-5q0 -64 -0.5 -96t-5.5 -86t-15 -82t-29 -64t-47.5 -53.5 t-71.5 -30.5t-99 -13v54z" />
<glyph unicode="~" horiz-adv-x="1228" d="M86 489q12 94 75 165t163 71q28 0 71.5 -8.5t95.5 -24.5t91.5 -29t91 -31.5t61.5 -21.5q115 -39 166 -39q69 0 117 48.5t67 119.5h56q-17 -97 -78.5 -166t-159.5 -69q-34 0 -92.5 14t-105.5 29t-113.5 38.5t-83.5 28.5q-5 2 -33 11.5t-40 13t-34.5 9.5t-40.5 8.5t-34 2.5 q-68 0 -117.5 -50t-65.5 -120h-57z" />
<glyph unicode="&#xa3;" d="M55 53q119 91 187.5 212.5t68.5 242.5q0 88 -41 174h-204v61h178q-49 85 -73 131.5t-45.5 111.5t-21.5 122q0 151 113.5 248.5t290.5 97.5q183 0 287.5 -110.5t109.5 -307.5h-82q0 153 -82.5 250.5t-234.5 97.5q-138 0 -227 -77.5t-89 -198.5q0 -37 10.5 -78t37.5 -98.5 t42.5 -86.5t55.5 -102h280v-61h-254q33 -90 33 -178q0 -110 -65 -226t-183 -217q104 62 183 62q54 0 149 -37q96 -35 158 -35q48 0 99.5 20t81 39.5t83.5 59.5l39 -64q-148 -131 -307 -131q-38 0 -71.5 8t-106.5 35q-101 37 -164 37q-42 0 -83.5 -16t-105.5 -57z" />
<glyph unicode="&#xa4;" d="M39 1137l49 47l129 -131q127 100 275 100q159 0 274 -100l131 131l47 -49l-129 -129q100 -134 100 -275q0 -144 -102 -274l131 -131l-47 -47l-131 131q-125 -103 -274 -103q-154 0 -273 103l-131 -129l-47 47l129 129q-100 124 -100 274q0 154 100 275zM141 731 q0 -146 103 -248t248 -102q146 0 249 102t103 248q0 145 -103 247.5t-249 102.5q-145 0 -248 -102.5t-103 -247.5z" />
<glyph unicode="&#xa6;" horiz-adv-x="454" d="M190 -182v512h74v-512h-74zM190 842v512h74v-512h-74z" />
<glyph unicode="&#xa7;" horiz-adv-x="985" d="M80 682q0 186 217 291q-119 84 -119 217q0 123 92 199.5t238 76.5q143 0 227.5 -79.5t85.5 -217.5h-82q-4 112 -65 171t-172 59q-106 0 -172 -56t-66 -145q0 -34 11 -64t25 -50.5t42.5 -44.5t47 -36.5t54.5 -35.5q182 -119 254 -170t113 -90q92 -86 92 -215 q0 -187 -207 -287q131 -110 131 -246q0 -126 -90.5 -205.5t-236.5 -79.5q-160 0 -248 90.5t-88 253.5v9h82v-15q0 -123 65 -195.5t187 -72.5q109 0 177 58.5t68 152.5q0 28 -8 55.5t-17.5 47.5t-32 44t-35 36.5t-44.5 35.5t-42.5 29.5t-45.5 29.5q-171 111 -226.5 150 t-105.5 82q-106 93 -106 217zM160 694q0 -103 98 -182q70 -55 240 -168q76 -48 141 -98q90 35 137 96t47 141q0 103 -75 172q-35 32 -75.5 61t-185.5 126l-137 92q-90 -40 -140 -103t-50 -137z" />
<glyph unicode="&#xa9;" horiz-adv-x="1638" d="M68 723q0 153 59.5 291.5t159.5 239t239 160t291 59.5q153 0 291.5 -59.5t239 -160t160 -239t59.5 -291.5t-59 -291.5t-159.5 -239t-239.5 -160t-292 -59.5q-152 0 -291 59.5t-239 160t-159.5 239t-59.5 291.5zM117 723q0 -143 55.5 -272.5t149 -223t223 -149 t272.5 -55.5q190 0 351.5 93.5t255.5 255t94 351.5t-94 351.5t-255.5 255t-351.5 93.5q-143 0 -272.5 -55.5t-223 -149t-149 -223t-55.5 -272.5zM440 731q0 115 45 212.5t134 158.5t206 61q130 0 230 -78t110 -204h-53q-20 105 -97.5 168t-185.5 63q-150 0 -239.5 -111.5 t-89.5 -265.5q0 -102 39.5 -190t119 -144.5t183.5 -56.5q100 0 176 57.5t102 153.5h54q-18 -117 -114 -188.5t-218 -71.5q-119 0 -212 60.5t-141.5 159.5t-48.5 216z" />
<glyph unicode="&#xab;" horiz-adv-x="681" d="M104 522v76l226 283v-101l-172 -221l172 -213v-100zM338 522v76l225 283v-101l-172 -221l172 -213v-100z" />
<glyph unicode="&#xac;" horiz-adv-x="1228" d="M113 737v62h1001v-443h-61v381h-940z" />
<glyph unicode="&#xad;" horiz-adv-x="645" d="M127 522v74h389v-74h-389z" />
<glyph unicode="&#xae;" horiz-adv-x="819" d="M33 1106q0 155 110 265t265 110q156 0 266 -109.5t110 -265.5q0 -155 -110.5 -266t-265.5 -111t-265 111t-110 266zM74 1106q0 -140 98 -239t236 -99q139 0 237 99t98 239q0 138 -98 237t-237 99q-138 0 -236 -99t-98 -237zM270 905v406h144q70 0 115.5 -27t45.5 -90 q0 -72 -73 -98q34 -15 50 -42t16 -52t2.5 -53.5t13.5 -43.5h-47q-9 16 -10.5 41.5t-2.5 46.5t-9.5 41t-37 31.5t-78.5 11.5h-88v-172h-41zM311 1116h103q118 0 118 80q0 26 -9.5 42t-28.5 23t-35.5 9t-42.5 2h-105v-156z" />
<glyph unicode="&#xb0;" horiz-adv-x="819" d="M121 1174q0 118 85 201t204 83t202.5 -83t83.5 -201q0 -120 -83.5 -202.5t-202.5 -82.5t-204 83t-85 202zM184 1174q0 -94 66 -159t160 -65t159.5 65t65.5 159q0 92 -66 156.5t-159 64.5t-159.5 -64.5t-66.5 -156.5z" />
<glyph unicode="&#xb1;" horiz-adv-x="1228" d="M113 0v68h1001v-68h-1001zM113 549v67h465v388h73v-388h463v-67h-463v-385h-73v385h-465z" />
<glyph unicode="&#xb6;" horiz-adv-x="1228" d="M127 997q0 94 24.5 170.5t69 130t107.5 90t138.5 53.5t162.5 17h458v-53h-116v-1741h-64v1741h-284v-1741h-64v891q-194 0 -313 125t-119 317z" />
<glyph unicode="&#xb7;" horiz-adv-x="491" d="M203 526v205h88v-205h-88z" />
<glyph unicode="&#xbb;" horiz-adv-x="681" d="M119 246v100l172 213l-172 221v101l225 -283v-76zM352 246v100l172 213l-172 221v101l226 -283v-76z" />
<glyph unicode="&#xf7;" horiz-adv-x="1228" d="M129 588v61h1032v-61h-1032zM604 229v205h88v-205h-88zM604 803v205h88v-205h-88z" />
<glyph unicode="&#x192;" d="M14 -346l15 70q54 -15 92 -15q87 0 139 64q55 70 105 338l137 723h-211l12 59h211l45 223q13 64 26 108t37 90t55.5 73.5t81 45t113.5 17.5q54 0 97 -8l-17 -70q-44 10 -80 10q-52 0 -91.5 -19t-63 -47.5t-41 -72t-26.5 -81t-18 -87.5q-3 -19 -5 -28l-31 -154h235 l-14 -59h-233l-156 -811q-24 -129 -49 -190t-62 -107q-73 -86 -202 -86q-49 0 -101 14z" />
<glyph unicode="&#x394;" horiz-adv-x="1288" d="M20 0l592 1458h60l598 -1458h-1250zM121 68h1044l-524 1286z" />
<glyph unicode="&#x3bc;" horiz-adv-x="833" d="M98 -365v1434h82v-688q0 -86 4 -125q7 -102 58 -155.5t141 -53.5q79 0 140.5 45t92.5 125q31 78 31 223v629h80v-1069h-78v78q0 23 3 65.5t3 49.5q-35 -106 -109 -162t-177 -56q-65 0 -122 38t-81 106q6 -41 6 -109v-375h-74z" />
<glyph unicode="&#x401;" horiz-adv-x="872" d="M121 0v1458h692v-76h-608v-585h567v-74h-567v-647h626v-76h-710zM289 1589v203h80v-203h-80zM571 1589v203h80v-203h-80z" />
<glyph unicode="&#x402;" horiz-adv-x="1228" d="M4 1382v76h885v-76h-449v-723q25 72 82 124t122 75t132 23q86 0 151.5 -25t118 -83t80 -163t27.5 -254q0 -301 -125.5 -462.5t-343.5 -169.5v79q192 17 287.5 163t95.5 390q0 136 -26.5 230t-75 141t-102.5 65.5t-124 18.5q-131 0 -215 -109.5t-84 -279.5v-422h-84v1382 h-352z" />
<glyph unicode="&#x403;" horiz-adv-x="819" d="M135 0v1458h680v-76h-596v-1382h-84zM377 1538l162 285h96l-191 -285h-67z" />
<glyph unicode="&#x404;" horiz-adv-x="1024" d="M74 725q0 76 4 143t16.5 146t33.5 143.5t57 127t84.5 104.5t119 68t156.5 26q190 0 293.5 -114t111.5 -300h-84q-8 151 -89.5 246.5t-233.5 95.5q-367 0 -381 -614h577v-74h-579q0 -676 379 -676q67 0 123 22.5t94.5 60.5t66.5 90t42 109t18 120h84q-6 -99 -35 -183 t-81.5 -150t-135.5 -103.5t-189 -37.5q-78 0 -143.5 24.5t-111.5 66t-81 101t-57 124t-35.5 141t-18.5 147t-5 146.5z" />
<glyph unicode="&#x405;" horiz-adv-x="985" d="M68 412q0 21 2 37h84v-33q0 -170 81 -269.5t248 -99.5q154 0 248 91.5t94 242.5q0 117 -60.5 187.5t-205.5 119.5l-166 57q-71 24 -122.5 53.5t-92 72t-60.5 101t-20 134.5q0 172 107.5 273.5t288.5 101.5q186 0 284 -101t101 -293h-86q0 151 -73.5 235.5t-227.5 84.5 q-141 0 -224.5 -79t-83.5 -214q0 -121 64 -188t188 -111l164 -57q62 -22 107 -44t86 -53t66 -69t39.5 -90t14.5 -117q0 -186 -117.5 -298t-312.5 -112q-202 0 -308.5 112.5t-106.5 324.5z" />
<glyph unicode="&#x406;" horiz-adv-x="335" d="M129 0v1458h84v-1458h-84z" />
<glyph unicode="&#x407;" horiz-adv-x="335" d="M-4 1589v203h80v-203h-80zM129 0v1458h84v-1458h-84zM260 1589v203h80v-203h-80z" />
<glyph unicode="&#x408;" horiz-adv-x="833" d="M51 408v20h82v-20q0 -58 4.5 -104.5t20 -96.5t41.5 -83.5t71 -55t107 -21.5q65 0 117.5 25t83.5 71q28 39 37.5 95.5t9.5 171.5v1048h84v-1048q0 -221 -62 -310q-86 -125 -278 -125q-77 0 -134.5 24.5t-92 64t-55.5 97.5t-28.5 116.5t-7.5 130.5z" />
<glyph unicode="&#x409;" horiz-adv-x="1705" d="M0 -10v69q36 -6 53 -6q82 0 123.5 41.5t61.5 149.5t26 327l25 887h639v-608h223q58 0 86 -1t74.5 -6t83.5 -18.5t73 -36.5q88 -54 132.5 -148.5t44.5 -215.5q0 -145 -72 -253.5t-178 -141.5q-100 -29 -189 -29h-362v1382h-475l-31 -915q-9 -271 -64 -378t-186 -107 q-48 0 -88 8zM928 76h264q201 0 283 100q81 97 81 250q0 124 -57 215.5t-156 118.5q-54 16 -182 16h-233v-700z" />
<glyph unicode="&#x40a;" horiz-adv-x="1705" d="M125 0v1458h84v-629h643v629h84v-629h225q109 0 162 -6q156 -23 239 -133t83 -276q0 -142 -70 -247.5t-172 -137.5q-100 -29 -186 -29h-365v756h-643v-756h-84zM936 76h262q202 0 279 94q79 94 79 246q0 124 -55 210.5t-151 112.5q-57 17 -183 17h-231v-680z" />
<glyph unicode="&#x40b;" horiz-adv-x="1228" d="M4 1382v76h885v-76h-449v-569q215 64 357 64q163 0 251.5 -89t88.5 -274v-514h-84v506q0 89 -23.5 150.5t-66 92.5t-88 43.5t-103.5 12.5q-54 0 -168 -24t-164 -44v-737h-84v1382h-352z" />
<glyph unicode="&#x40c;" horiz-adv-x="948" d="M123 0v1458h84v-749q0 -49 -4 -80q56 89 98 145l512 684h96l-458 -614l499 -844h-92l-461 776l-190 -254v-522h-84zM387 1538l162 285h96l-190 -285h-68z" />
<glyph unicode="&#x40e;" horiz-adv-x="909" d="M10 1458h92l301 -758q6 -15 21.5 -52.5t24 -59t17.5 -49t13 -43.5q13 61 80 239l260 723h84l-387 -1079q-62 -172 -92 -238q-37 -80 -86 -115.5t-125 -35.5q-55 0 -104 12v74q63 -13 88 -13q43 0 75.5 17t53 49t34.5 63.5t28 72.5q3 11 5 16l43 120zM221 1808h64 q18 -159 168 -159t168 159h63q-7 -108 -69.5 -169.5t-161.5 -61.5t-162 61.5t-70 169.5z" />
<glyph unicode="&#x40f;" horiz-adv-x="1062" d="M127 0v1458h84v-1382h641v1382h84v-1458h-363v-365h-84v365h-362z" />
<glyph unicode="&#x410;" horiz-adv-x="985" d="M-6 0l446 1458h111l440 -1458h-90l-135 449h-549l-135 -449h-88zM238 522h510l-195 649q-37 121 -59 230q-10 -75 -58 -230z" />
<glyph unicode="&#x411;" horiz-adv-x="1024" d="M137 0v1458h721v-76h-637v-553h238q59 0 85 -1t72.5 -5.5t83 -17.5t72.5 -35q84 -53 127 -145.5t43 -210.5q0 -142 -70 -247.5t-174 -137.5q-96 -29 -184 -29h-377zM221 72h275q198 0 278 98q80 95 80 246q0 123 -56 211t-153 116q-64 17 -180 17h-244v-688z" />
<glyph unicode="&#x412;" horiz-adv-x="1024" d="M127 0v1458h283q121 0 200 -8q131 -15 209 -109.5t78 -238.5q0 -139 -70 -227.5t-198 -108.5q150 -13 232.5 -108.5t82.5 -254.5q0 -192 -117 -303q-57 -55 -135 -77.5t-215 -22.5h-350zM211 70h240q119 0 194 16q97 22 155 108t58 209q0 171 -113 256q-53 40 -120 54 t-211 14h-203v-657zM211 797h207q108 0 178 12q100 19 157.5 95.5t57.5 193.5q0 78 -28.5 141t-80.5 98q-40 28 -93 38.5t-150 10.5h-248v-589z" />
<glyph unicode="&#x413;" horiz-adv-x="819" d="M135 0v1458h680v-76h-596v-1382h-84z" />
<glyph unicode="&#x414;" horiz-adv-x="1099" d="M8 76h101q210 371 210 1028v354h631v-1382h127v-441h-84v365h-901v-365h-84v441zM203 76h663v1306h-463v-362q0 -275 -53 -527.5t-147 -416.5z" />
<glyph unicode="&#x415;" horiz-adv-x="872" d="M121 0v1458h692v-76h-608v-585h567v-74h-567v-647h626v-76h-710z" />
<glyph unicode="&#x416;" horiz-adv-x="1478" d="M-2 0l463 856l-422 602h96l496 -715q2 -3 28 -43.5t43 -64.5q-4 58 -4 88v735h84v-735q0 -30 -4 -88q13 18 26.5 38t27 41t18.5 29l496 715h96l-422 -602l463 -856h-92l-422 780l-187 -264v-516h-84v516l-186 264l-422 -780h-92z" />
<glyph unicode="&#x417;" horiz-adv-x="985" d="M66 412q0 21 2 37h84v-33q0 -170 80.5 -267.5t248.5 -97.5q151 0 242.5 94.5t91.5 257.5q0 114 -49 190t-131 107q-71 25 -199 25h-71v74h90q152 0 237.5 77.5t85.5 233.5q0 139 -72.5 218t-203.5 79q-158 0 -238 -82t-80 -238h-86q0 192 106.5 293t295.5 101 q171 0 267.5 -98.5t96.5 -268.5q0 -138 -73.5 -233.5t-194.5 -114.5q146 -19 226.5 -112t80.5 -244q0 -191 -113.5 -310.5t-308.5 -119.5q-203 0 -309 110t-106 322z" />
<glyph unicode="&#x418;" horiz-adv-x="1085" d="M125 0v1458h84v-1089q0 -172 -8 -256h4l637 1345h116v-1458h-84v1151q0 105 9 207h-4l-639 -1358h-115z" />
<glyph unicode="&#x419;" horiz-adv-x="1085" d="M125 0v1458h84v-1089q0 -172 -8 -256h4l637 1345h116v-1458h-84v1151q0 105 9 207h-4l-639 -1358h-115zM311 1808h64q18 -159 168 -159t168 159h63q-7 -108 -69.5 -169.5t-161.5 -61.5t-162 61.5t-70 169.5z" />
<glyph unicode="&#x41a;" horiz-adv-x="948" d="M123 0v1458h84v-749q0 -49 -4 -80q56 89 98 145l512 684h96l-458 -614l499 -844h-92l-461 776l-190 -254v-522h-84z" />
<glyph unicode="&#x41b;" horiz-adv-x="1062" d="M0 -10v69q36 -6 53 -6q82 0 123.5 41.5t61.5 149.5t26 327l25 887h639v-1458h-84v1382h-475l-31 -915q-9 -271 -64 -378t-186 -107q-48 0 -88 8z" />
<glyph unicode="&#x41c;" horiz-adv-x="1327" d="M115 0v1458h133l338 -1085q69 -219 78 -289h2q10 74 59 231l350 1143h137v-1458h-82v1303q0 17 2 45.5t3 48.5h-5q-48 -192 -71 -267l-352 -1130h-86l-349 1102q-17 54 -41 156.5t-34 138.5h-7q7 -150 7 -258v-1139h-82z" />
<glyph unicode="&#x41d;" horiz-adv-x="1062" d="M125 0v1458h84v-641h643v641h84v-1458h-84v741h-643v-741h-84z" />
<glyph unicode="&#x41e;" horiz-adv-x="1099" d="M80 727q0 756 471 756q469 0 469 -748q0 -760 -477 -760q-463 0 -463 752zM166 727q0 -347 92 -513.5t283 -166.5q75 0 135 24.5t100.5 63.5t70.5 97.5t46 116t26 130.5t12.5 129t2.5 123q0 345 -95 512.5t-290 167.5q-74 0 -133.5 -25t-98.5 -64.5t-68 -99t-44.5 -116.5 t-24.5 -130.5t-11.5 -128t-2.5 -120.5z" />
<glyph unicode="&#x41f;" horiz-adv-x="1062" d="M127 0v1458h809v-1458h-84v1382h-641v-1382h-84z" />
<glyph unicode="&#x420;" horiz-adv-x="948" d="M113 0v1458h356q105 0 178 -22q110 -34 175 -136.5t65 -244.5q0 -135 -66.5 -241.5t-189.5 -141.5q-49 -14 -90 -18.5t-127 -4.5h-217v-649h-84zM197 721h223q110 0 178 18q94 26 147.5 111t53.5 205q0 146 -78 239q-43 51 -105 73t-165 22h-254v-668z" />
<glyph unicode="&#x421;" horiz-adv-x="1024" d="M74 725q0 758 473 758q183 0 290 -118t115 -325h-84q-6 172 -92 270.5t-231 98.5q-383 0 -383 -684q0 -343 94 -509.5t287 -166.5q155 0 241 119q93 132 99 324h86q-7 -225 -127 -381q-106 -136 -310 -136q-458 0 -458 750z" />
<glyph unicode="&#x422;" horiz-adv-x="872" d="M4 1382v76h864v-76h-387v-1382h-84v1382h-393z" />
<glyph unicode="&#x423;" horiz-adv-x="909" d="M10 1458h92l301 -758q6 -15 21.5 -52.5t24 -59t17.5 -49t13 -43.5q13 61 80 239l260 723h84l-387 -1079q-62 -172 -92 -238q-37 -80 -86 -115.5t-125 -35.5q-55 0 -104 12v74q63 -13 88 -13q19 0 35.5 4t29.5 8.5t26.5 16t22 19t18.5 24.5t15.5 25.5t14 30t11.5 29 t12 31.5t11 30l43 120z" />
<glyph unicode="&#x424;" horiz-adv-x="1366" d="M74 729q0 145 40.5 257.5t113 182t167.5 105t209 35.5h37v166h84v-166h37q114 0 209 -35.5t167.5 -105t113 -182t40.5 -257.5q0 -140 -43.5 -251t-118 -179.5t-168 -104.5t-198.5 -36h-39v-178h-84v178h-39q-105 0 -198.5 36t-168 104.5t-118 179.5t-43.5 251zM160 735 q0 -126 39 -225t104 -158.5t144 -90t165 -30.5h29v1004h-29q-100 0 -180.5 -28.5t-142.5 -87.5t-95.5 -156.5t-33.5 -227.5zM725 231h29q86 0 165 30.5t144 90t104 158.5t39 225q0 130 -33.5 227.5t-95.5 156.5t-142.5 87.5t-180.5 28.5h-29v-1004z" />
<glyph unicode="&#x425;" horiz-adv-x="948" d="M16 0l414 743l-385 715h94l273 -506q42 -76 65 -143h2q26 73 66 145l270 504h90l-383 -715l410 -743h-94l-308 563q-36 70 -55 119q-33 -78 -59 -125l-307 -557h-93z" />
<glyph unicode="&#x426;" horiz-adv-x="1085" d="M125 0v1458h84v-1382h643v1382h84v-1382h127v-441h-84v365h-854z" />
<glyph unicode="&#x427;" horiz-adv-x="1024" d="M106 985v473h84v-465q0 -89 23.5 -150.5t66 -92.5t88 -43.5t103.5 -12.5q55 0 169.5 24t164.5 44v696h84v-1458h-84v686q-212 -63 -359 -63q-164 0 -252 88.5t-88 273.5z" />
<glyph unicode="&#x428;" horiz-adv-x="1624" d="M125 0v1458h84v-1382h561v1382h84v-1382h561v1382h84v-1458h-1374z" />
<glyph unicode="&#x429;" horiz-adv-x="1648" d="M125 0v1458h84v-1382h561v1382h84v-1382h561v1382h84v-1382h127v-441h-84v365h-1417z" />
<glyph unicode="&#x42a;" horiz-adv-x="1228" d="M4 1382v76h453v-608h217q58 0 86 -1t74.5 -6t83.5 -18.5t73 -36.5q88 -54 132 -148.5t44 -215.5q0 -145 -71.5 -253.5t-177.5 -141.5q-100 -29 -189 -29h-356v1382h-369zM457 76h258q200 0 282 100q82 98 82 250q0 124 -57 215.5t-156 118.5q-54 16 -182 16h-227v-700z " />
<glyph unicode="&#x42b;" horiz-adv-x="1277" d="M125 0v1458h84v-608h217q58 0 86 -1t74.5 -6t83.5 -18.5t73 -36.5q88 -54 132.5 -148.5t44.5 -215.5q0 -145 -72 -253.5t-178 -141.5q-100 -29 -189 -29h-356zM209 76h258q201 0 283 100q81 97 81 250q0 124 -57 215.5t-156 118.5q-54 16 -182 16h-227v-700zM1069 0v1458 h84v-1458h-84z" />
<glyph unicode="&#x42c;" horiz-adv-x="968" d="M113 0v1458h84v-608h217q58 0 86 -1t74.5 -6t83.5 -18.5t73 -36.5q88 -54 132 -148.5t44 -215.5q0 -145 -72 -253.5t-178 -141.5q-100 -29 -188 -29h-356zM197 76h258q200 0 282 100q82 98 82 250q0 124 -57 215.5t-156 118.5q-54 16 -182 16h-227v-700z" />
<glyph unicode="&#x42d;" horiz-adv-x="1024" d="M57 449h84q4 -63 18 -120t42 -109t66.5 -90t94.5 -60.5t123 -22.5q186 0 282.5 169t96.5 507h-579v74h577q-14 614 -379 614q-152 0 -235.5 -96t-91.5 -246h-84q8 186 113.5 300t295.5 114q86 0 156.5 -26t118.5 -68t84 -104.5t56.5 -126.5t33 -143.5t16.5 -146.5t4 -143 q0 -114 -12.5 -215t-45 -201.5t-83 -172.5t-133 -116.5t-189.5 -44.5q-103 0 -184 37.5t-132 103.5t-79.5 150t-34.5 183z" />
<glyph unicode="&#x42e;" horiz-adv-x="1478" d="M127 0v1458h84v-657h250q17 682 469 682q469 0 469 -748q0 -760 -477 -760q-463 0 -463 750h-248v-725h-84zM545 727q0 -347 92 -513.5t283 -166.5q75 0 135 24.5t100.5 63.5t70.5 97.5t46 116t26 130.5t12.5 129t2.5 123q0 345 -95 512.5t-290 167.5q-74 0 -133.5 -25 t-98.5 -64.5t-68 -99t-44.5 -116.5t-24.5 -130.5t-11.5 -128t-2.5 -120.5z" />
<glyph unicode="&#x42f;" horiz-adv-x="1024" d="M84 0l356 633q-164 18 -251 128.5t-87 282.5q0 142 70.5 248t173.5 138q93 28 184 28h357v-1458h-84v629h-275l-352 -629h-92zM190 1042q0 -123 56 -211t153 -116q64 -17 181 -17h223v688h-254q-199 0 -279 -98q-80 -95 -80 -246z" />
<glyph unicode="&#x430;" horiz-adv-x="796" d="M61 279q0 38 5.5 70.5t13.5 58t23.5 47.5t30 37.5t39.5 30t44 23.5t51.5 19.5t55.5 16.5t61 16q106 27 139 38t54 28q34 24 34 124q0 121 -44 181.5t-167 60.5q-115 0 -169 -63.5t-56 -200.5h-78q0 330 303 330q144 0 222 -72q42 -39 55.5 -94t13.5 -187v-536 q0 -75 6 -105q9 -41 54 -41q6 0 41 7v-62q-31 -10 -66 -10q-113 0 -113 127q0 38 2 61q-71 -207 -284 -207q-129 0 -200 79.5t-71 222.5zM145 285q0 -114 53.5 -176t151.5 -62q123 0 192.5 95t69.5 264v157q0 39 2 64q-7 -11 -17 -20.5t-24.5 -17t-24.5 -12.5t-29.5 -10.5 t-27.5 -8t-30 -7.5t-25 -6q-129 -31 -174 -53q-100 -49 -114 -162q-3 -21 -3 -45z" />
<glyph unicode="&#x431;" horiz-adv-x="872" d="M92 582q0 279 36 468.5t132 288.5q32 32 72 52.5t68 27t85 15.5t84 14q45 8 69 21t30 38h77q-3 -34 -17 -60t-32 -40.5t-48.5 -25.5t-53 -15.5t-59.5 -9.5q-11 -2 -33 -5q-45 -7 -65.5 -10.5t-51.5 -12t-47.5 -19t-38 -28.5t-38 -44t-34.5 -63q-71 -145 -82 -402h7 q36 156 113.5 228.5t197.5 72.5q157 0 243.5 -135.5t86.5 -413.5q0 -280 -88 -413.5t-267 -133.5q-84 0 -146 32t-100 84.5t-61 133t-31 164.5t-8 191zM174 520q0 -475 268 -475q126 0 196.5 114.5t70.5 352.5q0 241 -61 367.5t-202 126.5q-135 0 -203.5 -118.5 t-68.5 -367.5z" />
<glyph unicode="&#x432;" horiz-adv-x="796" d="M98 0v1069h238q80 0 145 -6q97 -10 154 -80t57 -176q0 -102 -50.5 -166.5t-145.5 -79.5q110 -9 170.5 -79t60.5 -187q0 -141 -86 -221q-42 -40 -99.5 -57t-156.5 -17h-287zM180 68h174q74 0 140 12q68 15 108.5 75t40.5 146q0 119 -80 178q-35 26 -83 35.5t-152 9.5h-148 v-456zM180 592h150q82 0 129 8q69 12 109 66.5t40 134.5q0 115 -76 168q-27 19 -64 25.5t-108 6.5h-180v-409z" />
<glyph unicode="&#x433;" horiz-adv-x="659" d="M113 0v1069h546v-68h-464v-1001h-82z" />
<glyph unicode="&#x434;" horiz-adv-x="872" d="M6 68h90q150 265 150 733v268h495v-1001h111v-396h-82v328h-682v-328h-82v396zM186 68h473v933h-333v-262q0 -193 -36.5 -372t-103.5 -299z" />
<glyph unicode="&#x435;" horiz-adv-x="833" d="M72 535q0 276 90.5 416.5t267.5 140.5q332 0 332 -508v-39h-604v-31q0 -45 1.5 -82.5t8 -88t17 -90t30 -80.5t46.5 -68t67.5 -44.5t91.5 -17.5q109 0 173 77.5t79 229.5h78q0 -83 -39 -180q-38 -94 -114.5 -144.5t-180.5 -50.5q-173 0 -258.5 138.5t-85.5 421.5zM158 608 h520q0 418 -248 418q-62 0 -111 -26t-78.5 -67t-49 -96.5t-26.5 -109t-7 -109.5v-10z" />
<glyph unicode="&#x436;" horiz-adv-x="1153" d="M-4 0l346 637l-305 432h98l406 -598q-4 78 -4 150v448h79v-448q0 -72 -4 -150l406 598h98l-305 -432l346 -637h-96l-301 567l-144 -202v-365h-79v365l-144 202l-301 -567h-96z" />
<glyph unicode="&#x437;" horiz-adv-x="770" d="M61 305q0 17 2 35h78v-33q0 -120 58.5 -192t177.5 -72q106 0 171.5 70t65.5 186q0 82 -34.5 135t-92.5 74q-49 16 -143 16h-61v70h73q109 0 170.5 55t61.5 166q0 99 -52 156t-145 57q-225 0 -225 -237h-80q0 149 83 226t226 77q128 0 202.5 -73.5t74.5 -199.5 q0 -101 -55 -172t-144 -84q107 -13 167 -83.5t60 -180.5q0 -140 -86.5 -228.5t-230.5 -88.5q-155 0 -238.5 82.5t-83.5 238.5z" />
<glyph unicode="&#x438;" horiz-adv-x="860" d="M102 0v1069h82v-793q0 -61 -4 -163l475 956h103v-1069h-82v838q0 32 6 131l-479 -969h-101z" />
<glyph unicode="&#x439;" horiz-adv-x="860" d="M102 0v1069h82v-793q0 -61 -4 -163l475 956h103v-1069h-82v838q0 32 6 131l-479 -969h-101zM199 1458h59q9 -80 53.5 -121t116.5 -41t116.5 41t53.5 121h59q-7 -108 -68.5 -168.5t-160.5 -60.5t-160.5 60.5t-68.5 168.5z" />
<glyph unicode="&#x43a;" horiz-adv-x="796" d="M109 0v1069h79v-618l463 618h99l-330 -432l377 -637h-97l-333 567l-179 -233v-334h-79z" />
<glyph unicode="&#x43b;" horiz-adv-x="833" d="M-6 -6v69q30 -6 57 -6q56 0 84.5 26t45 104t20.5 233l16 649h514v-1069h-82v1001h-356l-19 -657q-6 -195 -50 -276.5t-146 -81.5q-34 0 -84 8z" />
<glyph unicode="&#x43c;" horiz-adv-x="1064" d="M104 0v1069h144l282 -975h5l282 975h144v-1069h-82v764q0 135 8 242h-8l-295 -1006h-103l-295 1006h-8q8 -107 8 -242v-764h-82z" />
<glyph unicode="&#x43d;" horiz-adv-x="833" d="M102 0v1069h82v-465h465v465h82v-1069h-82v537h-465v-537h-82z" />
<glyph unicode="&#x43e;" horiz-adv-x="872" d="M80 535q0 58 3.5 108.5t13 109t25.5 105.5t44 92.5t65 76t90 49t119 18.5q180 0 266.5 -136.5t86.5 -422.5q0 -285 -89 -421.5t-274 -136.5q-178 0 -264 137t-86 421zM162 530q0 -247 67 -367t205 -120q275 0 275 479q0 49 -1.5 87t-7.5 93.5t-16.5 97t-30.5 86 t-47.5 73.5t-70 48t-95.5 19q-141 0 -209.5 -122t-68.5 -374z" />
<glyph unicode="&#x43f;" horiz-adv-x="833" d="M102 0v1069h629v-1069h-82v1001h-465v-1001h-82z" />
<glyph unicode="&#x440;" horiz-adv-x="872" d="M109 -365v1434h75v-76q0 -80 -4 -141q29 114 104 178t179 64q334 0 334 -543q0 -574 -336 -574q-219 0 -279 226q6 -55 6 -183v-385h-79zM184 543q0 -48 1.5 -85t7.5 -91.5t16 -95.5t30 -86t47 -73.5t69 -47.5t94 -19q135 0 199.5 123t64.5 381q0 475 -260 475 q-51 0 -92.5 -17.5t-69 -45.5t-48 -70t-31.5 -82.5t-17.5 -92t-8.5 -90t-2 -83.5z" />
<glyph unicode="&#x441;" horiz-adv-x="796" d="M72 535q0 559 356 559q137 0 220.5 -88.5t92.5 -243.5h-84q-9 126 -69.5 195t-161.5 69q-138 0 -205 -119.5t-67 -365.5q0 -49 1.5 -86.5t7 -92t16 -95.5t30.5 -85.5t47 -73t69 -47t95 -18.5q61 0 109 27t76.5 73t44 98.5t18.5 110.5h80q-3 -102 -39 -185.5t-112 -137.5 t-181 -54q-173 0 -258.5 138.5t-85.5 421.5z" />
<glyph unicode="&#x442;" horiz-adv-x="739" d="M0 1001v68h739v-68h-327v-1001h-82v1001h-330z" />
<glyph unicode="&#x443;" horiz-adv-x="720" d="M20 1069h89l235 -840q24 -88 31 -145q10 81 28 147l211 838h86l-270 -1016q-58 -205 -72 -246q-32 -92 -86 -130.5t-149 -38.5q-35 0 -68 4v69q62 -4 64 -4q95 0 135 60q44 66 68 178l10 45z" />
<glyph unicode="&#x444;" horiz-adv-x="1310" d="M80 555q0 254 76 392t231 138q70 0 132 -31.5t99 -101.5q-4 82 -4 162v344h82v-344q0 -80 -4 -162q37 70 99.5 101.5t132.5 31.5q155 0 231 -138t76 -392q0 -573 -320 -573q-72 0 -131.5 33.5t-87.5 101.5q4 -58 4 -158v-324h-82v324q0 100 4 158q-28 -68 -87.5 -101.5 t-131.5 -33.5q-319 0 -319 573zM164 553q0 -502 250 -502q152 0 200 185v606q-24 84 -72.5 131t-135.5 47q-124 0 -183 -122t-59 -345zM696 236q48 -185 201 -185q250 0 250 502q0 223 -59 345t-183 122q-87 0 -136 -47t-73 -131v-606z" />
<glyph unicode="&#x445;" horiz-adv-x="720" d="M31 0l282 551l-270 518h94l187 -373q30 -63 36 -88q32 71 56 119l172 342h90l-270 -518l282 -551h-92l-192 387q-28 57 -48 105q-6 -18 -45 -103l-194 -389h-88z" />
<glyph unicode="&#x446;" horiz-adv-x="862" d="M102 0v1069h82v-1001h465v1001h82v-1001h111v-396h-82v328h-658z" />
<glyph unicode="&#x447;" horiz-adv-x="796" d="M82 719v350h82v-344q0 -62 16 -104.5t45 -63t60.5 -29t72.5 -8.5q39 0 127 15.5t127 29.5v504h82v-1069h-82v489q-65 -18 -144 -29t-126 -11q-125 0 -192.5 66.5t-67.5 203.5z" />
<glyph unicode="&#x448;" horiz-adv-x="1251" d="M102 0v1069h82v-1001h402v1001h82v-1001h401v1001h82v-1069h-1049z" />
<glyph unicode="&#x449;" horiz-adv-x="1282" d="M102 0v1069h82v-1001h402v1001h82v-1001h401v1001h82v-1001h111v-396h-82v328h-1078z" />
<glyph unicode="&#x44a;" horiz-adv-x="937" d="M0 1001v68h344v-438h223q310 0 310 -307q0 -160 -86.5 -242t-235.5 -82h-293v1001h-262zM344 68h201q248 0 248 256q0 125 -57.5 182t-184.5 57h-207v-495z" />
<glyph unicode="&#x44b;" horiz-adv-x="1024" d="M102 0v1069h82v-438h224q309 0 309 -307q0 -160 -86.5 -242t-235.5 -82h-293zM184 68h201q248 0 248 256q0 125 -57.5 182t-184.5 57h-207v-495zM840 0v1069h82v-1069h-82z" />
<glyph unicode="&#x44c;" horiz-adv-x="774" d="M98 0v1069h82v-438h223q310 0 310 -307q0 -160 -86.5 -242t-235.5 -82h-293zM180 68h201q248 0 248 256q0 125 -57.5 182t-184.5 57h-207v-495z" />
<glyph unicode="&#x44d;" horiz-adv-x="796" d="M49 342h80q4 -58 18.5 -108.5t41.5 -95t72.5 -70t105.5 -25.5q271 0 276 481h-395v66h393q-6 221 -72.5 328.5t-197.5 107.5q-100 0 -161 -67.5t-71 -190.5h-84q10 151 96 238.5t222 87.5q65 0 117.5 -19t88.5 -49.5t63 -76.5t42.5 -93t25 -105.5t12.5 -108.5t3 -107 q0 -560 -354 -560q-78 0 -139.5 30t-99.5 81.5t-59 116.5t-24 139z" />
<glyph unicode="&#x44e;" horiz-adv-x="1167" d="M102 0v1069h82v-477h191q0 72 9 137.5t34 134t64 118t104 81t149 31.5q180 0 266 -136.5t86 -422.5q0 -285 -88.5 -421.5t-273.5 -136.5q-178 0 -264 134t-86 413h-191v-524h-82zM457 530q0 -247 67 -367t205 -120q275 0 275 479q0 49 -1.5 87t-7.5 93.5t-16.5 97 t-30.5 86t-47.5 73.5t-70 48t-95.5 19q-141 0 -209.5 -122t-68.5 -374z" />
<glyph unicode="&#x44f;" horiz-adv-x="796" d="M61 0l258 475q-114 20 -174.5 98t-60.5 207q0 145 85 217t228 72h297v-1069h-82v469h-206l-254 -469h-91zM168 780q0 -243 244 -243h200v464h-170q-48 0 -84 -4.5t-73.5 -18t-61.5 -37t-39.5 -64.5t-15.5 -97z" />
<glyph unicode="&#x451;" horiz-adv-x="833" d="M72 535q0 276 90.5 416.5t267.5 140.5q332 0 332 -508v-39h-604v-31q0 -45 1.5 -82.5t8 -88t17 -90t30 -80.5t46.5 -68t67.5 -44.5t91.5 -17.5q109 0 173 77.5t79 229.5h78q0 -83 -39 -180q-38 -94 -114.5 -144.5t-180.5 -50.5q-173 0 -258.5 138.5t-85.5 421.5zM158 608 h520q0 418 -248 418q-62 0 -111 -26t-78.5 -67t-49 -96.5t-26.5 -109t-7 -109.5v-10zM246 1255v203h80v-203h-80zM528 1255v203h80v-203h-80z" />
<glyph unicode="&#x452;" horiz-adv-x="833" d="M12 1001v68h105v389h80v-389h471v-68h-471v-251q0 -21 -4 -99q40 101 112 154t172 53q65 0 114 -21.5t78 -56.5t46.5 -86t23.5 -102t6 -113v-307q0 -287 -83.5 -412t-278.5 -125q-29 0 -53 3v69q29 -2 53 -2q150 0 215.5 104.5t65.5 329.5v371q0 276 -211 276 q-74 0 -135 -42t-93 -117q-17 -41 -22.5 -85t-5.5 -136v-406h-80v1001h-105z" />
<glyph unicode="&#x453;" horiz-adv-x="669" d="M113 0v1069h557v-68h-475v-1001h-82zM252 1204l162 285h96l-191 -285h-67z" />
<glyph unicode="&#x454;" horiz-adv-x="796" d="M72 535q0 57 3 107t12.5 108.5t25 105.5t42.5 93t63 76.5t88.5 49.5t117.5 19q136 0 221.5 -87t95.5 -239h-84q-11 123 -71 190.5t-160 67.5q-131 0 -197.5 -107.5t-72.5 -328.5h393v-66h-395q5 -481 276 -481q60 0 105.5 25.5t72.5 70t41.5 95t18.5 108.5h80 q-3 -74 -24 -139t-59 -116.5t-99.5 -81.5t-139.5 -30q-354 0 -354 560z" />
<glyph unicode="&#x455;" horiz-adv-x="720" d="M45 330v12h78v-12q0 -75 12 -131q15 -72 74 -114t145 -42q107 0 168.5 60t63.5 165q1 46 -14.5 83.5t-31.5 59.5t-58.5 46.5t-61.5 32.5t-76 30q-13 5 -20 8q-65 25 -103 44t-77.5 52t-57.5 80t-18 113q0 128 77.5 201.5t212.5 73.5q144 0 212.5 -78.5t68.5 -222.5v-23 h-80v14q0 126 -49.5 185t-153.5 59q-98 0 -153.5 -53.5t-55.5 -147.5q0 -41 11 -72.5t26.5 -52.5t45.5 -40.5t55 -31t69 -28.5q136 -52 185 -83q112 -71 125 -198q2 -18 2 -38q0 -143 -83.5 -224.5t-232.5 -81.5q-148 0 -233 88q-72 78 -72 267z" />
<glyph unicode="&#x456;" horiz-adv-x="303" d="M111 0v1069h82v-1069h-82zM111 1255v203h82v-203h-82z" />
<glyph unicode="&#x457;" horiz-adv-x="303" d="M-20 1255v203h79v-203h-79zM111 0v1069h82v-1069h-82zM244 1255v203h80v-203h-80z" />
<glyph unicode="&#x458;" horiz-adv-x="303" d="M-74 -293q29 -2 56 -2q28 0 49 5.5t35.5 12t24 22t14.5 26.5t7.5 36t3 38.5t1.5 45.5q0 21 1 69.5t1 72.5v1036h80v-1085q0 -137 -4 -170q-14 -122 -98 -160q-44 -19 -109 -19q-38 0 -62 3v69zM119 1255v203h80v-203h-80z" />
<glyph unicode="&#x459;" horiz-adv-x="1325" d="M-6 -6v69q30 -6 57 -6q56 0 84.5 26t45 104t20.5 233l16 649h514v-446h223q48 0 90.5 -8.5t84 -30.5t70.5 -56.5t47 -90t18 -126.5q0 -153 -86.5 -232t-235.5 -79h-293v1001h-356l-19 -657q-6 -195 -50 -276.5t-146 -81.5q-34 0 -84 8zM731 68h201q121 0 184.5 62 t63.5 185q0 121 -58 180.5t-184 59.5h-207v-487z" />
<glyph unicode="&#x45a;" horiz-adv-x="1325" d="M102 0v1069h82v-455h465v455h82v-455h203q48 0 92 -8t88.5 -30t77 -55.5t52.5 -88.5t20 -125q0 -150 -91 -228.5t-239 -78.5h-285v547h-465v-547h-82zM731 68h213q103 0 169.5 60t66.5 177q0 122 -67.5 182t-170.5 60h-211v-479z" />
<glyph unicode="&#x45b;" horiz-adv-x="833" d="M12 1001v68h105v389h80v-389h471v-68h-471v-251q0 -21 -4 -99q40 101 112 154t172 53q64 0 118.5 -24.5t88.5 -67.5q35 -44 48 -104t13 -183v-479h-81v510q0 82 -9 122.5t-34 76.5q-25 35 -70.5 56t-97.5 21q-74 0 -135 -42t-93 -117q-17 -41 -22.5 -85t-5.5 -136v-406 h-80v1001h-105z" />
<glyph unicode="&#x45c;" horiz-adv-x="796" d="M109 0v1069h79v-618l463 618h99l-330 -432l377 -637h-97l-333 567l-179 -233v-334h-79zM334 1204l162 285h96l-191 -285h-67z" />
<glyph unicode="&#x45e;" horiz-adv-x="720" d="M20 1069h89l235 -840q24 -88 31 -145q10 81 28 147l211 838h86l-270 -1016q-58 -205 -72 -246q-32 -92 -86 -130.5t-149 -38.5q-35 0 -68 4v69q62 -4 64 -4q95 0 135 60q44 66 68 178l10 45zM129 1458h59q9 -80 53.5 -121t116.5 -41t116.5 41t53.5 121h60 q-7 -108 -69 -168.5t-161 -60.5t-160.5 60.5t-68.5 168.5z" />
<glyph unicode="&#x45f;" horiz-adv-x="833" d="M102 0v1069h82v-1001h465v1001h82v-1069h-274v-328h-82v328h-273z" />
<glyph unicode="&#x490;" horiz-adv-x="819" d="M135 0v1458h596v326h84v-402h-596v-1382h-84z" />
<glyph unicode="&#x491;" horiz-adv-x="669" d="M113 0v1069h475v297h82v-365h-475v-1001h-82z" />
<glyph unicode="&#x2000;" horiz-adv-x="911" />
<glyph unicode="&#x2001;" horiz-adv-x="1823" />
<glyph unicode="&#x2002;" horiz-adv-x="911" />
<glyph unicode="&#x2003;" horiz-adv-x="1823" />
<glyph unicode="&#x2004;" horiz-adv-x="607" />
<glyph unicode="&#x2005;" horiz-adv-x="455" />
<glyph unicode="&#x2006;" horiz-adv-x="303" />
<glyph unicode="&#x2007;" horiz-adv-x="303" />
<glyph unicode="&#x2008;" horiz-adv-x="227" />
<glyph unicode="&#x2009;" horiz-adv-x="364" />
<glyph unicode="&#x200a;" horiz-adv-x="101" />
<glyph unicode="&#x2010;" horiz-adv-x="645" d="M127 522v74h389v-74h-389z" />
<glyph unicode="&#x2011;" horiz-adv-x="645" d="M127 522v74h389v-74h-389z" />
<glyph unicode="&#x2012;" horiz-adv-x="645" d="M127 522v74h389v-74h-389z" />
<glyph unicode="&#x2013;" horiz-adv-x="1024" d="M0 524v72h1024v-72h-1024z" />
<glyph unicode="&#x2014;" horiz-adv-x="2048" d="M0 524v72h2048v-72h-2048z" />
<glyph unicode="&#x2018;" horiz-adv-x="376" d="M143 1016v180q0 109 23 179.5t98 111.5v-76q-22 -19 -35.5 -41.5t-18.5 -54.5t-6 -50t-1 -59h28v-190h-88z" />
<glyph unicode="&#x2019;" horiz-adv-x="376" d="M113 987v76q22 19 35.5 41.5t18.5 54.5t6 50t1 59h-29v190h88v-180q0 -53 -3.5 -88.5t-14.5 -77t-36.5 -72.5t-65.5 -53z" />
<glyph unicode="&#x201a;" horiz-adv-x="376" d="M113 -205q22 19 35.5 41.5t18.5 54.5t6 50t1 59h-29v190h88v-180q0 -53 -3.5 -88.5t-14.5 -77t-36.5 -72.5t-65.5 -53v76z" />
<glyph unicode="&#x201c;" horiz-adv-x="606" d="M139 1016v180q0 109 23 179.5t98 111.5v-76q-22 -19 -35.5 -41.5t-18.5 -54.5t-6 -50t-1 -59h28v-190h-88zM367 1016v180q0 53 3.5 88.5t14.5 77t36.5 72.5t65.5 53v-76q-22 -19 -35.5 -41.5t-18.5 -54.5t-6 -50t-1 -59h29v-190h-88z" />
<glyph unicode="&#x201d;" horiz-adv-x="606" d="M117 987v76q22 19 35.5 41.5t18.5 54.5t6 50t1 59h-28v190h88v-180q0 -109 -23 -179.5t-98 -111.5zM344 987v76q22 19 36 42t19 54t6 50.5t1 58.5h-29v190h88v-180q0 -109 -23 -179.5t-98 -111.5z" />
<glyph unicode="&#x201e;" horiz-adv-x="606" d="M115 -190q22 19 35.5 41.5t18.5 54t6 49.5t1 59h-29v191h89v-180q0 -109 -23 -179.5t-98 -111.5v76zM342 -190q22 19 35.5 41.5t18.5 54t6 49.5t1 59h-28v191h88v-180q0 -109 -23 -179.5t-98 -111.5v76z" />
<glyph unicode="&#x2020;" d="M84 913v72h369v473h79v-473h367v-72h-367v-1224h-79v1224h-369z" />
<glyph unicode="&#x2021;" d="M84 133v68h369v755h-369v70h369v432h79v-432h367v-70h-367v-755h367v-68h-367v-446h-79v446h-369z" />
<glyph unicode="&#x2022;" horiz-adv-x="1024" d="M147 729q0 152 107 258.5t258 106.5q152 0 258.5 -107t106.5 -258t-107 -257.5t-258 -106.5t-258 106.5t-107 257.5z" />
<glyph unicode="&#x2026;" horiz-adv-x="2048" d="M299 0v205h88v-205h-88zM981 0v205h88v-205h-88zM1663 0v205h88v-205h-88z" />
<glyph unicode="&#x202f;" horiz-adv-x="364" />
<glyph unicode="&#x2030;" horiz-adv-x="1972" d="M117 1081q0 60 4.5 107t20 99t41.5 86t73.5 56.5t112.5 22.5q63 0 109 -20t72.5 -51t42 -79.5t20.5 -95.5t5 -108q0 -191 -62.5 -280t-195.5 -89q-60 0 -105 20.5t-71 52.5t-41.5 80.5t-20.5 94.5t-5 104zM190 1085q0 -155 42 -224.5t133 -69.5q36 0 64 11.5t46.5 28.5 t31.5 45t20 53t10.5 60.5t4.5 59t1 57.5q0 153 -40.5 219t-135.5 66q-91 0 -134 -74t-43 -232zM350 -27l615 1495h69l-616 -1495h-68zM770 338q0 60 4.5 107t20 99t41.5 86t73.5 56.5t112.5 22.5q63 0 109 -20t73 -51.5t42.5 -80t20.5 -95.5t5 -108q0 -190 -62 -279 t-196 -89q-60 0 -105 20.5t-71 52.5t-42 80.5t-21 94.5t-5 104zM844 342q0 -155 41.5 -225t132.5 -70q36 0 64 11.5t46.5 28.5t31.5 45t20 53t10.5 60.5t4.5 59t1 57.5q0 153 -40.5 219t-135.5 66q-91 0 -133.5 -73.5t-42.5 -231.5zM1370 338q0 60 4.5 107t20 99t41.5 86 t73.5 56.5t112.5 22.5q63 0 109 -20t73 -51.5t42.5 -80t20.5 -95.5t5 -108q0 -190 -62 -279t-196 -89q-60 0 -105 20.5t-71 52.5t-42 80.5t-21 94.5t-5 104zM1444 342q0 -155 41.5 -225t132.5 -70q36 0 64 11.5t46.5 28.5t31.5 45t20 53t10.5 60.5t4.5 59t1 57.5 q0 153 -40.5 219t-135.5 66q-91 0 -133.5 -73.5t-42.5 -231.5z" />
<glyph unicode="&#x2039;" horiz-adv-x="454" d="M104 522v76l226 283v-101l-172 -221l172 -213v-100z" />
<glyph unicode="&#x203a;" horiz-adv-x="454" d="M119 246v100l172 213l-172 221v101l225 -283v-76z" />
<glyph unicode="&#x205f;" horiz-adv-x="455" />
<glyph unicode="&#x20ac;" d="M8 561l29 70h125q-3 79 0 168h-154l29 69h129q17 325 158 473q62 64 133 86.5t161 22.5q160 0 252 -61q73 -50 113 -123l-41 -90q-40 95 -119 149q-82 55 -200 55q-154 0 -240 -88q-117 -119 -131 -424h571l-28 -69h-547q-3 -84 0 -168h481l-29 -70h-450 q12 -311 149 -434q88 -82 230 -82q108 0 192 51q90 52 142 142v-123q-62 -65 -129 -95q-95 -45 -216 -45q-89 0 -155 20t-127 77q-163 152 -172 489h-156z" />
<glyph unicode="&#x2116;" horiz-adv-x="1669" d="M115 0v1427h112l559 -1128q53 -118 82 -213h4q-8 84 -8 233v1108h82v-1427h-110l-537 1096q-48 95 -106 252h-5q9 -102 9 -177v-1171h-82zM1073 0v68h486v-68h-486zM1073 582q0 172 62 261t182 89q118 0 178.5 -86t60.5 -254q0 -167 -62.5 -253.5t-182.5 -86.5 q-117 0 -177.5 84.5t-60.5 245.5zM1147 584q0 -135 43 -202t121 -67q170 0 170 277q0 276 -166 276q-80 0 -124 -70.5t-44 -213.5z" />
<glyph unicode="&#x2122;" horiz-adv-x="2048" d="M207 1407v51h584v-51h-265v-678h-55v678h-264zM942 729v729h82l258 -657l260 657h80v-729h-49v668l-264 -668h-54l-262 668v-668h-51z" />
<glyph unicode="&#x2219;" horiz-adv-x="491" d="M203 526v205h88v-205h-88z" />
<glyph unicode="&#x221a;" horiz-adv-x="948" d="M-31 317l150 74l354 -735l416 1946h67l-440 -2046h-65l-365 749l-90 -43z" />
<glyph unicode="&#x221e;" horiz-adv-x="1478" d="M96 621q0 113 70.5 191.5t181.5 78.5q28 0 57.5 -7t52 -14.5t54 -26.5t48 -29t50 -37.5t44 -36.5t45.5 -40.5t40 -35.5q115 106 170 145q117 82 215 82q114 0 186 -75.5t72 -190.5q0 -119 -70 -196t-188 -77q-33 0 -64 6t-64 22.5l-54 27t-57 39.5t-48.5 39.5t-52 46.5 t-45.5 42q-19 -16 -56 -49.5t-58.5 -52t-58 -44.5t-65.5 -40t-68 -24.5t-79 -10.5q-116 0 -187 75t-71 192zM164 623q0 -91 50.5 -146t139.5 -55q46 0 92 17t95 52.5t76.5 59t74.5 67.5q-2 2 -30 27t-35.5 31t-34.5 29t-40 31.5t-38 26t-42.5 25t-41 17.5t-44.5 14t-42 4 q-81 0 -130.5 -59t-49.5 -141zM784 618q11 -9 47.5 -41t54 -47t52.5 -40t60.5 -37.5t59.5 -22.5t66 -10q90 0 140.5 56t50.5 147q0 86 -51 143t-136 57q-18 0 -37.5 -4t-36 -9t-39 -17t-36 -19t-37 -24.5t-34 -25t-35 -28.5t-31 -26.5t-31.5 -27.5t-27 -24z" />
<glyph unicode="&#x2248;" horiz-adv-x="1228" d="M86 319q12 94 75 165t163 71q28 0 71.5 -8.5t95.5 -24.5t91.5 -29t91 -31.5t61.5 -21.5q115 -39 166 -39q69 0 117 48.5t67 119.5h56q-17 -97 -78.5 -166t-159.5 -69q-34 0 -92.5 14t-105.5 29t-113.5 38.5t-83.5 28.5q-5 2 -33 11.5t-40 13t-34.5 9.5t-40.5 8.5t-34 2.5 q-68 0 -117.5 -50t-65.5 -120h-57zM86 655q12 94 75 165t163 71q28 0 71.5 -8.5t95.5 -24.5t91.5 -29t91 -31.5t61.5 -21.5q115 -39 166 -39q69 0 117 48.5t67 119.5h56q-17 -97 -78.5 -166t-159.5 -69q-34 0 -92.5 14t-105.5 29t-113.5 38.5t-83.5 28.5q-5 2 -33 11.5 t-40 13t-34.5 9.5t-40.5 8.5t-34 2.5q-68 0 -117.5 -50t-65.5 -120h-57z" />
<glyph unicode="&#x2260;" horiz-adv-x="1228" d="M113 408v59h379l167 313h-546v62h581l154 291l55 -29l-141 -262h352v-62h-385l-168 -313h553v-59h-586l-155 -289l-54 28l140 261h-346z" />
<glyph unicode="&#x2264;" horiz-adv-x="1228" d="M113 0v68h1001v-68h-1001zM113 561v74l1001 409v-73l-911 -373l911 -369v-75z" />
<glyph unicode="&#x2265;" horiz-adv-x="1228" d="M113 0v68h1001v-68h-1001zM113 154v75l913 369l-913 373v73l1001 -409v-74z" />
<glyph unicode="&#x25fc;" horiz-adv-x="1070" d="M0 0v1070h1070v-1070h-1070z" />
<glyph unicode="&#xf8ff;" horiz-adv-x="1048" d="M0 0v1470h1049v-1470h-1049zM102 102h844v1264h-844v-1264zM254 967q13 141 87 210.5t189 69.5q110 0 182 -74t72 -194q0 -69 -27 -123t-102 -123q-77 -68 -88 -106q-12 -41 -12 -148h-94l-4 35q0 115 26 166q28 54 95 121q63 60 82.5 94.5t19.5 75.5q0 73 -46 123.5 t-110 50.5q-67 0 -112 -47.5t-56 -147.5zM455 240v137h114v-137h-114z" />
</font>
</defs>
</svg>
